<svg width="186" height="62" viewBox="0 0 186 62" fill="none" xmlns="http://www.w3.org/2000/svg">
<g clip-path="url(#clip0_1_465)">
<path d="M171.188 -4.26406e-05H14.8202C14.2503 -4.26406e-05 13.6871 -4.26405e-05 13.1186 0.00305736C12.6428 0.00615736 12.1707 0.0151629 11.6903 0.0227424C10.6465 0.0349902 9.60528 0.126556 8.57551 0.296643C7.54719 0.470433 6.55108 0.798077 5.62088 1.26849C4.69181 1.74289 3.84289 2.35932 3.10493 3.09542C2.36308 3.82944 1.7447 4.67788 1.27356 5.60811C0.801113 6.53648 0.473518 7.53131 0.302088 8.55825C0.129028 9.58389 0.035903 10.6214 0.0235484 11.6614C0.00912404 12.1366 0.00760078 12.6134 0 13.0887V48.9158C0.00760078 49.3971 0.00912404 49.8633 0.0235484 50.3447C0.0359068 51.3847 0.129032 52.4221 0.302088 53.4477C0.473045 54.4752 0.800659 55.4706 1.27356 56.3993C1.74449 57.3266 2.36296 58.1716 3.10493 58.9015C3.84009 59.6409 4.68956 60.2577 5.62088 60.7285C6.55107 61.2002 7.54707 61.5298 8.57551 61.7062C9.60545 61.875 10.6466 61.9666 11.6903 61.9803C12.1707 61.9908 12.6428 61.9969 13.1186 61.9969C13.6871 62 14.2503 62 14.8202 62H171.188C171.747 62 172.314 62 172.873 61.9969C173.347 61.9969 173.832 61.9908 174.306 61.9803C175.348 61.9673 176.387 61.8757 177.415 61.7062C178.446 61.5285 179.446 61.199 180.381 60.7285C181.311 60.2575 182.16 59.6406 182.894 58.9015C183.634 58.1687 184.254 57.3243 184.731 56.3993C185.2 55.4699 185.525 54.4746 185.693 53.4477C185.867 52.4219 185.963 51.3848 185.982 50.3447C185.988 49.8633 185.988 49.3971 185.988 48.9158C186 48.3527 186 47.7927 186 47.2204V14.781C186 14.2133 186 13.6502 185.988 13.0887C185.988 12.6134 185.988 12.1366 185.982 11.6613C185.963 10.6212 185.867 9.58397 185.693 8.55819C185.524 7.53184 185.2 6.53709 184.731 5.60804C183.772 3.74351 182.25 2.2258 180.381 1.26835C179.446 0.799087 178.446 0.47153 177.415 0.296503C176.387 0.125667 175.348 0.0340694 174.306 0.0225254C173.832 0.0149614 173.347 0.00587836 172.873 0.00285586C172.314 -0.000244141 171.747 -0.000244141 171.188 -0.000244141V-4.26406e-05Z" fill="#A6A6A6"/>
<path d="M13.1262 60.6437C12.6527 60.6437 12.1905 60.6377 11.7206 60.6271C10.7473 60.6145 9.7762 60.53 8.81535 60.3743C7.9194 60.2204 7.05148 59.9342 6.24019 59.5251C5.43635 59.1193 4.70317 58.5873 4.06876 57.9493C3.42517 57.3189 2.88935 56.5877 2.48253 55.7848C2.07123 54.9766 1.78659 54.1103 1.63852 53.2161C1.47861 52.2553 1.3921 51.2837 1.37972 50.3098C1.36987 49.983 1.35696 48.8945 1.35696 48.8945V13.0887C1.35696 13.0887 1.3707 12.017 1.3798 11.7021C1.39165 10.7298 1.47766 9.75976 1.63709 8.80043C1.78543 7.90379 2.0703 7.03501 2.48182 6.22418C2.88714 5.42176 3.41998 4.69003 4.0597 4.05736C4.6987 3.41866 5.43422 2.88389 6.23943 2.47253C7.04885 2.0647 7.91514 1.78049 8.80927 1.62942C9.77327 1.4722 10.7477 1.3872 11.7245 1.37513L13.127 1.3562H172.865L174.285 1.37589C175.253 1.38735 176.218 1.4716 177.173 1.6279C178.076 1.78086 178.952 2.06706 179.77 2.47707C181.384 3.30608 182.696 4.61765 183.524 6.22796C183.929 7.0332 184.21 7.89489 184.356 8.78379C184.517 9.75099 184.608 10.7286 184.626 11.709C184.631 12.1479 184.631 12.6194 184.631 13.0887C184.643 13.6699 184.643 14.2232 184.643 14.781V47.2204C184.643 47.7835 184.643 48.333 184.631 48.887C184.631 49.391 184.631 49.8528 184.625 50.328C184.607 51.2908 184.518 52.251 184.359 53.2009C184.214 54.1016 183.931 54.9746 183.52 55.7894C183.11 56.5837 182.577 57.3085 181.941 57.9372C181.306 58.5786 180.572 59.1138 179.766 59.5221C178.95 59.9344 178.076 60.2217 177.173 60.3743C176.213 60.5308 175.241 60.6153 174.268 60.6271C173.813 60.6377 173.336 60.6437 172.873 60.6437L171.188 60.6468L13.1262 60.6437Z" fill="black"/>
<path d="M38.4996 31.4659C38.5163 30.1721 38.8609 28.9036 39.5013 27.7784C40.1417 26.6532 41.0572 25.7078 42.1625 25.0302C41.4603 24.0302 40.534 23.2072 39.4571 22.6266C38.3802 22.0461 37.1824 21.7239 35.9588 21.6858C33.3487 21.4126 30.8183 23.2432 29.4882 23.2432C28.1324 23.2432 26.0845 21.7129 23.8793 21.7581C22.4529 21.8041 21.0628 22.2177 19.8444 22.9587C18.626 23.6997 17.6208 24.7428 16.9268 25.9863C13.9207 31.1764 16.163 38.804 19.0426 42.9992C20.4833 45.0535 22.1671 47.3482 24.3704 47.2669C26.5263 47.1777 27.3316 45.8959 29.934 45.8959C32.5123 45.8959 33.2678 47.2669 35.5157 47.2151C37.8291 47.1777 39.2867 45.1517 40.6769 43.078C41.7121 41.6142 42.5086 39.9964 43.0371 38.2846C41.693 37.7177 40.546 36.7688 39.7391 35.5563C38.9322 34.3437 38.5011 32.9211 38.4996 31.4659V31.4659Z" fill="white"/>
<path d="M34.2537 18.9268C35.5151 17.4168 36.1365 15.4759 35.986 13.5164C34.0589 13.7182 32.2787 14.6367 31.0003 16.0888C30.3752 16.7981 29.8965 17.6234 29.5915 18.5174C29.2864 19.4114 29.1611 20.3566 29.2226 21.2989C30.1865 21.3088 31.1401 21.1005 32.0116 20.6896C32.883 20.2787 33.6496 19.676 34.2537 18.9268Z" fill="white"/>
<path d="M65.7526 42.0664H58.3952L56.6284 47.2689H53.5121L60.4809 28.021H63.7186L70.6874 47.2689H67.5179L65.7526 42.0664ZM59.1572 39.6657H64.9891L62.1142 31.2224H62.0338L59.1572 39.6657Z" fill="white"/>
<path d="M85.7375 40.253C85.7375 44.6139 83.3969 47.4157 79.8647 47.4157C78.9699 47.4624 78.0801 47.2568 77.297 46.8226C76.5139 46.3884 75.8693 45.7431 75.4369 44.9605H75.3701V51.9113H72.4815V33.2356H75.2775V35.5697H75.3307C75.7829 34.7909 76.4384 34.1489 77.2275 33.712C78.0165 33.2751 78.9095 33.0598 79.8116 33.0888C83.3832 33.0888 85.7375 35.9042 85.7375 40.253ZM82.7685 40.253C82.7685 37.4118 81.2961 35.544 79.0496 35.544C76.8425 35.544 75.358 37.4512 75.358 40.253C75.358 43.0805 76.8425 44.9741 79.0496 44.9741C81.2961 44.9741 82.7685 43.1199 82.7685 40.253Z" fill="white"/>
<path d="M101.226 40.253C101.226 44.6139 98.8858 47.4157 95.3536 47.4157C94.4588 47.4623 93.5689 47.2568 92.7858 46.8226C92.0028 46.3884 91.3582 45.743 90.9258 44.9605H90.8589V51.9113H87.9703V33.2356H90.7663V35.5697H90.8195C91.2717 34.7908 91.9272 34.1489 92.7163 33.712C93.5053 33.2751 94.3984 33.0598 95.3004 33.0888C98.8721 33.0888 101.226 35.9042 101.226 40.253ZM98.2573 40.253C98.2573 37.4118 96.7849 35.5439 94.5384 35.5439C92.3314 35.5439 90.8468 37.4512 90.8468 40.253C90.8468 43.0805 92.3314 44.9741 94.5384 44.9741C96.785 44.9741 98.2573 43.1199 98.2573 40.253H98.2573Z" fill="white"/>
<path d="M111.463 41.9058C111.677 43.8146 113.537 45.0678 116.078 45.0678C118.513 45.0678 120.264 43.8145 120.264 42.0935C120.264 40.5995 119.208 39.7049 116.706 39.0919L114.205 38.4909C110.66 37.6372 109.015 35.9843 109.015 33.3021C109.015 29.9811 111.917 27.7 116.038 27.7C120.117 27.7 122.913 29.9811 123.007 33.3021H120.091C119.917 31.3812 118.324 30.2217 115.997 30.2217C113.67 30.2217 112.078 31.3948 112.078 33.1023C112.078 34.463 113.095 35.2638 115.583 35.8768L117.709 36.3975C121.67 37.3314 123.315 38.9178 123.315 41.7332C123.315 45.3342 120.439 47.5896 115.864 47.5896C111.583 47.5896 108.693 45.3872 108.506 41.9057L111.463 41.9058Z" fill="white"/>
<path d="M129.549 29.9148V33.2358H132.225V35.5169H129.549V43.2533C129.549 44.4551 130.085 45.0152 131.262 45.0152C131.579 45.0097 131.896 44.9874 132.212 44.9485V47.216C131.683 47.3146 131.145 47.3592 130.607 47.3492C127.758 47.3492 126.647 46.2821 126.647 43.5605V35.5169H124.601V33.2358H126.647V29.9148H129.549Z" fill="white"/>
<path d="M133.775 40.2529C133.775 35.8376 136.383 33.063 140.45 33.063C144.53 33.063 147.125 35.8375 147.125 40.2529C147.125 44.6804 144.543 47.4429 140.45 47.4429C136.357 47.4429 133.775 44.6804 133.775 40.2529ZM144.182 40.2529C144.182 37.2241 142.79 35.4364 140.45 35.4364C138.109 35.4364 136.719 37.2377 136.719 40.2529C136.719 43.2939 138.109 45.0679 140.45 45.0679C142.79 45.0679 144.182 43.2939 144.182 40.2529H144.182Z" fill="white"/>
<path d="M149.507 33.2355H152.262V35.624H152.329C152.515 34.878 152.953 34.2188 153.57 33.757C154.186 33.2953 154.943 33.0593 155.714 33.0886C156.047 33.0875 156.379 33.1235 156.703 33.1961V35.8904C156.283 35.7624 155.845 35.7036 155.406 35.7164C154.986 35.6994 154.568 35.7732 154.179 35.9326C153.791 36.0921 153.442 36.3335 153.156 36.6402C152.87 36.947 152.654 37.3118 152.523 37.7096C152.391 38.1075 152.348 38.5289 152.396 38.945V47.2687H149.507L149.507 33.2355Z" fill="white"/>
<path d="M170.022 43.1471C169.633 45.6946 167.145 47.4429 163.962 47.4429C159.868 47.4429 157.327 44.7077 157.327 40.3195C157.327 35.9178 159.882 33.063 163.841 33.063C167.734 33.063 170.183 35.7301 170.183 39.985V40.9719H160.243V41.146C160.197 41.6624 160.262 42.1827 160.433 42.6723C160.605 43.1618 160.878 43.6095 161.236 43.9854C161.595 44.3613 162.029 44.657 162.51 44.8528C162.992 45.0486 163.509 45.14 164.029 45.1209C164.712 45.1847 165.397 45.027 165.982 44.6714C166.568 44.3157 167.022 43.7811 167.279 43.1471L170.022 43.1471ZM160.257 38.9587H167.292C167.318 38.4944 167.248 38.0297 167.085 37.5938C166.922 37.1579 166.671 36.7603 166.347 36.4258C166.023 36.0914 165.633 35.8274 165.202 35.6503C164.77 35.4733 164.307 35.3871 163.841 35.3971C163.37 35.3943 162.904 35.4844 162.469 35.6622C162.033 35.8401 161.638 36.1021 161.305 36.4333C160.971 36.7644 160.707 37.1581 160.527 37.5915C160.348 38.025 160.256 38.4897 160.257 38.9588V38.9587Z" fill="white"/>
<path d="M58.7952 13.533C59.4008 13.4896 60.0085 13.5809 60.5745 13.8001C61.1404 14.0193 61.6505 14.361 62.068 14.8007C62.4855 15.2403 62.7999 15.7668 62.9886 16.3423C63.1773 16.9177 63.2356 17.5278 63.1592 18.1285C63.1592 21.0831 61.5578 22.7816 58.7952 22.7816H55.4452V13.533H58.7952ZM56.8857 21.4736H58.6343C59.067 21.4994 59.5001 21.4286 59.902 21.2665C60.3038 21.1043 60.6644 20.8549 60.9574 20.5362C61.2503 20.2176 61.4684 19.8379 61.5956 19.4246C61.7229 19.0113 61.7561 18.575 61.6929 18.1473C61.7515 17.7213 61.7149 17.2877 61.5857 16.8774C61.4565 16.4672 61.2379 16.0906 60.9456 15.7745C60.6533 15.4584 60.2945 15.2107 59.8949 15.0491C59.4953 14.8875 59.0648 14.8161 58.6343 14.8399H56.8857V21.4736Z" fill="white"/>
<path d="M64.7864 19.2886C64.7424 18.8299 64.795 18.3672 64.9409 17.93C65.0868 17.4928 65.3226 17.0908 65.6334 16.7498C65.9442 16.4088 66.323 16.1364 66.7456 15.95C67.1681 15.7635 67.6251 15.6672 68.0871 15.6672C68.5492 15.6672 69.0062 15.7635 69.4287 15.95C69.8513 16.1364 70.2301 16.4088 70.5409 16.7498C70.8517 17.0908 71.0875 17.4928 71.2334 17.93C71.3793 18.3672 71.4319 18.8299 71.3879 19.2886C71.4327 19.7478 71.3807 20.2112 71.2352 20.6491C71.0898 21.087 70.854 21.4897 70.5432 21.8314C70.2323 22.173 69.8532 22.446 69.4302 22.6329C69.0073 22.8197 68.5498 22.9162 68.0871 22.9162C67.6245 22.9162 67.167 22.8197 66.7441 22.6329C66.3211 22.446 65.942 22.173 65.6311 21.8314C65.3203 21.4897 65.0845 21.087 64.9391 20.6491C64.7936 20.2112 64.7416 19.7478 64.7864 19.2886V19.2886ZM69.9671 19.2886C69.9671 17.7757 69.2855 16.891 68.0894 16.891C66.8888 16.891 66.2133 17.7757 66.2133 19.2886C66.2133 20.8137 66.8888 21.6916 68.0894 21.6916C69.2856 21.6916 69.9671 20.8076 69.9671 19.2886H69.9671Z" fill="white"/>
<path d="M80.163 22.7813H78.73L77.2835 17.6409H77.1742L75.7337 22.7813H74.3144L72.3851 15.8018H73.7862L75.04 21.1276H75.1432L76.5822 15.8018H77.9073L79.3463 21.1276H79.4556L80.7033 15.8018H82.0846L80.163 22.7813Z" fill="white"/>
<path d="M83.7073 15.802H85.037V16.9108H85.1402C85.3153 16.5125 85.6107 16.1787 85.9851 15.9558C86.3595 15.7329 86.7943 15.632 87.2289 15.6673C87.5694 15.6417 87.9114 15.6929 88.2294 15.8171C88.5474 15.9412 88.8334 16.1352 89.066 16.3845C89.2987 16.6338 89.4721 16.9321 89.5735 17.2573C89.6748 17.5825 89.7015 17.9263 89.6515 18.2632V22.7815H88.2702V18.6091C88.2702 17.4875 87.7814 16.9297 86.7599 16.9297C86.5286 16.9189 86.2978 16.9582 86.0832 17.0447C85.8686 17.1313 85.6753 17.263 85.5166 17.431C85.3579 17.599 85.2374 17.7993 85.1636 18.018C85.0897 18.2368 85.0641 18.4689 85.0886 18.6984V22.7815H83.7073L83.7073 15.802Z" fill="white"/>
<path d="M91.8525 13.0771H93.2338V22.7813H91.8525V13.0771Z" fill="white"/>
<path d="M95.1539 19.2888C95.11 18.83 95.1626 18.3672 95.3085 17.93C95.4544 17.4928 95.6903 17.0908 96.0011 16.7498C96.312 16.4088 96.6908 16.1364 97.1134 15.95C97.536 15.7635 97.993 15.6672 98.455 15.6672C98.9171 15.6672 99.3741 15.7635 99.7967 15.95C100.219 16.1364 100.598 16.4088 100.909 16.7498C101.22 17.0908 101.456 17.4928 101.602 17.93C101.747 18.3672 101.8 18.83 101.756 19.2888C101.801 19.7479 101.749 20.2113 101.603 20.6493C101.458 21.0872 101.222 21.4899 100.911 21.8315C100.6 22.1731 100.221 22.4461 99.7982 22.633C99.3752 22.8198 98.9177 22.9163 98.455 22.9163C97.9924 22.9163 97.5349 22.8198 97.1119 22.633C96.6889 22.4461 96.3098 22.1731 95.9989 21.8315C95.688 21.4899 95.4522 21.0872 95.3067 20.6493C95.1612 20.2113 95.1092 19.7479 95.1539 19.2888V19.2888ZM100.335 19.2888C100.335 17.7758 99.653 16.8911 98.4569 16.8911C97.2563 16.8911 96.5808 17.7758 96.5808 19.2888C96.5808 20.8138 97.2563 21.6917 98.4569 21.6917C99.653 21.6917 100.335 20.8077 100.335 19.2888H100.335Z" fill="white"/>
<path d="M103.21 20.8077C103.21 19.5513 104.148 18.827 105.814 18.7241L107.709 18.6151V18.0127C107.709 17.2755 107.221 16.8592 106.277 16.8592C105.505 16.8592 104.971 17.1416 104.818 17.635H103.481C103.622 16.4362 104.753 15.6672 106.34 15.6672C108.095 15.6672 109.085 16.5383 109.085 18.0127V22.7815H107.755V21.8006H107.646C107.424 22.1525 107.112 22.4393 106.743 22.6318C106.374 22.8243 105.96 22.9157 105.543 22.8965C105.25 22.927 104.953 22.8957 104.672 22.8047C104.391 22.7137 104.132 22.565 103.912 22.3682C103.692 22.1714 103.516 21.9309 103.395 21.6621C103.275 21.3933 103.212 21.1022 103.21 20.8077V20.8077ZM107.709 20.2113V19.6277L106 19.7367C105.036 19.8011 104.599 20.128 104.599 20.7433C104.599 21.3715 105.146 21.737 105.897 21.737C106.117 21.7593 106.34 21.7371 106.551 21.6719C106.762 21.6066 106.959 21.4996 107.128 21.3573C107.297 21.2149 107.435 21.0401 107.535 20.8432C107.635 20.6463 107.695 20.4314 107.709 20.2113V20.2113Z" fill="white"/>
<path d="M110.9 19.2885C110.9 17.0831 112.037 15.686 113.805 15.686C114.243 15.6659 114.677 15.7704 115.057 15.9872C115.437 16.204 115.747 16.5243 115.952 16.9105H116.055V13.0771H117.436V22.7813H116.113V21.6786H116.003C115.783 22.0622 115.462 22.3784 115.075 22.5931C114.687 22.8077 114.248 22.9126 113.805 22.8963C112.025 22.8964 110.9 21.4992 110.9 19.2885ZM112.327 19.2885C112.327 20.7689 113.027 21.6597 114.197 21.6597C115.361 21.6597 116.081 20.756 116.081 19.2946C116.081 17.8399 115.354 16.9234 114.197 16.9234C113.034 16.9234 112.327 17.8203 112.327 19.2885H112.327Z" fill="white"/>
<path d="M123.151 19.2886C123.107 18.8299 123.16 18.3672 123.306 17.93C123.452 17.4928 123.687 17.0908 123.998 16.7498C124.309 16.4088 124.688 16.1364 125.11 15.95C125.533 15.7635 125.99 15.6672 126.452 15.6672C126.914 15.6672 127.371 15.7635 127.794 15.95C128.216 16.1364 128.595 16.4088 128.906 16.7498C129.216 17.0908 129.452 17.4928 129.598 17.93C129.744 18.3672 129.797 18.8299 129.753 19.2886C129.798 19.7478 129.746 20.2112 129.6 20.6491C129.455 21.087 129.219 21.4897 128.908 21.8314C128.597 22.173 128.218 22.446 127.795 22.6329C127.372 22.8197 126.915 22.9162 126.452 22.9162C125.989 22.9162 125.532 22.8197 125.109 22.6329C124.686 22.446 124.307 22.173 123.996 21.8314C123.685 21.4897 123.449 21.087 123.304 20.6491C123.158 20.2112 123.106 19.7478 123.151 19.2886V19.2886ZM128.332 19.2886C128.332 17.7757 127.65 16.891 126.454 16.891C125.254 16.891 124.578 17.7757 124.578 19.2886C124.578 20.8137 125.254 21.6916 126.454 21.6916C127.65 21.6916 128.332 20.8076 128.332 19.2886Z" fill="white"/>
<path d="M131.606 15.802H132.936V16.9108H133.039C133.214 16.5125 133.509 16.1787 133.884 15.9558C134.258 15.7329 134.693 15.632 135.128 15.6673C135.468 15.6417 135.81 15.6929 136.128 15.8171C136.446 15.9412 136.732 16.1352 136.965 16.3845C137.197 16.6338 137.371 16.9321 137.472 17.2573C137.574 17.5825 137.6 17.9263 137.55 18.2632V22.7815H136.169V18.6091C136.169 17.4875 135.68 16.9297 134.659 16.9297C134.427 16.9189 134.197 16.9582 133.982 17.0447C133.767 17.1313 133.574 17.263 133.415 17.431C133.257 17.599 133.136 17.7993 133.062 18.018C132.988 18.2368 132.963 18.4689 132.987 18.6984V22.7815H131.606V15.802Z" fill="white"/>
<path d="M145.355 14.0642V15.8337H146.872V16.9939H145.355V20.5828C145.355 21.3139 145.657 21.6341 146.345 21.6341C146.521 21.6335 146.697 21.6229 146.872 21.6023V22.7496C146.624 22.7939 146.372 22.8174 146.12 22.82C144.584 22.82 143.973 22.2812 143.973 20.9355V16.9939H142.861V15.8336H143.973V14.0642H145.355Z" fill="white"/>
<path d="M148.759 13.0771H150.128V16.9234H150.237C150.421 16.5214 150.724 16.1857 151.106 15.962C151.488 15.7383 151.93 15.6374 152.371 15.6731C152.71 15.6547 153.049 15.7111 153.363 15.8383C153.677 15.9655 153.96 16.1602 154.19 16.4088C154.42 16.6573 154.593 16.9534 154.695 17.276C154.797 17.5986 154.827 17.9398 154.782 18.2751V22.7813H153.399V18.6149C153.399 17.5001 152.878 16.9355 151.902 16.9355C151.665 16.9161 151.426 16.9486 151.203 17.0308C150.979 17.1131 150.776 17.243 150.608 17.4116C150.441 17.5801 150.312 17.7832 150.231 18.0066C150.15 18.23 150.119 18.4684 150.14 18.705V22.7813H148.759L148.759 13.0771Z" fill="white"/>
<path d="M162.836 20.8966C162.648 21.5345 162.242 22.0863 161.687 22.4554C161.133 22.8245 160.466 22.9875 159.803 22.9158C159.342 22.928 158.884 22.8399 158.46 22.6577C158.037 22.4756 157.658 22.2037 157.35 21.8609C157.043 21.5181 156.813 21.1127 156.679 20.6728C156.544 20.2329 156.507 19.769 156.57 19.3133C156.508 18.8562 156.546 18.3913 156.681 17.9501C156.815 17.5089 157.043 17.1016 157.349 16.7558C157.655 16.41 158.032 16.1339 158.454 15.946C158.877 15.7581 159.334 15.6629 159.797 15.6669C161.744 15.6669 162.919 16.9937 162.919 19.1854V19.666H157.977V19.7432C157.955 19.9993 157.988 20.2571 158.072 20.5001C158.156 20.7431 158.29 20.9658 158.465 21.1541C158.641 21.3423 158.854 21.4919 159.091 21.5933C159.328 21.6947 159.583 21.7455 159.841 21.7427C160.171 21.7822 160.506 21.7229 160.803 21.5722C161.099 21.4216 161.344 21.1864 161.506 20.8965L162.836 20.8966ZM157.977 18.6473H161.512C161.53 18.413 161.498 18.1777 161.418 17.9565C161.339 17.7353 161.214 17.5331 161.052 17.3628C160.89 17.1925 160.694 17.058 160.476 16.9678C160.259 16.8776 160.025 16.8338 159.789 16.8392C159.55 16.8362 159.313 16.8809 159.092 16.9708C158.871 17.0606 158.67 17.1937 158.501 17.3622C158.332 17.5307 158.199 17.7312 158.109 17.9519C158.019 18.1726 157.974 18.4091 157.977 18.6473H157.977Z" fill="white"/>
</g>
<defs>
<clipPath id="clip0_1_465">
<rect width="186" height="62" fill="white"/>
</clipPath>
</defs>
</svg>
