<svg width="270" height="270" viewBox="0 0 270 270" fill="none" xmlns="http://www.w3.org/2000/svg">
<g opacity="0.3">
<path d="M161.912 110.888C163.562 109.933 164.864 110.714 164.864 112.625C164.864 114.535 163.562 116.793 161.912 117.748C160.262 118.703 158.959 117.922 158.959 116.011C158.959 114.101 160.349 111.843 161.912 110.888Z" fill="url(#paint0_linear_2015_346)"/>
<path d="M162.086 110.975C160.436 111.931 159.133 114.188 159.133 116.099C159.133 116.967 159.394 117.662 159.915 117.922C159.307 117.662 158.959 116.967 158.959 115.925C158.959 114.015 160.262 111.757 161.912 110.802C162.78 110.281 163.562 110.281 164.083 110.628C163.562 110.454 162.867 110.541 162.086 110.975Z" fill="white"/>
<path d="M154.877 106.807C156.526 105.851 157.829 106.633 157.829 108.543C157.829 110.454 156.526 112.711 154.877 113.667C153.227 114.622 151.924 113.84 151.924 111.93C151.924 110.019 153.227 107.762 154.877 106.807Z" fill="url(#paint1_linear_2015_346)"/>
<path d="M147.67 102.639C149.32 101.684 150.623 102.466 150.623 104.376C150.623 106.286 149.32 108.544 147.67 109.499C146.02 110.454 144.718 109.673 144.718 107.763C144.718 105.939 146.02 103.595 147.67 102.639Z" fill="url(#paint2_linear_2015_346)"/>
<path d="M159.827 117.922L163.474 120.006C162.953 119.659 162.606 119.051 162.606 118.096C162.606 116.185 163.908 113.927 165.558 112.972C166.34 112.538 167.034 112.451 167.642 112.712L183.186 121.656L179.018 128.95L133.169 102.639C131.172 101.51 130.477 98.9051 131.606 96.9079C132.735 94.9107 135.34 94.216 137.337 95.3449L149.754 102.465C149.233 102.118 148.452 102.118 147.583 102.639C145.934 103.594 144.631 105.852 144.631 107.762C144.631 108.717 144.978 109.412 145.499 109.673L149.146 111.757C148.625 111.409 148.278 110.801 148.278 109.846C148.278 107.936 149.581 105.678 151.23 104.723C152.012 104.289 152.707 104.202 153.315 104.463L156.962 106.547C156.441 106.199 155.659 106.199 154.791 106.72C153.141 107.675 151.838 109.933 151.838 111.843C151.838 112.799 152.186 113.493 152.707 113.754L156.354 115.838C155.833 115.49 155.485 114.883 155.485 113.927C155.485 112.017 156.788 109.759 158.438 108.804C159.219 108.37 159.914 108.283 160.522 108.544L163.995 110.541C163.474 110.194 162.693 110.194 161.824 110.715C160.174 111.67 158.872 113.927 158.872 115.838C158.959 116.967 159.306 117.575 159.827 117.922Z" fill="#BCBEFF"/>
<path d="M155.05 106.894C153.4 107.849 152.098 110.107 152.098 112.017C152.098 112.885 152.358 113.58 152.879 113.841C152.272 113.58 151.924 112.885 151.924 111.843C151.924 109.933 153.227 107.675 154.877 106.72C155.745 106.199 156.526 106.199 157.047 106.547C156.526 106.373 155.832 106.46 155.05 106.894Z" fill="white"/>
<path d="M147.844 102.726C146.194 103.681 144.892 105.939 144.892 107.849C144.892 108.717 145.152 109.412 145.673 109.672C145.065 109.412 144.718 108.717 144.718 107.675C144.718 105.765 146.02 103.507 147.67 102.552C148.539 102.031 149.32 102.031 149.841 102.378C149.32 102.291 148.625 102.291 147.844 102.726Z" fill="white"/>
<path opacity="0.48" d="M165.644 112.972C163.995 113.928 162.692 116.185 162.692 118.096C162.692 119.051 163.039 119.746 163.56 120.006L159.913 117.922C159.392 117.575 159.045 116.967 159.045 116.012C159.045 114.101 160.348 111.844 161.997 110.888C162.866 110.367 163.56 110.367 164.168 110.715L167.728 112.799C167.121 112.451 166.426 112.538 165.644 112.972Z" fill="url(#paint3_linear_2015_346)"/>
<path opacity="0.48" d="M158.524 108.891C156.874 109.846 155.571 112.104 155.571 114.014C155.571 114.97 155.919 115.664 156.44 115.925L152.793 113.841C152.272 113.493 151.924 112.886 151.924 111.93C151.924 110.02 153.227 107.762 154.877 106.807C155.745 106.286 156.44 106.286 157.047 106.633L160.608 108.717C160.087 108.37 159.392 108.457 158.524 108.891Z" fill="url(#paint4_linear_2015_346)"/>
<path opacity="0.48" d="M151.405 104.81C149.755 105.765 148.453 108.023 148.453 109.933C148.453 110.888 148.8 111.583 149.321 111.844L145.674 109.76C145.153 109.412 144.806 108.804 144.806 107.849C144.806 105.939 146.108 103.681 147.758 102.726C148.627 102.205 149.321 102.205 149.929 102.552L153.489 104.636C152.882 104.289 152.187 104.289 151.405 104.81Z" fill="url(#paint5_linear_2015_346)"/>
<path d="M179.277 141.714C179.277 141.974 179.277 142.148 179.277 142.408L188.308 149.963L202.983 155.434L213.317 153.089L223.216 150.224L233.289 142.495L233.549 142.322C233.549 141.714 233.549 141.106 233.462 140.498C235.199 138.154 237.022 135.809 238.759 133.378C239.541 134.42 240.235 135.462 240.756 136.504L241.972 135.549V141.627C241.972 141.714 241.972 141.801 241.972 141.801V142.061C241.798 147.184 238.412 152.308 231.639 156.215C217.745 164.291 195.342 164.291 181.448 156.302C174.588 152.308 171.115 147.184 171.028 141.974C171.028 141.887 171.028 141.887 171.028 141.801V135.375L172.331 136.417C172.591 135.809 173.025 135.201 173.373 134.507C174.762 137.285 176.325 140.585 179.277 141.714Z" fill="url(#paint6_linear_2015_346)"/>
<path d="M230.859 126.952C231.033 127.039 231.207 127.126 231.467 127.299C234.593 129.123 237.025 131.207 238.761 133.378C237.025 135.722 235.201 138.067 233.464 140.498C232.943 136.938 230.338 133.465 225.649 130.773C215.056 124.694 197.862 124.694 187.268 130.859C182.058 133.899 179.453 137.806 179.367 141.801C176.501 140.672 174.938 137.372 173.288 134.68C174.591 132.77 176.414 130.86 178.759 129.21L177.543 129.47C177.543 129.47 185.879 122.263 186.226 122.176C186.574 122.089 203.246 117.661 203.246 117.661L222.089 119.31L230.859 126.952Z" fill="url(#paint7_linear_2015_346)"/>
<path opacity="0.5" d="M225.042 126.518C235.636 132.597 235.636 142.496 225.042 148.661C214.448 154.826 197.255 154.826 186.661 148.748C176.067 142.669 176.067 132.77 186.661 126.605C197.255 120.44 214.448 120.353 225.042 126.518Z" fill="url(#paint8_linear_2015_346)"/>
<path opacity="0.48" d="M224.952 128.429C235.546 134.507 235.546 144.406 224.952 150.571C214.359 156.737 197.165 156.737 186.572 150.658C175.978 144.58 175.978 134.681 186.572 128.515C197.165 122.35 214.359 122.263 224.952 128.429Z" fill="url(#paint9_linear_2015_346)"/>
<path d="M231.467 120.961C217.574 112.972 195.084 113.059 181.277 121.047C167.47 129.036 167.47 142.061 181.364 150.05C195.257 158.039 217.748 157.952 231.554 149.963C245.361 141.888 245.361 128.863 231.467 120.961ZM225.563 124.347C236.157 130.426 236.157 140.325 225.563 146.49C214.969 152.655 197.776 152.655 187.182 146.577C176.588 140.498 176.588 130.599 187.182 124.434C197.776 118.269 214.882 118.269 225.563 124.347Z" fill="#BCBEFF"/>
<path d="M231.467 120.961C217.574 112.972 195.084 113.059 181.277 121.047C167.47 129.036 167.47 142.061 181.364 150.05C195.257 158.039 217.748 157.952 231.554 149.963C245.361 141.888 245.361 128.863 231.467 120.961ZM225.563 124.347C236.157 130.426 236.157 140.325 225.563 146.49C214.969 152.655 197.776 152.655 187.182 146.577C176.588 140.498 176.588 130.599 187.182 124.434C197.776 118.269 214.882 118.269 225.563 124.347Z" fill="#BCBEFF"/>
<path d="M181.103 149.443C194.996 157.432 217.486 157.345 231.293 149.356C239.803 144.406 243.103 137.633 241.105 131.208C243.45 137.72 240.237 144.841 231.467 149.877C217.573 157.953 195.17 157.953 181.276 149.964C175.98 146.925 172.68 143.104 171.377 139.109C172.767 142.93 175.98 146.577 181.103 149.443Z" fill="white"/>
<path d="M187.007 123.913C197.601 117.747 214.794 117.747 225.388 123.826C229.469 126.17 231.988 129.123 232.943 132.162C231.901 129.296 229.469 126.605 225.562 124.347C214.968 118.268 197.775 118.268 187.181 124.434C180.668 128.168 178.237 133.378 179.626 138.24C177.803 133.204 180.234 127.82 187.007 123.913Z" fill="white"/>
</g>
<path d="M117.887 244.179C117.105 244.179 116.237 244.005 115.542 243.571L8.38846 181.658C7.69378 181.31 7.34644 180.702 7.34644 180.181C7.34644 179.747 7.60693 179.313 8.12794 179.053L72.125 142.148C73.167 141.54 75.0774 141.627 76.2931 142.322L183.447 204.235C184.142 204.582 184.489 205.19 184.489 205.711C184.489 206.145 184.228 206.579 183.707 206.84L119.71 243.744C119.189 244.092 118.582 244.179 117.887 244.179ZM8.56211 181.397L115.716 243.31C116.845 243.918 118.495 244.005 119.537 243.484L183.534 206.579C183.881 206.319 184.142 206.058 184.142 205.711C184.142 205.277 183.794 204.929 183.273 204.582L76.1194 142.669C74.9906 142.061 73.3407 141.974 72.2987 142.495L8.30162 179.4C7.95428 179.66 7.69377 179.921 7.69377 180.268C7.60693 180.702 7.95427 181.137 8.56211 181.397Z" fill="#7C40FF"/>
<path d="M184.229 195.031L178.324 194.162L76.0334 135.115C74.8177 134.42 73.081 134.333 72.039 134.941L11.168 170.109L7.43408 169.588V174.538C7.43408 174.972 7.78143 175.493 8.38927 175.84L115.543 237.753C116.759 238.448 118.495 238.535 119.537 237.927L183.535 201.022C183.969 200.762 184.229 200.414 184.229 199.98V195.031Z" fill="url(#paint10_linear_2015_346)"/>
<path d="M8.47666 170.891L115.63 232.804C116.846 233.499 118.583 233.585 119.625 232.978L183.622 196.073C184.664 195.465 184.49 194.423 183.361 193.815L76.2076 131.902C74.9919 131.207 73.2552 131.121 72.2132 131.729L8.21614 168.633C7.17412 169.241 7.26097 170.196 8.47666 170.891Z" fill="url(#paint11_linear_2015_346)"/>
<path opacity="0.3" d="M17.6797 172.106L113.458 227.42C114.5 228.028 116.063 228.115 117.018 227.594L174.156 194.597C175.024 194.076 174.937 193.12 173.895 192.512L78.2034 137.199C77.1613 136.591 75.5983 136.504 74.6431 137.025L17.506 170.022C16.5508 170.63 16.6376 171.499 17.6797 172.106Z" fill="#1D008D"/>
<path d="M183.535 195.465L119.538 232.369C118.496 232.977 116.759 232.89 115.543 232.196L8.38964 170.283C7.86863 170.022 7.60812 169.588 7.43445 169.24C7.26078 169.761 7.60813 170.369 8.38964 170.804L115.543 232.717C116.759 233.411 118.496 233.498 119.538 232.89L183.535 195.986C184.143 195.638 184.316 195.204 184.143 194.683C184.056 195.03 183.882 195.291 183.535 195.465Z" fill="white"/>
<path d="M75.8615 112.537L89.4077 32.1283L88.2789 31.6941L89.9287 30.739C90.2761 30.5653 90.7103 30.5653 91.2313 30.8258L199.514 93.3467C200.382 93.8677 201.077 95.1702 200.903 96.1254L187.27 177.142C187.183 177.576 187.01 177.837 186.662 177.924L185.099 178.879L184.839 177.403H184.926L77.3377 115.229C76.3825 114.795 75.6879 113.492 75.8615 112.537Z" fill="url(#paint12_linear_2015_346)"/>
<path d="M198.908 95.6045L200.731 94.823C200.905 95.2572 200.992 95.7782 200.992 96.1255L187.272 177.142C187.185 177.576 187.011 177.837 186.664 177.924L185.101 178.879L184.841 177.403H184.927L179.457 174.277L198.908 95.6045Z" fill="url(#paint13_linear_2015_346)"/>
<path d="M75.6022 116.271L183.885 178.792C184.753 179.313 185.448 178.965 185.622 178.097L199.255 97.0803C199.428 96.1251 198.734 94.8226 197.865 94.3016L89.5826 31.7807C88.7142 31.2597 88.0195 31.607 87.8459 32.4754L74.2128 113.492C74.0392 114.447 74.7338 115.75 75.6022 116.271Z" fill="#1D008D"/>
<g opacity="0.51">
<path d="M89.1483 33.3438L197.952 96.1251L184.232 177.402L75.5153 114.621L89.1483 33.3438Z" fill="#7C4EFF"/>
</g>
<path d="M7.5249 154.652L13.4296 157.778L72.6508 123.565C73.606 122.957 75.3427 123.044 76.5584 123.739L178.763 182.699C179.718 182.178 184.233 180.007 184.233 180.007L182.062 183.481C181.976 183.741 181.802 184.002 181.455 184.175L119.02 220.212C118.065 220.82 116.329 220.733 115.113 220.038L10.5641 159.688C10.1299 159.428 9.7826 159.08 9.69577 158.733L7.5249 154.652Z" fill="url(#paint14_linear_2015_346)"/>
<path d="M8.47959 155.607L115.633 217.52C116.849 218.214 118.586 218.301 119.628 217.693L183.625 180.789C184.667 180.181 184.493 179.139 183.364 178.531L76.2105 116.618C74.9949 115.923 73.2582 115.836 72.2161 116.444L8.21907 153.349C7.17705 153.957 7.2639 154.912 8.47959 155.607Z" fill="url(#paint15_linear_2015_346)"/>
<path d="M8.47993 155.172L115.634 217.085C116.849 217.78 118.586 217.867 119.628 217.259L183.625 180.354C183.973 180.18 184.233 179.92 184.233 179.573C184.32 180.007 184.146 180.441 183.625 180.788L119.628 217.693C118.586 218.301 116.849 218.214 115.634 217.519L8.47993 155.606C7.69842 155.172 7.43791 154.564 7.52475 154.043C7.61158 154.477 7.87209 154.825 8.47993 155.172Z" fill="white"/>
<g opacity="0.15">
<path d="M75.4296 115.749L81.3343 118.875L140.555 84.6619C141.511 84.054 143.247 84.1408 144.463 84.8355L246.667 143.796C247.623 143.275 252.138 141.104 252.138 141.104L249.967 144.578C249.88 144.838 249.707 145.099 249.359 145.272L186.925 181.309C185.97 181.917 184.233 181.83 183.018 181.135L78.4688 120.785C78.0346 120.525 77.6873 120.177 77.6004 119.83L75.4296 115.749Z" fill="url(#paint16_linear_2015_346)"/>
<path d="M76.3842 116.705L183.538 178.618C184.754 179.312 186.49 179.399 187.532 178.791L251.53 141.887C252.572 141.279 252.398 140.237 251.269 139.629L144.115 77.7159C142.9 77.0212 141.163 76.9344 140.121 77.5422L76.1237 114.447C75.0817 115.055 75.1686 116.097 76.3842 116.705Z" fill="url(#paint17_linear_2015_346)"/>
<path d="M251.181 139.542L144.027 77.6287C143.246 77.1945 142.29 77.0208 141.335 77.1076C142.03 77.1945 142.638 77.3681 143.159 77.6287L250.313 139.542C251.528 140.236 251.615 141.278 250.573 141.799L186.75 178.791C186.402 178.965 185.968 179.138 185.447 179.138C186.229 179.225 187.01 179.051 187.531 178.791L251.528 141.886C252.483 141.278 252.397 140.236 251.181 139.542Z" fill="white"/>
<g opacity="0.5">
<path d="M132.478 106.111L129.005 104.113C128.744 103.94 128.223 103.94 127.963 104.113L124.142 106.371C123.882 106.545 123.795 106.805 124.055 106.979L127.529 108.976C127.789 109.15 128.31 109.15 128.571 108.976L132.391 106.718C132.739 106.545 132.826 106.284 132.478 106.111Z" fill="#1D008D"/>
<path d="M137.861 109.15L134.388 107.153C134.127 106.979 133.606 106.979 133.345 107.153L129.525 109.41C129.264 109.584 129.177 109.845 129.438 110.018L132.911 112.015C133.172 112.189 133.693 112.189 133.953 112.015L137.774 109.758C138.035 109.584 138.121 109.324 137.861 109.15Z" fill="#1D008D"/>
<path d="M143.158 112.188L139.685 110.191C139.424 110.018 138.903 110.018 138.643 110.191L134.822 112.449C134.562 112.623 134.475 112.883 134.735 113.057L138.209 115.054C138.469 115.228 138.99 115.228 139.251 115.054L143.071 112.796C143.419 112.623 143.419 112.362 143.158 112.188Z" fill="#1D008D"/>
<path d="M139.077 116.27L135.603 114.273C135.343 114.099 134.822 114.099 134.561 114.273L131.348 116.183C131.088 116.357 131.001 116.617 131.262 116.791L134.735 118.788C134.995 118.962 135.516 118.962 135.777 118.788L138.99 116.878C139.337 116.704 139.337 116.444 139.077 116.27Z" fill="#1D008D"/>
<path d="M144.374 119.31L140.9 117.313C140.64 117.139 140.119 117.139 139.858 117.313L136.645 119.223C136.385 119.397 136.298 119.657 136.559 119.831L140.032 121.828C140.293 122.002 140.814 122.002 141.074 121.828L144.287 119.918C144.634 119.744 144.634 119.483 144.374 119.31Z" fill="#1D008D"/>
<path d="M149.671 122.435L146.198 120.438C145.937 120.264 145.416 120.264 145.156 120.438L141.943 122.348C141.682 122.522 141.595 122.783 141.856 122.956L145.329 124.954C145.59 125.127 146.111 125.127 146.371 124.954L149.584 123.043C149.932 122.869 149.932 122.609 149.671 122.435Z" fill="#1D008D"/>
<path d="M154.967 125.474L151.494 123.477C151.233 123.304 150.712 123.304 150.452 123.477L147.239 125.388C146.978 125.561 146.891 125.822 147.152 125.995L150.625 127.993C150.886 128.166 151.407 128.166 151.667 127.993L154.88 126.082C155.228 125.909 155.314 125.648 154.967 125.474Z" fill="#1D008D"/>
<path d="M160.351 128.514L156.878 126.517C156.617 126.343 156.096 126.343 155.836 126.517L152.623 128.427C152.362 128.601 152.275 128.861 152.536 129.035L156.009 131.032C156.27 131.206 156.791 131.206 157.051 131.032L160.264 129.122C160.525 128.948 160.611 128.688 160.351 128.514Z" fill="#1D008D"/>
<path d="M165.648 131.64L162.175 129.642C161.914 129.469 161.393 129.469 161.133 129.642L157.92 131.553C157.659 131.726 157.573 131.987 157.833 132.161L161.306 134.158C161.567 134.332 162.088 134.332 162.348 134.158L165.561 132.247C165.909 132.074 165.909 131.726 165.648 131.64Z" fill="#1D008D"/>
<path d="M170.944 134.679L167.471 132.682C167.21 132.509 166.689 132.509 166.429 132.682L163.216 134.593C162.955 134.766 162.868 135.027 163.129 135.2L166.602 137.198C166.863 137.371 167.384 137.371 167.644 137.198L170.857 135.287C171.205 135.114 171.205 134.853 170.944 134.679Z" fill="#1D008D"/>
<path d="M176.244 137.718L172.771 135.721C172.51 135.547 171.989 135.547 171.729 135.721L168.516 137.631C168.255 137.805 168.168 138.065 168.429 138.239L171.902 140.236C172.163 140.41 172.684 140.41 172.944 140.236L176.157 138.326C176.504 138.152 176.504 137.891 176.244 137.718Z" fill="#1D008D"/>
<path d="M181.539 140.758L178.065 138.76C177.805 138.587 177.284 138.587 177.023 138.76L173.81 140.671C173.55 140.844 173.463 141.105 173.723 141.279L177.197 143.276C177.457 143.449 177.978 143.449 178.239 143.276L181.452 141.365C181.799 141.192 181.799 140.931 181.539 140.758Z" fill="#1D008D"/>
<path d="M186.837 143.883L183.364 141.886C183.103 141.712 182.582 141.712 182.321 141.886L179.109 143.796C178.848 143.97 178.761 144.23 179.022 144.404L182.495 146.401C182.756 146.575 183.277 146.575 183.537 146.401L186.75 144.491C187.097 144.317 187.097 144.057 186.837 143.883Z" fill="#1D008D"/>
<path d="M136.906 120.699L133.432 118.702C133.172 118.528 132.651 118.528 132.39 118.702L129.178 120.612C128.917 120.786 128.83 121.046 129.091 121.22L132.564 123.217C132.825 123.391 133.346 123.391 133.606 123.217L136.819 121.307C137.166 121.046 137.166 120.786 136.906 120.699Z" fill="#1D008D"/>
<path d="M131.523 117.573L128.05 115.576C127.789 115.402 127.268 115.402 127.008 115.576L123.795 117.486C123.534 117.66 123.448 117.921 123.708 118.094L127.181 120.091C127.442 120.265 127.963 120.265 128.223 120.091L131.436 118.181C131.784 118.007 131.784 117.747 131.523 117.573Z" fill="#1D008D"/>
<path d="M126.139 114.446L118.758 110.191C118.498 110.018 117.977 110.018 117.716 110.191L114.503 112.102C114.243 112.275 114.156 112.536 114.417 112.709L121.798 116.964C122.058 117.138 122.579 117.138 122.84 116.964L126.052 115.054C126.313 114.88 126.4 114.62 126.139 114.446Z" fill="#1D008D"/>
<path d="M119.8 116.444L113.808 112.971C113.548 112.797 113.027 112.797 112.766 112.971L109.553 114.881C109.293 115.055 109.206 115.315 109.467 115.489L115.458 118.962C115.719 119.136 116.24 119.136 116.5 118.962L119.713 117.052C120.06 116.878 120.147 116.618 119.8 116.444Z" fill="#1D008D"/>
<path d="M142.203 123.738L138.73 121.741C138.469 121.567 137.948 121.567 137.688 121.741L134.475 123.651C134.214 123.825 134.128 124.085 134.388 124.259L137.861 126.256C138.122 126.43 138.643 126.43 138.903 126.256L142.116 124.346C142.464 124.172 142.464 123.911 142.203 123.738Z" fill="#1D008D"/>
<path d="M147.5 126.777L144.027 124.78C143.766 124.606 143.245 124.606 142.985 124.78L139.772 126.69C139.512 126.864 139.425 127.124 139.685 127.298L143.159 129.295C143.419 129.469 143.94 129.469 144.201 129.295L147.414 127.385C147.761 127.211 147.761 126.951 147.5 126.777Z" fill="#1D008D"/>
<path d="M152.796 129.816L149.323 127.819C149.062 127.646 148.541 127.646 148.281 127.819L145.068 129.73C144.808 129.903 144.721 130.164 144.981 130.337L148.455 132.335C148.715 132.508 149.236 132.508 149.497 132.335L152.71 130.424C153.057 130.251 153.057 129.99 152.796 129.816Z" fill="#1D008D"/>
<path d="M158.093 132.943L154.62 130.945C154.36 130.772 153.839 130.772 153.578 130.945L150.365 132.856C150.105 133.029 150.018 133.29 150.278 133.464L153.752 135.461C154.012 135.635 154.533 135.635 154.794 135.461L158.007 133.55C158.354 133.377 158.354 133.029 158.093 132.943Z" fill="#1D008D"/>
<path d="M163.391 135.981L159.917 133.984C159.657 133.811 159.136 133.811 158.875 133.984L155.662 135.895C155.402 136.068 155.315 136.329 155.576 136.502L159.049 138.5C159.31 138.673 159.831 138.673 160.091 138.5L163.304 136.589C163.651 136.416 163.651 136.155 163.391 135.981Z" fill="#1D008D"/>
<path d="M168.687 139.021L165.213 137.024C164.953 136.85 164.432 136.85 164.171 137.024L160.958 138.934C160.698 139.108 160.611 139.368 160.872 139.542L164.345 141.539C164.605 141.713 165.126 141.713 165.387 141.539L168.6 139.629C168.947 139.455 168.947 139.195 168.687 139.021Z" fill="#1D008D"/>
<path d="M173.984 142.06L170.51 140.063C170.25 139.889 169.729 139.889 169.468 140.063L166.256 141.973C165.995 142.147 165.908 142.407 166.169 142.581L169.642 144.578C169.903 144.752 170.424 144.752 170.684 144.578L173.897 142.668C174.244 142.494 174.331 142.233 173.984 142.06Z" fill="#1D008D"/>
<path d="M179.281 145.186L175.808 143.189C175.547 143.015 175.026 143.015 174.766 143.189L171.553 145.099C171.292 145.273 171.205 145.534 171.466 145.707L174.939 147.704C175.2 147.878 175.721 147.878 175.981 147.704L179.194 145.794C179.541 145.62 179.628 145.36 179.281 145.186Z" fill="#1D008D"/>
<path d="M184.664 148.226L181.19 146.228C180.93 146.055 180.409 146.055 180.148 146.228L176.935 148.139C176.675 148.312 176.588 148.573 176.849 148.747L180.322 150.744C180.582 150.917 181.103 150.917 181.364 150.744L184.577 148.833C184.924 148.66 184.924 148.399 184.664 148.226Z" fill="#1D008D"/>
<path d="M194.043 153.696L186.576 149.354C186.315 149.18 185.794 149.18 185.534 149.354L182.321 151.264C182.06 151.438 181.973 151.699 182.234 151.872L189.702 156.214C189.962 156.388 190.483 156.388 190.744 156.214L193.956 154.304C194.304 154.13 194.304 153.87 194.043 153.696Z" fill="#1D008D"/>
<path d="M184.317 159.34L177.978 155.693C177.718 155.52 177.197 155.52 176.936 155.693L173.723 157.604C173.463 157.777 173.376 158.038 173.637 158.211L179.976 161.858C180.236 162.032 180.757 162.032 181.018 161.858L184.23 159.948C184.578 159.774 184.578 159.514 184.317 159.34Z" fill="#1D008D"/>
<path d="M141.422 128.948L137.949 126.951C137.688 126.777 137.167 126.777 136.907 126.951L133.694 128.861C133.433 129.035 133.346 129.295 133.607 129.469L137.08 131.466C137.341 131.64 137.862 131.64 138.122 131.466L141.335 129.556C141.683 129.382 141.683 129.121 141.422 128.948Z" fill="#1D008D"/>
<path d="M136.037 125.822L132.564 123.825C132.303 123.651 131.782 123.651 131.522 123.825L128.309 125.735C128.048 125.909 127.961 126.17 128.222 126.343L131.695 128.34C131.956 128.514 132.477 128.514 132.737 128.34L135.95 126.43C136.297 126.256 136.297 125.996 136.037 125.822Z" fill="#1D008D"/>
<path d="M130.567 122.696L127.094 120.699C126.833 120.525 126.312 120.525 126.052 120.699L122.839 122.609C122.579 122.783 122.492 123.044 122.752 123.217L126.226 125.214C126.486 125.388 127.007 125.388 127.268 125.214L130.481 123.304C130.828 123.13 130.828 122.87 130.567 122.696Z" fill="#1D008D"/>
<path d="M125.097 119.57L121.623 117.572C121.363 117.399 120.842 117.399 120.581 117.572L117.368 119.483C117.108 119.656 117.021 119.917 117.282 120.091L120.755 122.088C121.015 122.261 121.536 122.261 121.797 122.088L125.01 120.177C125.357 119.917 125.444 119.656 125.097 119.57Z" fill="#1D008D"/>
<path d="M146.717 131.987L143.244 129.99C142.983 129.816 142.462 129.816 142.202 129.99L138.989 131.9C138.728 132.074 138.641 132.334 138.902 132.508L142.375 134.505C142.636 134.679 143.157 134.679 143.417 134.505L146.63 132.595C146.977 132.421 147.064 132.161 146.717 131.987Z" fill="#1D008D"/>
<path d="M152.017 135.114L148.543 133.116C148.283 132.943 147.762 132.943 147.501 133.116L144.288 135.027C144.028 135.2 143.941 135.461 144.201 135.635L147.675 137.632C147.935 137.805 148.456 137.805 148.717 137.632L151.93 135.721C152.277 135.461 152.364 135.2 152.017 135.114Z" fill="#1D008D"/>
<path d="M157.399 138.152L153.926 136.155C153.665 135.981 153.144 135.981 152.884 136.155L149.671 138.066C149.41 138.239 149.324 138.5 149.584 138.673L153.058 140.671C153.318 140.844 153.839 140.844 154.1 140.671L157.312 138.76C157.66 138.587 157.66 138.326 157.399 138.152Z" fill="#1D008D"/>
<path d="M162.697 141.191L159.223 139.194C158.963 139.021 158.442 139.021 158.181 139.194L154.968 141.105C154.708 141.278 154.621 141.539 154.881 141.712L158.355 143.71C158.615 143.883 159.136 143.883 159.397 143.71L162.61 141.799C162.957 141.626 162.957 141.365 162.697 141.191Z" fill="#1D008D"/>
<path d="M167.992 144.231L164.519 142.234C164.259 142.06 163.738 142.06 163.477 142.234L160.264 144.144C160.004 144.318 159.917 144.579 160.177 144.752L163.651 146.749C163.911 146.923 164.432 146.923 164.693 146.749L167.906 144.839C168.253 144.665 168.253 144.405 167.992 144.231Z" fill="#1D008D"/>
<path d="M173.29 147.357L169.816 145.36C169.556 145.186 169.035 145.186 168.774 145.36L165.561 147.27C165.301 147.444 165.214 147.705 165.475 147.878L168.948 149.875C169.208 150.049 169.729 150.049 169.99 149.875L173.203 147.965C173.55 147.791 173.55 147.444 173.29 147.357Z" fill="#1D008D"/>
<path d="M178.587 150.396L175.113 148.399C174.853 148.226 174.332 148.226 174.071 148.399L170.859 150.31C170.598 150.483 170.511 150.744 170.772 150.918L174.245 152.915C174.506 153.088 175.027 153.088 175.287 152.915L178.5 151.004C178.847 150.831 178.847 150.57 178.587 150.396Z" fill="#1D008D"/>
<path d="M183.884 153.435L180.411 151.438C180.15 151.264 179.629 151.264 179.369 151.438L176.156 153.348C175.895 153.522 175.808 153.782 176.069 153.956L179.542 155.953C179.803 156.127 180.324 156.127 180.584 155.953L183.797 154.043C184.145 153.869 184.145 153.609 183.884 153.435Z" fill="#1D008D"/>
<path d="M189.18 156.475L185.707 154.477C185.446 154.304 184.925 154.304 184.665 154.477L181.452 156.388C181.191 156.561 181.104 156.822 181.365 156.996L184.838 158.993C185.099 159.166 185.62 159.166 185.88 158.993L189.093 157.082C189.44 156.909 189.44 156.648 189.18 156.475Z" fill="#1D008D"/>
<path d="M128.657 127.211L125.184 125.214C124.923 125.04 124.402 125.04 124.142 125.214L120.929 127.124C120.668 127.298 120.581 127.558 120.842 127.732L124.315 129.729C124.576 129.903 125.097 129.903 125.357 129.729L128.57 127.819C128.918 127.645 128.918 127.384 128.657 127.211Z" fill="#1D008D"/>
<path d="M123.359 124.172L119.885 122.174C119.625 122.001 119.104 122.001 118.843 122.174L115.63 124.085C115.37 124.258 115.283 124.519 115.544 124.693L119.017 126.69C119.277 126.864 119.798 126.864 120.059 126.69L123.272 124.779C123.619 124.606 123.619 124.345 123.359 124.172Z" fill="#1D008D"/>
<path d="M118.064 121.133L114.591 119.136C114.33 118.962 113.809 118.962 113.549 119.136L110.336 121.046C110.075 121.22 109.988 121.48 110.249 121.654L113.722 123.651C113.983 123.825 114.504 123.825 114.764 123.651L117.977 121.741C118.324 121.567 118.324 121.22 118.064 121.133Z" fill="#1D008D"/>
<path d="M112.765 118.007L109.292 116.009C109.032 115.836 108.511 115.836 108.25 116.009L105.037 117.92C104.777 118.093 104.69 118.354 104.95 118.528L108.424 120.525C108.684 120.698 109.205 120.698 109.466 120.525L112.679 118.614C113.026 118.441 113.026 118.18 112.765 118.007Z" fill="#1D008D"/>
<path d="M107.643 121.046L104.17 119.049C103.909 118.875 103.388 118.875 103.128 119.049L102.086 119.657C101.825 119.83 101.738 120.091 101.999 120.265L105.472 122.262C105.733 122.435 106.254 122.435 106.514 122.262L107.556 121.654C107.903 121.48 107.99 121.22 107.643 121.046Z" fill="#1D008D"/>
<path d="M114.589 125.04L111.116 123.043C110.855 122.869 110.334 122.869 110.074 123.043L109.031 123.651C108.771 123.825 108.684 124.085 108.945 124.259L112.418 126.256C112.679 126.43 113.2 126.43 113.46 126.256L114.502 125.648C114.849 125.474 114.849 125.214 114.589 125.04Z" fill="#1D008D"/>
<path d="M119.799 128.08L116.326 126.083C116.065 125.909 115.544 125.909 115.284 126.083L114.242 126.69C113.981 126.864 113.894 127.125 114.155 127.298L117.628 129.296C117.889 129.469 118.41 129.469 118.67 129.296L119.712 128.688C120.06 128.514 120.06 128.167 119.799 128.08Z" fill="#1D008D"/>
<path d="M125.096 131.118L121.623 129.121C121.363 128.947 120.842 128.947 120.581 129.121L119.539 129.729C119.279 129.902 119.192 130.163 119.452 130.337L122.926 132.334C123.186 132.508 123.707 132.508 123.968 132.334L125.01 131.726C125.357 131.552 125.357 131.205 125.096 131.118Z" fill="#1D008D"/>
<path d="M130.307 134.158L126.834 132.161C126.573 131.987 126.052 131.987 125.792 132.161L124.75 132.769C124.489 132.943 124.402 133.203 124.663 133.377L128.136 135.374C128.397 135.548 128.918 135.548 129.178 135.374L130.22 134.766C130.568 134.506 130.654 134.245 130.307 134.158Z" fill="#1D008D"/>
<path d="M159.657 151.091L156.183 149.094C155.923 148.92 155.402 148.92 155.141 149.094L154.099 149.702C153.839 149.875 153.752 150.136 154.012 150.31L157.486 152.307C157.746 152.48 158.267 152.48 158.528 152.307L159.57 151.699C159.917 151.525 160.004 151.265 159.657 151.091Z" fill="#1D008D"/>
<path d="M164.954 154.13L161.48 152.133C161.22 151.959 160.699 151.959 160.438 152.133L159.396 152.741C159.136 152.914 159.049 153.175 159.31 153.348L162.783 155.346C163.043 155.519 163.564 155.519 163.825 155.346L164.867 154.738C165.214 154.564 165.214 154.217 164.954 154.13Z" fill="#1D008D"/>
<path d="M170.164 157.169L166.691 155.172C166.43 154.998 165.909 154.998 165.649 155.172L164.607 155.78C164.346 155.953 164.259 156.214 164.52 156.387L167.993 158.385C168.254 158.558 168.775 158.558 169.035 158.385L170.077 157.777C170.425 157.603 170.512 157.256 170.164 157.169Z" fill="#1D008D"/>
<path d="M175.461 160.209L171.988 158.211C171.727 158.038 171.206 158.038 170.946 158.211L169.904 158.819C169.643 158.993 169.557 159.253 169.817 159.427L173.29 161.424C173.551 161.598 174.072 161.598 174.332 161.424L175.374 160.816C175.722 160.643 175.722 160.295 175.461 160.209Z" fill="#1D008D"/>
<path d="M133.953 130.25L130.48 128.253C130.219 128.08 129.698 128.08 129.438 128.253L126.225 130.164C125.964 130.337 125.877 130.598 126.138 130.772L129.611 132.769C129.872 132.942 130.393 132.942 130.653 132.769L133.866 130.858C134.213 130.685 134.214 130.424 133.953 130.25Z" fill="#1D008D"/>
<path d="M139.251 133.289L135.778 131.292C135.518 131.118 134.997 131.118 134.736 131.292L131.523 133.202C131.263 133.376 131.176 133.637 131.436 133.81L134.91 135.808C135.17 135.981 135.691 135.981 135.952 135.808L139.165 133.897C139.512 133.723 139.512 133.463 139.251 133.289Z" fill="#1D008D"/>
<path d="M144.549 136.416L141.075 134.419C140.815 134.245 140.294 134.245 140.033 134.419L136.82 136.329C136.56 136.503 136.473 136.763 136.733 136.937L140.207 138.934C140.467 139.108 140.988 139.108 141.249 138.934L144.462 137.024C144.809 136.85 144.809 136.503 144.549 136.416Z" fill="#1D008D"/>
<path d="M149.845 139.454L146.371 137.457C146.111 137.283 145.59 137.283 145.329 137.457L142.116 139.368C141.856 139.541 141.769 139.802 142.029 139.975L145.503 141.973C145.763 142.146 146.284 142.146 146.545 141.973L149.758 140.062C150.105 139.889 150.105 139.628 149.845 139.454Z" fill="#1D008D"/>
<path d="M155.142 142.494L151.668 140.497C151.408 140.323 150.887 140.323 150.626 140.497L147.414 142.407C147.153 142.581 147.066 142.841 147.327 143.015L150.8 145.012C151.061 145.186 151.582 145.186 151.842 145.012L155.055 143.102C155.402 142.928 155.402 142.668 155.142 142.494Z" fill="#1D008D"/>
<path d="M160.439 145.533L156.966 143.536C156.705 143.363 156.184 143.363 155.924 143.536L152.711 145.447C152.45 145.62 152.363 145.881 152.624 146.054L156.097 148.052C156.358 148.225 156.879 148.225 157.139 148.052L160.352 146.141C160.699 145.968 160.699 145.707 160.439 145.533Z" fill="#1D008D"/>
<path d="M165.736 148.659L162.263 146.662C162.002 146.488 161.481 146.488 161.221 146.662L158.008 148.572C157.747 148.746 157.661 149.007 157.921 149.18L161.394 151.177C161.655 151.351 162.176 151.351 162.436 151.177L165.649 149.267C165.997 149.093 166.084 148.833 165.736 148.659Z" fill="#1D008D"/>
<path d="M171.032 151.698L167.559 149.701C167.298 149.527 166.777 149.527 166.517 149.701L163.304 151.611C163.043 151.785 162.956 152.046 163.217 152.219L166.69 154.216C166.951 154.39 167.472 154.39 167.732 154.216L170.945 152.306C171.293 152.132 171.379 151.872 171.032 151.698Z" fill="#1D008D"/>
<path d="M176.416 154.738L172.943 152.741C172.682 152.567 172.161 152.567 171.901 152.741L168.688 154.651C168.427 154.825 168.341 155.086 168.601 155.259L172.074 157.256C172.335 157.43 172.856 157.43 173.116 157.256L176.329 155.346C176.59 155.172 176.677 154.912 176.416 154.738Z" fill="#1D008D"/>
<path d="M133.693 113.144L123.534 107.326C123.273 107.152 122.752 107.152 122.492 107.326L119.279 109.236C119.018 109.41 118.931 109.671 119.192 109.844L129.352 115.662C129.612 115.836 130.133 115.836 130.394 115.662L133.606 113.752C133.954 113.578 133.954 113.318 133.693 113.144Z" fill="#1D008D"/>
<path d="M198.818 150.83L188.658 145.013C188.398 144.839 187.877 144.839 187.616 145.013L184.403 146.923C184.143 147.097 184.056 147.357 184.316 147.531L194.476 153.349C194.737 153.522 195.258 153.522 195.518 153.349L198.731 151.438C199.078 151.265 199.165 150.917 198.818 150.83Z" fill="#1D008D"/>
<path d="M189.006 138.673L185.532 136.676C185.272 136.502 184.751 136.502 184.49 136.676L180.669 138.934C180.409 139.108 180.322 139.368 180.583 139.542L184.056 141.539C184.316 141.713 184.837 141.713 185.098 141.539L188.919 139.281C189.266 139.108 189.266 138.847 189.006 138.673Z" fill="#1D008D"/>
<path d="M150.452 116.444L144.982 113.231C144.721 113.058 144.2 113.058 143.94 113.231L140.119 115.489C139.859 115.663 139.772 115.923 140.032 116.097L145.503 119.31C145.763 119.483 146.284 119.483 146.545 119.31L150.366 117.052C150.713 116.878 150.8 116.618 150.452 116.444Z" fill="#1D008D"/>
<path d="M183.884 135.722L178.414 132.509C178.153 132.335 177.632 132.335 177.372 132.509L173.551 134.766C173.291 134.94 173.204 135.201 173.464 135.374L178.935 138.587C179.195 138.761 179.716 138.761 179.977 138.587L183.798 136.329C184.145 136.156 184.145 135.895 183.884 135.722Z" fill="#1D008D"/>
<path d="M158.181 120.872L152.71 117.66C152.45 117.486 151.929 117.486 151.668 117.66L147.847 119.917C147.587 120.091 147.5 120.351 147.761 120.525L153.231 123.738C153.492 123.912 154.013 123.912 154.273 123.738L158.094 121.48C158.441 121.307 158.441 121.046 158.181 120.872Z" fill="#1D008D"/>
<path d="M147.761 120.612L171.64 134.419C171.901 134.592 172.422 134.592 172.682 134.419L176.59 132.161C176.85 131.987 176.85 131.727 176.59 131.553L152.71 117.747L147.761 120.612Z" fill="#1D008D"/>
<path d="M198.819 147.183L202.64 149.354C202.9 149.528 203.248 149.441 203.508 149.354L205.071 148.399C205.332 148.225 205.332 148.052 205.071 147.878L201.251 145.707C200.99 145.534 200.643 145.62 200.382 145.707L198.819 146.662C198.559 146.836 198.559 147.097 198.819 147.183Z" fill="#1D008D"/>
<path d="M193.435 144.144L197.256 146.315C197.517 146.488 197.864 146.402 198.124 146.315L199.688 145.36C199.948 145.186 199.948 145.012 199.688 144.839L195.867 142.668C195.606 142.494 195.259 142.581 194.998 142.668L193.435 143.623C193.262 143.796 193.175 143.97 193.435 144.144Z" fill="#1D008D"/>
<path d="M188.138 141.018L191.959 143.189C192.219 143.363 192.567 143.276 192.827 143.189L194.39 142.234C194.651 142.06 194.651 141.887 194.39 141.713L190.57 139.542C190.309 139.368 189.962 139.455 189.701 139.542L188.138 140.497C187.964 140.671 187.878 140.932 188.138 141.018Z" fill="#1D008D"/>
<path d="M190.656 145.707L194.477 147.878C194.738 148.052 195.085 147.965 195.346 147.878L196.909 146.923C197.169 146.749 197.169 146.576 196.909 146.402L193.088 144.231C192.827 144.057 192.48 144.144 192.22 144.231L190.656 145.186C190.483 145.36 190.483 145.62 190.656 145.707Z" fill="#1D008D"/>
</g>
</g>
<g opacity="0.8">
<path d="M57.7125 148.749L54.3259 146.752C54.0654 146.578 54.0654 146.317 54.4128 146.144L58.4072 143.799C58.7545 143.625 59.1887 143.625 59.4492 143.712L62.8357 145.71C63.0962 145.883 63.0962 146.144 62.7489 146.317L58.7545 148.662C58.494 148.922 57.973 148.922 57.7125 148.749Z" fill="#1D008D"/>
<path d="M63.0097 151.788L59.6232 149.791C59.3627 149.617 59.3627 149.356 59.71 149.183L63.7044 146.838C64.0517 146.665 64.4859 146.665 64.7464 146.751L68.133 148.749C68.3935 148.922 68.3935 149.183 68.0461 149.356L64.0518 151.701C63.7044 151.961 63.2702 151.961 63.0097 151.788Z" fill="#1D008D"/>
<path d="M68.2201 154.827L64.8335 152.83C64.573 152.656 64.573 152.396 64.9204 152.222L68.9147 149.878C69.2621 149.704 69.6962 149.704 69.9567 149.791L73.3433 151.788C73.6038 151.962 73.6038 152.222 73.2565 152.396L69.2621 154.74C69.0016 155.001 68.4806 155.001 68.2201 154.827Z" fill="#1D008D"/>
<path d="M75.5131 152.308L72.1266 150.311C71.8661 150.138 71.8661 149.877 72.2134 149.703L75.6 147.793C75.9473 147.619 76.3815 147.619 76.642 147.706L80.0286 149.703C80.2891 149.877 80.2891 150.138 79.9417 150.311L76.5552 152.222C76.2947 152.482 75.7737 152.482 75.5131 152.308Z" fill="#1D008D"/>
<path d="M80.8104 155.348L77.4238 153.351C77.1633 153.177 77.1633 152.917 77.5107 152.743L80.8972 150.833C81.2446 150.659 81.6787 150.659 81.9392 150.746L85.3258 152.743C85.5863 152.917 85.5863 153.177 85.239 153.351L81.8524 155.261C81.5051 155.522 81.0709 155.522 80.8104 155.348Z" fill="#1D008D"/>
<path d="M86.0208 158.387L82.6343 156.39C82.3738 156.216 82.3738 155.956 82.7211 155.782L86.1077 153.872C86.455 153.698 86.8892 153.698 87.1497 153.785L90.5362 155.782C90.7968 155.956 90.7967 156.216 90.4494 156.39L87.0629 158.3C86.8024 158.561 86.2813 158.561 86.0208 158.387Z" fill="#1D008D"/>
<path d="M91.318 161.426L87.9314 159.429C87.6709 159.255 87.6709 158.995 88.0182 158.821L91.4048 156.911C91.7521 156.737 92.1863 156.737 92.4468 156.824L95.8334 158.821C96.0939 158.995 96.0939 159.255 95.7465 159.429L92.36 161.339C92.0126 161.6 91.5785 161.6 91.318 161.426Z" fill="#1D008D"/>
<path d="M96.5284 164.466L93.1419 162.468C92.8814 162.295 92.8814 162.034 93.2287 161.861L96.6153 159.95C96.9626 159.777 97.3968 159.777 97.6573 159.863L101.044 161.861C101.304 162.034 101.304 162.295 100.957 162.468L97.5704 164.379C97.3099 164.639 96.7889 164.639 96.5284 164.466Z" fill="#1D008D"/>
<path d="M101.826 167.505L98.4391 165.508C98.1786 165.334 98.1786 165.073 98.5259 164.9L101.912 162.989C102.26 162.816 102.694 162.816 102.955 162.902L106.341 164.9C106.602 165.073 106.602 165.334 106.254 165.508L102.868 167.418C102.52 167.592 102.086 167.678 101.826 167.505Z" fill="#1D008D"/>
<path d="M107.034 170.545L103.647 168.547C103.386 168.374 103.386 168.113 103.734 167.939L107.12 166.029C107.468 165.855 107.902 165.855 108.162 165.942L111.549 167.939C111.809 168.113 111.809 168.374 111.462 168.547L108.076 170.458C107.815 170.631 107.294 170.718 107.034 170.545Z" fill="#1D008D"/>
<path d="M112.331 173.583L108.944 171.586C108.684 171.412 108.684 171.152 109.031 170.978L112.417 169.068C112.765 168.894 113.199 168.894 113.46 168.981L116.846 170.978C117.107 171.152 117.107 171.412 116.759 171.586L113.373 173.497C113.025 173.67 112.591 173.757 112.331 173.583Z" fill="#1D008D"/>
<path d="M117.541 176.622L114.155 174.625C113.894 174.452 113.894 174.191 114.241 174.017L117.628 172.107C117.975 171.933 118.409 171.933 118.67 172.02L122.057 174.017C122.317 174.191 122.317 174.452 121.97 174.625L118.583 176.536C118.323 176.709 117.802 176.796 117.541 176.622Z" fill="#1D008D"/>
<path d="M122.838 179.661L119.452 177.664C119.191 177.49 119.191 177.23 119.539 177.056L122.925 175.146C123.273 174.972 123.707 174.972 123.967 175.059L127.354 177.056C127.614 177.23 127.614 177.49 127.267 177.664L123.88 179.574C123.533 179.748 123.099 179.748 122.838 179.661Z" fill="#1D008D"/>
<path d="M83.2414 150.919L79.8549 148.922C79.5944 148.748 79.5944 148.488 79.9417 148.314L83.3283 146.404C83.6756 146.23 84.1098 146.23 84.3703 146.317L87.7568 148.314C88.0173 148.488 88.0173 148.748 87.67 148.922L84.2834 150.832C84.0229 151.006 83.5019 151.006 83.2414 150.919Z" fill="#1D008D"/>
<path d="M77.9454 147.793L74.5589 145.796C74.2984 145.622 74.2984 145.362 74.6457 145.188L78.0322 143.278C78.3796 143.104 78.8138 143.104 79.0743 143.191L82.4608 145.188C82.7213 145.362 82.7213 145.622 82.374 145.796L78.9874 147.706C78.6401 147.967 78.2059 147.967 77.9454 147.793Z" fill="#1D008D"/>
<path d="M72.5604 144.755L65.2663 140.5C65.0058 140.326 65.0058 140.066 65.3531 139.892L68.7396 137.982C69.087 137.808 69.5211 137.808 69.7816 137.895L77.0758 142.15C77.3363 142.323 77.3363 142.584 76.9889 142.758L73.6024 144.668C73.3419 144.842 72.8209 144.929 72.5604 144.755Z" fill="#1D008D"/>
<path d="M76.2957 141.02L70.391 137.547C70.1305 137.373 70.1305 137.112 70.4779 136.939L73.8644 135.028C74.2117 134.855 74.6459 134.855 74.9064 134.942L80.8112 138.415C81.0717 138.589 81.0717 138.849 80.7243 139.023L77.3378 140.933C77.0773 141.107 76.5563 141.107 76.2957 141.02Z" fill="#1D008D"/>
<path d="M88.5385 153.959L85.152 151.961C84.8915 151.788 84.8915 151.527 85.2388 151.354L88.6254 149.443C88.9727 149.27 89.4069 149.27 89.6674 149.356L93.0539 151.354C93.3145 151.527 93.3144 151.788 92.9671 151.961L89.5806 153.872C89.2332 154.045 88.799 154.045 88.5385 153.959Z" fill="#1D008D"/>
<path d="M93.749 156.998L90.3624 155.001C90.1019 154.827 90.1019 154.567 90.4493 154.393L93.8358 152.482C94.1832 152.309 94.6173 152.309 94.8779 152.396L98.2644 154.393C98.5249 154.567 98.5249 154.827 98.1776 155.001L94.791 156.911C94.5305 157.085 94.0095 157.085 93.749 156.998Z" fill="#1D008D"/>
<path d="M99.0462 159.95L95.6597 157.953C95.3992 157.779 95.3992 157.518 95.7465 157.345L99.1331 155.434C99.4804 155.261 99.9146 155.261 100.175 155.348L103.562 157.345C103.822 157.518 103.822 157.779 103.475 157.953L100.088 159.863C99.7409 160.123 99.3067 160.123 99.0462 159.95Z" fill="#1D008D"/>
<path d="M104.257 162.989L100.87 160.992C100.61 160.818 100.61 160.557 100.957 160.384L104.343 158.473C104.691 158.3 105.125 158.3 105.385 158.387L108.772 160.384C109.032 160.557 109.032 160.818 108.685 160.992L105.299 162.902C105.038 163.163 104.517 163.163 104.257 162.989Z" fill="#1D008D"/>
<path d="M109.554 166.029L106.167 164.031C105.907 163.858 105.907 163.597 106.254 163.424L109.641 161.513C109.988 161.34 110.422 161.34 110.683 161.426L114.069 163.424C114.33 163.597 114.33 163.858 113.982 164.031L110.596 165.942C110.248 166.202 109.814 166.202 109.554 166.029Z" fill="#1D008D"/>
<path d="M114.762 169.067L111.375 167.07C111.115 166.897 111.115 166.636 111.462 166.462L114.849 164.552C115.196 164.378 115.63 164.378 115.891 164.465L119.277 166.462C119.538 166.636 119.538 166.897 119.19 167.07L115.804 168.981C115.543 169.241 115.022 169.241 114.762 169.067Z" fill="#1D008D"/>
<path d="M120.059 172.107L116.672 170.11C116.412 169.936 116.412 169.676 116.759 169.502L120.146 167.592C120.493 167.418 120.927 167.418 121.188 167.505L124.574 169.502C124.835 169.676 124.835 169.936 124.487 170.11L121.101 172.02C120.754 172.281 120.319 172.281 120.059 172.107Z" fill="#1D008D"/>
<path d="M125.269 175.146L121.883 173.149C121.622 172.975 121.622 172.715 121.97 172.541L125.356 170.631C125.703 170.457 126.138 170.457 126.398 170.544L129.785 172.541C130.045 172.715 130.045 172.975 129.698 173.149L126.311 175.059C126.051 175.32 125.53 175.32 125.269 175.146Z" fill="#1D008D"/>
<path d="M130.566 178.184L127.18 176.187C126.919 176.014 126.919 175.753 127.267 175.579L130.653 173.669C131.001 173.495 131.435 173.495 131.695 173.582L135.082 175.579C135.342 175.753 135.342 176.014 134.995 176.187L131.609 178.098C131.261 178.358 130.827 178.358 130.566 178.184Z" fill="#1D008D"/>
<path d="M139.858 183.569L132.477 179.314C132.217 179.14 132.217 178.88 132.564 178.706L135.951 176.795C136.298 176.622 136.732 176.622 136.993 176.709L144.374 180.964C144.634 181.137 144.634 181.398 144.287 181.571L140.9 183.482C140.64 183.742 140.205 183.742 139.858 183.569Z" fill="#1D008D"/>
<path d="M150.105 177.665L143.853 174.018C143.592 173.844 143.592 173.584 143.939 173.41L147.326 171.5C147.673 171.326 148.107 171.326 148.368 171.413L154.62 175.06C154.881 175.233 154.881 175.494 154.533 175.668L151.147 177.578C150.886 177.839 150.365 177.839 150.105 177.665Z" fill="#1D008D"/>
<path d="M97.7422 153.351L94.3556 151.354C94.0951 151.18 94.0951 150.92 94.4424 150.746L97.829 148.836C98.1763 148.662 98.6105 148.662 98.871 148.749L102.258 150.746C102.518 150.92 102.518 151.18 102.171 151.354L98.7842 153.264C98.4368 153.438 98.0027 153.525 97.7422 153.351Z" fill="#1D008D"/>
<path d="M92.3593 150.225L88.9728 148.228C88.7123 148.054 88.7123 147.793 89.0596 147.62L92.4462 145.709C92.7935 145.536 93.2277 145.536 93.4882 145.622L96.8747 147.62C97.1353 147.793 97.1352 148.054 96.7879 148.228L93.4014 150.138C93.054 150.398 92.6198 150.398 92.3593 150.225Z" fill="#1D008D"/>
<path d="M86.9753 147.099L83.5888 145.102C83.3283 144.928 83.3283 144.668 83.6756 144.494L87.0622 142.584C87.4095 142.41 87.8437 142.41 88.1042 142.497L91.4907 144.494C91.7512 144.668 91.7512 144.928 91.4039 145.102L88.0173 147.012C87.67 147.273 87.2358 147.273 86.9753 147.099Z" fill="#1D008D"/>
<path d="M81.5926 143.973L78.2061 141.975C77.9456 141.802 77.9456 141.541 78.2929 141.367L81.6795 139.457C82.0268 139.283 82.461 139.283 82.7215 139.37L86.108 141.367C86.3685 141.541 86.3685 141.802 86.0212 141.975L82.6346 143.886C82.2873 144.146 81.8531 144.146 81.5926 143.973Z" fill="#1D008D"/>
<path d="M102.952 156.39L99.5659 154.393C99.3054 154.219 99.3054 153.959 99.6528 153.785L103.039 151.875C103.387 151.701 103.821 151.701 104.081 151.788L107.468 153.785C107.728 153.959 107.728 154.219 107.381 154.393L103.995 156.303C103.734 156.477 103.213 156.564 102.952 156.39Z" fill="#1D008D"/>
<path d="M108.25 159.43L104.863 157.433C104.603 157.259 104.603 156.998 104.95 156.825L108.337 154.914C108.684 154.741 109.118 154.741 109.379 154.828L112.765 156.825C113.026 156.998 113.026 157.259 112.678 157.433L109.292 159.343C108.944 159.517 108.51 159.517 108.25 159.43Z" fill="#1D008D"/>
<path d="M113.46 162.469L110.074 160.472C109.813 160.298 109.813 160.037 110.16 159.864L113.547 157.953C113.894 157.78 114.328 157.78 114.589 157.867L117.975 159.864C118.236 160.037 118.236 160.298 117.889 160.472L114.502 162.382C114.242 162.556 113.721 162.556 113.46 162.469Z" fill="#1D008D"/>
<path d="M118.757 165.508L115.371 163.51C115.11 163.337 115.11 163.076 115.458 162.903L118.844 160.992C119.191 160.819 119.626 160.819 119.886 160.905L123.273 162.903C123.533 163.076 123.533 163.337 123.186 163.51L119.799 165.421C119.452 165.594 119.018 165.594 118.757 165.508Z" fill="#1D008D"/>
<path d="M123.968 168.46L120.581 166.463C120.321 166.289 120.321 166.028 120.668 165.855L124.055 163.944C124.402 163.771 124.836 163.771 125.097 163.858L128.483 165.855C128.744 166.028 128.744 166.289 128.396 166.463L125.097 168.46C124.749 168.633 124.228 168.633 123.968 168.46Z" fill="#1D008D"/>
<path d="M129.265 171.5L125.878 169.502C125.618 169.329 125.618 169.068 125.965 168.895L129.352 166.984C129.699 166.811 130.133 166.811 130.394 166.897L133.78 168.895C134.041 169.068 134.041 169.329 133.693 169.502L130.307 171.413C129.96 171.673 129.525 171.673 129.265 171.5Z" fill="#1D008D"/>
<path d="M134.475 174.539L131.089 172.542C130.828 172.368 130.828 172.108 131.176 171.934L134.562 170.024C134.909 169.85 135.344 169.85 135.604 169.937L138.991 171.934C139.251 172.108 139.251 172.368 138.904 172.542L135.517 174.452C135.257 174.713 134.736 174.713 134.475 174.539Z" fill="#1D008D"/>
<path d="M139.77 177.577L136.383 175.58C136.123 175.407 136.123 175.146 136.47 174.972L139.857 173.062C140.204 172.888 140.638 172.888 140.899 172.975L144.285 174.972C144.546 175.146 144.546 175.407 144.199 175.58L140.812 177.491C140.465 177.751 140.03 177.751 139.77 177.577Z" fill="#1D008D"/>
<path d="M144.98 180.617L141.594 178.62C141.333 178.446 141.333 178.185 141.681 178.012L145.067 176.101C145.415 175.928 145.849 175.928 146.109 176.015L149.496 178.012C149.756 178.185 149.756 178.446 149.409 178.62L146.022 180.53C145.762 180.79 145.241 180.79 144.98 180.617Z" fill="#1D008D"/>
<path d="M94.9652 145.797L91.5786 143.8C91.3181 143.626 91.3181 143.365 91.6655 143.192L95.052 141.281C95.3994 141.108 95.8335 141.108 96.094 141.194L99.4806 143.192C99.7411 143.365 99.7411 143.626 99.3937 143.8L96.0072 145.71C95.6599 145.97 95.2257 145.97 94.9652 145.797Z" fill="#1D008D"/>
<path d="M89.7547 142.844L86.3682 140.847C86.1077 140.673 86.1077 140.413 86.455 140.239L89.8416 138.329C90.1889 138.155 90.6231 138.155 90.8836 138.242L94.2701 140.239C94.5306 140.413 94.5306 140.673 94.1833 140.847L90.7968 142.757C90.4494 142.931 90.0152 142.931 89.7547 142.844Z" fill="#1D008D"/>
<path d="M84.4575 139.805L81.0709 137.807C80.8104 137.634 80.8104 137.373 81.1578 137.199L84.5443 135.289C84.8917 135.115 85.3258 135.115 85.5863 135.202L88.9729 137.199C89.2334 137.373 89.2334 137.634 88.8861 137.807L85.4995 139.718C85.239 139.891 84.8048 139.978 84.4575 139.805Z" fill="#1D008D"/>
<path d="M79.2471 136.765L75.8605 134.768C75.6 134.595 75.6 134.334 75.9473 134.16L79.3339 132.25C79.6812 132.076 80.1154 132.076 80.3759 132.163L83.7624 134.16C84.0229 134.334 84.0229 134.595 83.6756 134.768L80.2891 136.679C80.0286 136.939 79.5076 136.939 79.2471 136.765Z" fill="#1D008D"/>
<path d="M84.6298 133.639L81.2433 131.642C80.9828 131.468 80.9828 131.208 81.3301 131.034L82.459 130.426C82.8063 130.252 83.2405 130.252 83.501 130.339L86.8876 132.336C87.1481 132.51 87.1481 132.771 86.8007 132.944L85.6719 133.552C85.4114 133.813 84.8904 133.813 84.6298 133.639Z" fill="#1D008D"/>
<path d="M91.4915 137.634L88.105 135.637C87.8445 135.463 87.8445 135.202 88.1918 135.029L89.3207 134.421C89.668 134.247 90.1022 134.247 90.3627 134.334L93.7492 136.331C94.0098 136.505 94.0097 136.766 93.6624 136.939L92.5336 137.547C92.1862 137.721 91.752 137.808 91.4915 137.634Z" fill="#1D008D"/>
<path d="M96.7006 140.586L93.3141 138.589C93.0536 138.415 93.0536 138.155 93.4009 137.981L94.5298 137.373C94.8771 137.2 95.3113 137.2 95.5718 137.287L98.9584 139.284C99.2189 139.457 99.2189 139.718 98.8715 139.892L97.7427 140.499C97.3953 140.76 96.9612 140.76 96.7006 140.586Z" fill="#1D008D"/>
<path d="M101.911 143.625L98.5246 141.628C98.2641 141.454 98.2641 141.194 98.6114 141.02L99.7402 140.412C100.088 140.239 100.522 140.239 100.782 140.326L104.169 142.323C104.429 142.496 104.429 142.757 104.082 142.931L102.953 143.538C102.606 143.799 102.172 143.799 101.911 143.625Z" fill="#1D008D"/>
<path d="M107.122 146.665L103.735 144.668C103.475 144.494 103.475 144.234 103.822 144.06L104.951 143.452C105.298 143.279 105.732 143.279 105.993 143.365L109.379 145.363C109.64 145.536 109.64 145.797 109.292 145.97L108.164 146.578C107.816 146.752 107.382 146.752 107.122 146.665Z" fill="#1D008D"/>
<path d="M136.124 163.424L132.738 161.427C132.477 161.253 132.477 160.993 132.824 160.819L133.953 160.211C134.301 160.038 134.735 160.038 134.995 160.124L138.382 162.122C138.642 162.295 138.642 162.556 138.295 162.729L137.166 163.337C136.906 163.511 136.385 163.598 136.124 163.424Z" fill="#1D008D"/>
<path d="M141.333 166.376L137.947 164.379C137.686 164.205 137.686 163.944 138.034 163.771L139.162 163.163C139.51 162.989 139.944 162.989 140.204 163.076L143.591 165.073C143.851 165.247 143.851 165.507 143.504 165.681L142.375 166.289C142.115 166.549 141.594 166.549 141.333 166.376Z" fill="#1D008D"/>
<path d="M146.544 169.415L143.157 167.418C142.897 167.244 142.897 166.984 143.244 166.81L144.373 166.202C144.72 166.029 145.154 166.029 145.415 166.116L148.801 168.113C149.062 168.287 149.062 168.547 148.715 168.721L147.586 169.329C147.325 169.589 146.804 169.589 146.544 169.415Z" fill="#1D008D"/>
<path d="M151.754 172.455L148.368 170.457C148.107 170.284 148.107 170.023 148.454 169.85L149.583 169.242C149.931 169.068 150.365 169.068 150.625 169.155L154.012 171.152C154.272 171.326 154.272 171.586 153.925 171.76L152.796 172.368C152.536 172.541 152.015 172.541 151.754 172.455Z" fill="#1D008D"/>
<path d="M100.174 148.835L96.7877 146.838C96.5272 146.664 96.5272 146.404 96.8746 146.23L100.261 144.32C100.608 144.146 101.043 144.146 101.303 144.233L104.69 146.23C104.95 146.404 104.95 146.664 104.603 146.838L101.216 148.748C100.956 149.009 100.435 149.009 100.174 148.835Z" fill="#1D008D"/>
<path d="M105.47 151.874L102.084 149.877C101.823 149.703 101.823 149.443 102.171 149.269L105.557 147.359C105.904 147.185 106.339 147.185 106.599 147.272L109.986 149.269C110.246 149.443 110.246 149.703 109.899 149.877L106.512 151.788C106.165 152.048 105.731 152.048 105.47 151.874Z" fill="#1D008D"/>
<path d="M110.681 154.914L107.294 152.916C107.034 152.743 107.034 152.482 107.381 152.309L110.767 150.398C111.115 150.225 111.549 150.225 111.809 150.311L115.196 152.309C115.457 152.482 115.457 152.743 115.109 152.916L111.723 154.827C111.462 155.087 110.941 155.087 110.681 154.914Z" fill="#1D008D"/>
<path d="M115.978 157.953L112.591 155.956C112.331 155.782 112.331 155.522 112.678 155.348L116.065 153.438C116.412 153.264 116.846 153.264 117.107 153.351L120.493 155.348C120.754 155.522 120.754 155.782 120.406 155.956L117.02 157.866C116.759 158.127 116.238 158.127 115.978 157.953Z" fill="#1D008D"/>
<path d="M121.188 160.993L117.802 158.996C117.541 158.822 117.541 158.561 117.889 158.388L121.275 156.477C121.622 156.304 122.057 156.304 122.317 156.391L125.704 158.388C125.964 158.561 125.964 158.822 125.617 158.996L122.23 160.906C121.97 161.166 121.536 161.166 121.188 160.993Z" fill="#1D008D"/>
<path d="M126.485 164.031L123.099 162.034C122.838 161.86 122.838 161.6 123.186 161.426L126.572 159.516C126.92 159.342 127.354 159.342 127.614 159.429L131.001 161.426C131.261 161.6 131.261 161.86 130.914 162.034L127.527 163.944C127.267 164.205 126.746 164.205 126.485 164.031Z" fill="#1D008D"/>
<path d="M131.696 167.071L128.309 165.073C128.049 164.9 128.049 164.639 128.396 164.466L131.783 162.555C132.13 162.382 132.564 162.382 132.825 162.468L136.211 164.466C136.472 164.639 136.472 164.9 136.124 165.073L132.738 166.984C132.477 167.244 132.043 167.244 131.696 167.071Z" fill="#1D008D"/>
<path d="M136.993 170.11L133.607 168.113C133.346 167.94 133.346 167.679 133.693 167.505L137.08 165.595C137.427 165.421 137.861 165.421 138.122 165.508L141.509 167.505C141.769 167.679 141.769 167.94 141.422 168.113L138.035 170.024C137.775 170.197 137.254 170.284 136.993 170.11Z" fill="#1D008D"/>
<path d="M142.202 173.149L138.816 171.152C138.555 170.978 138.555 170.717 138.903 170.544L142.289 168.633C142.637 168.46 143.071 168.46 143.331 168.547L146.718 170.544C146.978 170.717 146.978 170.978 146.631 171.152L143.244 173.062C142.984 173.236 142.55 173.322 142.202 173.149Z" fill="#1D008D"/>
<path d="M70.131 149.269L60.1451 143.451C59.8845 143.278 59.8845 143.017 60.2319 142.844L63.6184 140.933C63.9658 140.76 64.3999 140.76 64.6604 140.846L74.6464 146.664C74.9069 146.838 74.9069 147.098 74.5596 147.272L71.173 149.182C70.9125 149.356 70.4784 149.356 70.131 149.269Z" fill="#1D008D"/>
<path d="M134.734 186.521L124.748 180.703C124.487 180.529 124.487 180.269 124.835 180.095L128.221 178.185C128.568 178.011 129.003 178.011 129.263 178.098L139.249 183.916C139.51 184.09 139.51 184.35 139.162 184.524L135.776 186.434C135.428 186.608 134.994 186.695 134.734 186.521Z" fill="#1D008D"/>
<path d="M113.72 181.051L110.334 179.054C110.073 178.88 110.073 178.62 110.421 178.446L114.415 176.101C114.762 175.928 115.197 175.928 115.457 176.015L118.844 178.012C119.104 178.185 119.104 178.446 118.757 178.62L114.762 180.964C114.415 181.225 113.981 181.225 113.72 181.051Z" fill="#1D008D"/>
<path d="M75.512 159.081L70.0414 155.955C69.7809 155.782 69.7809 155.521 70.1282 155.348L74.1226 153.003C74.4699 152.829 74.9041 152.829 75.1646 152.916L80.6352 156.042C80.8957 156.216 80.8957 156.476 80.5484 156.65L76.554 158.995C76.2935 159.168 75.7725 159.168 75.512 159.081Z" fill="#1D008D"/>
<path d="M108.598 178.185L103.128 175.059C102.867 174.886 102.867 174.625 103.214 174.452L107.209 172.107C107.556 171.933 107.99 171.933 108.251 172.02L113.721 175.146C113.982 175.32 113.982 175.58 113.635 175.754L109.64 178.099C109.38 178.272 108.945 178.272 108.598 178.185Z" fill="#1D008D"/>
<path d="M83.1547 163.423L77.6841 160.297C77.4236 160.124 77.4236 159.863 77.7709 159.69L81.7653 157.345C82.1127 157.171 82.5468 157.171 82.8073 157.258L88.2779 160.384C88.5384 160.558 88.5384 160.818 88.1911 160.992L84.1967 163.337C83.8494 163.597 83.4152 163.597 83.1547 163.423Z" fill="#1D008D"/>
<path d="M82.8945 157.345L106.513 170.978C106.774 171.152 106.774 171.412 106.513 171.586L102.432 173.93C102.172 174.104 101.651 174.104 101.39 173.93L77.7712 160.297L82.8945 157.345Z" fill="#1D008D"/>
<path d="M128.396 186.608L132.216 188.778C132.477 188.865 132.39 189.126 132.129 189.299L130.48 190.255C130.219 190.428 129.872 190.428 129.611 190.255L125.79 188.084C125.53 187.997 125.617 187.736 125.877 187.563L127.527 186.608C127.788 186.434 128.135 186.434 128.396 186.608Z" fill="#1D008D"/>
<path d="M123.098 183.482L126.919 185.653C127.179 185.74 127.093 186 126.832 186.174L125.182 187.129C124.922 187.303 124.574 187.303 124.314 187.129L120.493 184.958C120.233 184.871 120.32 184.611 120.58 184.437L122.23 183.482C122.49 183.395 122.838 183.395 123.098 183.482Z" fill="#1D008D"/>
<path d="M117.801 180.443L121.622 182.614C121.882 182.701 121.795 182.961 121.535 183.135L119.885 184.09C119.625 184.264 119.277 184.264 119.017 184.09L115.196 181.919C114.935 181.832 115.022 181.572 115.283 181.398L116.933 180.443C117.193 180.356 117.627 180.356 117.801 180.443Z" fill="#1D008D"/>
<path d="M125.963 181.832L129.784 184.003C130.044 184.09 129.958 184.35 129.697 184.524L128.047 185.479C127.787 185.653 127.439 185.653 127.179 185.479L123.358 183.308C123.098 183.221 123.184 182.961 123.445 182.787L125.095 181.832C125.355 181.745 125.789 181.745 125.963 181.832Z" fill="#1D008D"/>
</g>
<path d="M179.627 100.12C179.366 100.12 179.106 100.033 178.845 99.8594C178.064 99.4252 177.543 98.3832 177.716 97.5149C177.803 97.0807 178.064 96.8202 178.411 96.6465C178.758 96.4728 179.279 96.5597 179.714 96.8202C180.495 97.2543 181.016 98.2964 180.842 99.1647C180.756 99.5989 180.495 99.8594 180.148 100.033C179.887 100.033 179.8 100.12 179.627 100.12ZM178.845 96.907C178.758 96.907 178.585 96.907 178.498 96.9938C178.237 97.0807 178.064 97.3412 178.064 97.6017C177.89 98.2964 178.324 99.1647 179.019 99.512C179.366 99.6857 179.714 99.7725 179.974 99.5989C180.235 99.512 180.408 99.2515 180.408 98.991C180.582 98.2964 180.148 97.428 179.453 97.0807C179.193 96.9938 179.019 96.907 178.845 96.907Z" fill="#7C40FF"/>
<path d="M183.968 102.552C183.708 102.552 183.447 102.465 183.187 102.291C182.405 101.857 181.884 100.815 182.058 99.9465C182.145 99.5123 182.405 99.2518 182.752 99.0781C183.1 98.9045 183.621 98.9913 184.055 99.2518C184.836 99.686 185.357 100.728 185.184 101.596C185.097 102.031 184.836 102.291 184.489 102.465C184.229 102.552 184.055 102.552 183.968 102.552ZM183.187 99.4255C183.1 99.4255 182.926 99.4255 182.839 99.5123C182.579 99.5992 182.405 99.8597 182.405 100.12C182.231 100.815 182.666 101.683 183.36 102.031C183.708 102.204 184.055 102.291 184.315 102.117C184.576 102.031 184.75 101.77 184.75 101.51C184.923 100.815 184.489 99.9465 183.794 99.5991C183.534 99.5123 183.36 99.4255 183.187 99.4255Z" fill="#7C40FF"/>
<path d="M189.179 104.115C189.005 104.896 188.223 105.157 187.529 104.722C186.747 104.288 186.313 103.333 186.487 102.552C186.66 101.77 187.442 101.51 188.137 101.944C188.918 102.378 189.352 103.333 189.179 104.115Z" fill="#7C40FF"/>
<path d="M106.166 56.2681L103.822 54.9656L103.995 53.9236L106.34 55.2261L106.166 56.2681Z" fill="#7C40FF"/>
<path d="M109.553 58.2656L107.208 56.8762L107.382 55.8342L109.727 57.1367L109.553 58.2656Z" fill="#7C40FF"/>
<path d="M102.78 54.3582L97.7434 51.4058L97.9171 50.3638L102.953 53.3161L102.78 54.3582Z" fill="#7C40FF"/>
<path d="M179.454 149.268L171.465 144.839C169.641 143.797 168.078 141.626 167.557 139.368L160.611 110.8C159.829 107.413 157.05 104.982 155.14 104.895H155.053C154.098 104.895 153.49 105.416 153.143 106.458L151.059 112.884C150.798 113.579 150.364 114.1 149.756 114.36C148.975 114.621 148.106 114.534 147.151 113.926L145.675 113.058C144.025 112.102 142.462 110.018 141.941 107.847C140.986 104.548 138.468 102.377 136.644 102.203C136.557 102.203 136.471 102.203 136.471 102.203C135.689 102.203 135.081 102.637 134.647 103.419L132.389 108.282C132.129 108.889 131.695 109.237 131.087 109.41C130.392 109.671 129.524 109.497 128.569 108.976L126.919 108.021C125.095 106.979 123.532 104.721 123.011 102.464L116.064 71.6374C115.283 68.2509 112.591 65.7327 110.594 65.6458C109.639 65.559 108.944 66.08 108.51 67.0352L97.3081 97.6878C97.0476 98.3825 96.6135 98.8166 96.0056 99.0771C95.311 99.3377 94.3558 99.164 93.4006 98.643L87.7563 95.3433L87.8432 95.2564L93.4874 98.5561C94.3558 99.0771 95.2241 99.2508 95.9188 98.9903C96.4398 98.8166 96.874 98.3825 97.1345 97.6878L108.336 67.0352C108.683 66.08 109.378 65.4722 110.333 65.4722C110.42 65.4722 110.42 65.4722 110.507 65.4722C112.504 65.6458 115.283 68.164 116.064 71.6374L123.011 102.464C123.532 104.721 125.095 106.979 126.832 107.934L128.482 108.889C129.35 109.41 130.218 109.584 130.913 109.324C131.434 109.15 131.868 108.803 132.129 108.195L134.387 103.332C134.821 102.464 135.602 101.943 136.557 102.03C138.468 102.203 141.073 104.461 141.941 107.761C142.549 109.845 144.025 111.929 145.675 112.884L147.151 113.752C148.106 114.273 148.975 114.447 149.669 114.186C150.277 113.926 150.625 113.492 150.885 112.797L152.969 106.371C153.316 105.242 154.098 104.721 155.14 104.721C157.137 104.808 159.916 107.24 160.784 110.713L167.731 139.282C168.252 141.539 169.815 143.71 171.552 144.665L179.54 149.094L179.454 149.268Z" fill="#7C40FF"/>
<path d="M173.374 152.741L165.386 148.313C163.562 147.271 161.999 145.1 161.478 142.842L154.531 114.273C153.75 110.887 150.971 108.456 149.061 108.369C148.105 108.369 147.411 108.89 147.063 109.932L144.979 116.357C144.719 117.052 144.285 117.573 143.677 117.834C142.895 118.094 142.027 118.007 141.072 117.399L139.596 116.531C137.946 115.576 136.383 113.492 135.862 111.321C134.907 108.021 132.388 105.85 130.565 105.677C129.61 105.59 128.915 106.024 128.568 106.893L126.31 111.755C126.049 112.363 125.615 112.71 125.007 112.884C124.313 113.145 123.444 112.971 122.489 112.45L120.839 111.495C119.016 110.453 117.453 108.195 116.932 105.937L109.985 75.1111C109.204 71.7245 106.512 69.2063 104.514 69.1195C103.559 69.0326 102.865 69.5536 102.43 70.5088L91.2288 101.161C90.9683 101.856 90.5341 102.29 89.9263 102.551C89.2316 102.811 88.2764 102.638 87.3212 102.117L81.677 98.8169L81.7638 98.7301L87.4081 102.03C88.2764 102.551 89.1448 102.724 89.8394 102.464C90.3605 102.29 90.7946 101.856 91.0551 101.161L102.257 70.5088C102.604 69.4668 103.386 68.9458 104.428 68.9458C106.425 69.1195 109.204 71.6377 109.985 75.1111L116.932 105.937C117.453 108.195 119.016 110.453 120.753 111.408L122.402 112.363C123.271 112.884 124.139 113.058 124.834 112.797C125.355 112.624 125.789 112.276 126.049 111.668L128.307 106.806C128.741 105.937 129.523 105.416 130.478 105.503C132.388 105.677 134.993 107.935 135.862 111.234C136.47 113.318 137.946 115.402 139.596 116.357L141.072 117.226C142.027 117.747 142.895 117.92 143.59 117.66C144.198 117.399 144.545 116.965 144.806 116.271L146.89 109.845C147.237 108.803 147.932 108.195 148.974 108.195H149.061C151.058 108.282 153.837 110.713 154.705 114.187L161.652 142.755C162.173 145.013 163.736 147.184 165.472 148.139L173.461 152.567L173.374 152.741Z" fill="#7C40FF"/>
<path d="M109.409 65.5812L103.308 69.0818L103.481 69.383L109.581 65.8824L109.409 65.5812Z" fill="#7C40FF"/>
<path d="M135.274 102.246L129.103 105.798L129.276 106.099L135.447 102.547L135.274 102.246Z" fill="#7C40FF"/>
<path d="M154.208 104.799L147.73 108.515L147.903 108.816L154.38 105.1L154.208 104.799Z" fill="#7C40FF"/>
<path d="M179.365 149.355L171.376 144.926C169.552 143.884 167.989 141.713 167.381 139.369L160.435 110.8C159.653 107.5 156.961 105.069 155.051 104.982C154.096 104.982 153.488 105.416 153.14 106.458L151.143 112.884C150.883 113.666 150.449 114.187 149.754 114.447C148.972 114.708 148.017 114.621 147.062 114.013L145.586 113.145C143.849 112.19 142.373 110.105 141.765 107.935C140.897 104.722 138.379 102.551 136.555 102.377C135.687 102.29 134.992 102.725 134.645 103.506L132.387 108.369C132.127 108.977 131.606 109.411 130.998 109.584C130.216 109.845 129.348 109.671 128.393 109.15L126.743 108.195C124.919 107.153 123.356 104.895 122.835 102.551L115.888 71.7246C115.107 68.3381 112.502 65.9067 110.505 65.8199C109.55 65.733 108.942 66.254 108.594 67.2092L97.3927 97.8618C97.1322 98.5565 96.698 99.0775 96.0034 99.338C95.2218 99.5985 94.2667 99.4248 93.3115 98.9038L87.6672 95.6041L87.8409 95.2568L93.4852 98.5565C94.3535 99.0775 95.2218 99.1643 95.8297 98.9907C96.3507 98.817 96.7849 98.3828 96.9585 97.775L108.16 67.1224C108.594 65.9935 109.376 65.4725 110.505 65.5594C112.589 65.733 115.367 68.2512 116.149 71.8114L123.096 102.638C123.617 104.809 125.093 107.066 126.83 108.021L128.479 108.977C129.348 109.498 130.129 109.584 130.824 109.411C131.345 109.237 131.692 108.89 131.953 108.369L134.211 103.506C134.645 102.551 135.426 102.117 136.468 102.204C138.379 102.377 141.07 104.635 141.939 108.021C142.547 110.105 144.023 112.103 145.586 113.058L147.062 113.926C147.93 114.447 148.799 114.621 149.493 114.36C150.014 114.187 150.449 113.666 150.622 113.058L152.706 106.632C153.054 105.503 153.922 104.895 154.964 104.895C157.048 104.982 159.827 107.414 160.695 110.974L167.642 139.542C168.163 141.713 169.726 143.884 171.463 144.839L179.451 149.268L179.365 149.355Z" fill="#7C40FF"/>
<path d="M173.288 152.914L165.299 148.486C163.475 147.444 161.912 145.273 161.304 142.928L154.358 114.36C153.576 111.06 150.884 108.629 148.974 108.542C148.019 108.542 147.411 108.976 147.063 110.018L145.066 116.357C144.806 117.139 144.372 117.66 143.677 117.92C142.895 118.181 141.94 118.094 140.985 117.486L139.509 116.618C137.772 115.662 136.296 113.578 135.688 111.408C134.82 108.195 132.302 106.024 130.478 105.85C129.61 105.763 128.915 106.197 128.568 106.979L126.31 111.842C126.05 112.45 125.528 112.884 124.921 113.057C124.139 113.318 123.271 113.144 122.316 112.623L120.666 111.668C118.842 110.626 117.279 108.368 116.758 106.024L109.811 75.1975C109.03 71.811 106.425 69.3796 104.428 69.2928C103.473 69.2059 102.865 69.7269 102.517 70.6821L91.3157 101.335C91.0552 102.029 90.621 102.55 89.9263 102.811C89.1448 103.071 88.1896 102.898 87.2345 102.377L81.5902 99.077L81.7639 98.7297L87.4081 102.029C88.2765 102.55 89.1448 102.637 89.7527 102.464C90.2737 102.29 90.7078 101.856 90.8815 101.248L102.083 70.5953C102.517 69.4664 103.299 68.9454 104.428 69.0323C106.512 69.2059 109.29 71.7241 110.072 75.2843L117.019 106.111C117.54 108.281 119.016 110.539 120.753 111.494L122.402 112.45C123.271 112.971 124.052 113.057 124.747 112.884C125.268 112.71 125.615 112.363 125.876 111.842L128.134 106.979C128.568 106.024 129.349 105.59 130.391 105.676C132.302 105.85 134.993 108.108 135.862 111.494C136.47 113.578 137.946 115.576 139.509 116.531L140.985 117.399C141.853 117.92 142.722 118.094 143.416 117.833C143.937 117.66 144.372 117.139 144.545 116.531L146.629 110.105C146.977 108.976 147.758 108.368 148.8 108.368H148.887C150.971 108.455 153.75 110.887 154.618 114.447L161.565 143.015C162.086 145.186 163.649 147.357 165.386 148.312L173.374 152.741L173.288 152.914Z" fill="#7C40FF"/>
<path opacity="0.5" d="M87.8427 95.2558L93.4869 98.5555C95.2236 99.5107 96.6998 99.1633 97.3076 97.6003L108.509 66.9477C109.812 63.4743 115.022 66.6004 116.151 71.55L123.097 102.376C123.618 104.634 125.182 106.892 126.918 107.934L128.568 108.889C130.131 109.844 131.607 109.584 132.215 108.194L134.473 103.331C135.862 100.292 140.638 103.158 141.941 107.76C142.548 109.931 144.025 111.928 145.674 112.883L147.151 113.752C148.887 114.794 150.45 114.359 150.971 112.71L153.055 106.284C154.271 102.637 159.481 105.676 160.697 110.626L167.644 139.194C168.165 141.452 169.728 143.623 171.551 144.665L179.54 149.093L87.8427 95.2558Z" fill="url(#paint18_linear_2015_346)"/>
<path opacity="0.5" d="M81.8511 98.6428L87.4953 101.942C89.232 102.898 90.7082 102.55 91.316 100.987L102.518 70.3347C103.82 66.8613 109.03 69.9874 110.159 74.9369L117.106 105.763C117.627 108.021 119.19 110.279 120.927 111.321L122.576 112.276C124.139 113.231 125.616 112.97 126.224 111.581L128.481 106.718C129.871 103.679 134.646 106.545 135.949 111.147C136.557 113.318 138.033 115.315 139.683 116.27L141.159 117.139C142.896 118.181 144.459 117.746 144.98 116.097L147.064 109.671C148.279 106.024 153.49 109.063 154.705 114.012L161.652 142.581C162.173 144.839 163.736 147.01 165.56 148.052L173.548 152.48L81.8511 98.6428Z" fill="url(#paint19_linear_2015_346)"/>
<path d="M206.285 77.8038C197.168 77.8038 188.137 75.8066 181.19 71.8122C174.417 67.9047 170.683 62.6946 170.683 57.1372C170.683 51.5798 174.417 46.3697 181.19 42.4621C195.084 34.3865 217.66 34.3865 231.554 42.3753C238.327 46.2829 242.061 51.4929 242.061 57.0503C242.061 62.6078 238.327 67.8178 231.554 71.7254C224.607 75.7198 215.49 77.8038 206.285 77.8038ZM206.459 36.8179C197.341 36.8179 188.224 38.8151 181.364 42.8095C174.764 46.6302 171.03 51.7534 171.117 57.1372C171.117 62.5209 174.764 67.6442 181.45 71.4649C195.257 79.3668 217.747 79.3668 231.467 71.378C238.067 67.5573 241.8 62.4341 241.714 57.0503C241.714 51.6666 238.067 46.5434 231.38 42.7226C224.52 38.7282 215.49 36.8179 206.459 36.8179Z" fill="#7C40FF"/>
<path d="M161.912 16.238C163.562 15.2828 164.864 16.0643 164.864 17.9747C164.864 19.885 163.562 22.1427 161.912 23.0979C160.262 24.0531 158.959 23.2716 158.959 21.3612C158.959 19.4509 160.349 17.1932 161.912 16.238Z" fill="url(#paint20_linear_2015_346)"/>
<path d="M162.085 16.3248C160.436 17.2799 159.133 19.5376 159.133 21.448C159.133 22.3163 159.394 23.011 159.915 23.2715C159.307 23.011 158.959 22.3163 158.959 21.2743C158.959 19.364 160.262 17.1063 161.912 16.1511C162.78 15.6301 163.562 15.6301 164.083 15.9774C163.562 15.8038 162.867 15.8906 162.085 16.3248Z" fill="white"/>
<path d="M154.879 12.1562C156.529 11.201 157.831 11.9825 157.831 13.8929C157.831 15.8033 156.529 18.061 154.879 19.0161C153.229 19.9713 151.927 19.1898 151.927 17.2794C151.927 15.3691 153.229 13.1114 154.879 12.1562Z" fill="url(#paint21_linear_2015_346)"/>
<path d="M147.671 7.98848C149.321 7.03329 150.624 7.81481 150.624 9.72517C150.624 11.6355 149.321 13.8932 147.671 14.8484C146.022 15.8036 144.719 15.0221 144.719 13.1117C144.719 11.2882 146.022 8.94366 147.671 7.98848Z" fill="url(#paint22_linear_2015_346)"/>
<path d="M159.828 23.2715L163.475 25.3555C162.954 25.0082 162.607 24.4003 162.607 23.4451C162.607 21.5348 163.909 19.2771 165.559 18.3219C166.341 17.8877 167.035 17.8009 167.643 18.0614L183.273 27.0054L179.105 34.2995L133.257 7.9886C131.259 6.85975 130.565 4.25471 131.694 2.25752C132.822 0.260321 135.428 -0.434356 137.425 0.694493L149.842 7.81493C149.321 7.46759 148.54 7.46759 147.671 7.9886C146.021 8.94378 144.719 11.2015 144.719 13.1118C144.719 14.067 145.066 14.7617 145.587 15.0222L149.234 17.1062C148.713 16.7589 148.366 16.151 148.366 15.1959C148.366 13.2855 149.668 11.0278 151.318 10.0726C152.1 9.63845 152.794 9.55162 153.402 9.81212L157.049 11.8962C156.528 11.5488 155.747 11.5488 154.878 12.0698C153.229 13.025 151.926 15.2827 151.926 17.1931C151.926 18.1482 152.273 18.8429 152.794 19.1034L156.441 21.1874C155.92 20.8401 155.573 20.2323 155.573 19.2771C155.573 17.3667 156.876 15.109 158.526 14.1538C159.307 13.7197 160.002 13.6328 160.61 13.8933L164.083 15.8905C163.562 15.5432 162.78 15.5432 161.912 16.0642C160.262 17.0194 158.96 19.2771 158.96 21.1874C158.96 22.3163 159.307 23.011 159.828 23.2715Z" fill="#BCBEFF"/>
<path d="M155.053 12.2435C153.403 13.1986 152.1 15.4563 152.1 17.3667C152.1 18.235 152.361 18.9297 152.882 19.1902C152.274 18.9297 151.927 18.235 151.927 17.193C151.927 15.2827 153.229 13.025 154.879 12.0698C155.747 11.5488 156.529 11.5488 157.05 11.8961C156.529 11.7225 155.834 11.8093 155.053 12.2435Z" fill="white"/>
<path d="M147.845 8.07549C146.195 9.03068 144.893 11.2884 144.893 13.1987C144.893 14.0671 145.153 14.7618 145.674 15.0223C145.066 14.7618 144.719 14.0671 144.719 13.0251C144.719 11.1147 146.022 8.85701 147.671 7.90183C148.54 7.38082 149.321 7.38082 149.842 7.72816C149.321 7.64132 148.627 7.64132 147.845 8.07549Z" fill="white"/>
<path opacity="0.48" d="M165.647 18.3218C163.997 19.277 162.694 21.5347 162.694 23.445C162.694 24.4002 163.042 25.0949 163.563 25.3554L159.916 23.2714C159.395 22.924 159.047 22.3162 159.047 21.361C159.047 19.4506 160.35 17.1929 162 16.2378C162.868 15.7168 163.563 15.7168 164.171 16.0641L167.731 18.1481C167.123 17.8008 166.428 17.8876 165.647 18.3218Z" fill="url(#paint23_linear_2015_346)"/>
<path opacity="0.48" d="M158.526 14.2405C156.876 15.1957 155.574 17.4534 155.574 19.3637C155.574 20.3189 155.921 21.0136 156.442 21.2741L152.795 19.1901C152.274 18.8427 151.927 18.2349 151.927 17.2797C151.927 15.3693 153.229 13.1116 154.879 12.1565C155.747 11.6355 156.442 11.6355 157.05 11.9828L160.61 14.0668C160.089 13.7195 159.394 13.8063 158.526 14.2405Z" fill="url(#paint24_linear_2015_346)"/>
<path opacity="0.48" d="M151.405 10.1597C149.755 11.1149 148.453 13.3726 148.453 15.2829C148.453 16.2381 148.8 16.9328 149.321 17.1933L145.674 15.1093C145.153 14.7619 144.806 14.1541 144.806 13.1989C144.806 11.2885 146.108 9.03084 147.758 8.07566C148.627 7.55465 149.321 7.55465 149.929 7.90199L153.489 9.98602C152.881 9.63868 152.187 9.63868 151.405 10.1597Z" fill="url(#paint25_linear_2015_346)"/>
<path d="M179.278 47.0646C179.278 47.3251 179.278 47.4988 179.278 47.7593L188.309 55.3139L202.984 60.7845L213.317 58.44L223.217 55.5744L233.289 47.8461L233.55 47.6725C233.55 47.0646 233.55 46.4568 233.463 45.849C235.2 43.5044 237.023 41.1599 238.76 38.7285C239.542 39.7705 240.236 40.8125 240.757 41.8546L241.973 40.8994V46.9778C241.973 47.0646 241.973 47.1515 241.973 47.1515V47.412C241.799 52.5352 238.413 57.6585 231.64 61.566C217.746 69.6416 195.343 69.6416 181.449 61.6528C174.589 57.6584 171.116 52.5352 171.029 47.3251C171.029 47.2383 171.029 47.2383 171.029 47.1515V40.7257L172.332 41.7677C172.592 41.1599 173.026 40.552 173.374 39.8574C174.763 42.6361 176.326 45.9358 179.278 47.0646Z" fill="url(#paint26_linear_2015_346)"/>
<path d="M230.858 32.302C231.031 32.3889 231.205 32.4757 231.466 32.6494C234.592 34.4729 237.023 36.5569 238.76 38.7278C237.023 41.0723 235.2 43.4169 233.463 45.8482C232.942 42.288 230.337 38.8146 225.648 36.1228C215.054 30.0443 197.861 30.0443 187.267 36.2096C182.057 39.2488 179.452 43.1564 179.365 47.1508C176.499 46.0219 174.936 42.7222 173.286 40.0303C174.589 38.12 176.413 36.2096 178.757 34.5597L177.541 34.8202C177.541 34.8202 185.878 27.613 186.225 27.5261C186.572 27.4393 203.244 23.0107 203.244 23.0107L222.088 24.6606L230.858 32.302Z" fill="url(#paint27_linear_2015_346)"/>
<path opacity="0.5" d="M225.04 31.8683C235.634 37.9468 235.634 47.8459 225.04 54.0111C214.446 60.1764 197.253 60.1764 186.659 54.098C176.065 48.0196 176.065 38.1204 186.659 31.9552C197.253 25.7899 214.446 25.7899 225.04 31.8683Z" fill="url(#paint28_linear_2015_346)"/>
<path opacity="0.48" d="M224.953 33.7788C235.547 39.8572 235.547 49.7563 224.953 55.9216C214.36 62.0868 197.166 62.0868 186.572 56.0084C175.979 49.93 175.979 40.0308 186.572 33.8656C197.166 27.7003 214.36 27.6135 224.953 33.7788Z" fill="url(#paint29_linear_2015_346)"/>
<path d="M231.466 26.3106C217.572 18.3219 195.082 18.4087 181.276 26.3975C167.382 34.4731 167.469 47.4114 181.362 55.4002C195.256 63.389 217.746 63.3022 231.553 55.3134C245.36 47.2378 245.36 34.2994 231.466 26.3106ZM225.561 29.6972C236.155 35.7756 236.155 45.6747 225.561 51.84C214.967 58.0053 197.774 58.0053 187.18 51.9268C176.587 45.8484 176.587 35.9493 187.18 29.784C197.774 23.6188 214.881 23.6188 225.561 29.6972Z" fill="#BCBEFF"/>
<path d="M231.466 26.3106C217.572 18.3219 195.082 18.4087 181.276 26.3975C167.382 34.4731 167.469 47.4114 181.362 55.4002C195.256 63.389 217.746 63.3022 231.553 55.3134C245.36 47.2378 245.36 34.2994 231.466 26.3106ZM225.561 29.6972C236.155 35.7756 236.155 45.6747 225.561 51.84C214.967 58.0053 197.774 58.0053 187.18 51.9268C176.587 45.8484 176.587 35.9493 187.18 29.784C197.774 23.6188 214.881 23.6188 225.561 29.6972Z" fill="#BCBEFF"/>
<path d="M181.102 54.7917C194.995 62.7804 217.485 62.6936 231.292 54.7048C239.802 49.7553 243.101 42.9822 241.104 36.5564C243.449 43.069 240.236 50.1894 231.466 55.2258C217.572 63.3014 195.169 63.3014 181.275 55.3127C175.978 52.2735 172.679 48.4527 171.376 44.4583C172.765 48.2791 175.978 51.9261 181.102 54.7917Z" fill="white"/>
<path d="M187.006 29.2623C197.6 23.097 214.793 23.097 225.387 29.1755C229.468 31.52 231.986 34.4724 232.942 37.5116C231.9 34.646 229.468 31.9542 225.561 29.6965C214.967 23.618 197.774 23.618 187.18 29.7833C180.667 33.5172 178.236 38.7273 179.625 43.59C177.802 38.5536 180.233 33.1699 187.006 29.2623Z" fill="white"/>
<path d="M153.515 223.994L153.345 224.297L172.413 235.03L172.583 234.728L153.515 223.994Z" fill="#7C40FF"/>
<path d="M184.23 267.798C183.361 267.798 182.406 267.537 181.625 267.103L151.233 249.562C150.712 249.302 150.451 248.781 150.451 248.26C150.451 247.739 150.712 247.218 151.233 246.957L196.213 220.994C197.776 220.039 199.773 220.039 201.423 220.994L231.815 238.534C232.336 238.795 232.597 239.316 232.597 239.837C232.597 240.358 232.336 240.879 231.815 241.139L186.835 267.103C186.053 267.537 185.098 267.798 184.23 267.798ZM198.818 220.646C197.95 220.646 197.168 220.82 196.387 221.254L151.406 247.218C151.059 247.391 150.799 247.826 150.799 248.26C150.799 248.694 151.059 249.041 151.406 249.302L181.798 266.842C183.275 267.711 185.098 267.711 186.661 266.842L231.641 240.879C231.989 240.705 232.249 240.271 232.249 239.837C232.249 239.403 232.076 239.055 231.641 238.795L201.249 221.254C200.468 220.82 199.6 220.646 198.818 220.646Z" fill="#7C40FF"/>
<path d="M191.525 238.274L186.75 235.495L187.965 234.887L192.741 237.579L191.525 238.274Z" fill="#7C40FF"/>
<path opacity="0.5" d="M195.605 240.619L193.174 239.229L194.389 238.535L196.821 239.924L195.605 240.619Z" fill="#7C40FF"/>
<path opacity="0.5" d="M188.746 239.924L183.97 237.145L185.186 236.45L189.962 239.229L188.746 239.924Z" fill="#7C40FF"/>
<path opacity="0.5" d="M192.828 242.268L190.397 240.879L191.612 240.184L194.044 241.574L192.828 242.268Z" fill="#7C40FF"/>
<path d="M185.968 241.487L181.192 238.708L182.408 238.013L187.184 240.792L185.968 241.487Z" fill="#7C40FF"/>
<path d="M190.047 243.831L187.616 242.442L188.832 241.747L191.263 243.137L190.047 243.831Z" fill="#7C40FF"/>
<path d="M183.188 243.136L178.413 240.358L179.628 239.663L184.404 242.442L183.188 243.136Z" fill="#7C40FF"/>
<path d="M187.27 245.481L184.839 244.091L186.055 243.397L188.486 244.786L187.27 245.481Z" fill="#7C40FF"/>
<path d="M180.41 244.699L175.635 241.921L176.85 241.226L181.626 244.005L180.41 244.699Z" fill="#7C40FF"/>
<path d="M184.492 247.044L182.061 245.654L183.277 244.96L185.708 246.349L184.492 247.044Z" fill="#7C40FF"/>
<path d="M177.631 246.263L172.855 243.571L174.071 242.876L178.847 245.655L177.631 246.263Z" fill="#7C40FF"/>
<path d="M181.713 248.694L179.282 247.305L180.497 246.61L182.929 248L181.713 248.694Z" fill="#7C40FF"/>
<path d="M174.853 247.913L170.077 245.134L171.293 244.439L176.069 247.218L174.853 247.913Z" fill="#7C40FF"/>
<path opacity="0.5" d="M178.934 250.257L176.502 248.868L177.718 248.173L180.149 249.562L178.934 250.257Z" fill="#7C40FF"/>
<path d="M172.074 249.475L167.298 246.783L168.513 246.089L173.289 248.867L172.074 249.475Z" fill="#7C40FF"/>
<path opacity="0.5" d="M176.155 251.907L173.724 250.518L174.94 249.823L177.371 251.212L176.155 251.907Z" fill="#7C40FF"/>
<path d="M202.117 244.44L197.341 241.749L198.557 241.054L203.333 243.746L202.117 244.44Z" fill="#7C40FF"/>
<path d="M206.199 246.784L203.768 245.395L204.984 244.787L207.415 246.09L206.199 246.784Z" fill="#7C40FF"/>
<path d="M199.338 246.09L194.562 243.311L195.778 242.616L200.553 245.395L199.338 246.09Z" fill="#7C40FF"/>
<path d="M203.42 248.434L200.988 247.045L202.204 246.35L204.635 247.739L203.42 248.434Z" fill="#7C40FF"/>
<path d="M196.56 247.653L191.784 244.874L192.999 244.267L197.775 246.958L196.56 247.653Z" fill="#7C40FF"/>
<path d="M200.642 249.998L198.21 248.608L199.426 248L201.857 249.303L200.642 249.998Z" fill="#7C40FF"/>
<path d="M199.86 233.499L195.084 230.72L196.213 230.026L200.989 232.804L199.86 233.499Z" fill="#7C40FF"/>
<path d="M203.855 235.844L201.51 234.454L202.726 233.76L205.07 235.149L203.855 235.844Z" fill="#7C40FF"/>
<path d="M197.08 235.062L192.304 232.37L193.433 231.676L198.209 234.454L197.08 235.062Z" fill="#7C40FF"/>
<path d="M201.074 237.493L198.73 236.104L199.945 235.409L202.29 236.799L201.074 237.493Z" fill="#7C40FF"/>
<path d="M194.302 236.712L189.526 233.933L190.655 233.238L195.431 236.017L194.302 236.712Z" fill="#7C40FF"/>
<path d="M198.297 239.056L195.953 237.667L197.168 236.972L199.513 238.362L198.297 239.056Z" fill="#7C40FF"/>
<path d="M210.454 239.664L205.678 236.886L206.807 236.278L211.583 238.97L210.454 239.664Z" fill="#7C40FF"/>
<path d="M214.448 242.009L212.104 240.619L213.319 239.925L215.664 241.314L214.448 242.009Z" fill="#7C40FF"/>
<path opacity="0.5" d="M207.675 241.314L202.899 238.536L204.028 237.841L208.804 240.62L207.675 241.314Z" fill="#7C40FF"/>
<path d="M211.67 243.658L209.325 242.269L210.541 241.574L212.886 242.964L211.67 243.658Z" fill="#7C40FF"/>
<path d="M204.895 242.877L200.119 240.098L201.248 239.404L206.024 242.182L204.895 242.877Z" fill="#7C40FF"/>
<path d="M208.89 245.221L206.546 243.832L207.762 243.137L210.106 244.527L208.89 245.221Z" fill="#7C40FF"/>
<path d="M193.78 249.303L189.004 246.524L190.22 245.83L194.996 248.608L193.78 249.303Z" fill="#7C40FF"/>
<path d="M197.862 251.648L195.431 250.258L196.647 249.564L199.078 250.953L197.862 251.648Z" fill="#7C40FF"/>
<path opacity="0.5" d="M191.002 250.866L186.226 248.087L187.442 247.479L192.218 250.171L191.002 250.866Z" fill="#7C40FF"/>
<path d="M195.083 253.21L192.651 251.821L193.867 251.126L196.299 252.516L195.083 253.21Z" fill="#7C40FF"/>
<path d="M188.223 252.515L183.447 249.737L184.662 249.042L189.438 251.821L188.223 252.515Z" fill="#7C40FF"/>
<path d="M192.305 254.861L189.873 253.471L191.089 252.777L193.52 254.166L192.305 254.861Z" fill="#7C40FF"/>
<path d="M185.446 254.079L180.67 251.3L181.886 250.605L186.662 253.384L185.446 254.079Z" fill="#7C40FF"/>
<path d="M189.525 256.423L187.094 255.034L188.31 254.339L190.741 255.728L189.525 256.423Z" fill="#7C40FF"/>
<path d="M182.753 255.642L177.977 252.95L179.106 252.255L183.882 254.947L182.753 255.642Z" fill="#7C40FF"/>
<path d="M186.748 257.986L184.404 256.597L185.62 255.989L187.964 257.292L186.748 257.986Z" fill="#7C40FF"/>
<path d="M214.968 229.07L214.794 228.809L231.206 218.997C231.814 218.65 232.248 217.955 232.248 217.173C232.248 216.392 231.814 215.784 231.206 215.437L210.539 203.627C209.758 203.193 209.323 202.412 209.323 201.543C209.323 200.675 209.758 199.893 210.539 199.459L260.382 170.804C260.99 170.456 261.337 169.849 261.337 169.154C261.337 168.459 260.99 167.851 260.382 167.504L251.872 162.468C249.267 160.905 247.618 158.039 247.618 155V81.451C247.618 78.4987 246.054 75.72 243.449 74.2438L235.026 69.2942L235.2 69.0337L243.623 73.9833C246.315 75.5463 247.965 78.4118 247.965 81.451V155C247.965 157.952 249.528 160.731 252.133 162.207L260.643 167.244C261.337 167.678 261.685 168.372 261.685 169.154C261.685 169.935 261.251 170.63 260.556 171.064L210.713 199.72C210.105 200.067 209.671 200.762 209.671 201.543C209.671 202.325 210.018 202.933 210.713 203.367L231.379 215.176C232.161 215.61 232.595 216.392 232.595 217.173C232.595 218.042 232.161 218.823 231.466 219.257L214.968 229.07Z" fill="#7C40FF"/>
<defs>
<linearGradient id="paint0_linear_2015_346" x1="161.962" y1="117.717" x2="158.983" y2="112.579" gradientUnits="userSpaceOnUse">
<stop stop-color="#5761D7"/>
<stop offset="0.1645" stop-color="#5E67DA"/>
<stop offset="0.4051" stop-color="#727AE2"/>
<stop offset="0.6924" stop-color="#9297EE"/>
<stop offset="1" stop-color="#BCBEFF"/>
</linearGradient>
<linearGradient id="paint1_linear_2015_346" x1="154.89" y1="113.652" x2="151.911" y2="108.515" gradientUnits="userSpaceOnUse">
<stop stop-color="#5761D7"/>
<stop offset="0.1645" stop-color="#5E67DA"/>
<stop offset="0.4051" stop-color="#727AE2"/>
<stop offset="0.6924" stop-color="#9297EE"/>
<stop offset="1" stop-color="#BCBEFF"/>
</linearGradient>
<linearGradient id="paint2_linear_2015_346" x1="147.697" y1="109.517" x2="144.718" y2="104.38" gradientUnits="userSpaceOnUse">
<stop stop-color="#5761D7"/>
<stop offset="0.1645" stop-color="#5E67DA"/>
<stop offset="0.4051" stop-color="#727AE2"/>
<stop offset="0.6924" stop-color="#9297EE"/>
<stop offset="1" stop-color="#BCBEFF"/>
</linearGradient>
<linearGradient id="paint3_linear_2015_346" x1="160.65" y1="118.38" x2="164.834" y2="111.102" gradientUnits="userSpaceOnUse">
<stop stop-color="#16E09E"/>
<stop offset="0.1507" stop-color="#43E3C6"/>
<stop offset="0.3285" stop-color="#45D5DF"/>
<stop offset="0.5199" stop-color="#49BDDD"/>
<stop offset="0.7209" stop-color="#4E9CDB"/>
<stop offset="0.9274" stop-color="#5472D8"/>
<stop offset="1" stop-color="#5761D7"/>
</linearGradient>
<linearGradient id="paint4_linear_2015_346" x1="153.58" y1="114.316" x2="157.764" y2="107.038" gradientUnits="userSpaceOnUse">
<stop stop-color="#16E09E"/>
<stop offset="0.1507" stop-color="#43E3C6"/>
<stop offset="0.3285" stop-color="#45D5DF"/>
<stop offset="0.5199" stop-color="#49BDDD"/>
<stop offset="0.7209" stop-color="#4E9CDB"/>
<stop offset="0.9274" stop-color="#5472D8"/>
<stop offset="1" stop-color="#5761D7"/>
</linearGradient>
<linearGradient id="paint5_linear_2015_346" x1="146.388" y1="110.18" x2="150.571" y2="102.902" gradientUnits="userSpaceOnUse">
<stop stop-color="#16E09E"/>
<stop offset="0.1507" stop-color="#43E3C6"/>
<stop offset="0.3285" stop-color="#45D5DF"/>
<stop offset="0.5199" stop-color="#49BDDD"/>
<stop offset="0.7209" stop-color="#4E9CDB"/>
<stop offset="0.9274" stop-color="#5472D8"/>
<stop offset="1" stop-color="#5761D7"/>
</linearGradient>
<linearGradient id="paint6_linear_2015_346" x1="178.826" y1="158.752" x2="233.131" y2="127.392" gradientUnits="userSpaceOnUse">
<stop stop-color="#BCBEFF"/>
<stop offset="0.3076" stop-color="#9297EE"/>
<stop offset="0.5949" stop-color="#727AE2"/>
<stop offset="0.8355" stop-color="#5E67DA"/>
<stop offset="1" stop-color="#5761D7"/>
</linearGradient>
<linearGradient id="paint7_linear_2015_346" x1="232.656" y1="121.076" x2="177.309" y2="145.6" gradientUnits="userSpaceOnUse">
<stop stop-color="#5761D7"/>
<stop offset="0.1645" stop-color="#5E67DA"/>
<stop offset="0.4051" stop-color="#727AE2"/>
<stop offset="0.6924" stop-color="#9297EE"/>
<stop offset="1" stop-color="#BCBEFF"/>
</linearGradient>
<linearGradient id="paint8_linear_2015_346" x1="196.306" y1="154.244" x2="215.434" y2="120.969" gradientUnits="userSpaceOnUse">
<stop stop-color="#16E09E"/>
<stop offset="0.1507" stop-color="#43E3BD"/>
<stop offset="0.3285" stop-color="#45D5DF"/>
<stop offset="0.5199" stop-color="#49BDDD"/>
<stop offset="0.7209" stop-color="#4E9CDB"/>
<stop offset="0.9274" stop-color="#5472D8"/>
<stop offset="1" stop-color="#5761D7"/>
</linearGradient>
<linearGradient id="paint9_linear_2015_346" x1="196.257" y1="156.143" x2="215.385" y2="122.868" gradientUnits="userSpaceOnUse">
<stop stop-color="#16E09E"/>
<stop offset="0.1507" stop-color="#43E3BD"/>
<stop offset="0.3285" stop-color="#45DFC3"/>
<stop offset="0.5199" stop-color="#49D4DD"/>
<stop offset="0.7209" stop-color="#4E9CDB"/>
<stop offset="0.9274" stop-color="#5472D8"/>
<stop offset="1" stop-color="#5761D7"/>
</linearGradient>
<linearGradient id="paint10_linear_2015_346" x1="180.909" y1="186.435" x2="4.148" y2="186.435" gradientUnits="userSpaceOnUse">
<stop stop-color="#5761D7"/>
<stop offset="0.1779" stop-color="#5C66D9"/>
<stop offset="0.3876" stop-color="#6A73DF"/>
<stop offset="0.6134" stop-color="#8289E8"/>
<stop offset="0.849" stop-color="#A3A7F5"/>
<stop offset="1" stop-color="#BCBEFF"/>
</linearGradient>
<linearGradient id="paint11_linear_2015_346" x1="124.83" y1="182.321" x2="-51.9304" y2="182.321" gradientUnits="userSpaceOnUse">
<stop stop-color="#C0BFF6"/>
<stop offset="0.2938" stop-color="#C5C4F7"/>
<stop offset="0.6399" stop-color="#D3D2F9"/>
<stop offset="1" stop-color="#E9E9FD"/>
</linearGradient>
<linearGradient id="paint12_linear_2015_346" x1="200.951" y1="104.782" x2="75.8621" y2="104.782" gradientUnits="userSpaceOnUse">
<stop stop-color="#C0BFF6"/>
<stop offset="0.2938" stop-color="#C5C4F7"/>
<stop offset="0.6399" stop-color="#D3D2F9"/>
<stop offset="1" stop-color="#E9E9FD"/>
</linearGradient>
<linearGradient id="paint13_linear_2015_346" x1="200.952" y1="136.862" x2="179.473" y2="136.862" gradientUnits="userSpaceOnUse">
<stop stop-color="#5761D7"/>
<stop offset="0.1779" stop-color="#5C66D9"/>
<stop offset="0.3876" stop-color="#6A73DF"/>
<stop offset="0.6134" stop-color="#8289E8"/>
<stop offset="0.849" stop-color="#A3A7F5"/>
<stop offset="1" stop-color="#BCBEFF"/>
</linearGradient>
<linearGradient id="paint14_linear_2015_346" x1="184.194" y1="171.863" x2="7.52768" y2="171.863" gradientUnits="userSpaceOnUse">
<stop stop-color="#5761D7"/>
<stop offset="0.1779" stop-color="#5C66D9"/>
<stop offset="0.3876" stop-color="#6A73DF"/>
<stop offset="0.6134" stop-color="#8289E8"/>
<stop offset="0.849" stop-color="#A3A7F5"/>
<stop offset="1" stop-color="#BCBEFF"/>
</linearGradient>
<linearGradient id="paint15_linear_2015_346" x1="124.833" y1="167.032" x2="-51.9275" y2="167.032" gradientUnits="userSpaceOnUse">
<stop stop-color="#C0BFF6"/>
<stop offset="0.2938" stop-color="#C5C4F7"/>
<stop offset="0.6399" stop-color="#D3D2F9"/>
<stop offset="1" stop-color="#E9E9FD"/>
</linearGradient>
<linearGradient id="paint16_linear_2015_346" x1="252.128" y1="132.981" x2="75.4615" y2="132.981" gradientUnits="userSpaceOnUse">
<stop stop-color="#5761D7"/>
<stop offset="0.1779" stop-color="#5C66D9"/>
<stop offset="0.3876" stop-color="#6A73DF"/>
<stop offset="0.6134" stop-color="#8289E8"/>
<stop offset="0.849" stop-color="#A3A7F5"/>
<stop offset="1" stop-color="#BCBEFF"/>
</linearGradient>
<linearGradient id="paint17_linear_2015_346" x1="192.767" y1="128.151" x2="16.0064" y2="128.151" gradientUnits="userSpaceOnUse">
<stop stop-color="#C0BFF6"/>
<stop offset="0.2938" stop-color="#C5C4F7"/>
<stop offset="0.6399" stop-color="#D3D2F9"/>
<stop offset="1" stop-color="#E9E9FD"/>
</linearGradient>
<linearGradient id="paint18_linear_2015_346" x1="102.827" y1="82.2909" x2="214.12" y2="148.667" gradientUnits="userSpaceOnUse">
<stop stop-color="#16E09E"/>
<stop offset="0.1055" stop-color="#37BFA7"/>
<stop offset="1" stop-color="#16E09E" stop-opacity="0"/>
</linearGradient>
<linearGradient id="paint19_linear_2015_346" x1="96.7738" y1="85.6895" x2="175.43" y2="132.626" gradientUnits="userSpaceOnUse">
<stop stop-color="#16E09E"/>
<stop offset="0.1055" stop-color="#37BFA7"/>
<stop offset="1" stop-color="#16E09E" stop-opacity="0"/>
</linearGradient>
<linearGradient id="paint20_linear_2015_346" x1="161.962" y1="23.0715" x2="158.983" y2="17.9341" gradientUnits="userSpaceOnUse">
<stop stop-color="#5761D7"/>
<stop offset="0.1645" stop-color="#5E67DA"/>
<stop offset="0.4051" stop-color="#727AE2"/>
<stop offset="0.6924" stop-color="#9297EE"/>
<stop offset="1" stop-color="#BCBEFF"/>
</linearGradient>
<linearGradient id="paint21_linear_2015_346" x1="154.893" y1="19.0064" x2="151.914" y2="13.869" gradientUnits="userSpaceOnUse">
<stop stop-color="#5761D7"/>
<stop offset="0.1645" stop-color="#5E67DA"/>
<stop offset="0.4051" stop-color="#727AE2"/>
<stop offset="0.6924" stop-color="#9297EE"/>
<stop offset="1" stop-color="#BCBEFF"/>
</linearGradient>
<linearGradient id="paint22_linear_2015_346" x1="147.698" y1="14.871" x2="144.719" y2="9.73361" gradientUnits="userSpaceOnUse">
<stop stop-color="#5761D7"/>
<stop offset="0.1645" stop-color="#5E67DA"/>
<stop offset="0.4051" stop-color="#727AE2"/>
<stop offset="0.6924" stop-color="#9297EE"/>
<stop offset="1" stop-color="#BCBEFF"/>
</linearGradient>
<linearGradient id="paint23_linear_2015_346" x1="160.653" y1="23.7346" x2="164.837" y2="16.4565" gradientUnits="userSpaceOnUse">
<stop stop-color="#16E09E"/>
<stop offset="0.1507" stop-color="#43E3BD"/>
<stop offset="0.3285" stop-color="#45D5DF"/>
<stop offset="0.5199" stop-color="#49BDDD"/>
<stop offset="0.7209" stop-color="#4E9CDB"/>
<stop offset="0.9274" stop-color="#5472D8"/>
<stop offset="1" stop-color="#5761D7"/>
</linearGradient>
<linearGradient id="paint24_linear_2015_346" x1="153.582" y1="19.6701" x2="157.766" y2="12.392" gradientUnits="userSpaceOnUse">
<stop stop-color="#16E09E"/>
<stop offset="0.1507" stop-color="#43E3B3"/>
<stop offset="0.3285" stop-color="#45D5DF"/>
<stop offset="0.5199" stop-color="#49BDDD"/>
<stop offset="0.7209" stop-color="#4E9CDB"/>
<stop offset="0.9274" stop-color="#5472D8"/>
<stop offset="1" stop-color="#5761D7"/>
</linearGradient>
<linearGradient id="paint25_linear_2015_346" x1="146.387" y1="15.5346" x2="150.571" y2="8.25654" gradientUnits="userSpaceOnUse">
<stop stop-color="#16E09E"/>
<stop offset="0.1507" stop-color="#43E3C6"/>
<stop offset="0.3285" stop-color="#45D5DF"/>
<stop offset="0.5199" stop-color="#49BDDD"/>
<stop offset="0.7209" stop-color="#4E9CDB"/>
<stop offset="0.9274" stop-color="#5472D8"/>
<stop offset="1" stop-color="#5761D7"/>
</linearGradient>
<linearGradient id="paint26_linear_2015_346" x1="178.827" y1="64.1075" x2="233.132" y2="32.7473" gradientUnits="userSpaceOnUse">
<stop stop-color="#BCBEFF"/>
<stop offset="0.3076" stop-color="#9297EE"/>
<stop offset="0.5949" stop-color="#727AE2"/>
<stop offset="0.8355" stop-color="#5E67DA"/>
<stop offset="1" stop-color="#5761D7"/>
</linearGradient>
<linearGradient id="paint27_linear_2015_346" x1="232.654" y1="26.4314" x2="177.307" y2="50.9548" gradientUnits="userSpaceOnUse">
<stop stop-color="#5761D7"/>
<stop offset="0.1645" stop-color="#5E67DA"/>
<stop offset="0.4051" stop-color="#727AE2"/>
<stop offset="0.6924" stop-color="#9297EE"/>
<stop offset="1" stop-color="#BCBEFF"/>
</linearGradient>
<linearGradient id="paint28_linear_2015_346" x1="196.304" y1="59.5992" x2="215.432" y2="26.3242" gradientUnits="userSpaceOnUse">
<stop stop-color="#16E09E"/>
<stop offset="0.1507" stop-color="#43E3B3"/>
<stop offset="0.3285" stop-color="#45D5DF"/>
<stop offset="0.5199" stop-color="#49BDDD"/>
<stop offset="0.7209" stop-color="#4E9CDB"/>
<stop offset="0.9274" stop-color="#5472D8"/>
<stop offset="1" stop-color="#5761D7"/>
</linearGradient>
<linearGradient id="paint29_linear_2015_346" x1="196.258" y1="61.498" x2="215.386" y2="28.2231" gradientUnits="userSpaceOnUse">
<stop stop-color="#16E09E"/>
<stop offset="0.1507" stop-color="#43E3D0"/>
<stop offset="0.3285" stop-color="#45D5DF"/>
<stop offset="0.5199" stop-color="#49BDDD"/>
<stop offset="0.7209" stop-color="#4E9CDB"/>
<stop offset="0.9274" stop-color="#5472D8"/>
<stop offset="1" stop-color="#5761D7"/>
</linearGradient>
</defs>
</svg>
