<svg width="270" height="270" viewBox="0 0 270 270" fill="none" xmlns="http://www.w3.org/2000/svg">
<path opacity="0.4" d="M241.301 114.711C251.628 108.748 251.61 89.3826 241.26 71.4571C230.911 53.5315 214.149 43.8338 203.821 49.7965C193.494 55.7593 193.512 75.1245 203.861 93.0501C214.211 110.976 230.973 120.673 241.301 114.711Z" fill="#16E09E"/>
<path d="M234.464 116.782C230.762 116.782 226.752 115.548 222.433 113.08C207.781 104.597 195.75 83.9298 195.75 66.8097C195.75 58.481 198.527 52.3115 203.616 49.3811C208.706 46.4506 215.493 47.0675 222.742 51.2319C237.394 59.7148 249.424 80.3824 249.424 97.5026C249.424 105.831 246.648 112.001 241.558 114.931C239.399 116.319 237.086 116.782 234.464 116.782ZM210.711 48.3014C208.244 48.3014 205.93 48.9183 203.925 49.998C198.989 52.7742 196.367 58.7894 196.367 66.9639C196.367 83.7756 208.244 104.289 222.742 112.618C229.682 116.628 236.314 117.245 241.096 114.468C246.031 111.692 248.653 105.677 248.653 97.5026C248.653 80.6909 236.777 60.1775 222.279 51.8488C218.269 49.5353 214.259 48.3014 210.711 48.3014Z" fill="#16E09E"/>
<path d="M219.657 125.112C215.955 125.112 211.945 123.878 207.626 121.41C192.974 112.927 180.944 92.2597 180.944 75.1395C180.944 66.8108 183.72 60.6414 188.81 57.7109C193.9 54.7804 200.686 55.3974 207.935 59.5617C222.587 68.0447 234.618 88.7123 234.618 105.832C234.618 114.161 231.841 120.331 226.752 123.261C224.592 124.649 222.279 125.112 219.657 125.112ZM195.905 56.6312C193.437 56.6312 191.123 57.2482 189.118 58.3278C184.183 61.1041 181.561 67.1193 181.561 75.1395C181.561 91.9512 193.437 112.465 207.935 120.793C214.876 124.803 221.508 125.42 226.289 122.644C231.225 119.868 233.847 113.853 233.847 105.678C233.847 88.8665 221.97 68.3531 207.472 60.0244C203.462 57.8651 199.606 56.6312 195.905 56.6312Z" fill="#16E09E"/>
<path d="M175.391 190.508V182.797L184.491 136.989L175.545 131.436L157.5 141.461V200.534C157.5 204.544 159.042 207.166 161.201 208.091L169.222 213.181L170.147 209.325L171.535 202.384C173.849 198.991 175.391 194.518 175.391 190.508Z" fill="url(#paint0_linear_2015_346)"/>
<path d="M175.237 212.872C170.301 215.648 166.291 212.563 166.291 206.085V147.013L184.337 136.988V196.06C184.337 202.692 180.326 210.095 175.237 212.872Z" fill="url(#paint1_linear_2015_346)"/>
<path d="M162.591 172.77L162.282 172.616C161.665 172.307 161.203 172.307 160.894 172.616L158.889 173.85L160.277 174.158C160.277 174.312 160.277 174.312 160.277 174.467V185.88C160.277 187.422 161.203 189.273 162.436 189.89L161.974 191.433L163.979 190.199C164.442 190.044 164.75 189.273 164.75 188.348V176.934C164.596 175.238 163.67 173.387 162.591 172.77Z" fill="url(#paint2_linear_2015_346)"/>
<path opacity="0.3" d="M162.591 172.77L162.282 172.616C161.665 172.307 161.203 172.307 160.894 172.616L158.889 173.85L160.277 174.158C160.277 174.312 160.277 174.312 160.277 174.467V185.88C160.277 187.422 161.203 189.273 162.436 189.89L161.974 191.433L163.979 190.199C164.442 190.044 164.75 189.273 164.75 188.348V176.934C164.596 175.238 163.67 173.387 162.591 172.77Z" fill="#0F054C"/>
<path d="M160.43 190.97L160.122 190.816C158.888 190.199 157.963 188.348 157.963 186.805V175.392C157.963 173.85 158.888 173.078 160.122 173.695L160.43 173.85C161.664 174.467 162.59 176.317 162.59 177.86V189.273C162.59 190.97 161.664 191.741 160.43 190.97Z" fill="white"/>
<path opacity="0.5" d="M175.238 212.872C180.174 210.096 184.184 202.539 184.184 196.061V146.705V139.919L175.547 141.77L167.218 146.397L165.367 144.238L157.655 147.168L156.884 162.746V163.054C156.884 167.836 160.432 171.846 165.059 172.617L165.984 172.771V206.086C166.293 212.564 170.303 215.649 175.238 212.872Z" fill="#120083"/>
<path d="M215.801 112.773C216.264 97.9664 206.238 79.6123 193.591 71.9005C186.805 67.7362 180.635 67.4277 176.317 70.3582L134.827 92.8766L165.52 151.023L208.244 127.888C208.398 127.734 208.552 127.734 208.706 127.58L208.861 127.425C213.179 124.958 215.647 119.868 215.801 112.773Z" fill="url(#paint3_radial_2015_346)"/>
<path opacity="0.3" d="M215.8 112.773C216.108 103.982 212.715 93.9564 207.162 85.6277C200.993 89.1751 188.5 96.1157 165.056 109.534C159.195 112.927 153.643 115.858 148.399 118.326L165.673 150.869L208.396 127.734C208.551 127.58 208.705 127.58 208.859 127.426L209.013 127.271C213.178 124.958 215.645 119.868 215.8 112.773Z" fill="#0F054C"/>
<path d="M173.231 135.754C172.769 150.56 162.281 156.267 149.633 148.555C136.986 140.843 127.115 122.489 127.423 107.683C127.886 92.8761 138.374 87.1694 151.022 94.8811C163.669 102.593 173.694 120.947 173.231 135.754Z" fill="url(#paint4_radial_2015_346)"/>
<path d="M173.543 136.68C174.005 121.256 163.672 102.285 150.562 94.1107C144.546 90.409 138.994 89.6378 134.83 91.3344H134.675C134.675 91.3344 134.675 91.3344 134.521 91.3344C134.367 91.4886 134.213 91.4886 133.904 91.6429C108.301 103.365 85.3199 102.131 57.249 100.28L49.2288 99.8174L111.077 212.718L114.779 206.086C128.197 181.717 142.387 167.373 165.831 152.257C170.458 149.944 173.388 144.546 173.543 136.68Z" fill="url(#paint5_linear_2015_346)"/>
<path opacity="0.3" d="M114.932 206.085C128.351 181.716 142.54 167.372 165.984 152.257C170.457 149.943 173.387 144.545 173.542 136.679C173.85 127.888 170.457 117.862 165.213 109.379C165.213 109.379 165.213 109.379 165.059 109.379C126.345 131.435 103.056 134.983 103.056 134.983L92.2594 169.223L95.4984 184.338L111.076 212.717L114.932 206.085Z" fill="#0F054C"/>
<path d="M119.408 187.885C120.179 158.272 100.437 121.718 75.2964 106.295C62.6491 98.5828 51.2356 97.5031 42.5984 102.13L34.8866 106.449L37.5087 105.986C31.9562 111.539 28.563 120.33 28.2545 131.898C27.4833 161.511 47.2255 198.065 72.3659 213.488C82.237 219.504 91.4911 221.509 99.2029 219.812L97.969 221.509L105.064 217.653C105.064 217.653 105.064 217.653 105.218 217.653L105.527 217.498C113.701 212.717 119.099 202.538 119.408 187.885Z" fill="url(#paint6_linear_2015_346)"/>
<path d="M114.01 190.971C114.781 161.358 95.0386 124.804 69.8981 109.38C57.5593 101.823 46.1458 100.589 37.6629 105.062L36.429 105.679C35.9663 105.987 35.6578 106.141 35.1951 106.45L37.5087 105.987C31.9562 111.54 28.563 120.331 28.2545 131.899C27.4833 161.512 47.2255 198.066 72.3659 213.489C82.237 219.505 91.4911 221.51 99.2029 219.813L98.1233 221.355C107.377 217.191 113.547 206.549 114.01 190.971Z" fill="white"/>
<path d="M112.465 191.741C111.694 221.355 90.5632 232.768 65.4228 217.19C40.2824 201.767 20.386 165.213 21.3114 135.6C22.0826 105.986 43.2129 94.5728 68.3533 110.151C93.4937 125.728 113.236 162.282 112.465 191.741Z" fill="url(#paint7_linear_2015_346)"/>
<path d="M106.76 188.348C105.989 214.26 87.4806 224.285 65.4249 210.713C43.3692 197.14 25.9406 165.059 26.7118 139.147C27.483 113.236 45.9912 103.21 68.0469 116.783C90.1026 130.356 107.531 162.437 106.76 188.348Z" fill="url(#paint8_radial_2015_346)"/>
<path opacity="0.3" d="M72.5173 207.319C69.1241 205.314 66.0395 202.846 62.9547 200.07C56.6311 194.209 56.1684 184.338 61.8751 177.86C68.8157 170.302 79.7664 160.123 96.7324 149.172C89.6375 135.753 79.6122 123.723 68.0445 116.628C58.3277 110.613 49.2278 109.225 42.1329 111.693C41.8245 111.847 41.6702 111.847 41.3618 112.001H41.2075C40.899 112.155 40.7448 112.155 40.4363 112.31H40.2821C39.9736 112.464 39.8194 112.618 39.5109 112.618C38.894 112.927 38.4313 113.235 37.9685 113.543C37.6601 113.698 37.5058 113.852 37.3516 114.006C37.3516 114.006 37.1974 114.006 37.1974 114.16C37.0431 114.315 36.7347 114.469 36.5804 114.623L36.4262 114.777C36.272 114.932 35.9635 115.086 35.8093 115.24C35.8093 115.24 35.8092 115.24 35.655 115.394C35.1923 115.857 34.7296 116.32 34.2669 116.782C34.1127 116.937 33.9584 117.245 33.65 117.399L33.4957 117.554C33.3415 117.708 33.1872 117.862 33.033 118.171L32.8788 118.325C32.7246 118.479 32.5703 118.787 32.4161 118.942L32.2618 119.096C32.1076 119.404 31.9534 119.559 31.7991 119.867C31.6449 120.176 31.4907 120.484 31.3364 120.793C31.3364 120.793 31.3364 120.793 31.3364 120.947C31.1822 121.255 31.028 121.409 30.8737 121.718C30.8737 121.872 30.7195 121.872 30.7195 122.026C30.5652 122.181 30.5652 122.489 30.411 122.643C30.411 122.798 30.2568 122.798 30.2568 122.952C30.1025 123.106 30.1025 123.415 29.9483 123.569C29.9483 123.723 29.7941 123.723 29.7941 123.877C29.6398 124.186 29.6398 124.34 29.4856 124.648V124.803C29.3313 125.111 29.1771 125.42 29.1771 125.882V126.037C29.0229 126.345 29.0229 126.653 28.8687 126.962C28.8687 127.116 28.8686 127.116 28.7144 127.27C28.7144 127.579 28.5602 127.733 28.5602 128.042C28.5602 128.196 28.5602 128.35 28.4059 128.504C28.4059 128.813 28.2517 128.967 28.2517 129.275C28.2517 129.43 28.2517 129.584 28.0975 129.738C28.0975 130.047 27.9432 130.355 27.9432 130.509C27.9432 130.664 27.9432 130.664 27.9432 130.818C27.789 131.281 27.789 131.589 27.789 132.052V132.206C27.789 132.514 27.6348 132.977 27.6348 133.286C27.6348 133.44 27.6348 133.594 27.6348 133.748C27.6348 134.057 27.6348 134.365 27.4805 134.52C27.4805 134.674 27.4805 134.828 27.4805 134.982C27.4805 135.291 27.4805 135.599 27.3263 135.753C27.3263 135.908 27.3263 136.062 27.3263 136.216C27.3263 136.525 27.3263 136.833 27.3263 137.142C27.3263 137.296 27.3263 137.45 27.3263 137.604C27.3263 138.067 27.3263 138.53 27.3263 138.992C27.3263 139.764 27.3263 140.535 27.3263 141.152C27.3263 141.46 27.3263 141.614 27.3263 141.923C27.3263 142.386 27.3263 142.848 27.3263 143.465C27.3263 143.774 27.3263 143.928 27.3263 144.236C27.3263 144.853 27.4805 145.316 27.4805 145.933C27.4805 146.087 27.4805 146.241 27.4805 146.55C27.4805 147.321 27.6348 147.938 27.789 148.709C27.789 149.018 27.9432 149.326 27.9432 149.635C27.9432 150.097 28.0975 150.56 28.0975 151.023C28.0975 151.331 28.2517 151.794 28.2517 152.102C28.2517 152.565 28.4059 152.874 28.4059 153.336C28.4059 153.645 28.5602 154.107 28.5602 154.416C28.7144 155.033 28.8687 155.65 29.0229 156.112C29.1771 156.575 29.3313 157.192 29.4856 157.655C29.4856 157.963 29.6398 158.272 29.6398 158.58C29.7941 159.043 29.9483 159.506 30.1025 159.968C30.1025 160.277 30.2568 160.431 30.2568 160.74C30.7195 162.436 31.3364 164.287 31.9534 165.984C31.9534 166.138 31.9534 166.138 32.1076 166.292C32.2618 166.909 32.5703 167.372 32.7245 167.989C32.7245 168.143 32.8788 168.297 32.8788 168.451C39.6652 185.726 51.8498 201.92 65.8852 210.712C78.2241 218.269 89.3291 218.578 97.0408 212.717C89.7918 214.414 81.463 212.871 72.5173 207.319Z" fill="#0F054C"/>
<path d="M60.9492 153.799L88.2492 135.136C88.2492 135.136 92.8763 142.077 96.7322 149.018C100.588 155.958 102.902 163.67 102.902 163.67L71.5915 174.158L60.9492 153.799Z" fill="url(#paint9_linear_2015_346)"/>
<path d="M74.6764 168.606C74.5222 173.85 70.8205 175.855 66.3477 173.078C61.8749 170.302 58.4817 163.978 58.6359 158.734C58.7902 153.49 62.4918 151.485 66.9646 154.262C71.4375 157.038 74.8307 163.516 74.6764 168.606Z" fill="url(#paint10_radial_2015_346)"/>
<path opacity="0.4" d="M94.2124 214.364C110.393 205.605 111.216 175.794 96.0519 147.778C80.8875 119.762 55.4775 104.151 39.2971 112.909C23.1168 121.667 22.2932 151.478 37.4577 179.494C52.6221 207.51 78.0321 223.122 94.2124 214.364Z" fill="#16E09E"/>
<defs>
<linearGradient id="paint0_linear_2015_346" x1="156.558" y1="171.85" x2="183.4" y2="172.588" gradientUnits="userSpaceOnUse">
<stop stop-color="#CDBCFF"/>
<stop offset="0.2271" stop-color="#BEAAF8"/>
<stop offset="0.6802" stop-color="#8B7CE5"/>
<stop offset="1" stop-color="#6957D7"/>
</linearGradient>
<linearGradient id="paint1_linear_2015_346" x1="108.746" y1="173.558" x2="193.974" y2="175.902" gradientUnits="userSpaceOnUse">
<stop stop-color="#BCBEFF"/>
<stop offset="0.2271" stop-color="#AAADF8"/>
<stop offset="0.6802" stop-color="#7C83E5"/>
<stop offset="1" stop-color="#5761D7"/>
</linearGradient>
<linearGradient id="paint2_linear_2015_346" x1="158.693" y1="181.704" x2="164.717" y2="181.704" gradientUnits="userSpaceOnUse">
<stop stop-color="#BCBEFF"/>
<stop offset="0.2271" stop-color="#AAADF8"/>
<stop offset="0.6802" stop-color="#7C83E5"/>
<stop offset="1" stop-color="#5761D7"/>
</linearGradient>
<radialGradient id="paint3_radial_2015_346" cx="0" cy="0" r="1" gradientUnits="userSpaceOnUse" gradientTransform="translate(137.899 67.906) rotate(1.57587) scale(93.8531)">
<stop stop-color="#EDE9FD"/>
<stop offset="0.3601" stop-color="#DED2F9"/>
<stop offset="0.7062" stop-color="#D4C4F7"/>
<stop offset="1" stop-color="#CABFF6"/>
</radialGradient>
<radialGradient id="paint4_radial_2015_346" cx="0" cy="0" r="1" gradientUnits="userSpaceOnUse" gradientTransform="translate(150.318 121.75) rotate(31.576) scale(26.8803 23.2797)">
<stop stop-color="#F9636B"/>
<stop offset="1" stop-color="#B6246E"/>
</radialGradient>
<linearGradient id="paint5_linear_2015_346" x1="98.7418" y1="85.6523" x2="142.234" y2="179.049" gradientUnits="userSpaceOnUse">
<stop stop-color="#C9BCFF"/>
<stop offset="0.1237" stop-color="#CBB4FC"/>
<stop offset="0.3207" stop-color="#A586FD"/>
<stop offset="0.5651" stop-color="#7C4EFF"/>
<stop offset="0.744" stop-color="#5036BA"/>
</linearGradient>
<linearGradient id="paint6_linear_2015_346" x1="41.9941" y1="116.106" x2="110.61" y2="210.399" gradientUnits="userSpaceOnUse">
<stop stop-color="#C9BCFF"/>
<stop offset="0.2271" stop-color="#C3AAF8"/>
<stop offset="0.6802" stop-color="#5B38C8"/>
<stop offset="1" stop-color="#3D289A"/>
</linearGradient>
<linearGradient id="paint7_linear_2015_346" x1="20.3697" y1="162.455" x2="113.126" y2="165.007" gradientUnits="userSpaceOnUse">
<stop stop-color="#E9E9FD"/>
<stop offset="0.3601" stop-color="#D3D2F9"/>
<stop offset="0.7062" stop-color="#C5C4F7"/>
<stop offset="1" stop-color="#C0BFF6"/>
</linearGradient>
<radialGradient id="paint8_radial_2015_346" cx="0" cy="0" r="1" gradientUnits="userSpaceOnUse" gradientTransform="translate(88.6788 197.557) rotate(1.57587) scale(105.952)">
<stop stop-color="#BCBEFF"/>
<stop offset="0.2271" stop-color="#AAADF8"/>
<stop offset="0.6802" stop-color="#7C83E5"/>
<stop offset="1" stop-color="#5761D7"/>
</radialGradient>
<linearGradient id="paint9_linear_2015_346" x1="60.9244" y1="141.968" x2="136.505" y2="141.968" gradientUnits="userSpaceOnUse">
<stop stop-color="#E9E9FD"/>
<stop offset="0.3601" stop-color="#D3D2F9"/>
<stop offset="0.7062" stop-color="#C5C4F7"/>
<stop offset="1" stop-color="#C0BFF6"/>
</linearGradient>
<radialGradient id="paint10_radial_2015_346" cx="0" cy="0" r="1" gradientUnits="userSpaceOnUse" gradientTransform="translate(45.0519 148.101) scale(60.4621 60.4621)">
<stop stop-color="#BCBEFF"/>
<stop offset="0.2271" stop-color="#AAADF8"/>
<stop offset="0.6802" stop-color="#7C83E5"/>
<stop offset="1" stop-color="#5761D7"/>
</radialGradient>
</defs>
</svg>
