<svg width="320" height="320" viewBox="0 0 320 320" fill="none" xmlns="http://www.w3.org/2000/svg">
<path opacity="0.4" d="M312.632 17.4738C312.632 27.1243 304.808 34.9475 295.158 34.9475C285.507 34.9475 277.684 27.1243 277.684 17.4738C277.684 7.82327 285.507 0 295.158 0C304.808 0 312.632 7.82327 312.632 17.4738Z" fill="url(#paint0_linear_10035_7)"/>
<path opacity="0.4" d="M133.525 59.9635C133.525 78.0582 118.857 92.7268 100.762 92.7268C82.6674 92.7268 67.9988 78.0582 67.9988 59.9635C67.9988 41.8688 82.6674 27.2002 100.762 27.2002C118.857 27.2002 133.525 41.8688 133.525 59.9635Z" fill="url(#paint1_linear_10035_7)"/>
<g clip-path="url(#clip0_10035_7)">
<path d="M132.266 278.846C131.444 278.846 130.622 278.64 130.005 278.229L25.2955 217.705C24.679 217.294 24.2679 216.78 24.2679 216.267C24.2679 215.855 24.5762 215.444 24.9873 215.136L87.4636 179.068C88.4912 178.452 90.3408 178.555 91.4711 179.274L196.181 239.798C196.797 240.209 197.208 240.723 197.208 241.236C197.208 241.648 196.9 242.059 196.489 242.367L134.013 278.435C133.602 278.743 132.882 278.846 132.266 278.846ZM25.3983 217.5L130.108 278.024C131.238 278.64 132.882 278.743 133.807 278.229L196.283 242.161C196.694 241.956 196.9 241.648 196.9 241.339C196.9 240.928 196.592 240.517 196.078 240.209L91.3684 179.685C90.2381 179.068 88.5939 178.966 87.6691 179.479L25.09 215.65C24.679 215.855 24.4735 216.164 24.4735 216.472C24.5762 216.78 24.8845 217.191 25.3983 217.5Z" fill="#7C40FF"/>
<path d="M197.105 230.755L191.35 229.932L91.3675 172.183C90.2372 171.566 88.4903 171.464 87.4627 171.977L27.9664 206.298L24.2671 205.785V210.614C24.2671 211.025 24.5754 211.539 25.1919 211.847L129.901 272.371C131.032 272.988 132.779 273.09 133.806 272.577L196.283 236.509C196.694 236.201 196.899 235.892 196.899 235.481V230.755H197.105Z" fill="url(#paint2_linear_10035_7)"/>
<path d="M25.2953 207.225L130.005 267.749C131.135 268.365 132.882 268.468 133.91 267.954L196.386 231.887C197.414 231.27 197.208 230.345 196.078 229.626L91.3682 169.102C90.2379 168.485 88.491 168.383 87.4634 168.896L24.987 204.964C24.0622 205.581 24.165 206.608 25.2953 207.225Z" fill="url(#paint3_linear_10035_7)"/>
<path opacity="0.3" d="M34.3372 208.456L127.949 262.507C128.977 263.123 130.518 263.123 131.443 262.61L187.343 230.344C188.267 229.83 188.165 228.905 187.137 228.391L93.5253 174.341C92.4977 173.725 90.9564 173.725 90.0316 174.238L34.1317 206.401C33.2069 206.915 33.4124 207.84 34.3372 208.456Z" fill="#24126A"/>
<path d="M196.488 231.27L134.012 267.338C132.984 267.954 131.238 267.851 130.107 267.132L25.3977 206.608C24.8839 206.3 24.5757 205.992 24.4729 205.581C24.2674 206.094 24.5757 206.711 25.3977 207.122L130.107 267.646C131.238 268.262 132.984 268.365 134.012 267.851L196.488 231.784C197.002 231.475 197.208 230.962 197.105 230.551C197.002 230.859 196.797 231.064 196.488 231.27Z" fill="white"/>
<path d="M128.567 177.014L128.361 176.705L161.654 157.49L74.2081 107.036C71.742 105.597 68.6593 105.597 66.1931 107.036L37.7293 123.477L37.5238 123.169L65.9876 106.728C68.5565 105.289 71.742 105.289 74.3109 106.728L162.271 157.49L162.066 157.592L128.567 177.014Z" fill="#7C40FF"/>
<path d="M317.126 204.141L300.171 194.687C296.369 192.529 293.081 187.905 291.848 183.076L277.154 122.552C276.229 118.75 274.174 115.461 271.81 113.201L269.755 119.469C269.241 121.01 268.317 122.141 266.981 122.654C265.439 123.271 263.384 122.963 261.432 121.73L259.068 120.394L256.911 126.867C256.397 128.409 255.472 129.539 254.136 130.053C252.595 130.669 250.54 130.361 248.587 129.128L245.505 127.381C242.011 125.326 238.723 120.907 237.489 116.386C236.359 112.276 233.996 108.988 231.427 106.932L229.988 109.912C229.372 111.146 228.447 112.07 227.316 112.379C225.775 112.892 223.925 112.481 221.973 111.454L220.329 110.529L217.144 117.311C216.527 118.544 215.602 119.469 214.472 119.777C212.93 120.291 211.081 119.88 209.128 118.852L205.635 116.797C201.833 114.537 198.544 109.81 197.414 104.98L182.823 39.6266C181.898 35.5163 179.637 32.1253 177.171 29.7619L156.106 87.4086C155.592 88.8472 154.667 89.8748 153.331 90.3886C151.79 90.9024 149.838 90.5941 147.782 89.4638L145.625 88.2307L143.261 94.8071C142.747 96.2457 141.823 97.2733 140.487 97.7871C138.945 98.4037 136.993 97.9926 134.938 96.8623L122.71 89.772L122.915 89.6693L135.863 82.0653H135.965L145.522 87.5114L166.69 29.5564C167.512 27.2957 169.156 26.1654 171.314 26.2681C173.061 26.3709 175.116 27.3984 176.965 28.9398L179.432 22.0551C180.254 19.8972 181.692 18.7668 183.747 18.7668C183.85 18.7668 183.953 18.7668 184.056 18.7668C188.372 19.0751 194.229 24.4185 195.873 31.817L210.464 97.1706C211.492 101.897 214.883 106.624 218.479 108.782L220.021 109.707L221.459 106.521C222.384 104.569 223.925 103.644 226.083 103.85C227.625 103.953 229.372 104.775 231.119 106.11L234.407 99.2257C235.332 97.2733 236.873 96.3485 239.031 96.554C243.038 96.8623 248.484 101.589 250.54 108.679C251.773 113.098 254.958 117.414 258.349 119.469L258.657 119.674L260.815 112.995C261.535 110.632 263.179 109.399 265.439 109.501C267.289 109.604 269.447 110.632 271.502 112.379L273.66 105.597C274.379 103.233 276.023 102 278.284 102.103C282.6 102.308 288.354 107.446 290.204 114.845L304.898 175.369C306.028 180.096 309.317 184.72 313.016 186.775L329.971 196.228L329.765 196.537L312.81 187.083C309.008 184.925 305.72 180.301 304.487 175.472L289.793 114.948C288.046 107.755 282.292 102.617 278.181 102.411C276.126 102.308 274.688 103.439 273.968 105.699L271.708 112.584C274.174 114.845 276.332 118.236 277.256 122.243L291.951 182.767C293.081 187.494 296.369 192.118 300.069 194.173L317.023 203.627L317.126 204.141ZM231.632 106.521C234.201 108.679 236.667 112.07 237.798 116.283C239.031 120.702 242.216 125.018 245.607 127.073L248.69 128.82C250.642 129.95 252.492 130.258 254.033 129.642C255.266 129.231 256.089 128.203 256.602 126.662L258.76 120.085L258.349 119.88C254.855 117.825 251.567 113.406 250.334 108.885C248.382 101.897 243.038 97.2733 239.134 96.965C237.181 96.7595 235.743 97.6843 234.921 99.4312L231.632 106.521ZM259.171 119.983L261.637 121.421C263.59 122.552 265.439 122.86 266.878 122.243C268.111 121.832 268.933 120.805 269.447 119.263L271.502 112.79C269.55 111.043 267.392 109.912 265.542 109.912C263.487 109.81 262.048 110.94 261.329 113.201L259.171 119.983ZM177.377 29.2481C179.945 31.6115 182.309 35.1052 183.234 39.3183L197.825 104.672C198.853 109.399 202.244 114.125 205.84 116.283L209.334 118.339C211.184 119.366 212.93 119.777 214.369 119.263C215.499 118.955 216.321 118.133 216.938 117.003L220.123 110.221L218.479 109.296C214.677 107.035 211.389 102.308 210.259 97.4788L195.667 32.1253C194.023 24.9323 188.269 19.5889 184.158 19.3834C182.103 19.2806 180.562 20.3082 179.843 22.3633L177.377 29.2481ZM220.637 110.118L222.281 111.043C224.131 112.07 225.878 112.481 227.316 111.968C228.447 111.659 229.269 110.837 229.885 109.707L231.324 106.624C229.68 105.288 227.933 104.569 226.392 104.466C224.439 104.261 223.001 105.186 222.179 106.932L220.637 110.118ZM123.429 89.5665L135.246 96.3485C137.198 97.4788 139.048 97.7871 140.487 97.2733C141.617 96.8623 142.542 95.9375 143.056 94.4989L145.522 87.8197L136.068 82.3735L123.429 89.5665ZM145.83 87.7169L148.091 88.95C150.043 90.0803 151.893 90.3886 153.331 89.8748C154.462 89.4638 155.386 88.539 155.9 87.1004L176.965 29.3508C175.116 27.7067 173.061 26.7819 171.417 26.6791C169.361 26.5764 167.82 27.604 167.101 29.6591L145.83 87.7169Z" fill="#7C40FF"/>
<path d="M181.65 19.5449L168.726 26.9575L168.88 27.2249L181.804 19.8123L181.65 19.5449Z" fill="#7C40FF"/>
<path d="M223.515 105.082L223.413 104.774L236.463 97.2725L236.668 97.5807L223.515 105.082Z" fill="#7C40FF"/>
<path d="M276.571 102.624L262.931 110.442L263.084 110.71L276.725 102.891L276.571 102.624Z" fill="#7C40FF"/>
<path d="M317.126 204.141L300.171 194.687C296.369 192.529 293.081 187.905 291.848 183.076L277.154 122.552C276.229 118.75 274.174 115.461 271.81 113.201L269.755 119.469C269.241 121.01 268.317 122.141 266.981 122.654C265.439 123.271 263.384 122.963 261.432 121.73L259.068 120.394L256.911 126.867C256.397 128.409 255.472 129.539 254.136 130.053C252.595 130.669 250.54 130.361 248.587 129.128L245.505 127.381C242.011 125.326 238.723 120.907 237.489 116.386C236.359 112.276 233.996 108.988 231.427 106.932L229.988 109.912C229.372 111.146 228.447 112.07 227.316 112.379C225.775 112.892 223.925 112.481 221.973 111.454L220.329 110.529L217.144 117.311C216.527 118.544 215.602 119.469 214.472 119.777C212.93 120.291 211.081 119.88 209.128 118.852L205.635 116.797C201.833 114.537 198.544 109.81 197.414 104.98L182.823 39.6266C181.898 35.5163 179.637 32.1253 177.171 29.7619L156.106 87.4086C155.592 88.8472 154.667 89.8748 153.331 90.3886C151.79 90.9024 149.838 90.5941 147.782 89.4638L145.625 88.2307L143.261 94.8071C142.747 96.2457 141.823 97.2733 140.487 97.7871C138.945 98.4037 136.993 97.9926 134.938 96.8623L122.71 89.772L122.915 89.6693L135.863 82.0653H135.965L145.522 87.5114L166.69 29.5564C167.512 27.2957 169.156 26.1654 171.314 26.2681C173.061 26.3709 175.116 27.3984 176.965 28.9398L179.432 22.0551C180.254 19.8972 181.692 18.7668 183.747 18.7668C183.85 18.7668 183.953 18.7668 184.056 18.7668C188.372 19.0751 194.229 24.4185 195.873 31.817L210.464 97.1706C211.492 101.897 214.883 106.624 218.479 108.782L220.021 109.707L221.459 106.521C222.384 104.569 223.925 103.644 226.083 103.85C227.625 103.953 229.372 104.775 231.119 106.11L234.407 99.2257C235.332 97.2733 236.873 96.3485 239.031 96.554C243.038 96.8623 248.484 101.589 250.54 108.679C251.773 113.098 254.958 117.414 258.349 119.469L258.657 119.674L260.815 112.995C261.535 110.632 263.179 109.399 265.439 109.501C267.289 109.604 269.447 110.632 271.502 112.379L273.66 105.597C274.379 103.233 276.023 102 278.284 102.103C282.6 102.308 288.354 107.446 290.204 114.845L304.898 175.369C306.028 180.096 309.317 184.72 313.016 186.775L329.971 196.228L329.765 196.537L312.81 187.083C309.008 184.925 305.72 180.301 304.487 175.472L289.793 114.948C288.046 107.755 282.292 102.617 278.181 102.411C276.126 102.308 274.688 103.439 273.968 105.699L271.708 112.584C274.174 114.845 276.332 118.236 277.256 122.243L291.951 182.767C293.081 187.494 296.369 192.118 300.069 194.173L317.023 203.627L317.126 204.141ZM231.632 106.521C234.201 108.679 236.667 112.07 237.798 116.283C239.031 120.702 242.216 125.018 245.607 127.073L248.69 128.82C250.642 129.95 252.492 130.258 254.033 129.642C255.266 129.231 256.089 128.203 256.602 126.662L258.76 120.085L258.349 119.88C254.855 117.825 251.567 113.406 250.334 108.885C248.382 101.897 243.038 97.2733 239.134 96.965C237.181 96.7595 235.743 97.6843 234.921 99.4312L231.632 106.521ZM259.171 119.983L261.637 121.421C263.59 122.552 265.439 122.86 266.878 122.243C268.111 121.832 268.933 120.805 269.447 119.263L271.502 112.79C269.55 111.043 267.392 109.912 265.542 109.912C263.487 109.81 262.048 110.94 261.329 113.201L259.171 119.983ZM177.377 29.2481C179.945 31.6115 182.309 35.1052 183.234 39.3183L197.825 104.672C198.853 109.399 202.244 114.125 205.84 116.283L209.334 118.339C211.184 119.366 212.93 119.777 214.369 119.263C215.499 118.955 216.321 118.133 216.938 117.003L220.123 110.221L218.479 109.296C214.677 107.035 211.389 102.308 210.259 97.4788L195.667 32.1253C194.023 24.9323 188.269 19.5889 184.158 19.3834C182.103 19.2806 180.562 20.3082 179.843 22.3633L177.377 29.2481ZM220.637 110.118L222.281 111.043C224.131 112.07 225.878 112.481 227.316 111.968C228.447 111.659 229.269 110.837 229.885 109.707L231.324 106.624C229.68 105.288 227.933 104.569 226.392 104.466C224.439 104.261 223.001 105.186 222.179 106.932L220.637 110.118ZM123.429 89.5665L135.246 96.3485C137.198 97.4788 139.048 97.7871 140.487 97.2733C141.617 96.8623 142.542 95.9375 143.056 94.4989L145.522 87.8197L136.068 82.3735L123.429 89.5665ZM145.83 87.7169L148.091 88.95C150.043 90.0803 151.893 90.3886 153.331 89.8748C154.462 89.4638 155.386 88.539 155.9 87.1004L176.965 29.3508C175.116 27.7067 173.061 26.7819 171.417 26.6791C169.361 26.5764 167.82 27.604 167.101 29.6591L145.83 87.7169Z" fill="#7C40FF"/>
<path opacity="0.5" d="M135.865 82.2701L147.887 89.2576C151.484 91.3128 154.669 90.5935 155.902 87.3052L179.639 22.3627C182.311 14.9642 193.409 21.6434 195.772 32.1247L210.364 97.4782C211.391 102.308 214.782 107.035 218.482 109.193L221.975 111.248C225.366 113.2 228.449 112.686 229.785 109.809L234.614 99.5334C237.594 93.1624 247.665 99.1223 250.336 108.987C251.569 113.508 254.755 117.824 258.249 119.879L261.331 121.626C265.031 123.784 268.319 122.859 269.449 119.468L273.868 105.904C276.334 98.1975 287.534 104.671 290 115.152L304.695 175.676C305.825 180.403 309.216 185.13 312.915 187.185L329.87 196.639L135.865 82.2701Z" fill="url(#paint4_linear_10035_7)"/>
<path opacity="0.5" d="M123.02 89.4637L135.042 96.4512C138.639 98.5064 141.824 97.7871 143.057 94.4988L166.794 29.5563C169.466 22.1578 180.564 28.837 182.927 39.3183L197.519 104.672C198.546 109.501 201.937 114.228 205.637 116.386L209.13 118.441C212.521 120.394 215.604 119.88 216.94 117.003L221.769 106.727C224.749 100.356 234.82 106.316 237.491 116.181C238.724 120.702 241.91 125.018 245.404 127.073L248.486 128.82C252.186 130.978 255.474 130.053 256.604 126.662L261.023 113.098C263.489 105.391 274.689 111.865 277.156 122.346L292.055 182.767C293.186 187.494 296.577 192.221 300.276 194.276L317.231 203.73L123.02 89.4637Z" fill="url(#paint5_linear_10035_7)"/>
<path d="M30.2268 186.776C28.5827 186.776 27.0413 186.468 25.8082 185.749L5.4623 174.034C4.22922 173.315 3.61267 172.39 3.61267 171.363C3.61267 170.335 4.22922 169.41 5.4623 168.691L25.8082 156.977C28.2744 155.538 32.1792 155.538 34.6453 156.977L54.9912 168.691C56.2243 169.41 56.8409 170.335 56.8409 171.363C56.8409 172.39 56.2243 173.315 54.9912 174.034L34.6453 185.749C33.4123 186.468 31.8709 186.776 30.2268 186.776ZM26.0137 185.44C28.3772 186.776 32.1792 186.776 34.4398 185.44L54.7858 173.726C55.9161 173.11 56.5326 172.287 56.5326 171.363C56.5326 170.438 55.9161 169.616 54.7858 168.999L34.4398 157.285C32.0764 155.949 28.2744 155.949 26.0137 157.285L5.66781 168.999C4.53749 169.616 4.02369 170.438 4.02369 171.363C4.02369 172.287 4.64023 173.11 5.77056 173.726L26.0137 185.44Z" fill="#7C40FF"/>
<path d="M91.2666 150.193L104.522 71.5836L103.495 71.1725L105.139 70.2477C105.447 70.0422 105.858 70.0422 106.372 70.3505L212.212 131.491C213.034 132.005 213.753 133.238 213.548 134.163L200.189 213.388C200.086 213.799 199.881 214.108 199.675 214.211L198.134 215.135L197.826 213.697H197.929L92.7052 152.967C91.7804 152.351 91.0611 151.118 91.2666 150.193Z" fill="url(#paint6_linear_10035_7)"/>
<path d="M211.491 133.648L213.238 132.929C213.443 133.34 213.546 133.854 213.443 134.265L200.085 213.491C199.982 213.902 199.777 214.21 199.571 214.313L198.03 215.238L197.722 213.799H197.824L192.481 210.716L211.491 133.648Z" fill="url(#paint7_linear_10035_7)"/>
<path d="M90.9577 153.891L196.798 215.031C197.62 215.545 198.339 215.237 198.442 214.415L211.8 135.189C211.903 134.264 211.286 133.031 210.464 132.517L104.624 71.3769C103.802 70.8631 103.083 71.1714 102.98 71.9935L89.6219 151.219C89.4164 152.041 90.0329 153.377 90.9577 153.891Z" fill="#24126A"/>
<g opacity="0.51">
<path d="M104.214 72.8157L210.568 134.162L197.106 213.593L90.8555 152.247L104.214 72.8157Z" fill="#453C9E"/>
</g>
<path d="M24.473 191.296L30.2274 194.276L88.1825 160.88C89.1073 160.366 90.8541 160.366 91.9845 161.085L191.864 218.732C192.789 218.218 197.208 216.06 197.208 216.06L195.05 219.451C194.947 219.657 194.742 219.965 194.433 220.068L133.396 255.314C132.471 255.827 130.724 255.827 129.594 255.108L27.3502 196.125C26.9392 195.817 26.6309 195.509 26.5282 195.201L24.473 191.296Z" fill="url(#paint8_linear_10035_7)"/>
<path d="M25.2964 192.323L130.006 252.847C131.136 253.463 132.883 253.566 133.911 253.052L196.387 216.985C197.415 216.368 197.209 215.443 196.079 214.724L91.3693 154.2C90.239 153.583 88.4921 153.481 87.4645 153.994L24.9881 190.062C24.0633 190.576 24.1661 191.604 25.2964 192.323Z" fill="url(#paint9_linear_10035_7)"/>
<path d="M25.2945 191.809L130.004 252.333C131.134 252.949 132.881 253.052 133.909 252.538L196.385 216.471C196.693 216.265 196.899 216.06 197.002 215.751C197.105 216.162 196.899 216.676 196.385 216.984L133.909 253.052C132.881 253.669 131.134 253.566 130.004 252.847L25.2945 192.323C24.5752 191.912 24.267 191.295 24.3697 190.781C24.4725 191.192 24.7808 191.501 25.2945 191.809Z" fill="white"/>
<g opacity="0.15">
<path d="M90.8568 153.379L96.6112 156.359L154.566 122.963C155.491 122.449 157.238 122.449 158.368 123.169L258.145 180.713C259.07 180.199 263.489 178.041 263.489 178.041L261.331 181.432C261.228 181.638 261.023 181.946 260.714 182.049L199.677 217.294C198.752 217.808 197.005 217.808 195.875 217.089L93.6312 158.106C93.2202 157.798 92.9119 157.49 92.8092 157.181L90.8568 153.379Z" fill="url(#paint10_linear_10035_7)"/>
<path d="M91.6799 154.303L196.492 214.725C197.623 215.341 199.369 215.444 200.397 214.93L262.873 178.862C263.901 178.246 263.695 177.321 262.565 176.602L157.855 116.078C156.725 115.461 154.978 115.358 153.951 115.872L91.4744 151.94C90.4468 152.659 90.5496 153.584 91.6799 154.303Z" fill="url(#paint11_linear_10035_7)"/>
<path d="M262.565 176.602L157.855 116.078C157.136 115.667 156.109 115.462 155.286 115.565C155.903 115.565 156.622 115.77 157.136 116.078L261.846 176.602C262.976 177.219 263.079 178.246 262.154 178.863L199.575 214.931C199.267 215.136 198.753 215.239 198.239 215.342C198.958 215.444 199.78 215.239 200.294 214.931L262.77 178.863C263.901 178.246 263.695 177.219 262.565 176.602Z" fill="white"/>
<g opacity="0.5">
<path d="M146.551 143.925L143.16 141.973C142.852 141.767 142.441 141.87 142.132 141.973L138.433 144.131C138.125 144.336 138.125 144.542 138.433 144.747L141.824 146.699C142.132 146.905 142.543 146.802 142.852 146.699L146.551 144.542C146.859 144.336 146.859 144.028 146.551 143.925Z" fill="#24126A"/>
<path d="M151.792 146.905L148.401 144.953C148.093 144.747 147.681 144.85 147.373 144.953L143.674 147.111C143.366 147.316 143.366 147.522 143.674 147.727L147.065 149.679C147.373 149.885 147.784 149.782 148.092 149.679L151.792 147.522C151.997 147.316 151.997 147.008 151.792 146.905Z" fill="#24126A"/>
<path d="M156.93 149.885L153.539 147.933C153.231 147.727 152.82 147.83 152.512 147.933L148.813 150.091C148.504 150.296 148.504 150.502 148.813 150.707L152.203 152.66C152.512 152.865 152.923 152.762 153.231 152.66L156.93 150.502C157.239 150.296 157.239 149.988 156.93 149.885Z" fill="#24126A"/>
<path d="M153.025 153.893L149.634 151.94C149.326 151.735 148.915 151.838 148.607 151.94L145.524 153.79C145.216 153.996 145.216 154.201 145.524 154.407L148.915 156.359C149.223 156.565 149.634 156.462 149.942 156.359L153.025 154.509C153.231 154.304 153.333 153.996 153.025 153.893Z" fill="#24126A"/>
<path d="M158.162 156.873L154.771 154.92C154.463 154.715 154.052 154.817 153.744 154.92L150.661 156.77C150.353 156.975 150.353 157.181 150.661 157.386L154.052 159.339C154.36 159.544 154.771 159.441 155.08 159.339L158.162 157.489C158.471 157.284 158.471 156.975 158.162 156.873Z" fill="#24126A"/>
<path d="M163.403 159.853L160.012 157.901C159.704 157.695 159.293 157.798 158.985 157.901L155.902 159.751C155.594 159.956 155.594 160.162 155.902 160.367L159.293 162.319C159.601 162.525 160.012 162.422 160.321 162.319L163.403 160.47C163.609 160.264 163.609 159.956 163.403 159.853Z" fill="#24126A"/>
<path d="M168.542 162.832L165.151 160.88C164.842 160.674 164.431 160.777 164.123 160.88L161.04 162.73C160.732 162.935 160.732 163.141 161.04 163.346L164.431 165.298C164.74 165.504 165.151 165.401 165.459 165.298L168.542 163.449C168.85 163.243 168.85 162.935 168.542 162.832Z" fill="#24126A"/>
<path d="M173.781 165.812L170.39 163.86C170.082 163.654 169.671 163.757 169.363 163.86L166.28 165.709C165.972 165.915 165.972 166.12 166.28 166.326L169.671 168.278C169.979 168.484 170.39 168.381 170.699 168.278L173.781 166.429C173.987 166.223 173.987 166.018 173.781 165.812Z" fill="#24126A"/>
<path d="M178.92 168.793L175.529 166.84C175.221 166.635 174.81 166.738 174.501 166.84L171.419 168.69C171.11 168.895 171.11 169.101 171.419 169.306L174.81 171.259C175.118 171.464 175.529 171.362 175.837 171.259L178.92 169.409C179.228 169.204 179.228 168.998 178.92 168.793Z" fill="#24126A"/>
<path d="M184.162 171.773L180.771 169.821C180.463 169.616 180.052 169.718 179.744 169.821L176.661 171.671C176.353 171.876 176.353 172.082 176.661 172.287L180.052 174.24C180.36 174.445 180.771 174.342 181.079 174.24L184.162 172.39C184.368 172.184 184.368 171.979 184.162 171.773Z" fill="#24126A"/>
<path d="M189.298 174.856L185.907 172.903C185.599 172.698 185.188 172.801 184.879 172.903L181.797 174.753C181.488 174.958 181.488 175.164 181.797 175.37L185.188 177.322C185.496 177.527 185.907 177.425 186.215 177.322L189.298 175.472C189.606 175.267 189.606 174.958 189.298 174.856Z" fill="#24126A"/>
<path d="M194.538 177.835L191.147 175.883C190.838 175.677 190.427 175.78 190.119 175.883L187.036 177.732C186.728 177.938 186.728 178.143 187.036 178.349L190.427 180.301C190.736 180.507 191.147 180.404 191.455 180.301L194.538 178.452C194.743 178.246 194.743 177.938 194.538 177.835Z" fill="#24126A"/>
<path d="M199.677 180.815L196.286 178.863C195.978 178.657 195.567 178.76 195.259 178.863L192.176 180.712C191.868 180.918 191.868 181.123 192.176 181.329L195.567 183.281C195.875 183.487 196.286 183.384 196.595 183.281L199.677 181.431C199.986 181.226 199.986 180.918 199.677 180.815Z" fill="#24126A"/>
<path d="M150.865 158.105L147.474 156.153C147.166 155.947 146.755 156.05 146.447 156.153L143.364 158.002C143.056 158.208 143.056 158.413 143.364 158.619L146.755 160.571C147.063 160.777 147.474 160.674 147.783 160.571L150.865 158.722C151.071 158.516 151.071 158.31 150.865 158.105Z" fill="#24126A"/>
<path d="M145.627 155.126L142.236 153.174C141.928 152.968 141.517 153.071 141.209 153.174L138.126 155.023C137.818 155.229 137.818 155.434 138.126 155.64L141.517 157.592C141.825 157.798 142.236 157.695 142.544 157.592L145.627 155.743C145.833 155.537 145.833 155.229 145.627 155.126Z" fill="#24126A"/>
<path d="M140.281 152.044L133.088 147.831C132.78 147.626 132.369 147.728 132.06 147.831L128.978 149.681C128.67 149.886 128.67 150.092 128.978 150.297L136.171 154.51C136.479 154.716 136.89 154.613 137.198 154.51L140.281 152.661C140.589 152.455 140.589 152.147 140.281 152.044Z" fill="#24126A"/>
<path d="M134.22 153.996L128.363 150.605C128.055 150.399 127.644 150.502 127.336 150.605L124.253 152.454C123.945 152.66 123.945 152.865 124.253 153.071L130.11 156.462C130.418 156.667 130.829 156.565 131.138 156.462L134.22 154.612C134.426 154.407 134.426 154.201 134.22 153.996Z" fill="#24126A"/>
<path d="M156.004 161.086L152.613 159.134C152.305 158.928 151.894 159.031 151.585 159.134L148.503 160.983C148.194 161.189 148.194 161.394 148.503 161.6L151.894 163.552C152.202 163.758 152.613 163.655 152.921 163.552L156.004 161.702C156.312 161.497 156.312 161.291 156.004 161.086Z" fill="#24126A"/>
<path d="M161.246 164.065L157.855 162.113C157.547 161.907 157.136 162.01 156.828 162.113L153.745 163.962C153.437 164.168 153.437 164.373 153.745 164.579L157.136 166.531C157.444 166.737 157.855 166.634 158.163 166.531L161.246 164.682C161.452 164.579 161.452 164.271 161.246 164.065Z" fill="#24126A"/>
<path d="M166.383 167.148L162.992 165.196C162.684 164.991 162.273 165.093 161.965 165.196L158.882 167.046C158.574 167.251 158.574 167.457 158.882 167.662L162.273 169.615C162.581 169.82 162.992 169.717 163.301 169.615L166.383 167.765C166.692 167.559 166.692 167.251 166.383 167.148Z" fill="#24126A"/>
<path d="M171.623 170.129L168.232 168.176C167.924 167.971 167.513 168.074 167.204 168.176L164.122 170.026C163.813 170.231 163.813 170.437 164.122 170.642L167.513 172.595C167.821 172.8 168.232 172.698 168.54 172.595L171.623 170.745C171.828 170.54 171.828 170.231 171.623 170.129Z" fill="#24126A"/>
<path d="M176.762 173.107L173.371 171.155C173.062 170.95 172.651 171.052 172.343 171.155L169.26 173.005C168.952 173.21 168.952 173.416 169.26 173.621L172.651 175.574C172.96 175.779 173.371 175.676 173.679 175.574L176.762 173.724C177.07 173.518 177.07 173.21 176.762 173.107Z" fill="#24126A"/>
<path d="M182.002 176.088L178.611 174.136C178.303 173.93 177.892 174.033 177.584 174.136L174.501 175.985C174.193 176.191 174.193 176.396 174.501 176.602L177.892 178.554C178.2 178.76 178.611 178.657 178.92 178.554L182.002 176.705C182.208 176.499 182.208 176.294 182.002 176.088Z" fill="#24126A"/>
<path d="M187.14 179.068L183.749 177.116C183.44 176.91 183.029 177.013 182.721 177.116L179.638 178.965C179.33 179.171 179.33 179.376 179.638 179.582L183.029 181.534C183.338 181.74 183.749 181.637 184.057 181.534L187.14 179.685C187.448 179.479 187.448 179.274 187.14 179.068Z" fill="#24126A"/>
<path d="M192.381 182.048L188.99 180.096C188.681 179.89 188.27 179.993 187.962 180.096L184.879 181.946C184.571 182.151 184.571 182.357 184.879 182.562L188.27 184.515C188.579 184.72 188.99 184.617 189.298 184.515L192.381 182.665C192.586 182.459 192.586 182.254 192.381 182.048Z" fill="#24126A"/>
<path d="M197.519 185.027L194.128 183.075C193.82 182.869 193.409 182.972 193.101 183.075L190.018 184.924C189.71 185.13 189.71 185.335 190.018 185.541L193.409 187.493C193.717 187.699 194.128 187.596 194.436 187.493L197.519 185.644C197.827 185.438 197.827 185.233 197.519 185.027Z" fill="#24126A"/>
<path d="M206.764 190.371L199.469 186.158C199.16 185.952 198.749 186.055 198.441 186.158L195.358 188.008C195.05 188.213 195.05 188.419 195.358 188.624L202.654 192.837C202.962 193.043 203.373 192.94 203.682 192.837L206.764 190.988C206.97 190.782 206.97 190.577 206.764 190.371Z" fill="#24126A"/>
<path d="M197.21 195.921L191.044 192.325C190.736 192.119 190.325 192.222 190.017 192.325L186.934 194.174C186.626 194.38 186.626 194.585 186.934 194.791L193.099 198.387C193.408 198.593 193.819 198.49 194.127 198.387L197.21 196.538C197.518 196.332 197.518 196.127 197.21 195.921Z" fill="#24126A"/>
<path d="M155.284 166.224L151.893 164.271C151.585 164.066 151.174 164.168 150.866 164.271L147.783 166.121C147.475 166.326 147.475 166.532 147.783 166.737L151.174 168.69C151.482 168.895 151.893 168.793 152.202 168.69L155.284 166.84C155.593 166.635 155.593 166.429 155.284 166.224Z" fill="#24126A"/>
<path d="M150.045 163.141L146.654 161.189C146.346 160.983 145.935 161.086 145.626 161.189L142.544 163.038C142.235 163.244 142.235 163.449 142.544 163.655L145.935 165.607C146.243 165.813 146.654 165.71 146.962 165.607L150.045 163.758C150.25 163.552 150.25 163.347 150.045 163.141Z" fill="#24126A"/>
<path d="M144.7 160.058L141.309 158.106C141.001 157.9 140.59 158.003 140.282 158.106L137.199 159.956C136.891 160.161 136.891 160.367 137.199 160.572L140.59 162.525C140.898 162.73 141.309 162.627 141.618 162.525L144.7 160.675C144.906 160.469 145.009 160.264 144.7 160.058Z" fill="#24126A"/>
<path d="M139.357 156.975L135.966 155.023C135.658 154.817 135.247 154.92 134.938 155.023L131.856 156.873C131.547 157.078 131.547 157.284 131.856 157.489L135.247 159.442C135.555 159.647 135.966 159.544 136.274 159.442L139.357 157.592C139.665 157.386 139.665 157.181 139.357 156.975Z" fill="#24126A"/>
<path d="M160.527 169.204L157.136 167.251C156.828 167.046 156.417 167.148 156.108 167.251L153.026 169.101C152.717 169.306 152.717 169.512 153.026 169.717L156.416 171.67C156.725 171.875 157.136 171.773 157.444 171.67L160.527 169.82C160.732 169.615 160.732 169.409 160.527 169.204Z" fill="#24126A"/>
<path d="M165.664 172.183L162.273 170.23C161.965 170.025 161.554 170.128 161.245 170.23L158.163 172.08C157.854 172.286 157.854 172.491 158.163 172.697L161.554 174.649C161.862 174.855 162.273 174.752 162.581 174.649L165.664 172.799C165.972 172.594 165.972 172.388 165.664 172.183Z" fill="#24126A"/>
<path d="M170.904 175.164L167.513 173.211C167.204 173.006 166.793 173.108 166.485 173.211L163.402 175.061C163.094 175.266 163.094 175.472 163.402 175.677L166.793 177.63C167.102 177.835 167.513 177.733 167.821 177.63L170.904 175.78C171.109 175.575 171.109 175.369 170.904 175.164Z" fill="#24126A"/>
<path d="M176.042 178.247L172.651 176.294C172.343 176.089 171.932 176.191 171.623 176.294L168.541 178.144C168.233 178.349 168.233 178.555 168.541 178.76L171.932 180.713C172.24 180.918 172.651 180.816 172.959 180.713L176.042 178.863C176.35 178.658 176.35 178.349 176.042 178.247Z" fill="#24126A"/>
<path d="M181.283 181.225L177.892 179.273C177.584 179.067 177.173 179.17 176.864 179.273L173.782 181.122C173.473 181.328 173.473 181.533 173.782 181.739L177.173 183.691C177.481 183.897 177.892 183.794 178.2 183.691L181.283 181.842C181.489 181.636 181.489 181.328 181.283 181.225Z" fill="#24126A"/>
<path d="M186.42 184.206L183.029 182.254C182.721 182.048 182.31 182.151 182.002 182.254L178.919 184.104C178.611 184.309 178.611 184.515 178.919 184.72L182.31 186.672C182.618 186.878 183.029 186.775 183.337 186.672L186.42 184.823C186.728 184.617 186.728 184.309 186.42 184.206Z" fill="#24126A"/>
<path d="M191.662 187.186L188.271 185.233C187.963 185.028 187.552 185.13 187.244 185.233L184.161 187.083C183.853 187.288 183.853 187.494 184.161 187.699L187.552 189.652C187.86 189.857 188.271 189.754 188.58 189.652L191.662 187.802C191.868 187.597 191.868 187.288 191.662 187.186Z" fill="#24126A"/>
<path d="M196.8 190.166L193.409 188.214C193.1 188.009 192.689 188.111 192.381 188.214L189.298 190.064C188.99 190.269 188.99 190.475 189.298 190.68L192.689 192.633C192.998 192.838 193.409 192.735 193.717 192.633L196.8 190.783C197.005 190.578 197.108 190.372 196.8 190.166Z" fill="#24126A"/>
<path d="M202.039 193.146L198.648 191.193C198.34 190.988 197.929 191.091 197.621 191.193L194.538 193.043C194.23 193.249 194.23 193.454 194.538 193.66L197.929 195.612C198.237 195.817 198.648 195.715 198.957 195.612L202.039 193.762C202.245 193.557 202.245 193.351 202.039 193.146Z" fill="#24126A"/>
<path d="M142.751 164.476L139.36 162.524C139.051 162.318 138.64 162.421 138.332 162.524L135.249 164.373C134.941 164.579 134.941 164.784 135.249 164.99L138.64 166.942C138.949 167.148 139.36 167.045 139.668 166.942L142.751 165.093C143.059 164.887 143.059 164.682 142.751 164.476Z" fill="#24126A"/>
<path d="M137.609 161.497L134.218 159.544C133.91 159.339 133.499 159.442 133.191 159.544L130.108 161.394C129.8 161.6 129.8 161.805 130.108 162.011L133.499 163.963C133.807 164.169 134.218 164.066 134.527 163.963L137.609 162.113C137.918 161.908 137.918 161.702 137.609 161.497Z" fill="#24126A"/>
<path d="M132.474 158.517L129.083 156.565C128.774 156.359 128.363 156.462 128.055 156.565L124.972 158.415C124.664 158.62 124.664 158.826 124.972 159.031L128.363 160.984C128.672 161.189 129.083 161.086 129.391 160.984L132.474 159.134C132.679 158.928 132.782 158.723 132.474 158.517Z" fill="#24126A"/>
<path d="M127.337 155.536L123.945 153.583C123.637 153.378 123.226 153.481 122.918 153.583L119.835 155.433C119.527 155.639 119.527 155.844 119.835 156.05L123.226 158.002C123.534 158.208 123.946 158.105 124.254 158.002L127.337 156.152C127.542 155.947 127.542 155.741 127.337 155.536Z" fill="#24126A"/>
<path d="M122.3 158.517L118.909 156.565C118.601 156.359 118.189 156.462 117.881 156.565L116.854 157.181C116.545 157.387 116.545 157.593 116.854 157.798L120.245 159.75C120.553 159.956 120.964 159.853 121.272 159.75L122.3 159.134C122.608 158.928 122.608 158.62 122.3 158.517Z" fill="#24126A"/>
<path d="M129.082 162.421L125.691 160.469C125.383 160.263 124.972 160.366 124.663 160.469L123.636 161.086C123.328 161.291 123.328 161.497 123.636 161.702L127.027 163.654C127.335 163.86 127.746 163.757 128.054 163.654L129.082 163.038C129.287 162.832 129.287 162.524 129.082 162.421Z" fill="#24126A"/>
<path d="M134.221 165.299L130.83 163.347C130.521 163.141 130.11 163.244 129.802 163.347L128.774 163.963C128.466 164.169 128.466 164.374 128.774 164.58L132.165 166.532C132.474 166.738 132.885 166.635 133.193 166.532L134.221 165.916C134.426 165.813 134.426 165.505 134.221 165.299Z" fill="#24126A"/>
<path d="M139.358 168.28L135.967 166.327C135.658 166.122 135.247 166.224 134.939 166.327L133.912 166.944C133.603 167.149 133.603 167.355 133.912 167.56L137.303 169.513C137.611 169.718 138.022 169.615 138.33 169.513L139.358 168.896C139.563 168.691 139.563 168.485 139.358 168.28Z" fill="#24126A"/>
<path d="M144.496 171.258L141.105 169.306C140.797 169.1 140.386 169.203 140.078 169.306L139.05 169.922C138.742 170.128 138.742 170.333 139.05 170.539L142.441 172.491C142.749 172.697 143.16 172.594 143.469 172.491L144.496 171.875C144.702 171.669 144.702 171.464 144.496 171.258Z" fill="#24126A"/>
<path d="M173.164 187.803L169.773 185.85C169.464 185.645 169.053 185.748 168.745 185.85L167.718 186.467C167.409 186.672 167.409 186.878 167.718 187.083L171.109 189.036C171.417 189.241 171.828 189.139 172.136 189.036L173.164 188.419C173.369 188.214 173.369 188.008 173.164 187.803Z" fill="#24126A"/>
<path d="M178.304 190.783L174.913 188.83C174.604 188.625 174.193 188.728 173.885 188.83L172.857 189.447C172.549 189.652 172.549 189.858 172.857 190.063L176.248 192.016C176.557 192.221 176.968 192.119 177.276 192.016L178.304 191.399C178.509 191.194 178.509 190.988 178.304 190.783Z" fill="#24126A"/>
<path d="M183.441 193.763L180.05 191.811C179.742 191.605 179.33 191.708 179.022 191.811L177.995 192.427C177.686 192.633 177.686 192.838 177.995 193.044L181.386 194.996C181.694 195.202 182.105 195.099 182.413 194.996L183.441 194.38C183.646 194.174 183.646 193.969 183.441 193.763Z" fill="#24126A"/>
<path d="M188.579 196.742L185.188 194.79C184.88 194.585 184.469 194.687 184.161 194.79L183.133 195.407C182.825 195.612 182.825 195.818 183.133 196.023L186.524 197.976C186.832 198.181 187.243 198.078 187.552 197.976L188.579 197.359C188.785 197.153 188.785 196.845 188.579 196.742Z" fill="#24126A"/>
<path d="M147.989 167.456L144.598 165.503C144.29 165.298 143.879 165.4 143.57 165.503L140.488 167.353C140.179 167.558 140.179 167.764 140.488 167.969L143.879 169.922C144.187 170.127 144.598 170.024 144.906 169.922L147.989 168.072C148.194 167.969 148.194 167.661 147.989 167.456Z" fill="#24126A"/>
<path d="M153.126 170.538L149.735 168.586C149.427 168.38 149.016 168.483 148.708 168.586L145.625 170.435C145.317 170.641 145.317 170.846 145.625 171.052L149.016 173.004C149.324 173.21 149.735 173.107 150.043 173.004L153.126 171.155C153.434 170.949 153.434 170.641 153.126 170.538Z" fill="#24126A"/>
<path d="M158.368 173.519L154.977 171.566C154.669 171.361 154.258 171.464 153.95 171.566L150.867 173.416C150.559 173.622 150.559 173.827 150.867 174.033L154.258 175.985C154.566 176.19 154.977 176.088 155.286 175.985L158.368 174.135C158.574 173.93 158.574 173.622 158.368 173.519Z" fill="#24126A"/>
<path d="M163.506 176.5L160.115 174.547C159.806 174.342 159.395 174.444 159.087 174.547L156.004 176.397C155.696 176.602 155.696 176.808 156.004 177.013L159.395 178.966C159.704 179.171 160.115 179.068 160.423 178.966L163.506 177.116C163.814 176.911 163.814 176.602 163.506 176.5Z" fill="#24126A"/>
<path d="M168.747 179.479L165.356 177.527C165.047 177.321 164.636 177.424 164.328 177.527L161.245 179.376C160.937 179.582 160.937 179.788 161.245 179.993L164.636 181.945C164.944 182.151 165.356 182.048 165.664 181.945L168.747 180.096C168.952 179.89 168.952 179.685 168.747 179.479Z" fill="#24126A"/>
<path d="M173.885 182.458L170.494 180.506C170.186 180.301 169.775 180.403 169.467 180.506L166.384 182.356C166.076 182.561 166.076 182.767 166.384 182.972L169.775 184.925C170.083 185.13 170.494 185.027 170.802 184.925L173.885 183.075C174.193 182.87 174.193 182.664 173.885 182.458Z" fill="#24126A"/>
<path d="M179.125 185.439L175.734 183.487C175.425 183.281 175.014 183.384 174.706 183.487L171.623 185.336C171.315 185.542 171.315 185.747 171.623 185.953L175.014 187.905C175.323 188.111 175.734 188.008 176.042 187.905L179.125 186.056C179.33 185.85 179.33 185.645 179.125 185.439Z" fill="#24126A"/>
<path d="M184.262 188.419L180.871 186.466C180.563 186.261 180.151 186.364 179.843 186.466L176.761 188.316C176.452 188.521 176.452 188.727 176.761 188.932L180.152 190.885C180.46 191.09 180.871 190.988 181.179 190.885L184.262 189.035C184.57 188.83 184.57 188.624 184.262 188.419Z" fill="#24126A"/>
<path d="M189.501 191.501L186.11 189.549C185.802 189.343 185.391 189.446 185.083 189.549L182 191.398C181.692 191.604 181.692 191.809 182 192.015L185.391 193.967C185.699 194.173 186.11 194.07 186.419 193.967L189.501 192.118C189.707 191.912 189.707 191.604 189.501 191.501Z" fill="#24126A"/>
<path d="M147.68 150.809L137.816 145.055C137.507 144.849 137.096 144.952 136.788 145.055L133.705 146.905C133.397 147.11 133.397 147.316 133.705 147.521L143.57 153.276C143.878 153.481 144.289 153.378 144.598 153.276L147.68 151.426C147.989 151.22 147.989 150.912 147.68 150.809Z" fill="#24126A"/>
<path d="M211.391 187.596L201.526 181.842C201.218 181.637 200.807 181.739 200.498 181.842L197.416 183.692C197.107 183.897 197.107 184.103 197.416 184.308L207.28 190.063C207.589 190.268 208 190.165 208.308 190.063L211.391 188.213C211.699 188.007 211.699 187.699 211.391 187.596Z" fill="#24126A"/>
<path d="M201.835 175.781L198.444 173.828C198.136 173.623 197.725 173.726 197.417 173.828L193.717 175.986C193.409 176.192 193.409 176.397 193.717 176.603L197.108 178.555C197.417 178.761 197.828 178.658 198.136 178.555L201.835 176.397C202.041 176.192 202.041 175.884 201.835 175.781Z" fill="#24126A"/>
<path d="M164.124 153.996L158.78 150.914C158.472 150.708 158.061 150.811 157.753 150.914L154.053 153.071C153.745 153.277 153.745 153.483 154.053 153.688L159.397 156.771C159.705 156.976 160.116 156.873 160.424 156.771L164.124 154.613C164.432 154.407 164.432 154.202 164.124 153.996Z" fill="#24126A"/>
<path d="M196.799 172.904L191.456 169.821C191.148 169.616 190.737 169.718 190.428 169.821L186.729 171.979C186.421 172.184 186.421 172.39 186.729 172.596L192.073 175.678C192.381 175.884 192.792 175.781 193.1 175.678L196.799 173.52C197.108 173.315 197.108 173.007 196.799 172.904Z" fill="#24126A"/>
<path d="M171.624 158.311L166.281 155.229C165.972 155.023 165.561 155.126 165.253 155.229L161.554 157.386C161.245 157.592 161.245 157.797 161.554 158.003L166.897 161.086C167.205 161.291 167.616 161.188 167.925 161.086L171.624 158.928C171.932 158.722 171.932 158.517 171.624 158.311Z" fill="#24126A"/>
<path d="M161.553 158.106L184.879 171.567C185.187 171.772 185.598 171.772 185.906 171.567L189.708 169.306C190.017 169.101 190.017 168.895 189.708 168.69L166.383 155.229L161.553 158.106Z" fill="#24126A"/>
<path d="M211.392 184.104L215.091 186.262C215.297 186.365 215.708 186.365 215.913 186.262L217.455 185.337C217.66 185.235 217.66 185.029 217.455 184.824L213.756 182.666C213.55 182.563 213.139 182.563 212.934 182.666L211.392 183.591C211.187 183.693 211.187 183.899 211.392 184.104Z" fill="#24126A"/>
<path d="M206.151 181.02L209.85 183.178C210.056 183.28 210.467 183.28 210.673 183.178L212.214 182.253C212.419 182.15 212.419 181.945 212.214 181.739L208.515 179.581C208.309 179.478 207.898 179.478 207.693 179.581L206.151 180.506C205.946 180.712 205.946 180.917 206.151 181.02Z" fill="#24126A"/>
<path d="M200.909 178.041L204.608 180.198C204.814 180.301 205.225 180.301 205.43 180.198L206.972 179.274C207.177 179.171 207.177 178.965 206.972 178.76L203.272 176.602C203.067 176.499 202.656 176.499 202.45 176.602L200.909 177.527C200.704 177.732 200.704 177.938 200.909 178.041Z" fill="#24126A"/>
<path d="M203.477 182.664L207.176 184.822C207.382 184.925 207.793 184.925 207.998 184.822L209.54 183.897C209.745 183.795 209.745 183.589 209.54 183.384L205.84 181.226C205.635 181.123 205.224 181.123 205.018 181.226L203.477 182.151C203.271 182.253 203.271 182.459 203.477 182.664Z" fill="#24126A"/>
</g>
</g>
<g opacity="0.8">
<path d="M73.4878 185.542L70.1996 183.589C69.8913 183.384 69.9941 183.178 70.3023 182.973L74.2071 180.712C74.5154 180.507 75.0291 180.507 75.2347 180.712L78.5229 182.665C78.8312 182.767 78.7284 183.076 78.4201 183.281L74.5153 185.542C74.2071 185.747 73.796 185.747 73.4878 185.542Z" fill="#24126A"/>
<path d="M78.6263 188.523L75.3381 186.57C75.0298 186.365 75.1326 186.159 75.4409 185.954L79.3456 183.693C79.6539 183.487 80.1677 183.487 80.3732 183.693L83.6614 185.645C83.9697 185.851 83.867 186.056 83.5587 186.262L79.6539 188.523C79.3456 188.728 78.9346 188.728 78.6263 188.523Z" fill="#24126A"/>
<path d="M83.7649 191.502L80.4767 189.55C80.1684 189.344 80.2712 189.139 80.5794 188.933L84.4842 186.673C84.7925 186.467 85.3062 186.467 85.5118 186.673L88.8 188.625C89.1083 188.831 89.0055 189.036 88.6972 189.242L84.7924 191.502C84.4842 191.708 84.0731 191.708 83.7649 191.502Z" fill="#24126A"/>
<path d="M90.8543 189.036L87.566 187.083C87.2577 186.981 87.3605 186.672 87.6688 186.467L90.957 184.514C91.2653 184.309 91.779 184.309 91.9846 184.514L95.2728 186.467C95.5811 186.672 95.4783 186.878 95.17 187.083L91.8818 189.036C91.5736 189.241 91.1625 189.241 90.8543 189.036Z" fill="#24126A"/>
<path d="M95.9928 192.015L92.7046 190.063C92.3963 189.96 92.4991 189.652 92.8073 189.446L96.0955 187.494C96.4038 187.288 96.9176 187.288 97.1231 187.494L100.411 189.446C100.72 189.549 100.617 189.857 100.309 190.063L97.0204 192.015C96.7121 192.221 96.3011 192.221 95.9928 192.015Z" fill="#24126A"/>
<path d="M101.13 194.996L97.8418 193.043C97.5335 192.838 97.6363 192.632 97.9445 192.427L101.233 190.474C101.541 190.269 102.055 190.269 102.26 190.474L105.549 192.427C105.857 192.53 105.754 192.838 105.446 193.043L102.158 194.996C101.849 195.099 101.438 195.201 101.13 194.996Z" fill="#24126A"/>
<path d="M106.267 197.976L102.979 196.024C102.671 195.921 102.773 195.613 103.082 195.407L106.37 193.455C106.678 193.249 107.192 193.249 107.398 193.455L110.686 195.407C110.994 195.613 110.891 195.818 110.583 196.024L107.295 197.976C106.987 198.079 106.575 198.079 106.267 197.976Z" fill="#24126A"/>
<path d="M111.404 200.955L108.116 199.002C107.808 198.9 107.911 198.591 108.219 198.386L111.507 196.433C111.815 196.228 112.329 196.228 112.535 196.433L115.823 198.386C116.131 198.489 116.028 198.797 115.72 199.002L112.432 200.955C112.124 201.057 111.713 201.057 111.404 200.955Z" fill="#24126A"/>
<path d="M116.543 203.936L113.255 201.983C112.946 201.778 113.049 201.572 113.357 201.367L116.646 199.414C116.954 199.209 117.468 199.209 117.673 199.414L120.961 201.367C121.27 201.47 121.167 201.778 120.859 201.983L117.57 203.936C117.262 204.038 116.851 204.038 116.543 203.936Z" fill="#24126A"/>
<path d="M121.681 206.915L118.393 204.963C118.085 204.757 118.188 204.552 118.496 204.346L121.784 202.394C122.092 202.188 122.606 202.188 122.812 202.394L126.1 204.346C126.408 204.552 126.305 204.757 125.997 204.963L122.709 206.915C122.401 207.018 121.99 207.018 121.681 206.915Z" fill="#24126A"/>
<path d="M126.82 209.793L123.532 207.841C123.223 207.635 123.326 207.43 123.634 207.224L126.923 205.272C127.231 205.066 127.745 205.066 127.95 205.272L131.239 207.224C131.547 207.43 131.444 207.635 131.136 207.841L127.848 209.793C127.539 209.999 127.128 209.999 126.82 209.793Z" fill="#24126A"/>
<path d="M131.957 212.774L128.669 210.821C128.361 210.718 128.463 210.41 128.772 210.205L132.06 208.252C132.368 208.047 132.882 208.047 133.087 208.252L136.376 210.205C136.684 210.41 136.581 210.616 136.273 210.821L132.985 212.774C132.676 212.979 132.265 212.979 131.957 212.774Z" fill="#24126A"/>
<path d="M137.093 215.752L133.805 213.8C133.497 213.697 133.599 213.389 133.908 213.183L137.196 211.231C137.504 211.026 138.018 211.026 138.223 211.231L141.512 213.183C141.82 213.286 141.717 213.594 141.409 213.8L138.121 215.752C137.812 215.855 137.401 215.958 137.093 215.752Z" fill="#24126A"/>
<path d="M98.4584 187.701L95.1701 185.748C94.8619 185.543 94.9646 185.337 95.2729 185.132L98.5611 183.179C98.8694 182.974 99.3832 182.974 99.5887 183.179L102.877 185.132C103.185 185.234 103.082 185.543 102.774 185.748L99.486 187.701C99.1777 187.803 98.6639 187.803 98.4584 187.701Z" fill="#24126A"/>
<path d="M93.2188 184.618L89.9305 182.665C89.6222 182.562 89.725 182.254 90.0333 182.049L93.3215 180.096C93.6298 179.891 94.1436 179.891 94.3491 180.096L97.6373 182.049C97.9456 182.254 97.8428 182.46 97.5346 182.665L94.2463 184.618C93.9381 184.823 93.527 184.823 93.2188 184.618Z" fill="#24126A"/>
<path d="M87.9795 181.638L80.7865 177.528C80.4782 177.322 80.581 177.117 80.8892 176.911L84.1775 174.959C84.4857 174.754 84.9995 174.754 85.2051 174.959L92.3981 179.069C92.7063 179.172 92.6036 179.48 92.2953 179.686L89.007 181.638C88.6988 181.741 88.2877 181.844 87.9795 181.638Z" fill="#24126A"/>
<path d="M91.6757 177.939L85.8186 174.548C85.5103 174.445 85.6131 174.136 85.9213 173.931L89.2096 171.979C89.5179 171.773 90.0316 171.773 90.2372 171.979L96.0943 175.37C96.4026 175.575 96.2998 175.781 95.9916 175.986L92.7033 177.939C92.395 178.144 91.8813 178.144 91.6757 177.939Z" fill="#24126A"/>
<path d="M103.596 190.68L100.307 188.728C99.9991 188.522 100.102 188.317 100.41 188.111L103.698 186.159C104.007 185.953 104.52 185.953 104.726 186.159L108.014 188.111C108.322 188.317 108.22 188.522 107.911 188.728L104.623 190.68C104.315 190.783 103.801 190.783 103.596 190.68Z" fill="#24126A"/>
<path d="M108.733 193.557L105.444 191.605C105.136 191.399 105.239 191.194 105.547 190.988L108.835 189.036C109.144 188.83 109.657 188.83 109.863 189.036L113.151 190.988C113.459 191.194 113.357 191.399 113.048 191.605L109.76 193.557C109.452 193.763 108.938 193.763 108.733 193.557Z" fill="#24126A"/>
<path d="M113.871 196.537L110.583 194.584C110.275 194.379 110.377 194.173 110.686 193.968L113.974 192.015C114.282 191.81 114.796 191.81 115.002 192.015L118.29 193.968C118.598 194.173 118.495 194.379 118.187 194.584L114.899 196.537C114.591 196.742 114.077 196.742 113.871 196.537Z" fill="#24126A"/>
<path d="M119.01 199.518L115.722 197.565C115.413 197.36 115.516 197.154 115.824 196.949L119.113 194.996C119.421 194.791 119.935 194.791 120.14 194.996L123.428 196.949C123.737 197.154 123.634 197.36 123.326 197.565L120.037 199.518C119.729 199.62 119.215 199.723 119.01 199.518Z" fill="#24126A"/>
<path d="M124.148 202.497L120.86 200.545C120.552 200.339 120.655 200.134 120.963 199.928L124.251 197.976C124.559 197.77 125.073 197.77 125.279 197.976L128.567 199.928C128.875 200.134 128.772 200.339 128.464 200.545L125.176 202.497C124.868 202.6 124.354 202.6 124.148 202.497Z" fill="#24126A"/>
<path d="M129.286 205.478L125.997 203.525C125.689 203.423 125.792 203.114 126.1 202.909L129.388 200.956C129.697 200.751 130.21 200.751 130.416 200.956L133.704 202.909C134.012 203.114 133.91 203.32 133.601 203.525L130.313 205.478C130.005 205.58 129.491 205.58 129.286 205.478Z" fill="#24126A"/>
<path d="M134.424 208.457L131.136 206.505C130.828 206.402 130.93 206.094 131.239 205.888L134.527 203.936C134.835 203.73 135.349 203.73 135.554 203.936L138.843 205.888C139.151 205.991 139.048 206.299 138.74 206.505L135.452 208.457C135.143 208.56 134.63 208.56 134.424 208.457Z" fill="#24126A"/>
<path d="M139.561 211.436L136.273 209.484C135.965 209.279 136.067 209.073 136.376 208.868L139.664 206.915C139.972 206.71 140.486 206.71 140.692 206.915L143.98 208.868C144.288 208.97 144.185 209.279 143.877 209.484L140.589 211.436C140.28 211.539 139.767 211.539 139.561 211.436Z" fill="#24126A"/>
<path d="M144.698 214.314L141.41 212.361C141.102 212.258 141.205 211.95 141.513 211.745L144.801 209.792C145.11 209.587 145.623 209.587 145.829 209.792L149.117 211.745C149.425 211.95 149.323 212.156 149.014 212.361L145.726 214.314C145.418 214.519 144.904 214.519 144.698 214.314Z" fill="#24126A"/>
<path d="M153.844 219.659L146.549 215.445C146.24 215.24 146.343 215.034 146.651 214.829L149.94 212.877C150.248 212.671 150.762 212.671 150.967 212.877L158.263 217.09C158.571 217.295 158.469 217.501 158.16 217.706L154.872 219.659C154.564 219.761 154.05 219.761 153.844 219.659Z" fill="#24126A"/>
<path d="M163.812 213.903L157.646 210.41C157.338 210.204 157.441 209.999 157.749 209.793L161.037 207.841C161.345 207.635 161.859 207.635 162.065 207.841L168.23 211.334C168.538 211.54 168.436 211.745 168.127 211.951L164.839 213.903C164.531 214.006 164.017 214.006 163.812 213.903Z" fill="#24126A"/>
<path d="M112.537 190.063L109.249 188.111C108.941 187.905 109.044 187.7 109.352 187.494L112.64 185.542C112.948 185.337 113.462 185.337 113.668 185.542L116.956 187.494C117.264 187.597 117.162 187.905 116.853 188.111L113.565 190.063C113.36 190.166 112.846 190.166 112.537 190.063Z" fill="#24126A"/>
<path d="M107.295 186.981L104.007 185.028C103.699 184.823 103.801 184.617 104.11 184.412L107.398 182.459C107.706 182.254 108.22 182.254 108.425 182.459L111.714 184.412C112.022 184.514 111.919 184.823 111.611 185.028L108.323 186.981C108.014 187.186 107.603 187.186 107.295 186.981Z" fill="#24126A"/>
<path d="M102.054 184L98.766 182.048C98.4577 181.945 98.5605 181.637 98.8687 181.431L102.157 179.479C102.465 179.273 102.979 179.273 103.185 179.479L106.473 181.431C106.781 181.637 106.678 181.842 106.37 182.048L103.082 184C102.774 184.103 102.362 184.103 102.054 184Z" fill="#24126A"/>
<path d="M96.8147 180.919L93.5265 178.966C93.2182 178.761 93.321 178.555 93.6292 178.35L96.9175 176.397C97.2257 176.192 97.7395 176.192 97.945 176.397L101.233 178.35C101.542 178.452 101.439 178.761 101.131 178.966L97.8423 180.919C97.534 181.124 97.0202 181.124 96.8147 180.919Z" fill="#24126A"/>
<path d="M117.673 193.043L114.385 191.091C114.077 190.885 114.179 190.68 114.488 190.474L117.776 188.522C118.084 188.317 118.598 188.317 118.804 188.522L122.092 190.474C122.4 190.68 122.297 190.885 121.989 191.091L118.701 193.043C118.495 193.146 117.981 193.146 117.673 193.043Z" fill="#24126A"/>
<path d="M122.81 196.023L119.522 194.07C119.214 193.865 119.317 193.659 119.625 193.454L122.913 191.501C123.221 191.296 123.735 191.296 123.941 191.501L127.229 193.454C127.537 193.659 127.434 193.865 127.126 194.07L123.838 196.023C123.53 196.125 123.119 196.125 122.81 196.023Z" fill="#24126A"/>
<path d="M127.95 198.902L124.662 196.949C124.354 196.846 124.457 196.538 124.765 196.333L128.053 194.38C128.361 194.175 128.875 194.175 129.081 194.38L132.369 196.333C132.677 196.538 132.574 196.744 132.266 196.949L128.978 198.902C128.67 199.107 128.259 199.107 127.95 198.902Z" fill="#24126A"/>
<path d="M133.088 201.879L129.799 199.926C129.491 199.824 129.594 199.515 129.902 199.31L133.19 197.358C133.499 197.152 134.012 197.152 134.218 197.358L137.506 199.31C137.814 199.413 137.712 199.721 137.403 199.926L134.115 201.879C133.807 202.084 133.396 202.084 133.088 201.879Z" fill="#24126A"/>
<path d="M138.226 204.86L134.938 202.908C134.63 202.702 134.732 202.497 135.041 202.291L138.329 200.339C138.637 200.133 139.151 200.133 139.356 200.339L142.645 202.291C142.953 202.394 142.85 202.702 142.542 202.908L139.254 204.86C138.945 205.066 138.534 205.066 138.226 204.86Z" fill="#24126A"/>
<path d="M143.363 207.841L140.075 205.888C139.767 205.786 139.87 205.477 140.178 205.272L143.466 203.319C143.774 203.114 144.288 203.114 144.494 203.319L147.782 205.272C148.09 205.477 147.987 205.683 147.679 205.888L144.391 207.841C144.083 207.943 143.672 208.046 143.363 207.841Z" fill="#24126A"/>
<path d="M148.502 210.82L145.213 208.868C144.905 208.765 145.008 208.457 145.316 208.251L148.604 206.299C148.913 206.093 149.427 206.093 149.632 206.299L152.92 208.251C153.229 208.354 153.126 208.662 152.817 208.868L149.529 210.82C149.221 210.923 148.81 210.923 148.502 210.82Z" fill="#24126A"/>
<path d="M153.64 213.8L150.352 211.848C150.044 211.642 150.147 211.437 150.455 211.231L153.743 209.279C154.051 209.073 154.565 209.073 154.771 209.279L158.059 211.231C158.367 211.334 158.264 211.642 157.956 211.848L154.668 213.8C154.36 213.903 153.949 213.903 153.64 213.8Z" fill="#24126A"/>
<path d="M158.776 216.78L155.488 214.828C155.18 214.725 155.282 214.417 155.591 214.212L158.879 212.259C159.187 212.054 159.701 212.054 159.906 212.259L163.195 214.212C163.503 214.417 163.4 214.623 163.092 214.828L159.804 216.78C159.495 216.883 159.084 216.883 158.776 216.78Z" fill="#24126A"/>
<path d="M109.866 182.768L106.577 180.816C106.269 180.61 106.372 180.405 106.68 180.199L109.968 178.247C110.277 178.041 110.791 178.041 110.996 178.247L114.284 180.199C114.593 180.405 114.49 180.61 114.182 180.816L110.893 182.768C110.585 182.871 110.174 182.871 109.866 182.768Z" fill="#24126A"/>
<path d="M104.727 179.788L101.439 177.835C101.131 177.733 101.233 177.424 101.542 177.219L104.83 175.266C105.138 175.061 105.652 175.061 105.857 175.266L109.146 177.219C109.454 177.322 109.351 177.63 109.043 177.835L105.755 179.788C105.446 179.891 105.035 179.891 104.727 179.788Z" fill="#24126A"/>
<path d="M99.691 176.807L96.4028 174.855C96.0945 174.752 96.1973 174.444 96.5056 174.238L99.7938 172.286C100.102 172.08 100.616 172.08 100.821 172.286L104.11 174.238C104.418 174.444 104.315 174.649 104.007 174.855L100.719 176.807C100.41 176.91 99.8965 177.013 99.691 176.807Z" fill="#24126A"/>
<path d="M94.5539 173.827L91.2657 171.875C90.9574 171.669 91.0602 171.464 91.3685 171.258L94.6567 169.306C94.965 169.1 95.4788 169.1 95.6843 169.306L98.9725 171.258C99.2808 171.464 99.178 171.669 98.8697 171.875L95.5815 173.827C95.2732 174.033 94.7594 174.033 94.5539 173.827Z" fill="#24126A"/>
<path d="M99.7934 170.848L96.5052 168.896C96.197 168.69 96.2997 168.484 96.608 168.279L97.7383 167.662C98.0466 167.457 98.5604 167.457 98.7659 167.662L102.054 169.615C102.362 169.718 102.26 170.026 101.951 170.231L100.821 170.848C100.513 170.951 100.102 170.951 99.7934 170.848Z" fill="#24126A"/>
<path d="M106.475 174.651L103.186 172.698C102.878 172.596 102.981 172.287 103.289 172.082L104.419 171.465C104.728 171.26 105.242 171.26 105.447 171.465L108.735 173.418C109.044 173.623 108.941 173.829 108.633 174.034L107.502 174.651C107.194 174.856 106.783 174.856 106.475 174.651Z" fill="#24126A"/>
<path d="M111.511 177.629L108.223 175.677C107.914 175.574 108.017 175.266 108.325 175.06L109.456 174.444C109.764 174.238 110.278 174.238 110.483 174.444L113.771 176.396C114.08 176.602 113.977 176.807 113.669 177.013L112.538 177.629C112.333 177.732 111.819 177.732 111.511 177.629Z" fill="#24126A"/>
<path d="M116.647 180.61L113.358 178.658C113.05 178.452 113.153 178.247 113.461 178.041L114.591 177.425C114.9 177.219 115.413 177.219 115.619 177.425L118.907 179.377C119.216 179.48 119.113 179.788 118.804 179.994L117.674 180.61C117.366 180.713 116.955 180.713 116.647 180.61Z" fill="#24126A"/>
<path d="M121.681 183.487L118.393 181.535C118.085 181.329 118.188 181.124 118.496 180.918L119.626 180.302C119.935 180.096 120.448 180.096 120.654 180.302L123.942 182.254C124.25 182.357 124.148 182.665 123.839 182.871L122.709 183.487C122.503 183.59 121.99 183.693 121.681 183.487Z" fill="#24126A"/>
<path d="M150.145 199.928L146.857 197.976C146.549 197.873 146.652 197.565 146.96 197.359L148.09 196.743C148.399 196.537 148.912 196.537 149.118 196.743L152.406 198.695C152.714 198.9 152.612 199.106 152.303 199.311L151.173 199.928C150.865 200.031 150.454 200.031 150.145 199.928Z" fill="#24126A"/>
<path d="M155.18 202.805L151.892 200.853C151.584 200.647 151.687 200.442 151.995 200.236L153.125 199.62C153.433 199.414 153.947 199.414 154.153 199.62L157.441 201.572C157.749 201.778 157.646 201.983 157.338 202.189L156.208 202.805C156.002 203.011 155.489 203.011 155.18 202.805Z" fill="#24126A"/>
<path d="M160.317 205.786L157.029 203.833C156.721 203.731 156.824 203.422 157.132 203.217L158.262 202.6C158.571 202.395 159.084 202.395 159.29 202.6L162.578 204.553C162.886 204.758 162.784 204.964 162.475 205.169L161.345 205.786C161.037 205.888 160.626 205.888 160.317 205.786Z" fill="#24126A"/>
<path d="M165.457 208.765L162.169 206.813C161.861 206.71 161.964 206.402 162.272 206.196L163.402 205.58C163.71 205.374 164.224 205.374 164.43 205.58L167.718 207.532C168.026 207.738 167.923 207.943 167.615 208.149L166.485 208.765C166.177 208.868 165.663 208.868 165.457 208.765Z" fill="#24126A"/>
<path d="M115.003 185.645L111.715 183.692C111.406 183.487 111.509 183.281 111.817 183.076L115.106 181.123C115.414 180.918 115.928 180.918 116.133 181.123L119.421 183.076C119.73 183.281 119.627 183.487 119.319 183.692L116.031 185.645C115.722 185.85 115.311 185.85 115.003 185.645Z" fill="#24126A"/>
<path d="M120.139 188.626L116.851 186.673C116.542 186.571 116.645 186.262 116.953 186.057L120.242 184.104C120.55 183.899 121.064 183.899 121.269 184.104L124.557 186.057C124.866 186.262 124.763 186.468 124.455 186.673L121.166 188.626C120.858 188.831 120.447 188.831 120.139 188.626Z" fill="#24126A"/>
<path d="M125.279 191.605L121.99 189.653C121.682 189.55 121.785 189.241 122.093 189.036L125.381 187.084C125.69 186.878 126.203 186.878 126.409 187.084L129.697 189.036C130.006 189.139 129.903 189.447 129.594 189.653L126.306 191.605C125.998 191.708 125.587 191.81 125.279 191.605Z" fill="#24126A"/>
<path d="M130.416 194.584L127.128 192.632C126.819 192.426 126.922 192.221 127.23 192.015L130.519 190.063C130.827 189.857 131.341 189.857 131.546 190.063L134.834 192.015C135.143 192.118 135.04 192.426 134.732 192.632L131.443 194.584C131.135 194.687 130.724 194.687 130.416 194.584Z" fill="#24126A"/>
<path d="M135.554 197.565L132.266 195.613C131.958 195.407 132.061 195.202 132.369 194.996L135.657 193.044C135.965 192.838 136.479 192.838 136.685 193.044L139.973 194.996C140.281 195.202 140.179 195.407 139.87 195.613L136.582 197.565C136.274 197.668 135.863 197.668 135.554 197.565Z" fill="#24126A"/>
<path d="M140.692 200.546L137.403 198.593C137.095 198.491 137.198 198.182 137.506 197.977L140.794 196.024C141.103 195.819 141.616 195.819 141.822 196.024L145.11 197.977C145.418 198.182 145.316 198.388 145.007 198.593L141.719 200.546C141.411 200.649 141 200.649 140.692 200.546Z" fill="#24126A"/>
<path d="M145.829 203.524L142.541 201.571C142.232 201.366 142.335 201.16 142.643 200.955L145.931 199.002C146.24 198.797 146.754 198.797 146.959 199.002L150.247 200.955C150.556 201.057 150.453 201.366 150.145 201.571L146.856 203.524C146.548 203.626 146.137 203.626 145.829 203.524Z" fill="#24126A"/>
<path d="M150.967 206.402L147.679 204.45C147.371 204.245 147.474 204.039 147.782 203.834L151.07 201.881C151.378 201.676 151.892 201.676 152.098 201.881L155.386 203.834C155.694 204.039 155.591 204.245 155.283 204.45L151.995 206.402C151.687 206.608 151.276 206.608 150.967 206.402Z" fill="#24126A"/>
<path d="M156.105 209.381L152.816 207.429C152.508 207.224 152.611 207.018 152.919 206.813L156.207 204.86C156.516 204.655 157.029 204.655 157.235 204.86L160.523 206.813C160.831 207.018 160.729 207.224 160.42 207.429L157.132 209.381C156.824 209.587 156.31 209.587 156.105 209.381Z" fill="#24126A"/>
<path d="M85.6133 186.056L75.8514 180.404C75.5431 180.199 75.6459 179.993 75.9542 179.788L79.2424 177.835C79.5507 177.63 80.0644 177.63 80.27 177.835L90.0319 183.487C90.3402 183.692 90.2374 183.898 89.9291 184.103L86.6409 186.056C86.3326 186.159 85.9216 186.159 85.6133 186.056Z" fill="#24126A"/>
<path d="M148.708 222.432L138.946 216.78C138.638 216.574 138.741 216.369 139.049 216.163L142.337 214.211C142.645 214.006 143.159 214.006 143.365 214.211L153.126 219.863C153.435 220.068 153.332 220.274 153.024 220.479L149.736 222.432C149.427 222.637 149.016 222.637 148.708 222.432Z" fill="#24126A"/>
<path d="M128.155 217.191L124.867 215.239C124.559 215.033 124.661 214.828 124.97 214.622L128.874 212.362C129.183 212.156 129.697 212.156 129.902 212.362L133.19 214.314C133.499 214.52 133.396 214.725 133.087 214.931L129.183 217.191C128.977 217.294 128.463 217.294 128.155 217.191Z" fill="#24126A"/>
<path d="M90.8548 195.612L85.5114 192.529C85.2032 192.426 85.3059 192.118 85.6142 191.913L89.519 189.652C89.8272 189.446 90.341 189.446 90.5465 189.652L95.8899 192.735C96.1982 192.94 96.0954 193.146 95.7872 193.351L91.8824 195.612C91.6769 195.817 91.1631 195.817 90.8548 195.612Z" fill="#24126A"/>
<path d="M123.223 214.314L117.88 211.232C117.572 211.026 117.674 210.821 117.983 210.615L121.887 208.354C122.196 208.149 122.709 208.149 122.915 208.354L128.258 211.437C128.567 211.643 128.464 211.848 128.156 212.054L124.251 214.314C123.943 214.417 123.532 214.52 123.223 214.314Z" fill="#24126A"/>
<path d="M98.3564 199.928L93.013 196.845C92.7048 196.742 92.8075 196.434 93.1158 196.229L97.0206 193.968C97.3289 193.762 97.8426 193.762 98.0482 193.968L103.392 197.051C103.7 197.256 103.597 197.462 103.289 197.667L99.384 199.928C99.0757 200.031 98.5619 200.031 98.3564 199.928Z" fill="#24126A"/>
<path d="M98.0467 193.968L121.167 207.326C121.475 207.532 121.475 207.737 121.167 207.943L117.16 210.203C116.851 210.409 116.44 210.409 116.132 210.203L93.0116 196.845L98.0467 193.968Z" fill="#24126A"/>
<path d="M142.542 222.535L146.241 224.692C146.447 224.795 146.447 225.001 146.138 225.206L144.494 226.131C144.289 226.234 143.878 226.337 143.672 226.131L139.973 223.973C139.767 223.87 139.767 223.665 140.076 223.459L141.72 222.535C141.925 222.432 142.336 222.432 142.542 222.535Z" fill="#24126A"/>
<path d="M137.403 219.555L141.102 221.713C141.308 221.816 141.308 222.021 141 222.227L139.356 223.152C139.15 223.254 138.739 223.357 138.534 223.152L134.834 220.994C134.629 220.891 134.629 220.685 134.937 220.48L136.581 219.555C136.787 219.452 137.198 219.452 137.403 219.555Z" fill="#24126A"/>
<path d="M132.266 216.575L135.965 218.733C136.171 218.835 136.171 219.041 135.862 219.246L134.218 220.171C134.013 220.274 133.602 220.377 133.396 220.171L129.697 218.013C129.492 217.91 129.492 217.705 129.8 217.499L131.444 216.575C131.649 216.472 132.06 216.472 132.266 216.575Z" fill="#24126A"/>
<path d="M140.177 217.911L143.876 220.068C144.082 220.171 144.082 220.377 143.774 220.582L142.13 221.507C141.924 221.61 141.513 221.713 141.308 221.507L137.608 219.349C137.403 219.246 137.403 219.041 137.711 218.835L139.355 217.911C139.561 217.808 139.972 217.808 140.177 217.911Z" fill="#24126A"/>
</g>
<path d="M192.585 137.965C192.379 137.965 192.071 137.862 191.763 137.76C190.941 137.349 190.53 136.321 190.633 135.499C190.735 135.088 190.941 134.78 191.249 134.677C191.66 134.471 192.071 134.574 192.482 134.78C193.304 135.191 193.715 136.218 193.613 137.04C193.51 137.451 193.304 137.76 192.996 137.862C192.893 137.965 192.791 137.965 192.585 137.965ZM191.866 134.985C191.763 134.985 191.66 134.985 191.557 135.088C191.352 135.191 191.146 135.396 191.146 135.705C190.941 136.321 191.352 137.246 192.071 137.657C192.379 137.862 192.688 137.862 192.996 137.76C193.202 137.657 193.407 137.451 193.407 137.143C193.613 136.424 193.202 135.602 192.482 135.191C192.277 134.985 192.071 134.985 191.866 134.985Z" fill="#7C40FF"/>
<path d="M196.798 140.431C196.593 140.431 196.284 140.328 195.976 140.226C195.154 139.814 194.743 138.787 194.846 137.965C194.948 137.554 195.154 137.246 195.462 137.143C195.873 136.937 196.284 137.04 196.695 137.246C197.517 137.657 197.928 138.684 197.826 139.506C197.723 139.917 197.517 140.225 197.209 140.328C197.209 140.431 197.004 140.431 196.798 140.431ZM196.079 137.348C195.976 137.348 195.873 137.348 195.771 137.451C195.565 137.554 195.36 137.759 195.36 138.068C195.154 138.684 195.565 139.609 196.284 140.02C196.593 140.225 196.901 140.225 197.209 140.123C197.415 140.02 197.62 139.814 197.62 139.506C197.723 138.89 197.312 137.965 196.695 137.554C196.49 137.451 196.284 137.348 196.079 137.348Z" fill="#7C40FF"/>
<path d="M202.039 141.973C201.833 142.692 201.114 143 200.395 142.589C199.676 142.178 199.265 141.254 199.367 140.534C199.573 139.815 200.292 139.507 201.011 139.918C201.731 140.226 202.142 141.254 202.039 141.973Z" fill="#7C40FF"/>
<path d="M120.86 95.2182L118.599 93.8823L118.702 92.8547L120.963 94.1906L120.86 95.2182Z" fill="#7C40FF"/>
<path d="M124.149 97.0678L121.888 95.8347L121.991 94.8071L124.251 96.0402L124.149 97.0678Z" fill="#7C40FF"/>
<path d="M117.573 93.3691L112.64 90.4919L112.743 89.4644L117.778 92.2388L117.573 93.3691Z" fill="#7C40FF"/>
<path d="M236.973 289.739C235.534 289.739 234.198 289.431 233.171 288.814L212.825 277.1C211.797 276.483 211.181 275.661 211.181 274.736C211.181 273.812 211.797 272.99 212.825 272.373L233.171 260.659C235.328 259.426 238.719 259.426 240.877 260.659L261.223 272.373C262.251 272.99 262.867 273.812 262.867 274.736C262.867 275.661 262.251 276.483 261.223 277.1L240.877 288.814C239.747 289.431 238.411 289.739 236.973 289.739ZM233.376 288.506C235.431 289.636 238.719 289.636 240.672 288.506L261.018 276.792C261.943 276.278 262.456 275.559 262.456 274.736C262.456 274.017 261.943 273.298 261.018 272.681L240.672 261.07C238.617 259.939 235.328 259.939 233.376 261.07L213.03 272.784C212.105 273.298 211.592 274.017 211.592 274.839C211.592 275.559 212.105 276.278 213.03 276.894L233.376 288.506Z" fill="#7C40FF"/>
<path opacity="0.4" d="M263.383 270.318V263.33L262.15 262.611C261.739 264.769 259.273 266.207 257.115 266.516L242.523 275.044L236.152 277.305L215.909 266.824L216.423 266.516C214.676 265.693 213.751 263.844 212.826 262.2L211.491 263.022L210.669 263.227V270.318C210.669 271.242 211.285 272.167 212.415 272.784L232.761 284.498C235.125 285.834 239.03 285.834 241.393 284.498L261.739 272.784C262.869 272.064 263.486 271.242 263.486 270.318C263.383 270.318 263.383 270.318 263.383 270.318Z" fill="#7C40FF"/>
<path d="M263.382 264.049V259.425L262.149 258.706C261.738 260.864 259.271 262.302 257.113 262.61L242.522 271.139L236.151 273.4L215.908 262.919L216.422 262.61C214.675 261.788 213.75 259.939 212.825 258.295L211.489 259.117L210.667 259.322V264.049C210.667 264.974 211.284 265.899 212.414 266.515L232.76 278.23C235.123 279.565 239.028 279.565 241.392 278.23L261.738 266.515C262.868 265.796 263.484 264.974 263.484 264.049C263.382 264.152 263.382 264.152 263.382 264.049Z" fill="url(#paint12_linear_10035_7)"/>
<path opacity="0.3" d="M257.113 262.713L242.522 271.242L236.973 273.194V279.462C238.514 279.462 240.056 279.154 241.289 278.435L261.635 266.72C262.765 266.001 263.382 265.179 263.382 264.254V264.151V259.527L262.251 258.808H262.148C261.737 260.966 259.168 262.405 257.113 262.713Z" fill="#0F054C"/>
<path d="M216.317 262.714L235.533 251.616C236.252 251.205 237.485 251.205 238.307 251.616L257.215 262.509L257.009 262.611C259.167 262.303 261.736 260.864 262.044 258.707L240.774 246.889L234.608 245.245L229.573 248.225L212.618 258.296C213.646 260.042 214.571 261.995 216.317 262.714Z" fill="url(#paint13_linear_10035_7)"/>
<path opacity="0.3" d="M236.973 245.964L234.712 245.347L229.677 248.327L212.722 258.398C213.647 260.042 214.572 261.891 216.318 262.713L235.534 251.616C235.945 251.41 236.459 251.307 236.87 251.307V245.964H236.973Z" fill="#0F054C"/>
<path d="M232.656 273.709L212.31 261.994C209.947 260.658 209.947 258.398 212.31 256.959L232.656 245.245C235.02 243.909 238.925 243.909 241.288 245.245L261.634 256.959C263.997 258.295 263.997 260.556 261.634 261.891L241.288 273.606C238.925 275.044 235.02 275.044 232.656 273.709ZM238.411 246.992C237.691 246.581 236.458 246.581 235.636 246.992L215.29 258.706C214.571 259.117 214.571 259.836 215.29 260.35L235.636 272.064C236.356 272.475 237.589 272.475 238.411 272.064L258.757 260.35C259.476 259.939 259.476 259.22 258.757 258.706L238.411 246.992Z" fill="url(#paint14_linear_10035_7)"/>
<path d="M258.653 258.706L238.307 246.991C237.587 246.58 236.354 246.58 235.532 246.991L215.186 258.706C214.673 259.014 214.467 259.425 214.673 259.836C214.775 259.631 214.878 259.425 215.186 259.322L235.532 247.608C236.252 247.197 237.485 247.197 238.307 247.608L258.653 259.322C258.858 259.425 259.064 259.631 259.166 259.836C259.372 259.425 259.166 259.014 258.653 258.706Z" fill="white"/>
<path d="M261.634 261.995L241.288 273.709C238.924 275.045 235.02 275.045 232.656 273.709L212.31 261.995C211.283 261.378 210.666 260.556 210.563 259.837C210.461 260.864 210.974 261.892 212.31 262.611L232.656 274.325C235.02 275.661 238.924 275.661 241.288 274.325L261.634 262.611C262.97 261.892 263.586 260.864 263.381 259.837C263.278 260.556 262.661 261.378 261.634 261.995Z" fill="white"/>
<path d="M233.273 273.401L212.927 261.686C210.872 260.453 210.872 258.604 212.927 257.371L233.273 245.656C235.328 244.423 238.719 244.423 240.774 245.656L261.12 257.371C263.175 258.604 263.175 260.453 261.12 261.686L240.774 273.401C238.616 274.531 235.328 274.531 233.273 273.401ZM238.924 246.581C237.897 245.965 236.047 245.965 235.02 246.581L214.674 258.295C213.646 258.912 213.646 259.94 214.674 260.556L235.02 272.27C236.047 272.887 237.897 272.887 238.924 272.27L259.27 260.556C260.298 259.94 260.298 258.912 259.27 258.295L238.924 246.581Z" fill="url(#paint15_linear_10035_7)"/>
<path opacity="0.4" d="M238.412 246.991C237.693 246.58 236.46 246.58 235.638 246.991L215.292 258.706C214.572 259.117 214.572 259.836 215.292 260.35L235.638 272.064C236.357 272.475 237.59 272.475 238.412 272.064L258.758 260.35C259.477 259.939 259.477 259.219 258.758 258.706L238.412 246.991Z" fill="#7C40FF"/>
<path opacity="0.5" d="M259.271 259.425V186.981H214.674V259.425C214.674 259.733 214.88 260.041 215.291 260.247L235.637 271.961C236.356 272.372 237.589 272.372 238.411 271.961L258.757 260.247C259.065 260.041 259.271 259.733 259.271 259.425Z" fill="url(#paint16_linear_10035_7)"/>
<path d="M30.226 141.254C28.7874 141.254 27.4516 140.946 26.424 140.33L6.07807 128.615C5.05049 127.999 4.43396 127.177 4.43396 126.252C4.43396 125.327 5.05049 124.505 6.07807 123.888L26.424 112.174C28.5819 110.941 31.9729 110.941 34.1308 112.174L54.4767 123.888C55.5043 124.505 56.1208 125.327 56.1208 126.252C56.1208 127.177 55.5043 127.999 54.4767 128.615L34.1308 140.33C33.0004 140.946 31.6646 141.254 30.226 141.254ZM26.6295 140.021C28.6847 141.152 31.8701 141.152 33.9252 140.021L54.2712 128.307C55.196 127.793 55.7098 127.074 55.7098 126.252C55.7098 125.533 55.196 124.813 54.2712 124.197L33.9252 112.482C31.8701 111.352 28.6847 111.352 26.6295 112.482L6.28358 124.197C5.35876 124.71 4.84498 125.43 4.84498 126.252C4.84498 126.971 5.35876 127.69 6.28358 128.307L26.6295 140.021Z" fill="#7C40FF"/>
<path opacity="0.4" d="M56.6341 121.832V114.845L55.401 114.125C54.99 116.283 52.5238 117.722 50.3659 118.03L35.7744 126.559L29.4034 128.82L9.1603 118.338L9.67409 118.03C7.92721 117.208 7.00238 115.358 6.07757 113.714L4.74172 114.536L3.91968 114.742V121.832C3.91968 122.757 4.53622 123.682 5.66655 124.298L26.0125 136.013C28.3759 137.348 32.2807 137.348 34.6441 136.013L54.99 124.298C56.1203 123.579 56.7369 122.757 56.7369 121.832C56.6341 121.935 56.6341 121.832 56.6341 121.832Z" fill="#7C40FF"/>
<path d="M56.6335 115.666V111.042L55.4004 110.323C54.9894 112.481 52.5232 113.919 50.3653 114.228L35.7738 122.757L29.4028 125.017L9.15969 114.536L9.67348 114.228C7.9266 113.406 7.00177 111.556 6.07696 109.912L4.74111 110.734L3.91907 110.939V115.666C3.91907 116.591 4.53561 117.516 5.66594 118.132L26.0119 129.847C28.3753 131.183 32.28 131.183 34.6435 129.847L54.9894 118.132C56.1197 117.413 56.7363 116.591 56.7363 115.666C56.6335 115.666 56.6335 115.666 56.6335 115.666Z" fill="url(#paint17_linear_10035_7)"/>
<path opacity="0.3" d="M50.3651 114.228L35.7736 122.756L30.2247 124.709V130.977C31.7661 130.977 33.3074 130.669 34.5405 129.949L54.8865 118.235C56.0168 117.516 56.6333 116.694 56.6333 115.769V115.666V111.042L55.503 110.426H55.4002C54.9892 112.481 52.4203 113.919 50.3651 114.228Z" fill="#0F054C"/>
<path d="M25.9085 125.223L5.5626 113.509C3.19919 112.173 3.19919 109.913 5.5626 108.474L25.9085 96.7597C28.2719 95.4239 32.1767 95.4239 34.5401 96.7597L54.886 108.474C57.2495 109.81 57.2495 112.071 54.886 113.406L34.5401 125.223C32.1767 126.662 28.2719 126.662 25.9085 125.223Z" fill="url(#paint18_linear_10035_7)"/>
<path d="M54.8848 113.508L34.5389 125.223C32.1755 126.559 28.2707 126.559 25.9073 125.223L5.56135 113.508C4.53378 112.892 3.91724 112.07 3.81449 111.351C3.71173 112.378 4.22551 113.406 5.56135 114.125L25.9073 125.839C28.2707 127.175 32.1755 127.175 34.5389 125.839L54.8848 114.125C56.2207 113.406 56.8372 112.378 56.6317 111.351C56.5289 112.07 55.9124 112.892 54.8848 113.508Z" fill="white"/>
<path d="M162.579 156.668C162.065 156.668 161.551 156.565 161.037 156.257L132.676 139.918C130.93 138.891 130.005 136.527 130.519 134.575C130.827 133.547 131.341 132.828 132.163 132.52C132.985 132.212 133.807 132.314 134.732 132.725L163.093 149.064C164.839 150.091 165.764 152.455 165.25 154.407C164.942 155.435 164.428 156.154 163.606 156.462C163.195 156.668 162.887 156.668 162.579 156.668ZM133.19 132.623C132.882 132.623 132.574 132.725 132.368 132.828C131.649 133.136 131.135 133.753 130.93 134.575C130.416 136.425 131.341 138.582 132.882 139.507L161.243 155.846C161.962 156.257 162.784 156.359 163.504 156.051C164.223 155.743 164.737 155.126 164.942 154.202C165.456 152.352 164.531 150.194 162.99 149.269L134.629 132.931C134.115 132.828 133.601 132.623 133.19 132.623Z" fill="#7C40FF"/>
<path d="M158.775 318.613C157.029 318.613 155.384 318.202 154.049 317.483L72.3567 270.317C71.0209 269.598 70.4043 268.57 70.4043 267.543C70.4043 266.515 71.1236 265.488 72.3567 264.768L89.6199 254.801L89.8254 255.109L72.5622 265.077C71.4319 265.796 70.7126 266.618 70.7126 267.543C70.7126 268.468 71.3291 269.393 72.5622 270.009L154.254 317.175C156.72 318.613 160.831 318.613 163.297 317.175L223.101 282.751L223.307 283.059L163.502 317.483C162.166 318.305 160.522 318.613 158.775 318.613Z" fill="#7C40FF"/>
</g>
<defs>
<linearGradient id="paint0_linear_10035_7" x1="283.363" y1="-5.20288" x2="303.676" y2="32.1473" gradientUnits="userSpaceOnUse">
<stop stop-color="#7C4EFF"/>
<stop offset="0.904355" stop-color="#7C4EFF" stop-opacity="0"/>
</linearGradient>
<linearGradient id="paint1_linear_10035_7" x1="78.6469" y1="17.4448" x2="116.734" y2="87.4764" gradientUnits="userSpaceOnUse">
<stop stop-color="#7C4EFF"/>
<stop offset="0.904355" stop-color="#7C4EFF" stop-opacity="0"/>
</linearGradient>
<linearGradient id="paint2_linear_10035_7" x1="193.889" y1="222.411" x2="21.1227" y2="222.411" gradientUnits="userSpaceOnUse">
<stop stop-color="#5761D7"/>
<stop offset="0.1779" stop-color="#5C66D9"/>
<stop offset="0.3876" stop-color="#6A73DF"/>
<stop offset="0.6134" stop-color="#8289E8"/>
<stop offset="0.849" stop-color="#A3A7F5"/>
<stop offset="1" stop-color="#BCBEFF"/>
</linearGradient>
<linearGradient id="paint3_linear_10035_7" x1="139.078" y1="218.391" x2="-33.6882" y2="218.391" gradientUnits="userSpaceOnUse">
<stop stop-color="#C0BFF6"/>
<stop offset="0.2938" stop-color="#C5C4F7"/>
<stop offset="0.6399" stop-color="#D3D2F9"/>
<stop offset="1" stop-color="#E9E9FD"/>
</linearGradient>
<linearGradient id="paint4_linear_10035_7" x1="268.935" y1="24.521" x2="249.925" y2="145.774" gradientUnits="userSpaceOnUse">
<stop stop-color="#16E09E"/>
<stop offset="0.1055" stop-color="#37BF9E"/>
<stop offset="1" stop-color="#16E09E" stop-opacity="0"/>
</linearGradient>
<linearGradient id="paint5_linear_10035_7" x1="295.138" y1="3.97014" x2="259.173" y2="164.785" gradientUnits="userSpaceOnUse">
<stop stop-color="#16E09E"/>
<stop offset="0.1055" stop-color="#37BF9E"/>
<stop offset="1" stop-color="#16E09E" stop-opacity="0"/>
</linearGradient>
<linearGradient id="paint6_linear_10035_7" x1="213.479" y1="142.603" x2="91.2165" y2="142.603" gradientUnits="userSpaceOnUse">
<stop stop-color="#C0BFF6"/>
<stop offset="0.2938" stop-color="#C5C4F7"/>
<stop offset="0.6399" stop-color="#D3D2F9"/>
<stop offset="1" stop-color="#E9E9FD"/>
</linearGradient>
<linearGradient id="paint7_linear_10035_7" x1="213.476" y1="173.957" x2="192.483" y2="173.957" gradientUnits="userSpaceOnUse">
<stop stop-color="#5761D7"/>
<stop offset="0.1779" stop-color="#5C66D9"/>
<stop offset="0.3876" stop-color="#6A73DF"/>
<stop offset="0.6134" stop-color="#8289E8"/>
<stop offset="0.849" stop-color="#A3A7F5"/>
<stop offset="1" stop-color="#BCBEFF"/>
</linearGradient>
<linearGradient id="paint8_linear_10035_7" x1="197.097" y1="208.168" x2="24.4227" y2="208.168" gradientUnits="userSpaceOnUse">
<stop stop-color="#5761D7"/>
<stop offset="0.1779" stop-color="#5C66D9"/>
<stop offset="0.3876" stop-color="#6A73DF"/>
<stop offset="0.6134" stop-color="#8289E8"/>
<stop offset="0.849" stop-color="#A3A7F5"/>
<stop offset="1" stop-color="#BCBEFF"/>
</linearGradient>
<linearGradient id="paint9_linear_10035_7" x1="139.079" y1="203.446" x2="-33.6871" y2="203.446" gradientUnits="userSpaceOnUse">
<stop stop-color="#C0BFF6"/>
<stop offset="0.2938" stop-color="#C5C4F7"/>
<stop offset="0.6399" stop-color="#D3D2F9"/>
<stop offset="1" stop-color="#E9E9FD"/>
</linearGradient>
<linearGradient id="paint10_linear_10035_7" x1="263.498" y1="170.167" x2="90.824" y2="170.167" gradientUnits="userSpaceOnUse">
<stop stop-color="#5761D7"/>
<stop offset="0.1779" stop-color="#5C66D9"/>
<stop offset="0.3876" stop-color="#6A73DF"/>
<stop offset="0.6134" stop-color="#8289E8"/>
<stop offset="0.849" stop-color="#A3A7F5"/>
<stop offset="1" stop-color="#BCBEFF"/>
</linearGradient>
<linearGradient id="paint11_linear_10035_7" x1="205.48" y1="165.445" x2="32.7139" y2="165.445" gradientUnits="userSpaceOnUse">
<stop stop-color="#C0BFF6"/>
<stop offset="0.2938" stop-color="#C5C4F7"/>
<stop offset="0.6399" stop-color="#D3D2F9"/>
<stop offset="1" stop-color="#E9E9FD"/>
</linearGradient>
<linearGradient id="paint12_linear_10035_7" x1="215.818" y1="250.336" x2="257.753" y2="274.547" gradientUnits="userSpaceOnUse">
<stop stop-color="#BCBEFF"/>
<stop offset="0.2271" stop-color="#AAADF8"/>
<stop offset="0.6802" stop-color="#7C83E5"/>
<stop offset="1" stop-color="#5761D7"/>
</linearGradient>
<linearGradient id="paint13_linear_10035_7" x1="218.334" y1="248.706" x2="255.731" y2="270.297" gradientUnits="userSpaceOnUse">
<stop offset="0.2421" stop-color="#5761D7"/>
<stop offset="0.3923" stop-color="#7A82E5"/>
<stop offset="0.5463" stop-color="#979CF0"/>
<stop offset="0.7" stop-color="#ACAFF8"/>
<stop offset="0.8519" stop-color="#B8BAFD"/>
<stop offset="1" stop-color="#BCBEFF"/>
</linearGradient>
<linearGradient id="paint14_linear_10035_7" x1="210.559" y1="259.488" x2="263.413" y2="259.488" gradientUnits="userSpaceOnUse">
<stop stop-color="#E9E9FD"/>
<stop offset="0.3601" stop-color="#D3D2F9"/>
<stop offset="0.7062" stop-color="#C5C4F7"/>
<stop offset="1" stop-color="#C0BFF6"/>
</linearGradient>
<linearGradient id="paint15_linear_10035_7" x1="211.371" y1="259.488" x2="262.601" y2="259.488" gradientUnits="userSpaceOnUse">
<stop stop-color="#E9E9FD"/>
<stop offset="0.3601" stop-color="#D3D2F9"/>
<stop offset="0.7062" stop-color="#C5C4F7"/>
<stop offset="1" stop-color="#C0BFF6"/>
</linearGradient>
<linearGradient id="paint16_linear_10035_7" x1="236.985" y1="272.35" x2="236.985" y2="203.319" gradientUnits="userSpaceOnUse">
<stop stop-color="#16E09E"/>
<stop offset="0.1055" stop-color="#37BF8E"/>
<stop offset="1" stop-color="#16E09E" stop-opacity="0"/>
</linearGradient>
<linearGradient id="paint17_linear_10035_7" x1="9.06278" y1="101.868" x2="50.9977" y2="126.079" gradientUnits="userSpaceOnUse">
<stop stop-color="#BCBEFF"/>
<stop offset="0.2271" stop-color="#AAADF8"/>
<stop offset="0.6802" stop-color="#7C83E5"/>
<stop offset="1" stop-color="#5761D7"/>
</linearGradient>
<linearGradient id="paint18_linear_10035_7" x1="3.80401" y1="111.021" x2="56.6578" y2="111.021" gradientUnits="userSpaceOnUse">
<stop stop-color="#E9E9FD"/>
<stop offset="0.3601" stop-color="#D3D2F9"/>
<stop offset="0.7062" stop-color="#C5C4F7"/>
<stop offset="1" stop-color="#C0BFF6"/>
</linearGradient>
<clipPath id="clip0_10035_7">
<rect width="315" height="301.636" fill="white" transform="translate(2 18.3564)"/>
</clipPath>
</defs>
</svg>
