<svg width="200" height="232" viewBox="0 0 200 232" fill="none" xmlns="http://www.w3.org/2000/svg">
<g clip-path="url(#clip0_10035_598)">
<path opacity="0.4" d="M188.236 129.412C188.236 181.392 146.098 223.53 94.1179 223.53C42.138 223.53 0 181.392 0 129.412C0 77.4322 42.138 35.2942 94.1179 35.2942C146.098 35.2942 188.236 77.4322 188.236 129.412Z" fill="url(#paint0_linear_10035_598)"/>
<path opacity="0.4" d="M34.1177 14.1177C34.1177 21.9147 27.797 28.2354 20 28.2354C12.203 28.2354 5.88232 21.9147 5.88232 14.1177C5.88232 6.3207 12.203 0 20 0C27.797 0 34.1177 6.3207 34.1177 14.1177Z" fill="url(#paint1_linear_10035_598)"/>
<g clip-path="url(#clip1_10035_598)">
<path d="M133.656 13.8767C133.028 13.4581 132.191 13.3535 131.145 13.6674L79.24 28.1086L34.8701 67.0369L27.4402 73.525C24.9287 75.7226 23.1497 79.4898 23.4636 82.4199L29.5331 150.335C30.5796 161.742 35.184 170.113 42.3 174.404L54.0203 181.206L53.811 177.648L58.1015 178.171L79.24 180.578L107.285 145.103C119.529 129.615 127.587 110.256 129.052 92.9892L134.702 22.9809L144.33 20.1555L133.656 13.8767Z" fill="#CFCEF9"/>
<path d="M34.9753 67.0366L27.5454 73.5247C25.0339 75.7222 23.2549 79.4895 23.5689 82.4196L29.6384 150.335C30.6848 161.741 35.2892 170.113 42.4052 174.404L54.1256 181.206L53.9163 177.648L58.2067 178.171C59.1486 167.183 62.8112 157.137 65.8459 146.358C72.7526 116.011 50.6722 92.5703 34.9753 67.0366Z" fill="#5036BA"/>
<path d="M133.657 13.8767C133.029 13.4581 132.192 13.3535 131.145 13.6674L79.2409 28.1086L34.871 67.0369C50.5679 92.5706 72.6482 115.907 65.7416 146.359C62.7068 157.033 59.0442 167.183 58.1024 178.171L79.2409 180.578L107.286 145.103C119.53 129.615 127.587 110.256 129.053 92.9892L134.703 22.9809L144.331 20.1555L133.657 13.8767Z" fill="#CFCEF9"/>
<path d="M24.7194 77.397L36.4397 84.6176L90.1232 34.3874L79.3446 28.1086L27.4402 73.5251C26.2891 74.5715 25.3472 75.9319 24.7194 77.397Z" fill="#ABAFF9"/>
<path d="M43.0325 174.823C36.1259 170.532 31.7308 162.265 30.7889 151.172L24.7195 83.2572C24.5102 80.3271 26.1845 76.5598 28.696 74.3622L36.1259 67.8742L80.4958 28.9458L132.4 14.5047C133.342 14.1907 134.179 14.2954 134.912 14.7139L144.435 20.2602H144.539L133.865 13.9814C133.237 13.5628 132.4 13.4582 131.354 13.7721L79.4494 28.2133L35.0794 67.1417L27.6496 73.6297C25.138 75.8273 23.3591 79.5945 23.673 82.5246L29.7425 150.44C30.7889 161.846 35.3934 170.218 42.5093 174.509L43.0325 174.823Z" fill="#9A9EF2"/>
<path d="M90.1232 34.3874L38.2188 79.8038C35.7072 82.0014 33.9283 85.7687 34.2422 88.6988L40.3117 156.614C41.6721 172.206 49.7298 182.252 62.0781 183.613L90.1232 186.752L118.168 151.277C130.412 135.79 138.47 116.43 139.935 99.1634L146.004 24.1321C146.214 20.9927 144.539 19.1091 142.028 19.8416L90.1232 34.3874Z" fill="#7C4EFF"/>
<path d="M40.312 156.719L34.2425 88.8032C34.0332 85.8731 35.7075 82.1058 38.219 79.9083L90.1235 34.4919L142.028 20.0507C142.97 19.8414 143.702 19.8414 144.33 20.1553C143.598 19.2135 142.447 18.7949 141.086 19.2135L89.1817 33.6547L37.2772 79.0711C34.7657 81.2687 32.9867 85.0359 33.3007 87.966L39.3702 155.881C40.312 165.823 43.8699 173.462 49.5208 178.066C44.3932 173.357 41.1491 166.032 40.312 156.719Z" fill="#9A9EF2"/>
<path d="M56.9506 80.6416L51.0904 85.7693C49.1021 87.5482 47.7417 90.4783 47.951 92.7806L52.7648 146.255C53.6019 155.254 57.1599 161.847 62.8108 165.196L72.0196 170.533L71.8104 167.707L75.2637 168.126C75.9962 159.545 78.8216 151.592 81.2285 143.115C86.7748 119.151 69.2988 100.734 56.9506 80.6416Z" fill="#352784"/>
<path d="M134.703 38.7825C134.18 38.4686 133.552 38.364 132.715 38.5732L91.9026 49.875L56.9508 80.5363C69.299 100.628 86.775 119.046 81.2287 143.01C78.8218 151.486 75.8918 159.439 75.2639 168.02L91.9026 169.904L113.983 141.964C123.61 129.72 129.994 114.546 131.04 100.942L135.54 45.7938L143.075 43.5963L134.703 38.7825Z" fill="#3D3BA8"/>
<path d="M48.8929 88.8032L58.1018 94.4541L100.379 54.8979L91.9025 49.9795L51.0905 85.7685C50.1487 86.6056 49.4162 87.6521 48.8929 88.8032Z" fill="#4947BA"/>
<path d="M100.379 54.8982L59.5666 90.6872C57.5783 92.4662 56.2179 95.3963 56.4272 97.6985L61.2409 151.173C62.392 163.416 68.6708 171.369 78.2983 172.416L100.379 174.927L122.459 146.987C132.086 134.743 138.47 119.57 139.516 105.966L144.33 46.9451C144.539 44.4336 143.179 42.9686 141.191 43.5964L100.379 54.8982Z" fill="#2F2D85"/>
<g opacity="0.3">
<path opacity="0.4" d="M109.063 63.3743L68.2514 99.1633C66.2631 100.942 64.9027 103.872 65.112 106.175L69.9258 159.649C71.0769 171.892 77.3556 179.845 86.9831 180.892L109.063 183.403L131.144 155.463C140.771 143.219 147.155 128.046 148.201 114.442L153.015 55.4212C153.224 52.9097 151.864 51.4446 149.875 52.0725L109.063 63.3743Z" fill="#16E09E"/>
</g>
<path d="M109.377 184.031L86.9831 181.52C77.0417 180.368 70.449 172.206 69.2979 159.649L64.4842 106.174C64.2749 103.663 65.6353 100.523 67.8328 98.6398L108.749 62.7462L149.771 51.3398C150.817 51.0259 151.864 51.2351 152.596 51.863C153.433 52.5955 153.852 53.8513 153.747 55.421L148.934 114.441C147.782 128.045 141.399 143.533 131.667 155.777L109.377 184.031ZM109.377 63.8973L68.67 99.5817C66.7864 101.256 65.5306 103.977 65.7399 106.07L70.5536 159.544C71.6001 171.474 77.7742 179.217 87.0877 180.264L108.854 182.671L130.725 154.939C140.248 142.905 146.631 127.627 147.678 114.232L152.492 55.2117C152.596 54.0606 152.282 53.2234 151.759 52.7002C151.236 52.2816 150.608 52.3863 150.189 52.4909L109.377 63.8973Z" fill="url(#paint2_linear_10035_598)"/>
<mask id="mask0_10035_598" style="mask-type:alpha" maskUnits="userSpaceOnUse" x="107" y="115" width="93" height="55">
<path d="M198.013 169.276C197.804 169.276 197.699 169.276 197.49 169.172L107.704 117.372C107.18 117.058 107.076 116.43 107.285 115.907C107.599 115.384 108.227 115.279 108.75 115.488L198.536 167.288C199.06 167.602 199.164 168.23 198.955 168.753C198.746 169.067 198.327 169.276 198.013 169.276Z" fill="url(#paint3_linear_10035_598)"/>
</mask>
<g mask="url(#mask0_10035_598)">
<path d="M198.014 169.276C197.805 169.276 197.7 169.276 197.491 169.172L107.704 117.372C107.181 117.058 107.076 116.43 107.286 115.907C107.6 115.384 108.227 115.279 108.751 115.488L198.537 167.288C199.06 167.602 199.165 168.23 198.956 168.753C198.746 169.067 198.328 169.276 198.014 169.276Z" fill="url(#paint4_linear_10035_598)"/>
</g>
</g>
</g>
<defs>
<linearGradient id="paint0_linear_10035_598" x1="30.5883" y1="7.27022" x2="140" y2="208.447" gradientUnits="userSpaceOnUse">
<stop stop-color="#7C4EFF"/>
<stop offset="0.904355" stop-color="#7C4EFF" stop-opacity="0"/>
</linearGradient>
<linearGradient id="paint1_linear_10035_598" x1="10.4706" y1="-4.2036" x2="26.8824" y2="25.973" gradientUnits="userSpaceOnUse">
<stop stop-color="#7C4EFF"/>
<stop offset="0.904355" stop-color="#7C4EFF" stop-opacity="0"/>
</linearGradient>
<linearGradient id="paint2_linear_10035_598" x1="64.4706" y1="117.371" x2="153.783" y2="117.371" gradientUnits="userSpaceOnUse">
<stop stop-color="#5472D8"/>
<stop offset="0.2791" stop-color="#4E9CDB"/>
<stop offset="0.4801" stop-color="#49BDDD"/>
<stop offset="0.6715" stop-color="#45DFBA"/>
<stop offset="0.8493" stop-color="#43E3A9"/>
<stop offset="1" stop-color="#16E09E"/>
</linearGradient>
<linearGradient id="paint3_linear_10035_598" x1="199.063" y1="142.26" x2="107.159" y2="142.26" gradientUnits="userSpaceOnUse">
<stop/>
<stop offset="1" stop-color="white"/>
</linearGradient>
<linearGradient id="paint4_linear_10035_598" x1="107.192" y1="142.234" x2="199.077" y2="142.234" gradientUnits="userSpaceOnUse">
<stop stop-color="#5472D8"/>
<stop offset="0.2791" stop-color="#4E9CDB"/>
<stop offset="0.4801" stop-color="#49BDDD"/>
<stop offset="0.6715" stop-color="#45DFBA"/>
<stop offset="0.8493" stop-color="#43E3A9"/>
<stop offset="1" stop-color="#16E09E"/>
</linearGradient>
<clipPath id="clip0_10035_598">
<rect width="200" height="232" fill="white"/>
</clipPath>
<clipPath id="clip1_10035_598">
<rect width="176.852" height="173.713" fill="white" transform="translate(23.1481 13.1436)"/>
</clipPath>
</defs>
</svg>
