<svg width="202" height="62" viewBox="0 0 202 62" fill="none" xmlns="http://www.w3.org/2000/svg">
<rect x="0.5" y="0.5" width="201" height="60.8367" rx="9.5" fill="black"/>
<rect x="0.5" y="0.5" width="201" height="60.8367" rx="9.5" stroke="#A6A6A6"/>
<path d="M106.446 20.2092C106.453 20.4223 106.411 20.6341 106.326 20.8292C106.24 21.0243 106.112 21.1978 105.95 21.3372C105.806 21.4664 105.639 21.5651 105.458 21.6318C105.277 21.7005 105.09 21.744 104.9 21.7636V22.2397H103.957V21.7636C103.707 21.7442 103.463 21.6803 103.235 21.5749C103.05 21.4878 102.886 21.3628 102.752 21.2079C102.627 21.0522 102.535 20.8721 102.483 20.6791C102.428 20.4629 102.4 20.2406 102.401 20.0175V18.0532C102.394 17.8252 102.44 17.5988 102.535 17.3915C102.618 17.2063 102.739 17.0407 102.89 16.9056C103.038 16.7733 103.209 16.6709 103.396 16.6016C103.577 16.5317 103.77 16.4958 103.964 16.4957V16.1907H104.906V16.4952C105.097 16.5081 105.284 16.5479 105.465 16.6177C105.649 16.6869 105.816 16.7893 105.961 16.9185C106.111 17.0539 106.23 17.2163 106.315 17.4013C106.407 17.6096 106.449 17.8345 106.446 18.063V20.2087V20.2092ZM103.957 17.2664C103.774 17.2832 103.602 17.3584 103.465 17.4809C103.4 17.5476 103.35 17.6272 103.318 17.7145C103.287 17.8018 103.274 17.8949 103.281 17.9875V20.3018C103.281 20.401 103.297 20.5003 103.34 20.5928C103.417 20.7509 103.551 20.8747 103.714 20.9402C103.793 20.9701 103.875 20.9898 103.957 20.9965V17.2659V17.2664ZM105.576 17.987C105.582 17.8927 105.568 17.7982 105.535 17.7099C105.501 17.6215 105.449 17.5414 105.382 17.4747C105.252 17.3496 105.08 17.2755 104.9 17.2659V20.9898C104.982 20.9763 105.057 20.9536 105.133 20.9205C105.212 20.8874 105.287 20.8409 105.35 20.7815C105.42 20.7218 105.476 20.6473 105.514 20.5632C105.552 20.4792 105.571 20.3878 105.57 20.2956L105.576 17.987ZM111.079 20.6957C111.11 21.1234 110.984 21.5477 110.725 21.8897C110.412 22.148 110.019 22.2905 109.613 22.2934C109.207 22.2963 108.812 22.1595 108.495 21.9058C108.246 21.5898 108.123 21.1927 108.15 20.7913V17.759C108.147 17.5357 108.174 17.3129 108.233 17.0974C108.28 16.9108 108.367 16.737 108.489 16.5882C108.611 16.4429 108.765 16.3272 108.942 16.2574C109.159 16.1747 109.385 16.1385 109.615 16.1416C109.853 16.1351 110.09 16.172 110.315 16.2506C110.492 16.3168 110.646 16.4326 110.765 16.5815C110.883 16.7304 110.965 16.902 111.008 17.0875C111.057 17.3057 111.083 17.5269 111.08 17.7492L111.079 20.6957ZM110.141 17.6727C110.141 17.514 110.104 17.3589 110.032 17.2199C109.989 17.1508 109.928 17.0955 109.854 17.0603C109.781 17.0251 109.699 17.0116 109.619 17.0214C109.524 17.0203 109.431 17.0453 109.349 17.0937C109.283 17.1423 109.228 17.2045 109.188 17.2762C109.152 17.3522 109.126 17.4349 109.109 17.5207C109.096 17.6034 109.09 17.6861 109.09 17.7688V20.8083C109.09 20.9567 109.129 21.1025 109.208 21.2281C109.252 21.293 109.313 21.3447 109.384 21.3779C109.455 21.411 109.534 21.4243 109.612 21.4162C109.691 21.423 109.77 21.4086 109.842 21.3743C109.914 21.34 109.975 21.2872 110.019 21.2214C110.104 21.0792 110.147 20.9138 110.141 20.7484V17.6727ZM114.876 22.2397V19.5941H113.795V22.2397H112.856V16.1948H113.795V18.7246H114.876V16.1948H115.815V22.2397H114.876ZM118.031 22.2397V23.3805H117.24V21.4524L117.611 21.3966C117.771 21.2281 117.884 21.0192 117.939 20.7949C118.006 20.4961 118.041 20.1912 118.044 19.8851L118.15 16.2114H120.862V21.3961H121.223V23.3811H120.432V22.2335L118.031 22.2397ZM118.875 19.866C118.875 20.1968 118.838 20.5106 118.806 20.7623C118.776 20.9872 118.708 21.2017 118.595 21.3971H119.909V17.0974H118.944L118.875 19.866ZM126.868 16.1452C127.091 16.1385 127.314 16.171 127.524 16.2475C127.692 16.3106 127.843 16.4099 127.971 16.5355C128.089 16.6611 128.181 16.8094 128.234 16.9749C128.29 17.1568 128.316 17.3455 128.316 17.5342L127.4 17.7688C127.41 17.581 127.367 17.3941 127.275 17.2297C127.234 17.1614 127.175 17.1058 127.104 17.0691C127.033 17.0323 126.954 17.0158 126.874 17.0214C126.781 17.0176 126.688 17.0417 126.608 17.0906C126.541 17.1361 126.486 17.1976 126.448 17.2695C126.412 17.3419 126.385 17.4215 126.369 17.5042C126.356 17.5828 126.349 17.6623 126.349 17.742V20.8145C126.346 20.8784 126.346 20.9424 126.349 21.0063C126.362 21.0756 126.385 21.1418 126.422 21.2012C126.465 21.2699 126.526 21.3259 126.598 21.3636C126.67 21.4013 126.75 21.4195 126.832 21.4162C127.176 21.4162 127.354 21.1681 127.357 20.6688C127.515 20.6988 127.685 20.722 127.83 20.7417L128.3 20.8078C128.31 21.2039 128.175 21.59 127.919 21.8923C127.639 22.1766 127.249 22.3224 126.855 22.2929C126.655 22.3096 126.453 22.2846 126.263 22.2197C126.074 22.1547 125.899 22.0512 125.751 21.9156C125.492 21.6073 125.363 21.2096 125.393 20.8078V17.7952C125.393 17.5802 125.416 17.3651 125.466 17.1568C125.511 16.9662 125.596 16.7871 125.715 16.6311C125.834 16.476 125.991 16.3535 126.171 16.2744C126.392 16.1814 126.628 16.1349 126.868 16.1452ZM132.775 20.6957C132.805 21.1235 132.679 21.5478 132.42 21.8897C132.107 22.1478 131.715 22.2903 131.309 22.2932C130.903 22.2961 130.508 22.1593 130.191 21.9058C129.942 21.5898 129.819 21.1927 129.846 20.7913V17.759C129.846 17.5373 129.869 17.3124 129.925 17.0974C129.974 16.9123 130.063 16.7371 130.181 16.5882C130.306 16.4429 130.46 16.3303 130.638 16.2574C130.851 16.1747 131.081 16.1354 131.311 16.1416C131.547 16.1354 131.787 16.1716 132.01 16.2506C132.187 16.3168 132.342 16.4326 132.46 16.5815C132.579 16.7304 132.66 16.902 132.703 17.0875C132.752 17.3057 132.779 17.5269 132.775 17.7492V20.6957ZM131.836 17.6727C131.836 17.514 131.8 17.3589 131.727 17.2199C131.684 17.1508 131.623 17.0954 131.55 17.0602C131.476 17.025 131.394 17.0116 131.314 17.0214C131.219 17.0204 131.126 17.0454 131.045 17.0937C130.978 17.1413 130.923 17.2038 130.884 17.2762C130.844 17.3529 130.818 17.4355 130.805 17.5207C130.792 17.6034 130.785 17.6861 130.785 17.7688V20.8083C130.785 20.9567 130.825 21.1025 130.9 21.2281C130.95 21.2874 131.012 21.3352 131.083 21.3679C131.153 21.4007 131.23 21.4176 131.307 21.4176C131.385 21.4176 131.461 21.4007 131.532 21.3679C131.602 21.3352 131.664 21.2874 131.714 21.2281C131.8 21.0859 131.843 20.9205 131.836 20.7551V17.6727ZM134.959 22.2397V23.3805H134.168V21.4524L134.525 21.3733C134.686 21.2048 134.798 20.996 134.854 20.7716C134.922 20.4731 134.957 20.168 134.959 19.8619L135.064 16.1881H137.776V21.3961H138.16V23.38H137.369V22.2325L134.959 22.2392V22.2397ZM135.803 19.8655C135.796 20.1653 135.773 20.4645 135.734 20.7618C135.707 20.982 135.639 21.1951 135.533 21.3899H136.847V17.0906H135.882L135.803 19.8655ZM139.684 16.1948H142.37V17.0741H140.623V18.7283H142.144V19.6205H140.623V21.3666H142.37V22.2433H139.684V16.1948ZM146.041 18.4532L144.771 22.2397H143.881V16.1948H144.793V20.0273H144.83L146.091 16.1948H147.003V22.2397H146.081V18.4532H146.041ZM144.912 14.8157C144.917 14.8838 144.936 14.9501 144.968 15.0106C145 15.0767 145.04 15.1398 145.089 15.1961C145.138 15.2556 145.194 15.3016 145.26 15.3414C145.326 15.3787 145.401 15.3971 145.477 15.3946C145.556 15.3951 145.635 15.3768 145.706 15.3414C145.772 15.3052 145.831 15.2556 145.877 15.1961C145.923 15.1393 145.96 15.0772 145.986 15.0106C146.011 14.9488 146.025 14.8826 146.025 14.8157H146.711C146.698 14.9506 146.666 15.083 146.616 15.2091C146.563 15.3516 146.485 15.4837 146.386 15.5993C146.281 15.7207 146.154 15.8216 146.012 15.8971C145.845 15.9761 145.661 16.0157 145.476 16.0129C145.279 16.0192 145.082 15.9796 144.902 15.8971C144.761 15.8291 144.634 15.7332 144.531 15.615C144.428 15.4968 144.349 15.3589 144.301 15.2096C144.258 15.0821 144.232 14.9498 144.222 14.8157H144.912ZM150.192 16.1452C150.415 16.1373 150.638 16.1721 150.849 16.2475C151.016 16.3106 151.171 16.4062 151.295 16.5355C151.414 16.6611 151.506 16.8094 151.558 16.9749C151.614 17.1568 151.643 17.3455 151.64 17.5342L150.727 17.7688C150.734 17.5813 150.691 17.3952 150.603 17.2297C150.561 17.1615 150.501 17.106 150.43 17.0693C150.358 17.0326 150.278 17.016 150.198 17.0214C150.105 17.0177 150.012 17.0418 149.933 17.0906C149.865 17.136 149.81 17.1975 149.771 17.2695C149.735 17.3419 149.709 17.4215 149.696 17.5042C149.68 17.5825 149.673 17.6621 149.673 17.742V20.8145C149.67 20.8771 149.67 20.9438 149.673 21.0063C149.686 21.0756 149.709 21.1418 149.749 21.2012C149.791 21.2704 149.851 21.3269 149.923 21.3648C149.994 21.4026 150.075 21.4204 150.156 21.4162C150.504 21.4162 150.678 21.1681 150.684 20.6688C150.839 20.6988 150.997 20.722 151.154 20.7417L151.624 20.8078C151.633 21.2031 151.499 21.5885 151.246 21.8923C151.108 22.0325 150.941 22.141 150.757 22.2101C150.572 22.2793 150.375 22.3076 150.179 22.2929C149.979 22.3095 149.778 22.2845 149.588 22.2196C149.398 22.1546 149.224 22.0511 149.076 21.9156C148.816 21.6074 148.687 21.2097 148.717 20.8078V17.7952C148.717 17.5802 148.741 17.3651 148.793 17.1568C148.836 16.9655 148.921 16.7867 149.039 16.6311C149.161 16.476 149.315 16.3535 149.496 16.2744C149.716 16.1814 149.952 16.1385 150.192 16.1452ZM154.717 17.0746V22.2397H153.778V17.0746H152.793V16.1948H155.679V17.0741L154.717 17.0746ZM159.291 19.0818C159.541 19.1542 159.741 19.3362 159.84 19.5781C159.941 19.8422 159.99 20.1265 159.987 20.4113C160.03 20.9083 159.886 21.4032 159.583 21.7998C159.42 21.9576 159.224 22.0787 159.01 22.1552C158.796 22.2317 158.569 22.2617 158.342 22.2433H157.091V16.1948H158.405C158.618 16.1754 158.832 16.2033 159.033 16.2765C159.234 16.3497 159.416 16.4664 159.567 16.6182C159.83 16.9687 159.958 17.4018 159.928 17.8381C159.932 18.0892 159.882 18.3382 159.784 18.569C159.682 18.781 159.505 18.9495 159.284 19.0353L159.291 19.0818ZM159.038 17.8583C159.058 17.6454 158.999 17.4328 158.874 17.2597C158.8 17.1926 158.714 17.1417 158.619 17.1103C158.525 17.079 158.425 17.0679 158.326 17.0777H158.03V18.6388H158.329C158.529 18.6585 158.727 18.5856 158.864 18.4403C158.992 18.2731 159.054 18.0646 159.038 17.8547V17.8583ZM159.091 20.3348C159.107 20.1119 159.052 19.8898 158.933 19.7001C158.864 19.6255 158.779 19.5679 158.683 19.5318C158.588 19.4957 158.486 19.482 158.385 19.4917H158.03V21.3666H158.405C158.529 21.3733 158.654 21.347 158.762 21.2839C158.854 21.2343 158.933 21.1583 158.986 21.0658C159.039 20.9628 159.071 20.8504 159.081 20.7349C159.094 20.6009 159.097 20.4662 159.091 20.3317V20.3348ZM163.882 18.4532L162.614 22.2397H161.708V16.1948H162.621V20.0273H162.657L163.911 16.1948H164.824V22.2397H163.911V18.4532H163.882ZM166.387 22.2397L166.716 20.3183C166.752 20.127 166.817 19.9415 166.906 19.7662C166.988 19.6039 167.116 19.4716 167.271 19.3791C167.145 19.3345 167.03 19.2654 166.931 19.1758C166.832 19.0861 166.752 18.9778 166.696 18.857C166.587 18.5882 166.535 18.3001 166.541 18.0102C166.505 17.5208 166.659 17.0362 166.971 16.6575C167.124 16.5009 167.308 16.3786 167.511 16.2988C167.714 16.219 167.932 16.1836 168.151 16.1948H169.533V22.2397H168.607V19.6603H168.364C168.197 19.6603 168.036 19.7331 167.914 19.852C167.752 20.0378 167.652 20.2687 167.625 20.5137L167.336 22.2232L166.387 22.2397ZM168.243 17.0741C168.129 17.061 168.015 17.0776 167.91 17.1223C167.805 17.167 167.714 17.2382 167.645 17.3289C167.528 17.5291 167.469 17.7586 167.478 17.9906C167.451 18.2155 167.53 18.4434 167.691 18.6021C167.849 18.7179 168.039 18.7779 168.233 18.7706H168.607V17.0746L168.243 17.0741ZM105.231 27.2735L103.655 31.979H102.536V24.4718H103.669V29.2207H103.712L105.274 24.4718H106.406V31.979H105.264V27.273H105.231L105.231 27.2735ZM112.101 31.979V28.7085H110.765V31.979H109.599V24.4718H110.765V27.6069H112.101V24.4718H113.266V31.979H112.101ZM118.993 31.979V28.7085H117.657V31.979H116.491V24.4718H117.657V27.6069H118.993V24.4718H120.159V31.979H118.993ZM126.957 30.0509C126.996 30.5825 126.838 31.1099 126.513 31.5324C126.125 31.852 125.639 32.0284 125.136 32.0319C124.633 32.0355 124.144 31.8661 123.752 31.552C123.439 31.1619 123.286 30.6683 123.322 30.1698V26.3999C123.318 26.1276 123.352 25.8562 123.423 25.5935C123.485 25.3614 123.601 25.1469 123.752 24.9613C123.903 24.7798 124.096 24.6408 124.316 24.5545C124.582 24.4518 124.866 24.4025 125.15 24.4092C125.445 24.3997 125.739 24.4445 126.017 24.5415C126.234 24.6206 126.428 24.7566 126.576 24.9349C126.72 25.1169 126.825 25.3319 126.878 25.5604C126.94 25.8313 126.973 26.1125 126.97 26.3901L126.957 30.0509ZM125.791 26.3042C125.791 26.1089 125.748 25.914 125.657 25.7418C125.603 25.6562 125.527 25.5874 125.436 25.5434C125.345 25.4995 125.244 25.4823 125.144 25.4937C125.028 25.4929 124.914 25.5252 124.816 25.5868C124.733 25.6459 124.665 25.7225 124.615 25.8111C124.567 25.907 124.535 26.01 124.52 26.1161C124.503 26.2165 124.494 26.3182 124.494 26.42V30.1899C124.49 30.375 124.539 30.557 124.638 30.712C124.75 30.8775 124.943 30.9638 125.141 30.9436C125.341 30.9638 125.535 30.8712 125.646 30.7022C125.751 30.5239 125.804 30.3187 125.797 30.114L125.791 26.3042ZM132.868 28.0468C133.02 28.0909 133.161 28.1693 133.278 28.2759C133.396 28.3825 133.488 28.5145 133.547 28.6619C133.675 28.9891 133.738 29.3401 133.731 29.6937C133.731 30.4774 133.563 31.0532 133.228 31.4166C133.026 31.6123 132.784 31.7625 132.519 31.8572C132.254 31.9519 131.972 31.9888 131.692 31.9656H130.138V24.4718H131.78C132.044 24.4477 132.31 24.482 132.559 24.5723C132.809 24.6626 133.035 24.8067 133.222 24.9944C133.547 25.4276 133.705 25.9636 133.668 26.5058C133.676 26.8172 133.615 27.1264 133.491 27.412C133.365 27.6773 133.143 27.8852 132.871 27.9941V28.0468H132.868ZM132.539 26.5291C132.563 26.2641 132.489 25.9995 132.332 25.7847C132.241 25.702 132.133 25.6392 132.016 25.6005C131.899 25.5618 131.775 25.5479 131.652 25.5599H131.304V27.4983H131.678C131.921 27.518 132.164 27.4249 132.335 27.2502C132.493 27.045 132.568 26.7871 132.555 26.5291H132.539ZM132.601 29.5981C132.622 29.3217 132.554 29.0459 132.408 28.8108C132.323 28.7163 132.218 28.6434 132.099 28.5985C131.981 28.5536 131.853 28.538 131.728 28.5529H131.304V30.8676H131.767C131.922 30.8736 132.076 30.8383 132.214 30.7653C132.322 30.6991 132.411 30.603 132.473 30.4908C132.538 30.3629 132.578 30.2238 132.592 30.0809C132.611 29.9222 132.617 29.7599 132.617 29.5981H132.601ZM139.586 31.979L139.297 30.4179H137.914C137.865 30.6764 137.816 30.9374 137.77 31.1985C137.724 31.4595 137.678 31.7206 137.635 31.979H136.45C136.699 30.7255 136.949 29.4756 137.201 28.2318C137.455 26.9887 137.711 25.7351 137.97 24.4718H139.283L140.774 31.979H139.586ZM138.574 26.2179C138.502 26.7374 138.427 27.2497 138.347 27.7656C138.269 28.2815 138.18 28.801 138.089 29.3298H139.113L138.627 26.205L138.574 26.2179ZM147.181 24.4718V30.8816H147.667V33.3881H146.682V31.9795H143.552V24.4718H144.718V30.8816H146.032V24.4718H147.181ZM153.134 27.2735L151.561 31.979H150.448V24.4718H151.581V29.2207H151.624L153.187 24.4718H154.32V31.979H153.177V27.273L153.134 27.2735ZM157.222 31.979L157.643 29.5981C157.689 29.3598 157.771 29.1282 157.882 28.9132C157.986 28.714 158.143 28.548 158.336 28.434C158.179 28.3761 158.036 28.2879 157.913 28.1744C157.791 28.0608 157.692 27.9242 157.623 27.7723C157.485 27.4405 157.419 27.0832 157.429 26.724C157.386 26.1167 157.576 25.5159 157.961 25.044C158.151 24.8512 158.38 24.7009 158.633 24.6029C158.885 24.5049 159.156 24.4614 159.426 24.4754H161.14V31.979H159.971V28.7808H159.669C159.459 28.7808 159.262 28.8702 159.114 29.0191C158.909 29.2547 158.783 29.5484 158.752 29.8591L158.398 31.9785L157.222 31.979ZM159.521 25.5733C159.38 25.5605 159.238 25.5841 159.108 25.6421C158.979 25.7 158.866 25.7903 158.782 25.9042C158.631 26.1552 158.558 26.4451 158.572 26.7374C158.556 26.8758 158.571 27.0159 158.617 27.1475C158.662 27.2791 158.737 27.3989 158.835 27.4978C159.029 27.6432 159.268 27.7168 159.511 27.7061H159.971V25.5868L159.521 25.5733ZM166.538 30.3254L166 28.9333L165.54 27.61H165.484V31.979H164.319V24.4718H165.451L166.266 26.6051L166.857 28.2287H166.909L167.514 26.5751L168.321 24.4852H169.444V31.979H168.279V27.6498H168.236L167.763 28.9731L167.228 30.3254H166.538ZM169.582 34.1744C169.533 34.1216 169.421 34.1744 169.359 34.2013L169.26 34.2442C168.006 34.8097 166.775 35.3054 165.517 35.7918C158.214 38.6127 150.721 40.1505 143.835 40.2399H143.815C143.727 40.2399 143.641 40.243 143.552 40.2461H142.173L141.641 40.2296H141.346L140.83 40.2099L140.502 40.1903C140.347 40.1903 140.19 40.1738 140.035 40.1603L139.736 40.1407C139.573 40.1407 139.408 40.1174 139.247 40.1009L138.942 40.0745L138.469 40.028L138.164 39.9949L137.704 39.9422L136.955 39.846L136.627 39.7995L136.2 39.7339L135.823 39.6708L135.474 39.6114L135.218 39.5617H135.159L134.765 39.4857L134.436 39.4196H134.391L133.734 39.2738L133.373 39.188L133.074 39.112L132.703 39.019L132.401 38.9332H132.375L132.046 38.8442L131.806 38.7719L131.636 38.7217L131.403 38.5925L131.136 38.5098L131.012 38.4669L130.9 38.4307L130.772 38.3878L130.496 38.2917L130.168 38.1728L129.873 38.0637L129.574 37.9515L129.334 37.8554L129.183 37.7923L128.996 37.7163L128.71 37.5943L128.431 37.4718L128.119 37.3229L127.886 37.217L127.666 37.1084L127.36 36.9559L126.849 36.6814L126.618 36.5522L126.352 36.4002L126.146 36.2746L126.02 36.1986L125.899 36.1263L125.673 35.9805L125.554 35.9009L125.443 35.8285C125.359 35.773 125.277 35.7156 125.196 35.6564L125.003 35.5204L124.766 35.3452L124.582 35.2067L124.343 35.0149L124.178 34.8857L123.889 34.6344L123.798 34.5548C123.673 34.4463 123.558 34.3238 123.433 34.224L123.364 34.178C123.33 34.1747 123.296 34.1747 123.262 34.178H102.578C102.578 34.178 102.496 34.178 102.476 34.2276C102.47 34.2386 102.467 34.2511 102.467 34.2638C102.467 34.2765 102.47 34.289 102.476 34.3L102.66 34.4954C112.958 45.3492 127.258 47.5249 134.867 47.8557C135.317 47.8754 135.8 47.8888 136.341 47.8986H138.101C145.785 47.7896 153.341 45.9607 159.383 42.7532C162.539 41.0832 165.4 38.9068 167.852 36.3108L167.963 36.1888C169.021 35.0149 169.438 34.5088 169.477 34.4494C169.573 34.317 169.632 34.2245 169.582 34.1713V34.1744ZM159.271 42.4125L159.209 42.4022C153.219 45.5802 145.73 47.3926 138.108 47.5016H136.361C135.822 47.5016 135.343 47.4789 134.897 47.4587C127.426 47.1279 113.457 45.0215 103.281 34.5616C103.287 34.5548 103.274 34.5419 103.281 34.5352H109.356C109.444 34.6344 109.539 34.7301 109.631 34.8262C109.723 34.9218 109.789 34.9983 109.871 35.0805L110.2 35.3948C110.246 35.4413 110.288 35.4843 110.334 35.5272L110.36 35.5535C110.393 35.5866 110.426 35.6197 110.459 35.6497C110.548 35.7324 110.676 35.8513 110.787 35.9505L111.066 36.2054L111.395 36.4964L111.69 36.7507L112.019 37.0252L112.347 37.2764C112.462 37.3695 112.58 37.4553 112.699 37.5447L113.027 37.7928L113.385 38.0472L113.739 38.2953L114.104 38.5331C114.229 38.6158 114.35 38.6985 114.478 38.7781C114.606 38.8572 114.725 38.9332 114.849 39.0097L115.24 39.2511L115.617 39.4723L116.025 39.7039C116.15 39.7763 116.281 39.846 116.409 39.9158C116.537 39.9851 116.688 40.0709 116.833 40.1438L117.227 40.349L117.66 40.5702C117.792 40.6364 117.929 40.6995 118.064 40.762L118.511 40.9771L118.921 41.1621L119.381 41.3673C119.519 41.4304 119.663 41.4862 119.805 41.5462L120.271 41.7442L120.701 41.9132L121.177 42.1014L121.624 42.2637C121.781 42.3231 121.952 42.3862 122.103 42.442L122.56 42.5971L123.046 42.7661L123.519 42.915L124.008 43.0701L124.5 43.2158L124.98 43.358L125.485 43.4939L125.971 43.6258L126.483 43.755L126.976 43.8775L127.518 43.9995L127.991 44.1055C128.181 44.1484 128.375 44.1851 128.565 44.2244L129.022 44.3174C129.216 44.3567 129.413 44.3898 129.61 44.426L130.063 44.5087L130.683 44.6115L131.114 44.6839L131.77 44.7769L132.165 44.8333L132.841 44.9191L133.238 44.9656L133.941 45.038L134.319 45.0778L135.106 45.1403L135.405 45.1672L136.174 45.2137C136.285 45.2137 136.394 45.2298 136.502 45.2334C136.781 45.2499 137.067 45.2592 137.35 45.2696H137.602C137.934 45.2696 138.262 45.2763 138.587 45.2892H140.702L141.516 45.2665H141.792C142.111 45.2532 142.43 45.2367 142.748 45.2168H142.873C144.341 45.1274 145.785 44.9791 147.204 44.7733L147.349 44.7506C147.649 44.7073 147.949 44.6608 148.248 44.611L148.465 44.5717L149.279 44.4296L150.3 44.2244L150.593 44.1618L151.308 44.0031L151.62 43.9271C151.85 43.8739 152.081 43.8181 152.307 43.7581L152.635 43.6754L153.292 43.4939L153.62 43.4009L154.277 43.2096L154.605 43.1099L155.262 42.9052L155.59 42.7992L156.224 42.5811L156.536 42.4684L157.17 42.2337L157.397 42.1479H157.406L157.469 42.1215L158.125 41.86C158.214 41.8238 158.306 41.7907 158.395 41.7514L159.084 41.4568L159.294 41.3673L160.122 40.9869L160.178 40.961C160.763 40.6851 161.341 40.3938 161.911 40.0874L162.144 39.9582C162.345 39.8497 162.545 39.7401 162.743 39.6279L163.038 39.4558L163.557 39.1518L163.885 38.9533L164.361 38.6556L164.69 38.4405L165.14 38.1428L165.468 37.9117C165.613 37.8125 165.757 37.7132 165.898 37.6109L166.226 37.3689L166.637 37.0619L166.965 36.8102L167.169 36.6515C164.835 38.9507 162.174 40.8921 159.271 42.4125ZM167.366 36.0032L167.038 36.2679L166.617 36.5987L166.289 36.8531L165.855 37.1839L165.527 37.4289L165.067 37.7597L164.739 37.9872L164.236 38.318L163.928 38.5196C163.696 38.6652 163.461 38.8075 163.225 38.9466L162.864 39.1616L162.27 39.4925L161.875 39.7044L161.406 39.9551L160.973 40.1769L160.529 40.4017L160.066 40.6199C159.922 40.6897 159.781 40.7589 159.633 40.8251L159.153 41.0401L158.727 41.2283L158.221 41.4402L157.803 41.6124L157.278 41.8207L156.684 42.045H156.674L156.319 42.1774L155.925 42.3169L155.347 42.5118L154.979 42.6338L154.362 42.8292L154.034 42.9248L153.357 43.1233L153.147 43.1797C151.959 43.5105 150.74 43.7948 149.496 44.0326L149.362 44.0595C149.092 44.1122 148.826 44.1582 148.557 44.2047L148.311 44.2476L147.546 44.3701L147.246 44.413C147 44.4492 146.751 44.4854 146.501 44.5154L146.173 44.5588L145.437 44.6446L145.089 44.6808L144.36 44.7506L143.995 44.7837L143.273 44.8364L142.889 44.8628L142.176 44.9026L141.77 44.9191L141.07 44.9455H138.833C138.459 44.9455 138.084 44.9455 137.707 44.9191C137.329 44.8927 136.981 44.8927 136.623 44.8762L136.232 44.8498L135.543 44.8064L135.093 44.7702C134.886 44.7537 134.676 44.7402 134.469 44.7206L133.993 44.671L133.405 44.6115L132.916 44.5521C132.725 44.5288 132.538 44.5092 132.351 44.4823L131.849 44.413C131.668 44.3867 131.484 44.3634 131.303 44.3339C131.137 44.3066 130.971 44.28 130.805 44.2543C130.626 44.2272 130.447 44.1974 130.269 44.1649C130.101 44.1336 129.932 44.104 129.763 44.076L129.245 43.9799L128.742 43.8775L128.23 43.7715L127.728 43.6588L127.229 43.5467L126.726 43.4242L126.24 43.3022L125.744 43.1698L125.265 43.0406L124.772 42.8985C124.618 42.8519 124.46 42.809 124.306 42.7594L123.82 42.6105L123.36 42.4622L122.881 42.3035L122.431 42.1479L121.962 41.9794L121.518 41.814L121.058 41.6382L120.622 41.4666L119.745 41.0996L119.252 40.9078L118.832 40.7191L118.402 40.5175L117.995 40.3226L117.574 40.1107L117.177 39.9091L116.77 39.691C116.638 39.6212 116.507 39.5514 116.379 39.479L115.969 39.2542L115.591 39.036L115.207 38.8013C115.083 38.7283 114.96 38.6534 114.839 38.5765L114.468 38.3351C114.347 38.2585 114.228 38.1801 114.11 38.0999L113.749 37.8554L113.421 37.614L113.073 37.3591L112.744 37.111C112.629 37.0252 112.521 36.9358 112.416 36.85L112.087 36.5956L111.759 36.3274C111.654 36.2415 111.552 36.1521 111.454 36.0663L111.145 35.7918L110.981 35.6398L110.951 35.6135L110.853 35.5241L110.56 35.2429L110.281 34.9684L110.002 34.6804L109.881 34.5548H116.208C116.353 34.6908 116.504 34.8293 116.655 34.9616L116.773 35.0645L117.18 35.4114L117.308 35.5173L117.476 35.6497C117.558 35.7189 117.64 35.782 117.722 35.8482L117.867 35.9567L118.044 36.0927L118.284 36.2746L118.438 36.3837L118.632 36.5227L118.865 36.6882L118.94 36.7378L118.973 36.7605L119.21 36.9192L119.463 37.0883L119.646 37.2041L119.837 37.326L120.076 37.4785L120.283 37.6005L120.477 37.7163L120.71 37.8554L120.911 37.9681L121.108 38.0802L121.357 38.2193L121.587 38.3382L121.787 38.4472L122.024 38.5698L122.7 38.9104L122.937 39.019L123.193 39.1384L123.397 39.2345C123.485 39.2774 123.574 39.3172 123.662 39.3534L124.106 39.5483L124.51 39.7173L124.608 39.7602L124.828 39.8497L125.137 39.9716L125.37 40.0611L125.564 40.1371L125.872 40.2498L126.313 40.4084C126.434 40.455 126.555 40.4943 126.677 40.5377L127.071 40.6695L127.517 40.8116L127.846 40.9176L128.352 41.0665L128.45 41.096L128.631 41.1492L129.156 41.2944L129.222 41.311L129.425 41.3679L129.98 41.5095L130.233 41.5726L130.808 41.708L131.048 41.7643L131.648 41.8936L131.871 41.9427L132.706 42.105L133.362 42.2172L133.556 42.2533L134.213 42.3562L134.39 42.3862L135.09 42.4818L135.25 42.5051L135.97 42.5909H136.117L136.863 42.6669H136.991L137.756 42.7299H137.871L138.659 42.7827H138.754C139.023 42.7827 139.296 42.8126 139.568 42.8225H139.644L140.498 42.8488H142.347L143.253 42.8292C143.555 42.8292 143.86 42.809 144.166 42.793C144.686 42.7673 145.206 42.734 145.726 42.6932C145.89 42.6932 146.054 42.6674 146.218 42.6503L146.684 42.6074C146.888 42.5878 147.088 42.5712 147.289 42.548L147.945 42.4684L148.415 42.4089L148.845 42.3562C149.121 42.3164 149.397 42.2735 149.672 42.227L150.064 42.1675L150.411 42.1117C150.721 42.0602 151.029 42.0038 151.337 41.9427L151.666 41.8765L151.968 41.8207C152.329 41.7478 152.691 41.6651 153.051 41.5855L153.183 41.556H153.189L153.242 41.5426L153.531 41.48C153.902 41.3906 154.273 41.2945 154.644 41.1988L154.838 41.1492L155.087 41.0861C155.465 40.9838 155.843 40.8742 156.217 40.7553L156.637 40.6364C157.018 40.5175 157.396 40.395 157.777 40.2694L157.941 40.2167L158.178 40.1371C158.559 40.0078 158.939 39.8693 159.317 39.7302L159.465 39.6744L159.705 39.5881C160.085 39.4428 160.463 39.2903 160.84 39.1384L160.985 39.0789L161.221 38.9828C161.596 38.8277 161.967 38.6519 162.341 38.4938L162.486 38.4307L162.719 38.3247C163.088 38.153 163.454 37.9767 163.819 37.7959L163.967 37.7261L164.2 37.6109C164.561 37.4289 164.919 37.2371 165.277 37.0454L165.428 36.9657L165.661 36.8401C166.013 36.6453 166.36 36.4431 166.708 36.2415L166.856 36.1521C166.938 36.1056 167.021 36.0596 167.099 36.01L167.427 35.8016C167.362 35.858 167.332 35.8911 167.264 35.9474L167.366 36.0032ZM166.949 35.6993C166.476 35.9738 166.001 36.245 165.524 36.5129L165.297 36.6349L165.143 36.7176C164.788 36.9063 164.433 37.0981 164.076 37.2764L163.846 37.3891L163.698 37.4615C163.396 37.6109 163.002 37.7923 162.608 37.9846L162.378 38.087L162.23 38.1531C161.862 38.3185 161.491 38.484 161.12 38.639L160.743 38.791C160.369 38.9448 159.994 39.0937 159.616 39.2376L159.383 39.3234L159.232 39.3803C158.854 39.5188 158.48 39.6543 158.099 39.7835L157.873 39.8595L157.702 39.9122C157.327 40.0384 156.95 40.1597 156.572 40.2761L156.346 40.3423L156.159 40.3986C155.784 40.5072 155.41 40.6168 155.035 40.7295L154.792 40.7884L154.592 40.8416C154.224 40.9342 153.86 41.0298 153.492 41.1156L153.209 41.1787L153.013 41.2221C152.728 41.288 152.442 41.3507 152.155 41.4102H152.152C152.084 41.4237 152.011 41.4433 151.942 41.4568L151.647 41.5131L151.318 41.5793L150.402 41.7478L149.683 41.8636L148.862 41.9892L148.442 42.0419L147.966 42.0983C147.747 42.1289 147.529 42.1565 147.309 42.181L146.711 42.2373L146.241 42.2802C146.081 42.2802 145.913 42.3133 145.755 42.3231C145.257 42.3629 144.738 42.3955 144.206 42.4224L143.286 42.4586L142.403 42.4787H140.548L139.72 42.4518H139.615L138.808 42.4125H138.719L137.93 42.3593H137.819C137.563 42.3593 137.31 42.32 137.057 42.2968H136.929L136.193 42.2239L136.046 42.2042C135.809 42.1774 135.57 42.151 135.33 42.1179L135.176 42.0983L134.483 42.0021L134.306 41.9763L133.649 41.8698L133.455 41.8367L132.798 41.7214L132.595 41.6852L131.971 41.5627L131.751 41.5131L131.153 41.387L130.917 41.3312L130.345 41.1988L130.096 41.1358L129.547 40.9936L129.347 40.9373L129.271 40.9176L128.76 40.7755L128.582 40.7258L128.484 40.6959L127.981 40.547L127.652 40.4415L127.216 40.3025L126.822 40.167L126.46 40.0445L126.027 39.8858L125.722 39.7731L125.531 39.7008L125.298 39.6077L124.993 39.4888L124.779 39.3999L124.678 39.3565L124.281 39.1911L123.84 38.9998L123.577 38.884L123.377 38.7879L123.121 38.669L122.891 38.5599L122.471 38.3516L122.221 38.226L121.992 38.1035L121.785 37.9944L121.565 37.8786L121.322 37.7396L121.121 37.6274L120.925 37.5178L120.698 37.3824L120.501 37.2666L120.3 37.1446L120.064 36.9988L119.893 36.8898L119.87 36.8732L119.86 36.8665L119.693 36.7605L119.443 36.5951L119.256 36.4695L119.105 36.3672L118.875 36.2054L118.534 35.9603L118.297 35.782L118.12 35.6461L117.979 35.5406L117.739 35.3488L117.568 35.2098L117.447 35.1105C117.355 35.0351 117.264 34.9579 117.174 34.8789L117.043 34.7668L116.931 34.6706L116.793 34.545L123.216 34.5316C123.322 34.634 123.432 34.7323 123.545 34.8262L123.636 34.9058C123.735 34.9916 123.834 35.0774 123.939 35.1632L124.103 35.2956C124.185 35.3617 124.264 35.4279 124.349 35.491L124.447 35.567L124.536 35.6331L124.779 35.8151L124.976 35.9505L125.23 36.1289L125.466 36.2813L125.698 36.4333L125.824 36.5093L125.945 36.5853L126.185 36.7274L126.454 36.883L126.687 37.0154L126.95 37.1575L127.209 37.293L127.518 37.4486L127.744 37.5612L127.991 37.6765L128.3 37.8192L128.582 37.9412L128.868 38.0668L129.065 38.1464L129.127 38.1697L129.173 38.1862L129.216 38.2027L129.459 38.302L129.761 38.4173L130.06 38.53L130.388 38.6488L130.667 38.745L130.907 38.8241L131.032 38.8639L131.301 38.9497L131.534 39.0226L131.705 39.0722L131.951 39.1451L132.279 39.2381H132.305L132.614 39.3234L132.985 39.4196L133.29 39.4956L133.652 39.5814L133.981 39.6579L134.309 39.7271H134.358L134.686 39.7964L135.084 39.8724H135.146L135.405 39.922L135.757 39.9815L136.138 40.0482L136.568 40.1138L136.896 40.1603L137.317 40.243L137.645 40.2828L138.108 40.3356L138.417 40.3686L138.896 40.4152L139.201 40.441L139.697 40.4813L139.996 40.501C140.154 40.501 140.324 40.5206 140.469 40.5304L140.797 40.5506L141.319 40.5702H143.555C144.271 40.5635 144.994 40.5408 145.719 40.5041H145.73C152.139 40.1836 158.986 38.6752 165.668 36.0896C166.393 35.8064 167.11 35.5042 167.819 35.1834C167.648 35.2894 167.123 35.5933 166.952 35.6957L166.949 35.6993Z" fill="white"/>
<path d="M25.0276 18.0014L34.2759 21.3299V23.4703L26.8773 20.7358V46.0421L34.2961 48.7464V50.8763L25.0073 47.5587L25.0281 18.0014H25.0276ZM79.4573 42.2434L70.2199 38.9144V36.774L77.6081 39.5085V14.2017L70.1888 11.4979V9.36743L79.4885 12.6856L79.4573 42.2434Z" fill="white"/>
<path d="M30.3089 29.3179L31.4089 28.9392L31.3467 31.326L31.8811 31.1412L31.9532 28.2428L29.7849 28.99L29.7237 31.8889L30.2477 31.7047L30.3089 29.3179ZM32.1385 31.0489C32.18 31.0489 32.2926 31.0489 32.4161 31.0079C32.6625 30.9161 33.1046 30.6291 33.156 29.6355L33.238 28.3041L33.9571 28.0586L33.8954 30.4449L34.4298 30.2602L34.5019 27.3722L32.7445 27.9767L32.6522 29.6459C32.6106 30.3936 32.4571 30.5165 32.3133 30.5679C32.2718 30.5783 32.2002 30.5985 32.1489 30.5985H32.1073L32.097 31.0593H32.1385C32.1281 31.0489 32.1385 31.0489 32.1385 31.0489ZM35.3856 29.1851L36.3517 28.8572L36.5779 29.5229L37.1326 29.3283L36.1872 26.7885L35.6528 26.9727L34.5533 30.2197L35.1085 30.0252L35.3856 29.1851ZM35.5397 28.6834L35.9096 27.5465L36.2178 28.4478L35.5397 28.6834ZM37.5331 29.1851L38.0572 29.0009L38.1189 26.6141L38.9408 26.3381L38.9512 25.826L36.7829 26.5731L36.7725 27.0858L37.5949 26.7988L37.5326 29.1851H37.5331ZM39.1463 27.9461C39.3419 28.0893 39.6392 28.1199 39.9583 28.0275L39.948 28.3451L40.4824 28.1609L40.4928 27.8433C41.0474 27.6285 41.6125 27.0858 41.6332 26.3277C41.6436 26.0102 41.5507 25.7642 41.366 25.621C41.1709 25.4773 40.883 25.4467 40.554 25.5286L40.5644 25.2521L40.0196 25.457L40.0092 25.7336C39.4545 25.9588 38.8895 26.5119 38.8692 27.2596C38.8692 27.5771 38.9616 27.8132 39.1463 27.9461ZM39.4031 27.1055C39.4135 26.7163 39.6086 26.4403 39.9993 26.2457L39.9682 27.5258C39.7529 27.5673 39.6086 27.5569 39.5168 27.4848C39.4338 27.4132 39.4031 27.2897 39.4031 27.1055ZM40.9649 26.1025C41.0578 26.1741 41.0988 26.3069 41.0884 26.4917C41.0781 26.8601 40.8933 27.1262 40.4922 27.3312L40.5234 26.0511C40.7289 26.02 40.8726 26.0304 40.9655 26.1025H40.9649ZM42.1775 27.2798C42.3114 27.3722 42.4655 27.4236 42.6404 27.4236C42.7633 27.4236 42.9071 27.4028 43.0513 27.3514C43.8011 27.0853 44.3251 26.3173 44.3459 25.4161C44.3563 24.9449 44.2224 24.5864 43.9656 24.4022C43.7398 24.2382 43.4415 24.2175 43.1027 24.3306C42.342 24.5968 41.818 25.3751 41.7977 26.266C41.7873 26.7267 41.9311 27.0956 42.1775 27.2798ZM42.3316 26.102C42.342 25.4773 42.6502 24.9761 43.1125 24.8219C43.2978 24.7607 43.4623 24.7706 43.5852 24.8531C43.7497 24.9652 43.8322 25.2215 43.8218 25.5691C43.8115 26.1944 43.5032 26.7065 43.0513 26.8601C42.8557 26.9213 42.7016 26.9213 42.5786 26.8289C42.4141 26.7065 42.3218 26.4496 42.3316 26.102ZM45.2191 25.457L45.9181 25.2111C46.4525 25.0269 46.7809 24.5661 46.8017 24.0125C46.8121 23.7469 46.7399 23.5523 46.5962 23.4392C46.4317 23.3266 46.1853 23.3167 45.8771 23.4288L44.7366 23.8283L44.6639 26.7169L45.1984 26.5321L45.2191 25.457ZM46.288 24.177C46.2776 24.4634 46.1235 24.6684 45.8153 24.7706L45.2394 24.9652L45.2601 24.1256L45.8257 23.9311C46.0104 23.8693 46.1339 23.8594 46.206 23.9207C46.2574 23.972 46.288 24.054 46.288 24.177ZM47.6132 23.736L48.24 25.4877L48.6613 25.3341L49.3602 23.1626L49.3083 25.1187L49.8122 24.9449L49.8843 22.0465L49.1854 22.2919L48.4662 24.6269L47.829 22.7532L47.1301 22.9986L47.0585 25.8867L47.5722 25.7128L47.6132 23.736ZM50.7887 23.8693L51.7543 23.5414L51.9805 24.2071L52.5357 24.0125L51.5898 21.4727L51.0554 21.6569L49.9564 24.9039L50.5116 24.7088L50.7887 23.8693ZM50.9324 23.3676L51.3023 22.2307L51.6106 23.132L50.9324 23.3676ZM29.9706 35.6165C29.857 35.658 29.775 35.6678 29.7029 35.6476L29.6515 35.6269L29.6412 36.1286H29.7543C29.8264 36.1286 29.9084 36.1182 29.9909 36.0876C30.3193 35.975 30.5461 35.6985 30.7614 35.1765L31.851 32.5131L31.2647 32.7181L30.6177 34.3774L30.0625 33.1384L29.4871 33.3329L30.3401 35.0737C30.2171 35.3809 30.1247 35.5656 29.9706 35.6165ZM32.4467 35.1863L32.4778 33.9265L33.5773 33.5374L33.5462 34.8076L34.0806 34.6234L34.1527 31.725L33.6183 31.9092L33.5872 33.0253L32.4877 33.4144L32.5188 32.2988L31.9844 32.4727L31.9226 35.3711L32.4467 35.1863ZM36.2178 31.8786L36.1659 33.9058L36.69 33.7216L36.7626 30.8232L36.1763 31.0281L35.0877 33.4144L35.1287 31.3861L34.6047 31.5709L34.5325 34.4693L35.1287 34.2643L36.2178 31.8775V31.8786ZM39.3725 31.9398C39.3829 31.7452 39.331 31.5921 39.2283 31.4993C39.1579 31.4337 39.0673 31.3941 38.9714 31.3867C39.1665 31.2025 39.29 30.9467 39.29 30.7111C39.3004 30.5061 39.2387 30.3526 39.1152 30.2602C38.9611 30.1476 38.725 30.1476 38.4272 30.2498L37.2249 30.6597L37.1523 33.5581L38.5195 33.087C39.0124 32.9127 39.3622 32.4519 39.372 31.9403L39.3725 31.9398ZM37.7075 31.6632L37.7282 30.9669L38.3343 30.762C38.4785 30.7111 38.6223 30.6701 38.7042 30.7313C38.7457 30.7625 38.7764 30.8341 38.7665 30.9467C38.7561 31.2025 38.6119 31.3566 38.2731 31.4686L37.7075 31.6632ZM37.6764 32.9028L37.6971 32.1037L38.3447 31.8786C38.4884 31.8272 38.6736 31.7758 38.766 31.8474C38.8179 31.8889 38.8485 31.9704 38.8485 32.0934C38.8381 32.3803 38.6736 32.5645 38.3037 32.6875L37.6764 32.9028ZM41.6846 29.6147L41.695 29.1234L39.7632 29.7891L39.6911 32.6771L41.6436 32.0015L41.6644 31.4993L40.2359 31.9911L40.2463 31.2538L41.5507 30.8029L41.5715 30.3219L40.2665 30.7723L40.2769 30.1066L41.6846 29.6147ZM43.2049 28.6014L42.0644 29.0009L41.9923 31.8889L42.5267 31.7047L42.5475 30.6187L43.2464 30.3733C43.7808 30.1886 44.1093 29.7278 44.13 29.1747C44.1404 28.9086 44.0678 28.714 43.9246 28.6014C43.7601 28.4992 43.5136 28.4992 43.2049 28.6014ZM43.606 29.3486C43.5956 29.6355 43.4415 29.8404 43.1333 29.9432L42.5573 30.1378L42.5781 29.2977L43.1437 29.1031C43.3284 29.0419 43.4519 29.0315 43.5235 29.0928C43.5857 29.1446 43.606 29.2256 43.606 29.3486ZM45.5989 28.2019C45.7639 28.1406 45.8973 28.1505 46 28.2122C46.0924 28.2636 46.1438 28.3658 46.1645 28.4992L46.1749 28.5396L46.6989 28.3554V28.3243C46.6678 28.0483 46.5547 27.8433 46.3804 27.7307C46.1853 27.6078 45.9077 27.5979 45.5995 27.6996C44.8596 27.9559 44.3355 28.7446 44.3148 29.6256C44.3044 30.117 44.4279 30.4652 44.6847 30.6597C44.8082 30.7521 44.9623 30.7931 45.1268 30.7931C45.2498 30.7931 45.3836 30.7723 45.5273 30.7215C46.1749 30.4963 46.6372 29.8814 46.6989 29.1649L46.7093 29.1031L46.1749 29.2873V29.3081C46.1334 29.6355 45.9793 30.0656 45.5273 30.2192C45.3426 30.281 45.1984 30.2711 45.0858 30.1886C44.9317 30.076 44.8388 29.8098 44.8492 29.4617C44.8492 29.0108 45.0645 28.3964 45.5989 28.2019ZM48.6613 27.5771L48.6203 29.5945L49.1444 29.4207L49.2165 26.5223L48.6203 26.7267L47.5312 29.1135L47.5831 27.0853L47.059 27.27L46.9864 30.1684L47.5727 29.9634L48.6618 27.5766L48.6613 27.5771ZM50.7062 28.8779L50.7684 26.4911L51.5903 26.2047L51.6007 25.6926L49.4318 26.4502L49.4215 26.9524L50.2439 26.6759L50.1821 29.0621L50.7062 28.8774V28.8779ZM53.7379 25.457L53.7483 24.9553L51.8165 25.621L51.7439 28.5194L53.6969 27.8433L53.7073 27.3416L52.2892 27.8335L52.2996 27.0858L53.604 26.6349L53.6248 26.1534L52.3095 26.6043L52.3302 25.9386L53.7379 25.457ZM54.6112 27.5258L55.1352 27.3411L55.197 24.9548L56.0189 24.6782L56.0292 24.1666L53.8609 24.9138L53.8401 25.4259L54.6625 25.1395L54.6112 27.5258ZM56.3992 26.6245C56.5222 26.7169 56.6763 26.7578 56.8407 26.7578C56.9642 26.7578 57.0976 26.7371 57.2418 26.6862C57.8889 26.4611 58.3512 25.8566 58.4129 25.1296V25.0679L57.8785 25.2521V25.2728C57.8375 25.6008 57.6834 26.0304 57.2315 26.1845C57.0462 26.2457 56.9025 26.2353 56.779 26.1534C56.6249 26.0408 56.5325 25.7746 56.5429 25.4264C56.5533 24.9553 56.7588 24.3306 57.3031 24.1464C57.4675 24.0846 57.6014 24.0945 57.7041 24.1568C57.7965 24.2076 57.8479 24.3098 57.8681 24.4432L57.8785 24.4842L58.4025 24.3V24.2688C58.3714 23.9928 58.2588 23.7878 58.084 23.6753C57.8889 23.5523 57.6118 23.5419 57.3031 23.6441C56.5631 23.9004 56.0391 24.6891 56.0189 25.5696C56.0085 26.0818 56.1423 26.4403 56.3992 26.6245ZM59.2763 24.9657L59.6151 24.4842L60.4064 25.5183L61.0436 25.3035L59.9747 23.972L61.0851 22.4154L60.396 22.6609L59.2862 24.2382L59.3173 23.0293L58.7932 23.214L58.7211 26.102L59.2452 25.9282L59.2763 24.9652V24.9657Z" fill="white"/>
<path d="M61.4038 24.8728C61.5372 24.9652 61.6913 25.0166 61.8656 25.0166C61.9891 25.0166 62.1333 24.9958 62.2771 24.945C63.0274 24.6783 63.5514 23.9103 63.5716 23.0096C63.582 22.5379 63.4487 22.1794 63.1918 21.9952C62.9656 21.8312 62.6678 21.811 62.3284 21.9236C61.5683 22.1898 61.0442 22.9681 61.0235 23.859C61.0131 24.3301 61.1465 24.6892 61.4038 24.8728ZM61.5579 23.695C61.5683 23.0703 61.8765 22.5691 62.3388 22.4046C62.5235 22.3434 62.688 22.3537 62.811 22.4357C62.976 22.5483 63.058 22.8041 63.0476 23.1528C63.0372 23.7775 62.729 24.2891 62.2771 24.4427C62.082 24.5148 61.9279 24.5044 61.8044 24.4121C61.6399 24.3099 61.5475 24.0437 61.5579 23.6955V23.695ZM64.4651 21.7596L65.7602 21.3093L65.7706 20.8075L63.9515 21.4322L63.8798 24.3202L64.4039 24.1464L64.4651 21.7596ZM66.1919 23.2244C66.3253 23.3162 66.4794 23.3676 66.6537 23.3676C66.7772 23.3676 66.9215 23.3468 67.0652 23.296C67.8155 23.0397 68.3395 22.2614 68.3598 21.3606C68.3701 20.889 68.2368 20.5304 67.9794 20.3462C67.7537 20.1823 67.4554 20.162 67.1165 20.2746C66.3559 20.5408 65.8324 21.3191 65.8116 22.21C65.8012 22.6817 65.9346 23.0402 66.1919 23.2244ZM66.346 22.0466C66.3564 21.4218 66.6646 20.9201 67.1269 20.7665C67.1989 20.7388 67.2755 20.7247 67.3526 20.725C67.4455 20.725 67.5275 20.7458 67.5996 20.7971C67.7641 20.9097 67.8461 21.1655 67.8357 21.5137C67.8253 22.1384 67.5171 22.6505 67.0652 22.8046C66.8701 22.8659 66.716 22.8659 66.5925 22.7735C66.4176 22.6505 66.3357 22.3947 66.346 22.0466ZM30.2992 40.1737L30.8233 39.9895L30.8845 37.6033L31.7069 37.3267L31.7173 36.8146L29.5692 37.5524L29.5484 37.5628L29.5386 38.0744L30.3605 37.788L30.2992 40.1737ZM35.7349 35.4323L35.1185 36.5894L34.584 35.8215L33.9676 36.0368L34.7999 37.1223L33.8234 38.9451L33.8338 38.4537L32.4058 38.9451L32.4266 38.1979L33.731 37.7465L33.7414 37.2655L32.4365 37.7164L32.4572 37.0507L33.8649 36.5692L33.8753 36.0674L31.9326 36.7331L31.8714 39.6315L33.8135 38.9554V38.9658L34.4403 38.7406L35.0977 37.4912L35.6939 38.3105L36.3207 38.0951L35.4267 36.9277L36.3513 35.2175L35.7349 35.4323ZM38.6432 37.2862L38.7148 34.3982L38.1803 34.5824L38.1596 35.6985L37.0502 36.0773L37.0814 34.9617L36.5469 35.1454L36.4847 38.0339L37.0087 37.8492L37.0398 36.5894L38.1398 36.2106L38.1087 37.4704L38.6432 37.2862ZM39.3727 36.7331C39.506 36.8255 39.6601 36.8763 39.8345 36.8763C39.958 36.8763 40.1022 36.8556 40.2459 36.8047C41.0061 36.5489 41.5203 35.7701 41.5405 34.8693C41.5509 34.3982 41.4175 34.0392 41.1602 33.855C40.9345 33.6915 40.6361 33.6708 40.2973 33.7834C39.5372 34.0495 39.0126 34.8284 38.9923 35.7187C38.982 36.1904 39.1158 36.5489 39.3727 36.7331ZM39.5268 35.5553C39.5372 34.9306 39.8454 34.4288 40.3077 34.2752C40.3897 34.2441 40.4618 34.2337 40.5339 34.2337C40.6217 34.2308 40.7081 34.256 40.7804 34.3059C40.9448 34.4185 41.0268 34.6743 41.0165 35.0229C41.0061 35.6476 40.6979 36.1593 40.2459 36.3134C40.0508 36.3746 39.8967 36.3642 39.7732 36.2822C39.5984 36.1598 39.5164 35.9035 39.5268 35.5553ZM42.6815 33.527L43.4007 33.2816L43.3389 35.6679L43.8733 35.4837L43.9455 32.5957L42.1881 33.1996L42.0957 34.8688C42.0542 35.6269 41.9006 35.7395 41.7564 35.7909C41.7154 35.8012 41.6438 35.822 41.5919 35.822H41.5509L41.5405 36.2822H41.5924C41.6334 36.2822 41.7465 36.2822 41.8591 36.2412C42.1061 36.1598 42.5373 35.8625 42.599 34.8688L42.6815 33.527ZM45.4761 34.9918C46.2363 34.7355 46.7505 33.9572 46.7707 33.0564C46.7811 32.5848 46.6477 32.2262 46.3909 32.042C46.1647 31.8781 45.8668 31.8578 45.5275 31.9704C44.7673 32.2268 44.2433 33.0149 44.2225 33.9058C44.2122 34.3775 44.346 34.736 44.6029 34.9202C44.7362 35.012 44.8903 35.0634 45.0647 35.0634C45.1882 35.0738 45.3324 35.0426 45.4761 34.9918ZM44.757 33.7527C44.7673 33.128 45.0756 32.6258 45.5379 32.4722C45.7226 32.411 45.8871 32.4213 46.01 32.5033C46.175 32.6159 46.257 32.8717 46.2466 33.2199C46.2363 33.8446 45.9281 34.3567 45.4761 34.5103C45.281 34.5819 45.1269 34.572 45.004 34.4797C44.839 34.3567 44.7466 34.1009 44.757 33.7527ZM47.6652 31.807L48.9598 31.3561L48.9702 30.8543L47.151 31.4791L47.0794 34.3775L47.6139 34.1933L47.6652 31.8065V31.807ZM50.7271 33.1176L51.2615 32.9334L51.3331 30.0351L50.7374 30.24L49.6478 32.6263L49.6997 30.5985L49.1653 30.7827L49.0931 33.6811L49.6893 33.4762L50.7784 31.0899L50.7271 33.1176ZM53.2446 31.0287L53.2135 32.247L53.7479 32.0628L53.82 29.1748L53.296 29.359L53.2648 30.516C53.0784 30.616 52.8862 30.705 52.6894 30.7827C52.5151 30.844 52.3916 30.844 52.3195 30.7931C52.2271 30.721 52.2271 30.5576 52.2271 30.4346L52.2479 29.7279L51.7134 29.9121L51.6927 30.7418C51.6927 30.926 51.7238 31.1823 51.9085 31.3151C52.073 31.4277 52.3096 31.4381 52.6277 31.3255C52.8372 31.2349 53.0431 31.1359 53.2446 31.0287ZM56.1835 28.8468L56.1939 28.3555L54.2616 29.0212L54.19 31.9196L56.1425 31.2435L56.1529 30.7314L54.7244 31.2331L54.7452 30.486L56.0496 30.0345L56.06 29.5535L54.755 30.0044L54.7758 29.3387L56.1835 28.8468ZM57.6835 27.7816C56.9436 28.0379 56.4196 28.8266 56.3993 29.7071C56.389 30.1985 56.5124 30.557 56.7693 30.7418C56.8923 30.8336 57.0469 30.8746 57.2108 30.8746C57.3343 30.8746 57.4677 30.8538 57.6119 30.803C58.259 30.5778 58.7218 29.9733 58.783 29.2464V29.1841L58.2486 29.3688V29.3896C58.2076 29.7165 58.0535 30.1471 57.6015 30.3007C57.4163 30.3619 57.2726 30.3521 57.1496 30.2696C56.995 30.1575 56.9026 29.8908 56.913 29.5432C56.9234 29.0715 57.1289 28.4572 57.6732 28.2626C57.8376 28.2014 57.9715 28.2112 58.0742 28.273C58.1666 28.3238 58.218 28.4266 58.2387 28.5594L58.2491 28.6009L58.7731 28.4162V28.3851C58.742 28.109 58.6289 27.9041 58.4546 27.7915C58.2693 27.6789 57.9917 27.669 57.6835 27.7816ZM59.153 27.3307L59.0814 30.2193L59.6054 30.0449L59.6262 29.0824L59.9748 28.6009L60.7661 29.6454L61.4033 29.4202L60.3344 28.0888L61.4448 26.5426L60.7563 26.7781L59.6459 28.3555L59.677 27.1465L59.153 27.3307Z" fill="white"/>
<path d="M62.7083 26.0407C61.9482 26.3069 61.4241 27.0852 61.4034 27.9761C61.393 28.4473 61.5269 28.8063 61.7837 28.99C61.9176 29.0824 62.0717 29.1337 62.246 29.1337C62.3695 29.1337 62.5132 29.113 62.6569 29.0621C63.4072 28.7954 63.9313 28.0275 63.952 27.1267C63.9624 26.6551 63.8285 26.2965 63.5717 26.1123C63.3455 25.9484 63.0477 25.9178 62.7083 26.0407ZM63.4176 27.2798C63.4072 27.9045 63.099 28.4166 62.6466 28.5702C62.4515 28.632 62.2974 28.632 62.1744 28.5396C62.0099 28.427 61.9274 28.1608 61.9378 27.8127C61.9482 27.188 62.2564 26.6857 62.7187 26.5321C62.9039 26.4709 63.0684 26.4813 63.1914 26.5632C63.3455 26.6758 63.428 26.9316 63.4176 27.2798ZM64.2493 28.4369L64.7734 28.2532L64.8357 25.8664L66.1302 25.4264L66.1406 24.9143L64.3215 25.5494L64.2493 28.4369ZM68.7303 25.4669C68.7402 24.9957 68.6063 24.6377 68.3494 24.453C68.1237 24.2896 67.8254 24.2688 67.4866 24.3814C66.7259 24.6476 66.2018 25.4264 66.1816 26.3168C66.1712 26.7884 66.3046 27.147 66.5619 27.3312C66.6953 27.4235 66.8494 27.4744 67.0237 27.4744C67.1472 27.4744 67.2915 27.4536 67.4352 27.4028C68.185 27.147 68.6992 26.3687 68.7298 25.4674L68.7303 25.4669ZM68.1959 25.621C68.1855 26.2457 67.8768 26.7573 67.4248 26.9114C67.2297 26.9726 67.0756 26.9726 66.9527 26.8803C66.7877 26.7677 66.7057 26.5119 66.7161 26.1533C66.7264 25.5286 67.0346 25.0269 67.4969 24.8629C67.569 24.8354 67.6455 24.8215 67.7226 24.8219C67.8155 24.8219 67.8975 24.8427 67.9696 24.8935C68.1237 25.0269 68.2062 25.2827 68.1959 25.621ZM29.7239 44.6188L30.2479 44.4346L30.3092 42.0478L31.4092 41.669L31.3469 44.0558L31.8813 43.8711L31.9535 40.9727L29.7851 41.7204L29.7239 44.6188ZM34.2655 40.4404C34.1016 40.3278 33.8546 40.3174 33.5464 40.43L32.4059 40.8295L32.3338 43.7175L32.8682 43.5333L32.8993 42.4479L33.5977 42.2019C34.1322 42.0177 34.4611 41.557 34.4814 41.0033C34.4814 40.7372 34.4196 40.5426 34.2655 40.4404ZM33.9573 41.1673C33.9469 41.4542 33.7928 41.6592 33.4748 41.7614L32.8988 41.9664L32.9196 41.1268L33.4852 40.9317C33.6699 40.8705 33.7928 40.8601 33.865 40.9214C33.9371 40.9629 33.9677 41.0448 33.9573 41.1673ZM34.7387 42.8879L36.6907 42.2123L36.7115 41.7002L35.283 42.1915L35.2934 41.4444L36.5984 40.993L36.6191 40.512L35.3038 40.9727L35.3245 40.307L36.7317 39.8156L36.7421 39.3238L34.8103 39.9895L34.7387 42.8879ZM39.1777 38.4842L37.4202 39.0887L37.4099 39.5495C37.3891 40.2966 37.2355 41.1372 37.0399 41.5876L36.7831 41.6799L36.7519 42.8884L37.2661 42.714L37.2869 42.0177L38.8902 41.4646L38.8694 42.1609L39.3831 41.9767L39.4143 40.7678L39.1263 40.8705L39.1777 38.4842ZM38.6328 39.1707L38.5913 41.0448L37.6159 41.3826C37.7798 40.9323 37.9137 40.184 37.9235 39.5598V39.4161L38.6328 39.1707ZM39.6192 41.1984L40.1433 41.0142L40.2055 38.6274L41.3045 38.2487L41.2531 40.6355L41.7772 40.4507L41.8493 37.5523L39.6908 38.3L39.6192 41.1984ZM44.1816 37.0096C44.0171 36.897 43.7805 36.8866 43.4619 36.9992L42.3215 37.3988L42.2499 40.2868L42.7843 40.1026L42.8149 39.0166L43.5133 38.7712C44.0477 38.587 44.3767 38.1257 44.3975 37.5726C44.3975 37.3064 44.3352 37.1222 44.1816 37.0096ZM43.8734 37.7464C43.863 38.0339 43.7089 38.2383 43.4007 38.341L42.8248 38.546L42.8455 37.7059L43.4111 37.5114C43.5958 37.4501 43.7193 37.4398 43.7909 37.501C43.8527 37.5321 43.8833 37.6131 43.8734 37.7464ZM45.1986 38.4023L45.2401 36.3849L44.716 36.5691L44.6434 39.4571L45.2401 39.2527L46.3188 36.8763L46.2773 38.8941L46.8014 38.7099L46.874 35.8214L46.2773 36.0264L45.1986 38.4023ZM48.9287 36.2209L47.8293 36.5997L47.85 35.4836L47.326 35.6678L47.2538 38.5558L47.7779 38.3716L47.809 37.1118L48.9085 36.7331L48.8774 37.9929L49.4118 37.8082L49.4839 34.9201L48.9495 35.1043L48.9287 36.2209ZM50.4085 36.5997L50.4599 34.5818L49.9359 34.7665L49.8632 37.6546L50.4495 37.4496L51.5386 35.0732L51.4873 37.0916L52.0217 36.9069L52.0933 34.0189L51.4977 34.2233L50.408 36.5997H50.4085ZM53.8922 35.4935L53.2551 33.6193L52.5561 33.8549L52.4845 36.7533L52.9878 36.5795L53.0397 34.5922L53.666 36.3439L54.0873 36.2002L54.7759 34.0189L54.7344 35.975L55.2382 35.8007L55.3103 32.9023L54.6114 33.1482L53.8922 35.4935ZM56.4814 32.4929L55.3819 35.7394L55.9371 35.5448L56.2038 34.7152L57.1699 34.3883L57.3961 35.054L57.9513 34.8594L57.0054 32.3196L56.4814 32.4929ZM57.0469 33.9882L56.3683 34.2238L56.7382 33.087L57.0469 33.9882ZM57.6016 32.6158L58.4235 32.3289L58.3623 34.7157L58.8863 34.531L58.9476 32.1546L59.77 31.8682L59.7803 31.356L57.6115 32.1032L57.6016 32.6158ZM59.9137 34.1828L61.8657 33.5067L61.8864 33.005L60.4476 33.4964L60.4684 32.7492L61.7733 32.2983L61.7941 31.8168L60.4787 32.2677L60.4995 31.602L61.9067 31.1205L61.917 30.6187L59.9853 31.2844L59.9137 34.1828ZM62.616 31.9501C62.5744 32.6978 62.4209 32.8208 62.2771 32.8722C62.2356 32.8825 62.164 32.9028 62.1127 32.9028H62.0711L62.0608 33.3635H62.1127C62.164 33.3635 62.2668 33.3635 62.3799 33.3225C62.6367 33.2307 63.058 32.9438 63.1198 31.9501L63.2018 30.6187L63.9209 30.3733L63.8592 32.7596L64.3936 32.5749L64.4657 29.6868L62.7083 30.2913L62.616 31.9501ZM66.757 30.199C66.6029 30.0858 66.3663 30.076 66.0581 30.1782L65.421 30.3935L65.4417 29.3179L64.9073 29.5021L64.8352 32.3907L66.0275 31.9807C66.6029 31.7862 66.9418 31.3457 66.9521 30.7723C66.9833 30.5061 66.9008 30.3115 66.757 30.199ZM66.4385 30.9461C66.4281 31.2331 66.2947 31.4276 66.0068 31.52L65.3903 31.7348L65.4111 30.8849L66.0477 30.6701C66.1712 30.6286 66.274 30.6286 66.3461 30.6805C66.4073 30.7209 66.4488 30.8232 66.4385 30.9461ZM69.038 29.8404C68.997 30.1678 68.8429 30.598 68.3904 30.7515C68.2057 30.8133 68.062 30.8034 67.9489 30.7209C67.7948 30.6083 67.7024 30.3422 67.7123 29.994C67.7227 29.5229 67.9281 28.908 68.4729 28.7134C68.6374 28.6522 68.7708 28.6626 68.8735 28.7238C68.9659 28.7752 69.0178 28.8774 69.0484 29.0107L69.0587 29.0517L69.5828 28.8675V28.8364C69.5517 28.5598 69.4386 28.3554 69.2642 28.2428C69.0691 28.1198 68.7915 28.1095 68.4833 28.2117C67.7434 28.468 67.2194 29.2567 67.1986 30.1372C67.1882 30.6291 67.3117 30.9871 67.5685 31.1718C67.692 31.2637 67.8461 31.3047 68.0106 31.3047C68.1336 31.3047 68.2675 31.2839 68.4112 31.2331C69.0587 31.0079 69.521 30.3935 69.5828 29.6765V29.6152L69.0484 29.7994L69.038 29.8404ZM69.6238 28.3964L70.4457 28.1095L70.3839 30.4963L70.908 30.3115L70.9702 27.9253L71.7921 27.6487L71.8025 27.1366L69.6336 27.8843L69.6238 28.3964ZM73.7649 27.7815C73.96 27.5973 74.0835 27.341 74.0835 27.1055C74.0835 26.9005 74.0316 26.7474 73.9086 26.6551C73.7545 26.5425 73.5179 26.5425 73.2201 26.6447L72.0178 27.0546L71.9462 29.9426L73.3124 29.4715C73.5547 29.389 73.7666 29.2355 73.9206 29.031C74.0745 28.8265 74.1635 28.5805 74.1758 28.3248C74.1758 28.1297 74.1343 27.9761 74.0321 27.8838C73.9524 27.8289 73.8608 27.7938 73.7649 27.7815ZM72.5009 28.0581L72.5217 27.3618L73.1277 27.1568C73.2714 27.1055 73.4157 27.0645 73.4977 27.1257C73.5392 27.1568 73.5693 27.2284 73.5594 27.341C73.549 27.5973 73.4053 27.7509 73.0665 27.8635L72.5009 28.0581ZM72.4698 29.2972L72.4905 28.4981L73.1381 28.2729C73.2818 28.2221 73.4665 28.1707 73.5594 28.2423C73.6108 28.2838 73.6414 28.3653 73.6414 28.4882C73.631 28.7752 73.4665 28.9594 73.0966 29.0823L72.4703 29.2972H72.4698ZM75.7994 25.7543L75.2649 25.9385L74.1654 29.1851L74.7206 28.99L74.9878 28.1608L75.9535 27.8329L76.1797 28.4986L76.7349 28.304L75.7994 25.7543ZM75.8305 27.4235L75.1518 27.6591L75.5218 26.5223L75.8305 27.4235Z" fill="white"/>
</svg>
