<svg width="50" height="50" viewBox="0 0 50 50" fill="none" xmlns="http://www.w3.org/2000/svg">
<path d="M33.3333 33.3333C33.3333 31.0312 26.8041 29.1666 18.75 29.1666M33.3333 33.3333C33.3333 35.6354 26.8041 37.5 18.75 37.5C10.6958 37.5 4.16665 35.6354 4.16665 33.3333M33.3333 33.3333V43.6187C33.3333 45.9916 26.8041 47.9166 18.75 47.9166C10.6958 47.9166 4.16665 45.9937 4.16665 43.6187V33.3333M33.3333 33.3333C41.3 33.3333 47.9166 31.277 47.9166 29.1666V8.33329M18.75 29.1666C10.6958 29.1666 4.16665 31.0312 4.16665 33.3333M18.75 29.1666C9.54581 29.1666 2.08331 27.1104 2.08331 25V14.5833M18.75 10.4166C9.54581 10.4166 2.08331 12.2812 2.08331 14.5833M2.08331 14.5833C2.08331 16.8854 9.54581 18.75 18.75 18.75C18.75 20.8604 25.5271 22.9166 33.4937 22.9166C41.4583 22.9166 47.9166 20.8604 47.9166 18.75M47.9166 8.33329C47.9166 6.03121 41.4583 4.16663 33.4937 4.16663C25.5271 4.16663 19.0708 6.03121 19.0708 8.33329M47.9166 8.33329C47.9166 10.6354 41.4583 12.5 33.4937 12.5C25.5291 12.5 19.0708 10.6354 19.0708 8.33329M19.0708 8.33329V29.5125" stroke="white" stroke-width="3"/>
</svg>
