<svg width="50" height="50" viewBox="0 0 50 50" fill="none" xmlns="http://www.w3.org/2000/svg">
<path d="M21.4583 16.0417C21.2653 16.2323 21.1121 16.4594 21.0075 16.7098C20.9029 16.9601 20.8491 17.2287 20.8491 17.5C20.8491 17.7713 20.9029 18.0399 21.0075 18.2902C21.1121 18.5406 21.2653 18.7677 21.4583 18.9583L25.4166 22.9167H6.24997C5.10414 22.9167 4.16664 23.8542 4.16664 25C4.16664 26.1458 5.10414 27.0833 6.24997 27.0833H25.4166L21.4583 31.0417C21.2653 31.2323 21.1121 31.4594 21.0075 31.7098C20.9029 31.9601 20.8491 32.2287 20.8491 32.5C20.8491 32.7713 20.9029 33.0399 21.0075 33.2902C21.1121 33.5406 21.2653 33.7677 21.4583 33.9583C22.2708 34.7708 23.5625 34.7708 24.375 33.9583L31.8541 26.4792C32.0473 26.2864 32.2005 26.0575 32.305 25.8055C32.4096 25.5534 32.4634 25.2833 32.4634 25.0104C32.4634 24.7376 32.4096 24.4674 32.305 24.2154C32.2005 23.9633 32.0473 23.7344 31.8541 23.5417L24.375 16.0417C24.1843 15.8487 23.9572 15.6954 23.7069 15.5909C23.4565 15.4863 23.1879 15.4324 22.9166 15.4324C22.6453 15.4324 22.3767 15.4863 22.1264 15.5909C21.8761 15.6954 21.649 15.8487 21.4583 16.0417ZM41.6666 39.5833H27.0833C25.9375 39.5833 25 40.5208 25 41.6667C25 42.8125 25.9375 43.75 27.0833 43.75H41.6666C43.9583 43.75 45.8333 41.875 45.8333 39.5833V10.4167C45.8333 8.125 43.9583 6.25 41.6666 6.25H27.0833C25.9375 6.25 25 7.1875 25 8.33333C25 9.47917 25.9375 10.4167 27.0833 10.4167H41.6666V39.5833Z" fill="white"/>
</svg>
