<svg width="270" height="270" viewBox="0 0 270 270" fill="none" xmlns="http://www.w3.org/2000/svg">
<circle opacity="0.4" cx="135" cy="162.128" r="100" fill="url(#paint0_linear_2015_346)"/>
<path d="M135.434 227.58C132.07 227.58 128.706 226.779 126.142 225.337L76.6378 196.819C74.0744 195.378 72.6326 193.295 72.6326 191.212C72.6326 189.129 74.0744 187.047 76.6378 185.605L126.142 157.088C131.269 154.044 139.6 154.044 144.887 157.088L194.391 185.605C196.955 187.047 198.397 189.129 198.397 191.212C198.397 193.295 196.955 195.378 194.391 196.819L144.887 225.337C142.323 226.939 138.959 227.58 135.434 227.58ZM126.623 224.696C131.589 227.58 139.44 227.58 144.406 224.696L193.911 196.179C196.154 194.897 197.435 193.135 197.435 191.212C197.435 189.29 196.154 187.688 193.911 186.246L144.406 157.728C139.44 154.845 131.589 154.845 126.623 157.728L77.1184 186.246C74.8755 187.527 73.5938 189.29 73.5938 191.212C73.5938 193.135 74.8755 194.737 77.1184 196.179L126.623 224.696Z" fill="#7C40FF"/>
<path opacity="0.4" d="M199.838 180.158V163.176L196.794 161.413C195.993 166.7 189.745 170.225 184.458 170.866L149.052 191.693L133.512 197.3L84.0071 171.827L85.1285 171.186C80.9631 169.264 78.5599 164.778 76.317 160.612L72.9527 162.535L71.0302 163.015V180.318C71.0302 182.561 72.4721 184.644 75.3558 186.406L124.86 214.923C130.628 218.287 140.08 218.287 145.848 214.923L195.352 186.406C198.236 184.804 199.678 182.561 199.678 180.478C199.838 180.318 199.838 180.318 199.838 180.158Z" fill="#7C40FF"/>
<path d="M199.838 165.098V153.884L196.794 152.121C195.993 157.408 189.745 160.933 184.458 161.574L149.052 182.401L133.512 188.008L84.0071 162.535L85.1285 161.894C80.9631 159.972 78.5599 155.486 76.317 151.32L72.9527 153.243L71.0302 153.723V165.258C71.0302 167.501 72.4721 169.584 75.3558 171.346L124.86 199.864C130.628 203.228 140.08 203.228 145.848 199.864L195.352 171.346C198.236 169.744 199.678 167.501 199.678 165.419C199.838 165.258 199.838 165.258 199.838 165.098Z" fill="url(#paint1_linear_2015_346)"/>
<path opacity="0.3" d="M184.459 161.734L149.053 182.561L135.595 187.367V202.587C139.44 202.587 143.285 201.786 146.169 200.023L195.674 171.506C198.557 169.904 199.999 167.661 199.999 165.579C199.999 165.418 199.999 165.418 199.999 165.258V154.043L197.115 152.441H196.795C195.834 157.568 189.586 160.932 184.459 161.734Z" fill="#7C4EFF"/>
<path d="M125.021 188.489L75.5161 159.971C69.7485 156.607 69.7485 151.16 75.5161 147.796L125.021 119.278C130.788 115.914 140.24 115.914 146.008 119.278L195.513 147.796C201.28 151.16 201.28 156.607 195.513 159.971L146.008 188.489C140.24 191.853 130.788 191.853 125.021 188.489Z" fill="url(#paint2_linear_2015_346)"/>
<path d="M125.021 188.489L75.5161 159.971C69.7485 156.607 69.7485 151.16 75.5161 147.796L125.021 119.278C130.788 115.914 140.24 115.914 146.008 119.278L195.513 147.796C201.28 151.16 201.28 156.607 195.513 159.971L146.008 188.489C140.24 191.853 130.788 191.853 125.021 188.489Z" fill="#5C30D7"/>
<g opacity="0.51">
<path d="M125.021 188.489L75.5161 159.971C69.7485 156.607 69.7485 151.16 75.5161 147.796L125.021 119.278C130.788 115.914 140.24 115.914 146.008 119.278L195.513 147.796C201.28 151.16 201.28 156.607 195.513 159.971L146.008 188.489C140.24 191.853 130.788 191.853 125.021 188.489Z" fill="#453C9E"/>
</g>
<path d="M195.511 159.972L146.007 188.489C140.239 191.853 130.787 191.853 125.02 188.489L75.5149 159.972C72.9516 158.53 71.5097 156.607 71.1893 154.524C70.8689 156.928 72.3108 159.491 75.5149 161.253L125.02 189.77C130.787 193.135 140.239 193.135 146.007 189.77L195.511 161.253C198.716 159.331 200.157 156.928 199.837 154.524C199.517 156.607 198.075 158.53 195.511 159.972Z" fill="white"/>
<mask id="mask0_2015_346" style="mask-type:alpha" maskUnits="userSpaceOnUse" x="71" y="116" width="129" height="76">
<path d="M125.022 188.488L75.5173 159.971C69.7498 156.607 69.7498 151.16 75.5173 147.795L125.022 119.278C130.789 115.914 140.242 115.914 146.009 119.278L195.514 147.795C201.281 151.16 201.281 156.607 195.514 159.971L146.009 188.488C140.242 191.853 130.789 191.853 125.022 188.488Z" fill="#453C9E"/>
</mask>
<g mask="url(#mask0_2015_346)">
<g opacity="0.2">
<path d="M99.2281 155.646V214.763C99.2281 216.044 100.029 217.326 101.631 218.127L150.815 246.484C154.34 248.567 160.588 248.246 164.593 245.843C166.836 244.561 167.958 242.799 167.958 241.197V182.08L99.2281 155.646Z" fill="url(#paint3_linear_2015_346)"/>
<path opacity="0.3" d="M154.501 247.765C157.866 248.246 161.711 247.605 164.595 246.003C166.837 244.721 167.959 242.959 167.959 241.357V182.24L154.662 177.113H154.341V247.765H154.501Z" fill="#5C30D7"/>
<path d="M150.814 187.367L101.63 159.01C98.1058 156.927 98.5864 153.403 102.592 150.999C106.757 148.596 112.845 148.436 116.37 150.359L165.554 178.716C169.078 180.798 168.598 184.323 164.592 186.726C160.587 189.129 154.339 189.45 150.814 187.367Z" fill="url(#paint4_linear_2015_346)"/>
</g>
</g>
<path opacity="0.5" d="M150.815 172.147L101.631 143.79C98.1066 141.708 98.5873 138.183 102.592 135.78C106.758 133.377 112.846 133.217 116.37 135.139L165.555 163.496C169.079 165.579 168.598 169.103 164.593 171.507C160.588 173.91 154.34 174.23 150.815 172.147Z" fill="#5C30D7"/>
<path d="M99.229 65.9287V125.046C99.229 126.327 100.03 127.609 101.632 128.41L150.816 156.767C154.341 158.85 160.589 158.529 164.594 156.126C166.837 154.845 167.959 153.082 167.959 151.48V92.3632L99.229 65.9287Z" fill="url(#paint5_linear_2015_346)"/>
<path opacity="0.3" d="M154.502 158.049C157.867 158.529 161.712 157.889 164.595 156.287C166.838 155.005 167.96 153.243 167.96 151.64V92.5234L154.662 87.3967H154.342V158.049H154.502Z" fill="#5C30D7"/>
<path d="M150.815 97.6498L101.631 69.2928C98.1066 67.2101 98.5873 63.6855 102.592 61.2824C106.758 58.8793 112.846 58.719 116.37 60.6415L165.555 88.9985C169.079 91.0812 168.598 94.6058 164.593 97.009C160.588 99.4121 154.34 99.7325 150.815 97.6498Z" fill="url(#paint6_linear_2015_346)"/>
<path d="M155.781 93.8049C153.378 93.8049 151.456 91.8824 151.456 89.4792L151.456 49.587C151.456 40.6153 144.887 29.2405 137.197 24.7547L125.983 18.1861C122.939 16.4238 120.375 16.1034 118.613 17.0646C116.851 18.0259 115.89 20.5892 115.89 23.9536V50.2279C115.89 52.631 113.967 54.5535 111.564 54.5535C109.161 54.5535 107.238 52.631 107.238 50.2279V23.9536C107.238 17.2248 109.641 12.2584 114.127 9.69502C118.613 7.13168 124.22 7.4521 129.988 10.8165L141.203 17.3851C151.616 23.473 159.787 37.5714 159.787 49.587L159.787 89.4792C159.947 92.0426 158.024 93.8049 155.781 93.8049Z" fill="url(#paint7_linear_2015_346)"/>
<defs>
<linearGradient id="paint0_linear_2015_346" x1="67.5" y1="32.353" x2="183.75" y2="246.103" gradientUnits="userSpaceOnUse">
<stop stop-color="#7C4EFF"/>
<stop offset="0.904355" stop-color="#7C4EFF" stop-opacity="0"/>
</linearGradient>
<linearGradient id="paint1_linear_2015_346" x1="83.938" y1="131.592" x2="186.099" y2="190.574" gradientUnits="userSpaceOnUse">
<stop stop-color="#BCBEFF"/>
<stop offset="0.2271" stop-color="#AAADF8"/>
<stop offset="0.6802" stop-color="#7C83E5"/>
<stop offset="1" stop-color="#5761D7"/>
</linearGradient>
<linearGradient id="paint2_linear_2015_346" x1="71.1281" y1="153.887" x2="199.889" y2="153.887" gradientUnits="userSpaceOnUse">
<stop stop-color="#E9E9FD"/>
<stop offset="0.3601" stop-color="#D3D2F9"/>
<stop offset="0.7062" stop-color="#C5C4F7"/>
<stop offset="1" stop-color="#C0BFF6"/>
</linearGradient>
<linearGradient id="paint3_linear_2015_346" x1="107.873" y1="201.739" x2="176.599" y2="201.739" gradientUnits="userSpaceOnUse">
<stop stop-color="#BCBEFF"/>
<stop offset="0.1443" stop-color="#B4B7FC"/>
<stop offset="0.3696" stop-color="#9EA2F3"/>
<stop offset="0.6461" stop-color="#7A81E5"/>
<stop offset="0.873" stop-color="#5761D7"/>
</linearGradient>
<linearGradient id="paint4_linear_2015_346" x1="35.441" y1="168.908" x2="205.038" y2="168.908" gradientUnits="userSpaceOnUse">
<stop stop-color="#E9E9FD"/>
<stop offset="0.3601" stop-color="#D3D2F9"/>
<stop offset="0.7062" stop-color="#C5C4F7"/>
<stop offset="1" stop-color="#C0BFF6"/>
</linearGradient>
<linearGradient id="paint5_linear_2015_346" x1="107.873" y1="112.057" x2="176.6" y2="112.057" gradientUnits="userSpaceOnUse">
<stop stop-color="#C9BCFF"/>
<stop offset="0.1443" stop-color="#C7B4FC"/>
<stop offset="0.3696" stop-color="#AF9EF3"/>
<stop offset="0.6461" stop-color="#897AE5"/>
<stop offset="0.873" stop-color="#7157D7"/>
</linearGradient>
<linearGradient id="paint6_linear_2015_346" x1="35.4419" y1="79.2264" x2="205.039" y2="79.2264" gradientUnits="userSpaceOnUse">
<stop stop-color="#E9E9FD"/>
<stop offset="0.3601" stop-color="#D3D2F9"/>
<stop offset="0.7062" stop-color="#C5C4F7"/>
<stop offset="1" stop-color="#C0BFF6"/>
</linearGradient>
<linearGradient id="paint7_linear_2015_346" x1="82.3059" y1="48.1885" x2="205.133" y2="69.2825" gradientUnits="userSpaceOnUse">
<stop stop-color="#BDBCFF"/>
<stop offset="0.1443" stop-color="#C2B4FC"/>
<stop offset="0.3696" stop-color="#AA9EF3"/>
<stop offset="0.6461" stop-color="#8F7AE5"/>
<stop offset="0.873" stop-color="#6957D7"/>
</linearGradient>
</defs>
</svg>
