<svg width="180" height="285" viewBox="0 0 180 285" fill="none" xmlns="http://www.w3.org/2000/svg">
<path opacity="0.1" d="M95.0198 30.3466C95.0198 3.13617 114.067 -7.748 137.51 5.85722C160.953 19.4624 180 52.3242 180 79.5347C180 106.745 160.953 117.629 137.51 104.024C114.067 90.4189 95.0198 57.557 95.0198 30.3466Z" fill="url(#paint0_linear_10036_506)"/>
<path opacity="0.3" d="M76.3876 41.0219C76.3876 13.8115 95.4349 2.9273 118.878 16.5325C142.321 30.1377 161.368 62.9996 161.368 90.21C161.368 117.42 142.321 128.305 118.878 114.699C95.4349 101.304 76.3876 68.2323 76.3876 41.0219Z" fill="url(#paint1_linear_10036_506)"/>
<path opacity="0.48" d="M57.5553 51.9057C57.5553 24.6953 76.6026 13.8111 100.045 27.4163C123.488 41.0215 142.536 73.8834 142.536 101.094C142.536 128.304 123.488 139.188 100.045 125.583C76.6026 111.978 57.5553 78.9068 57.5553 51.9057Z" fill="url(#paint2_linear_10036_506)"/>
<path d="M57.3453 211.609C53.7871 209.516 53.7871 206.167 57.3453 204.074C60.9036 201.981 66.9737 201.981 70.5319 204.074C74.0902 206.167 74.0902 209.516 70.5319 211.609C66.9737 213.702 61.1129 213.702 57.3453 211.609Z" fill="url(#paint3_linear_10036_506)"/>
<path d="M57.3447 210.98C60.903 213.074 66.973 213.074 70.5313 210.98C72.2058 209.934 73.043 208.678 73.2523 207.422C73.4616 208.887 72.4151 210.352 70.5313 211.399C66.973 213.492 60.903 213.492 57.3447 211.399C55.4609 210.352 54.6237 208.887 54.6237 207.422C54.833 208.887 55.6702 210.143 57.3447 210.98Z" fill="white"/>
<path d="M57.3453 229.609C53.7871 227.516 53.7871 224.167 57.3453 222.074C60.9036 219.981 66.9737 219.981 70.5319 222.074C74.0902 224.167 74.0902 227.516 70.5319 229.609C66.9737 231.703 61.1129 231.703 57.3453 229.609Z" fill="url(#paint4_linear_10036_506)"/>
<path d="M57.3453 248.029C53.7871 245.936 53.7871 242.587 57.3453 240.494C60.9036 238.401 66.9737 238.401 70.5319 240.494C74.0902 242.587 74.0902 245.936 70.5319 248.029C66.9737 250.122 61.1129 250.122 57.3453 248.029Z" fill="url(#paint5_linear_10036_506)"/>
<path d="M73.2523 207.632V198.213C73.2523 199.678 72.4151 200.934 70.5313 201.981C66.973 204.074 60.903 204.074 57.3447 201.981C55.6702 200.934 54.6237 199.678 54.6237 198.213V158.444H73.2523V275.658C73.2523 280.891 69.0661 284.868 64.0426 284.868C58.8099 284.868 54.833 280.682 54.833 275.658V243.843C54.833 245.308 55.6702 246.773 57.554 247.82C61.1123 249.913 67.1823 249.913 70.7406 247.82C72.6244 246.773 73.4616 245.308 73.4616 244.052V234.633C73.4616 236.098 72.6244 237.354 70.7406 238.401C67.1823 240.494 61.1123 240.494 57.554 238.401C55.8795 237.354 54.833 236.098 54.833 234.633V225.424C54.833 226.889 55.6702 228.354 57.554 229.401C61.1123 231.494 67.1823 231.494 70.7406 229.401C72.6244 228.354 73.4616 226.889 73.4616 225.633V216.214C73.4616 217.679 72.6244 218.935 70.7406 219.982C67.1823 222.075 61.1123 222.075 57.554 219.982C55.8795 218.935 54.833 217.679 54.833 216.214V207.214C54.833 208.679 55.6702 210.144 57.554 211.19C61.1123 213.284 67.1823 213.284 70.7406 211.19C72.4151 210.563 73.2523 209.097 73.2523 207.632Z" fill="url(#paint6_linear_10036_506)"/>
<path d="M57.3447 229.191C60.903 231.284 66.973 231.284 70.5313 229.191C72.2058 228.145 73.043 226.889 73.2523 225.633C73.4616 227.098 72.4151 228.563 70.5313 229.61C66.973 231.703 60.903 231.703 57.3447 229.61C55.4609 228.563 54.6237 227.098 54.6237 225.633C54.833 226.889 55.6702 228.145 57.3447 229.191Z" fill="white"/>
<path d="M57.3447 247.61C60.903 249.703 66.973 249.703 70.5313 247.61C72.2058 246.563 73.043 245.307 73.2523 244.052C73.4616 245.517 72.4151 246.982 70.5313 248.028C66.973 250.122 60.903 250.122 57.3447 248.028C55.4609 246.982 54.6237 245.517 54.6237 244.052C54.833 245.307 55.6702 246.563 57.3447 247.61Z" fill="white"/>
<path opacity="0.48" d="M57.3447 202.191C60.903 204.284 66.973 204.284 70.5313 202.191C72.4151 201.144 73.2523 199.679 73.2523 198.423V207.842C73.2523 209.307 72.4151 210.563 70.5313 211.61C66.973 213.703 60.903 213.703 57.3447 211.61C55.4609 210.563 54.6237 209.098 54.6237 207.633V198.423C54.833 199.679 55.6702 201.144 57.3447 202.191Z" fill="url(#paint7_linear_10036_506)"/>
<path opacity="0.48" d="M57.3447 220.191C60.903 222.284 66.973 222.284 70.5313 220.191C72.4151 219.144 73.2523 217.679 73.2523 216.423V225.842C73.2523 227.307 72.4151 228.563 70.5313 229.61C66.973 231.703 60.903 231.703 57.3447 229.61C55.4609 228.563 54.6237 227.098 54.6237 225.633V216.423C54.833 217.888 55.6702 219.144 57.3447 220.191Z" fill="url(#paint8_linear_10036_506)"/>
<path opacity="0.48" d="M57.3447 238.609C60.903 240.702 66.973 240.702 70.5313 238.609C72.4151 237.563 73.2523 236.098 73.2523 234.842V244.261C73.2523 245.726 72.4151 246.982 70.5313 248.028C66.973 250.121 60.903 250.121 57.3447 248.028C55.4609 246.982 54.6237 245.517 54.6237 244.051V234.842C54.833 236.307 55.6702 237.563 57.3447 238.609Z" fill="url(#paint9_linear_10036_506)"/>
<path d="M97.7521 144.212C98.1707 144.002 98.5893 143.793 99.008 143.374L103.613 117.629L97.9614 83.5113L82.0538 66.1385L65.7275 50.2309L39.773 39.556L39.1451 39.3467C37.8892 39.9747 36.8426 40.8119 35.5867 41.6491C29.0981 40.8119 22.6095 39.9747 16.1208 39.1374C17.1674 36.4164 18.4233 34.1139 20.0977 31.8115L16.9581 30.5557L28.6795 23.8577C28.8888 23.8577 28.8888 23.6484 29.0981 23.6484L29.5167 23.4391C39.5637 17.997 53.1689 19.0436 68.2393 27.6253C99.008 45.4167 123.916 88.5348 123.916 123.908C123.916 141.49 117.846 153.84 107.799 159.701C107.59 159.701 107.59 159.91 107.38 159.91L95.0311 167.026L95.659 163.468C94.1938 163.677 92.5193 163.677 90.8448 163.468C93.9845 157.607 98.5894 150.909 97.7521 144.212Z" fill="url(#paint10_linear_10036_506)"/>
<path d="M12.3492 61.3242C12.3492 60.9056 12.3492 60.2776 12.3492 59.859C12.3492 51.9052 13.6051 44.7886 15.9075 39.1372C22.3961 39.9745 28.8848 40.8117 35.3734 41.6489C29.0941 46.6724 25.3265 55.4635 25.3265 67.3942C25.3265 94.6046 44.3738 127.466 67.8166 141.072C79.3287 147.77 89.7943 148.398 97.5388 144.211C98.5853 150.909 93.9805 157.607 90.4222 163.677C85.1894 163.468 79.7473 162.003 73.8866 159.282L75.7705 161.375C75.7705 161.375 52.5369 153.421 52.1183 152.793C51.6997 152.374 24.6986 125.164 24.6986 125.164L7.11646 87.2787L12.3492 61.3242Z" fill="url(#paint11_linear_10036_506)"/>
<path opacity="0.5" d="M17.7932 73.0453C17.7932 45.8349 36.8405 34.9507 60.2833 48.5559C83.7262 62.1612 102.773 95.023 102.773 122.233C102.773 149.444 83.7262 160.328 60.2833 146.723C36.8405 133.118 17.7932 100.256 17.7932 73.0453Z" fill="url(#paint12_linear_10036_506)"/>
<path opacity="0.48" d="M21.5553 70.9528C21.5553 43.7424 40.6026 32.8582 64.0454 46.4634C87.4882 60.0686 106.536 92.9305 106.536 120.141C106.536 147.351 87.4882 158.235 64.0454 144.63C40.6026 131.234 21.5553 98.1632 21.5553 70.9528Z" fill="url(#paint13_linear_10036_506)"/>
<path d="M0 66.9744C0 102.557 24.908 145.675 55.6767 163.257C86.4454 181.049 111.353 166.606 111.353 131.233C111.353 95.8593 86.4454 52.532 55.6767 34.9498C24.908 16.9491 0 31.3916 0 66.9744ZM13.1866 74.5096C13.1866 47.2992 32.2339 36.415 55.6767 50.0202C79.1195 63.6254 98.1668 96.4873 98.1668 123.698C98.1668 150.908 79.1195 161.792 55.6767 148.187C32.2339 134.582 13.1866 101.511 13.1866 74.5096Z" fill="#BCBEFF"/>
<path d="M0 66.9744C0 102.557 24.908 145.675 55.6767 163.257C86.4454 181.049 111.353 166.606 111.353 131.233C111.353 95.8593 86.4454 52.532 55.6767 34.9498C24.908 16.9491 0 31.3916 0 66.9744ZM13.1866 74.5096C13.1866 47.2992 32.2339 36.415 55.6767 50.0202C79.1195 63.6254 98.1668 96.4873 98.1668 123.698C98.1668 150.908 79.1195 161.792 55.6767 148.187C32.2339 134.582 13.1866 101.511 13.1866 74.5096Z" fill="#BCBEFF"/>
<path d="M110.519 132.072C110.519 96.4892 85.6107 53.3711 54.8419 35.789C36.004 24.9048 19.2591 26.1607 9.21216 37.0449C19.2591 25.3235 36.2133 23.649 55.6792 34.9518C86.4479 52.7432 111.356 95.8613 111.356 131.235C111.356 144.84 107.588 155.306 101.309 162.213C107.17 155.306 110.519 145.049 110.519 132.072Z" fill="white"/>
<path d="M54.8394 149.027C31.3965 135.422 12.3492 102.56 12.3492 75.3494C12.3492 64.8839 15.2796 56.7207 20.0937 51.6973C15.6982 56.93 13.1865 64.6745 13.1865 74.5122C13.1865 101.723 32.2338 134.584 55.6766 148.19C70.1191 156.562 82.6777 155.516 90.4222 147.352C82.887 156.353 69.7004 157.609 54.8394 149.027Z" fill="white"/>
<defs>
<linearGradient id="paint0_linear_10036_506" x1="180.068" y1="54.9499" x2="95.0196" y2="54.9499" gradientUnits="userSpaceOnUse">
<stop stop-color="#16E09E"/>
<stop offset="0.1507" stop-color="#43E3BD"/>
<stop offset="0.3285" stop-color="#45DFD6"/>
<stop offset="0.5199" stop-color="#49BDDD"/>
<stop offset="0.7209" stop-color="#4E9CDB"/>
<stop offset="0.9274" stop-color="#5472D8"/>
<stop offset="1" stop-color="#5761D7"/>
</linearGradient>
<linearGradient id="paint1_linear_10036_506" x1="161.341" y1="65.6775" x2="76.2925" y2="65.6775" gradientUnits="userSpaceOnUse">
<stop stop-color="#16E09E"/>
<stop offset="0.1507" stop-color="#43E3BD"/>
<stop offset="0.3285" stop-color="#45D5DF"/>
<stop offset="0.5199" stop-color="#49BDDD"/>
<stop offset="0.7209" stop-color="#4E9CDB"/>
<stop offset="0.9274" stop-color="#5472D8"/>
<stop offset="1" stop-color="#5761D7"/>
</linearGradient>
<linearGradient id="paint2_linear_10036_506" x1="142.623" y1="76.4043" x2="57.5746" y2="76.4043" gradientUnits="userSpaceOnUse">
<stop stop-color="#16E09E"/>
<stop offset="0.1507" stop-color="#43E3C6"/>
<stop offset="0.3285" stop-color="#45D5DF"/>
<stop offset="0.5199" stop-color="#49BDDD"/>
<stop offset="0.7209" stop-color="#4E9CDB"/>
<stop offset="0.9274" stop-color="#5472D8"/>
<stop offset="1" stop-color="#5761D7"/>
</linearGradient>
<linearGradient id="paint3_linear_10036_506" x1="70.6047" y1="203.92" x2="64.0244" y2="215.316" gradientUnits="userSpaceOnUse">
<stop stop-color="#5761D7"/>
<stop offset="0.1645" stop-color="#5E67DA"/>
<stop offset="0.4051" stop-color="#727AE2"/>
<stop offset="0.6924" stop-color="#9297EE"/>
<stop offset="1" stop-color="#BCBEFF"/>
</linearGradient>
<linearGradient id="paint4_linear_10036_506" x1="70.6048" y1="221.991" x2="64.0246" y2="233.387" gradientUnits="userSpaceOnUse">
<stop stop-color="#5761D7"/>
<stop offset="0.1645" stop-color="#5E67DA"/>
<stop offset="0.4051" stop-color="#727AE2"/>
<stop offset="0.6924" stop-color="#9297EE"/>
<stop offset="1" stop-color="#BCBEFF"/>
</linearGradient>
<linearGradient id="paint5_linear_10036_506" x1="70.605" y1="240.379" x2="64.0248" y2="251.776" gradientUnits="userSpaceOnUse">
<stop stop-color="#5761D7"/>
<stop offset="0.1645" stop-color="#5E67DA"/>
<stop offset="0.4051" stop-color="#727AE2"/>
<stop offset="0.6924" stop-color="#9297EE"/>
<stop offset="1" stop-color="#BCBEFF"/>
</linearGradient>
<linearGradient id="paint6_linear_10036_506" x1="98.2738" y1="221.891" x2="47.4181" y2="221.891" gradientUnits="userSpaceOnUse">
<stop stop-color="#5761D7"/>
<stop offset="0.1645" stop-color="#5E67DA"/>
<stop offset="0.4051" stop-color="#727AE2"/>
<stop offset="0.6924" stop-color="#9297EE"/>
<stop offset="1" stop-color="#BCBEFF"/>
</linearGradient>
<linearGradient id="paint7_linear_10036_506" x1="73.3258" y1="205.706" x2="54.7237" y2="205.706" gradientUnits="userSpaceOnUse">
<stop stop-color="#16E09E"/>
<stop offset="0.1507" stop-color="#43E3BD"/>
<stop offset="0.3285" stop-color="#45DFDF"/>
<stop offset="0.5199" stop-color="#49BDDD"/>
<stop offset="0.7209" stop-color="#4E9CDB"/>
<stop offset="0.9274" stop-color="#5472D8"/>
<stop offset="1" stop-color="#5761D7"/>
</linearGradient>
<linearGradient id="paint8_linear_10036_506" x1="73.3258" y1="223.777" x2="54.7237" y2="223.777" gradientUnits="userSpaceOnUse">
<stop stop-color="#16E09E"/>
<stop offset="0.1507" stop-color="#43E3BD"/>
<stop offset="0.3285" stop-color="#45D5DF"/>
<stop offset="0.5199" stop-color="#49BDDD"/>
<stop offset="0.7209" stop-color="#4E9CDB"/>
<stop offset="0.9274" stop-color="#5472D8"/>
<stop offset="1" stop-color="#5761D7"/>
</linearGradient>
<linearGradient id="paint9_linear_10036_506" x1="73.3254" y1="242.164" x2="54.7237" y2="242.164" gradientUnits="userSpaceOnUse">
<stop stop-color="#16E09E"/>
<stop offset="0.1507" stop-color="#43E3BD"/>
<stop offset="0.3285" stop-color="#45D5DF"/>
<stop offset="0.5199" stop-color="#49BDDD"/>
<stop offset="0.7209" stop-color="#4E9CDB"/>
<stop offset="0.9274" stop-color="#5472D8"/>
<stop offset="1" stop-color="#5761D7"/>
</linearGradient>
<linearGradient id="paint10_linear_10036_506" x1="130.822" y1="126.205" x2="10.6042" y2="56.5121" gradientUnits="userSpaceOnUse">
<stop stop-color="#5761D7"/>
<stop offset="0.1645" stop-color="#5E67DA"/>
<stop offset="0.4051" stop-color="#727AE2"/>
<stop offset="0.6924" stop-color="#9297EE"/>
<stop offset="1" stop-color="#BCBEFF"/>
</linearGradient>
<linearGradient id="paint11_linear_10036_506" x1="-1.00481" y1="64.4033" x2="107.23" y2="143.648" gradientUnits="userSpaceOnUse">
<stop stop-color="#5761D7"/>
<stop offset="0.1645" stop-color="#5E67DA"/>
<stop offset="0.4051" stop-color="#727AE2"/>
<stop offset="0.6924" stop-color="#9297EE"/>
<stop offset="1" stop-color="#BCBEFF"/>
</linearGradient>
<linearGradient id="paint12_linear_10036_506" x1="102.858" y1="97.6076" x2="17.81" y2="97.6076" gradientUnits="userSpaceOnUse">
<stop stop-color="#16E09E"/>
<stop offset="0.1507" stop-color="#43E3C6"/>
<stop offset="0.3285" stop-color="#45D5DF"/>
<stop offset="0.5199" stop-color="#49BDDD"/>
<stop offset="0.7209" stop-color="#4E9CDB"/>
<stop offset="0.9274" stop-color="#5472D8"/>
<stop offset="1" stop-color="#5761D7"/>
</linearGradient>
<linearGradient id="paint13_linear_10036_506" x1="106.552" y1="95.6004" x2="21.5032" y2="95.6004" gradientUnits="userSpaceOnUse">
<stop stop-color="#16E09E"/>
<stop offset="0.1507" stop-color="#43E3BD"/>
<stop offset="0.3285" stop-color="#45DFD6"/>
<stop offset="0.5199" stop-color="#49BDDD"/>
<stop offset="0.7209" stop-color="#4E9CDB"/>
<stop offset="0.9274" stop-color="#5472D8"/>
<stop offset="1" stop-color="#5761D7"/>
</linearGradient>
</defs>
</svg>
