<svg width="300" height="262" viewBox="0 0 300 262" fill="none" xmlns="http://www.w3.org/2000/svg">
<g clip-path="url(#clip0_10036_305)">
<g opacity="0.15">
<path d="M298.722 181.976L298.606 192.906C298.606 193.022 298.49 193.255 298.373 193.255L178.955 260.58C178.606 260.813 177.909 260.813 177.443 260.464L158.141 249.069C157.909 248.953 157.792 248.836 157.792 248.604L157.909 237.557L167.211 243.022L277.327 180.929C277.676 180.697 278.373 180.697 278.839 181.046L285.466 184.999L298.722 181.976Z" fill="url(#paint0_linear_10036_305)"/>
<path d="M277.559 169.999L158.14 237.324C157.792 237.556 157.792 237.905 158.257 238.254L177.559 249.649C178.024 249.882 178.722 249.998 179.071 249.766L298.489 182.44C298.838 182.208 298.838 181.859 298.373 181.51L279.07 170.115C278.605 169.766 277.908 169.766 277.559 169.999Z" fill="url(#paint1_linear_10036_305)"/>
</g>
<g opacity="0.2">
<path d="M172.442 104.07C173.605 91.1632 183.953 76.1632 195.698 70.6981C201.628 67.9074 206.628 68.0237 210.116 70.4656L213.721 73.0237H212.558C214.418 75.6981 215.232 79.419 214.884 84.0702C213.837 96.9771 203.372 111.977 191.628 117.442C187.558 119.303 183.953 119.884 180.93 119.186V120.233L177.209 117.675L177.093 117.558C173.721 115.117 171.86 110.465 172.442 104.07Z" fill="#9FFFD7"/>
<path d="M180.897 120.276C173.364 115.023 174.612 100.216 183.685 87.2047C192.758 74.193 206.22 67.9033 213.753 73.1561C221.286 78.409 220.038 93.2153 210.965 106.227C201.892 119.239 188.43 125.528 180.897 120.276Z" fill="#16E09E"/>
<path d="M188.372 119.535C190.582 119.535 193.14 118.953 195.698 117.674C206.163 112.791 215.465 99.4186 216.396 87.907C216.861 82.3256 215.349 77.907 211.977 75.5814C208.721 73.2558 204.07 73.3721 198.954 75.6977C188.489 80.5814 179.186 93.9535 178.256 105.465C177.791 111.046 179.303 115.465 182.675 117.791C184.303 118.953 186.163 119.535 188.372 119.535ZM206.396 74.5349C208.489 74.5349 210.233 75.1163 211.744 76.1628C214.884 78.3721 216.396 82.5581 215.93 87.907C215 99.186 205.814 112.326 195.465 117.209C190.582 119.535 186.047 119.535 183.024 117.442C179.884 115.232 178.372 111.046 178.837 105.698C179.768 94.4186 188.954 81.2791 199.303 76.3954C201.861 75.1163 204.186 74.5349 206.396 74.5349Z" fill="#18B271"/>
</g>
<path d="M200.812 59.302C188.254 56.1625 175.114 43.4881 171.626 31.0463C169.881 24.7672 170.812 19.7672 173.719 16.744L176.858 13.6044L176.742 14.7672C179.649 13.3719 183.486 13.1393 188.021 14.3021C200.579 17.4417 213.719 30.116 217.207 42.5579C218.486 46.8602 218.37 50.5811 217.207 53.4881L218.253 53.6043L215.114 56.8602L214.998 56.9764C211.858 59.8834 206.974 60.9299 200.812 59.302Z" fill="#9FFFD7"/>
<path d="M185.855 45.53C174.454 34.5027 170.386 20.2121 176.77 13.6112C183.155 7.01021 197.573 10.5985 208.975 21.6258C220.376 32.6531 224.444 46.9437 218.059 53.5446C211.675 60.1456 197.257 56.5573 185.855 45.53Z" fill="#73F2C8"/>
<path d="M208.021 54.4182C211.276 54.4182 214.067 53.3716 216.044 51.3949C218.835 48.4879 219.532 43.9531 218.021 38.488C214.881 27.4415 203.137 16.0462 191.974 13.2555C186.509 11.8601 181.974 12.6741 179.067 15.5811C176.277 18.488 175.579 23.0229 177.09 28.488C180.23 39.5345 191.974 50.9298 203.137 53.7205C204.881 54.1856 206.509 54.4182 208.021 54.4182ZM186.974 13.2555C188.486 13.2555 189.997 13.488 191.742 13.8369C202.788 16.6276 214.3 27.674 217.439 38.6042C218.951 43.8368 218.253 48.2554 215.695 50.9298C213.021 53.7205 208.718 54.4181 203.369 53.1391C192.323 50.3484 180.811 39.3019 177.672 28.3717C176.16 23.1392 176.858 18.7206 179.416 16.0462C181.16 14.1857 183.835 13.2555 186.974 13.2555Z" fill="#18B271"/>
<path d="M298.842 171.394L298.726 182.325C298.726 182.441 298.609 182.673 298.493 182.673L179.075 249.999C178.726 250.231 178.028 250.231 177.563 249.883L158.261 238.487C158.029 238.371 157.912 238.255 157.912 238.022L158.028 226.976L167.331 232.441L277.447 170.348C277.796 170.115 278.493 170.115 278.958 170.464L285.586 174.418L298.842 171.394Z" fill="url(#paint2_linear_10036_305)"/>
<path d="M298.842 171.394L298.726 182.325C298.726 182.441 298.609 182.673 298.493 182.673L179.075 249.999C178.726 250.231 178.028 250.231 177.563 249.883L158.261 238.487C158.029 238.371 157.912 238.255 157.912 238.022L158.028 226.976L167.331 232.441L277.447 170.348C277.796 170.115 278.493 170.115 278.958 170.464L285.586 174.418L298.842 171.394Z" fill="url(#paint3_radial_10036_305)"/>
<path d="M277.68 159.302L158.262 226.627C157.913 226.86 157.913 227.209 158.378 227.557L177.68 238.953C178.145 239.185 178.843 239.302 179.192 239.069L298.61 171.744C298.959 171.511 298.959 171.162 298.494 170.813L279.192 159.418C278.727 159.186 278.145 159.069 277.68 159.302Z" fill="url(#paint4_linear_10036_305)"/>
<path d="M158.378 226.626L158.727 226.394L177.797 237.673C178.262 237.905 178.959 238.021 179.308 237.789L298.378 170.696L298.61 170.812C299.075 171.045 299.075 171.51 298.726 171.743L179.308 239.068C178.959 239.301 178.262 239.301 177.797 238.952L158.494 227.556C158.029 227.208 157.913 226.859 158.378 226.626Z" fill="white"/>
<path opacity="0.6" d="M273.26 175.697L179.424 227.557C178.726 223.836 177.679 220.115 176.284 216.394L269.888 163.604C271.516 167.673 272.679 171.743 273.26 175.697Z" fill="#24126A"/>
<path d="M281.751 165.697L169.193 229.185C168.96 229.302 168.96 229.65 169.309 229.767L174.193 232.674C174.542 232.906 175.007 232.906 175.239 232.674L287.797 169.185C288.03 169.069 288.03 168.72 287.681 168.604L282.797 165.697C282.565 165.581 282.099 165.581 281.751 165.697Z" fill="#24126A"/>
<path d="M287.68 169.185L285.355 170.464L282.797 168.952C282.448 168.72 281.983 168.72 281.75 168.952L171.402 231.161L169.192 229.882C168.843 229.65 168.843 229.417 169.076 229.301L281.634 165.813C281.866 165.697 282.331 165.697 282.68 165.813L287.564 168.72C287.913 168.72 288.029 169.069 287.68 169.185Z" fill="#453C9E"/>
<path opacity="0.7" d="M0.00515747 52.7896L93.7258 -0.000976562C93.6095 16.7432 105.121 37.092 119.423 45.6966L247.33 121.278C264.19 131.278 277.795 155.347 277.562 174.882L183.958 227.673C184.191 208.022 170.586 184.068 153.726 174.068L25.819 98.4871C11.4005 89.8825 -0.111121 69.4174 0.00515747 52.7896Z" fill="url(#paint5_linear_10036_305)"/>
<path d="M0.00515747 52.7896L93.7258 -0.000976562C93.6095 16.7432 105.121 37.092 119.423 45.6966L247.33 121.278C264.19 131.278 277.795 155.347 277.562 174.882L183.958 227.673C184.191 208.022 170.586 184.068 153.726 174.068L25.819 98.4871C11.4005 89.8825 -0.111121 69.4174 0.00515747 52.7896Z" fill="url(#paint6_radial_10036_305)"/>
<path opacity="0.8" d="M277.678 174.882L184.074 227.673C184.074 226.859 184.074 225.928 183.957 225.115L277.562 172.324C277.678 173.138 277.678 174.068 277.678 174.882Z" fill="#453C9E"/>
<g opacity="0.8">
<path d="M123.374 119.418L104.885 129.883L106.629 130.93L125.118 120.464L123.374 119.418Z" fill="white"/>
<path d="M132.792 114.069L126.164 117.906L127.908 118.836L134.536 115.115L132.792 114.069Z" fill="white"/>
<path d="M140.117 109.999L135.582 112.557L137.442 113.604L141.861 111.046L140.117 109.999Z" fill="white"/>
<path d="M110.933 121.744L100.933 127.441L102.677 128.488L112.677 122.79L110.933 121.744Z" fill="white"/>
<path d="M126.048 113.255L113.722 120.232L115.466 121.278L127.792 114.302L126.048 113.255Z" fill="white"/>
<path d="M133.372 109.069L128.837 111.627L130.698 112.674L135.117 110.116L133.372 109.069Z" fill="white"/>
<path d="M140.351 105.231L135.932 107.79L137.676 108.72L142.095 106.278L140.351 105.231Z" fill="white"/>
<path d="M104.187 121.045L96.861 125.115L98.6052 126.161L105.931 121.975L104.187 121.045Z" fill="white"/>
<path d="M109.421 118.023L106.979 119.418L108.723 120.465L111.165 119.069L109.421 118.023Z" fill="white"/>
<path d="M116.745 113.834L112.211 116.393L114.071 117.439L118.49 114.881L116.745 113.834Z" fill="white"/>
<path d="M119.653 107.556L92.793 122.672L94.6535 123.719L121.398 108.603L119.653 107.556Z" fill="white"/>
<path d="M129.186 102.208L122.558 105.929L124.302 106.976L130.93 103.255L129.186 102.208Z" fill="white"/>
<path d="M96.0477 116.278L88.8384 120.347L90.5826 121.394L97.9082 117.324L96.0477 116.278Z" fill="white"/>
<path d="M113.139 106.626L98.9533 114.65L100.697 115.696L114.883 107.673L113.139 106.626Z" fill="white"/>
<path d="M120.466 102.441L115.931 104.999L117.791 106.046L122.21 103.488L120.466 102.441Z" fill="white"/>
<path d="M99.6523 109.534L84.7686 117.906L86.5128 118.952L101.396 110.58L99.6523 109.534Z" fill="white"/>
<path d="M113.257 101.859L102.443 108.022L104.304 109.068L115.001 102.906L113.257 101.859Z" fill="white"/>
<path d="M123.374 96.1631L116.048 100.349L117.792 101.396L125.118 97.2096L123.374 96.1631Z" fill="white"/>
<path d="M85.8171 112.79L80.8171 115.581L82.5613 116.627L87.5613 113.837L85.8171 112.79Z" fill="white"/>
<path d="M95.2358 107.44L88.6079 111.161L90.3521 112.207L96.98 108.486L95.2358 107.44Z" fill="white"/>
<path d="M108.839 99.7673L98.141 105.814L99.8852 106.86L110.583 100.814L108.839 99.7673Z" fill="white"/>
<path d="M92.2116 104.533L76.7466 113.254L78.4908 114.3L93.9558 105.579L92.2116 104.533Z" fill="white"/>
<path d="M109.421 94.7654L95.0023 102.905L96.7465 103.951L111.165 95.8119L109.421 94.7654Z" fill="white"/>
<path d="M116.745 90.697L112.21 93.2552L113.955 94.3017L118.489 91.7435L116.745 90.697Z" fill="white"/>
<path d="M123.723 86.7441L119.305 89.186L121.049 90.2325L125.584 87.7906L123.723 86.7441Z" fill="white"/>
<path d="M81.9791 105.581L72.7931 110.814L74.5373 111.86L83.7233 106.628L81.9791 105.581Z" fill="white"/>
<path d="M160.816 98.3699L173.606 91.1606L175.351 92.2072L162.56 99.4164L160.816 98.3699Z" fill="white"/>
<path d="M159.536 94.4171L169.536 88.7195L171.281 89.766L161.281 95.4637L159.536 94.4171Z" fill="white"/>
<path d="M158.257 90.4643L165.582 86.3945L167.326 87.441L160.001 91.5108L158.257 90.4643Z" fill="white"/>
<path d="M150.932 89.9984L161.514 83.9519L163.258 84.9984L152.676 91.0449L150.932 89.9984Z" fill="white"/>
<path d="M150.234 85.6948L157.443 81.625L159.304 82.6715L151.978 86.7413L150.234 85.6948Z" fill="white"/>
<path d="M144.305 84.4174L153.491 79.1848L155.235 80.2313L146.049 85.4639L144.305 84.4174Z" fill="white"/>
<path d="M144.419 79.6503L149.419 76.8596L151.163 77.9061L146.163 80.6968L144.419 79.6503Z" fill="white"/>
<path d="M135.698 79.999L145.465 74.5339L147.209 75.5804L137.442 81.0455L135.698 79.999Z" fill="white"/>
<path d="M132.209 77.3256L141.395 72.093L143.139 73.1395L133.953 78.3721L132.209 77.3256Z" fill="white"/>
<path d="M88.7216 101.859L84.7682 104.068L86.5123 105.115L90.4658 102.906L88.7216 101.859Z" fill="white"/>
<path d="M100.348 95.2312L91.5113 100.231L93.2555 101.278L102.093 96.2777L100.348 95.2312Z" fill="white"/>
<path d="M89.5357 77.209L74.6521 85.5811L76.3962 86.6276L91.2799 78.2555L89.5357 77.209Z" fill="white"/>
<path d="M99.7684 71.3948L93.8382 74.7669L95.5824 75.8134L101.513 72.4413L99.7684 71.3948Z" fill="white"/>
</g>
<g opacity="0.8">
<path d="M162.095 142.324L143.723 152.79L145.467 153.836L163.956 143.371L162.095 142.324Z" fill="white"/>
<path d="M171.63 136.976L165.002 140.813L166.746 141.86L173.374 138.023L171.63 136.976Z" fill="white"/>
<path d="M178.955 132.906L174.42 135.464L176.164 136.51L180.699 133.952L178.955 132.906Z" fill="white"/>
<path d="M149.769 144.767L139.653 150.348L141.397 151.395L151.513 145.814L149.769 144.767Z" fill="white"/>
<path d="M164.887 136.162L152.562 143.139L154.306 144.185L166.632 137.208L164.887 136.162Z" fill="white"/>
<path d="M172.212 132.092L167.677 134.65L169.421 135.581L173.956 133.139L172.212 132.092Z" fill="white"/>
<path d="M179.187 128.139L174.652 130.697L176.396 131.744L180.931 129.186L179.187 128.139Z" fill="white"/>
<path d="M142.91 143.953L135.701 148.023L137.445 149.069L144.654 144.999L142.91 143.953Z" fill="white"/>
<path d="M148.257 140.93L145.699 142.325L147.443 143.372L150.001 141.976L148.257 140.93Z" fill="white"/>
<path d="M155.585 136.743L151.05 139.302L152.794 140.348L157.329 137.79L155.585 136.743Z" fill="white"/>
<path d="M158.491 130.465L131.631 145.697L133.375 146.628L160.235 131.511L158.491 130.465Z" fill="white"/>
<path d="M167.91 125.115L161.282 128.953L163.026 129.999L169.654 126.162L167.91 125.115Z" fill="white"/>
<path d="M199.536 121.279L212.327 114.069L214.071 115.116L201.28 122.325L199.536 121.279Z" fill="white"/>
<path d="M198.258 117.325L208.374 111.628L210.118 112.674L200.002 118.372L198.258 117.325Z" fill="white"/>
<path d="M197.095 113.372L204.304 109.302L206.048 110.349L198.839 114.418L197.095 113.372Z" fill="white"/>
<path d="M189.77 112.907L200.352 106.86L202.096 107.907L191.514 113.953L189.77 112.907Z" fill="white"/>
</g>
<path d="M52.7891 164.301C52.7891 151.278 61.8589 135.58 73.1379 129.069C78.7193 125.813 83.8356 125.464 87.5565 127.673L91.3937 129.883L90.2309 129.999C92.2076 132.441 93.4867 136.162 93.4867 140.813C93.4867 153.836 84.417 169.534 73.1379 176.045C69.3007 178.255 65.6961 179.069 62.5565 178.72L62.6728 179.766L58.7194 177.441L58.6031 177.324C54.9984 175.231 52.7891 170.697 52.7891 164.301Z" fill="#9FFFD7"/>
<path d="M62.6364 179.748C54.6837 175.157 54.666 160.299 62.5971 146.562C70.5281 132.826 83.4045 125.412 91.3572 130.004C99.31 134.596 99.3276 149.454 91.3965 163.19C83.4655 176.927 70.5892 184.34 62.6364 179.748Z" fill="#73F2C8"/>
<path d="M68.8364 178.836C71.3946 178.836 74.1852 178.022 77.2085 176.278C87.441 170.348 95.6968 156.046 95.6968 144.301C95.6968 138.488 93.7201 134.301 90.2317 132.208C86.6271 130.115 81.9759 130.581 76.9759 133.488C66.7434 139.418 58.4876 153.72 58.4876 165.464C58.4876 171.162 60.4643 175.464 63.9527 177.557C65.348 178.371 67.0922 178.836 68.8364 178.836ZM85.2317 131.511C86.9759 131.511 88.4875 131.86 89.8828 132.674C93.2549 134.65 95.1154 138.72 95.1154 144.301C95.1154 155.813 86.9759 169.999 76.9759 175.813C72.2085 178.604 67.6736 179.069 64.3015 177.092C60.9294 175.115 59.069 171.046 59.069 165.464C59.069 153.953 67.2085 139.767 77.2085 133.953C79.9992 132.325 82.6736 131.511 85.2317 131.511Z" fill="#18B271"/>
<path d="M234.649 187.208C234.649 174.184 243.719 158.487 254.998 151.975C260.58 148.719 265.696 148.371 269.417 150.58L273.254 152.789L272.091 152.905C274.068 155.347 275.347 159.068 275.347 163.719C275.347 176.743 266.277 192.44 254.998 198.952C251.161 201.161 247.556 201.975 244.417 201.626L244.533 202.673L240.58 200.347L240.463 200.231C236.859 198.138 234.649 193.603 234.649 187.208Z" fill="#9FFFD7"/>
<path d="M244.515 202.551C236.563 197.96 236.545 183.102 244.476 169.365C252.407 155.628 265.284 148.215 273.236 152.807C281.189 157.398 281.207 172.256 273.276 185.993C265.345 199.729 252.468 207.143 244.515 202.551Z" fill="#73F2C8"/>
<path d="M250.929 200.813C253.371 200.813 256.162 199.999 258.952 198.371C268.72 192.673 276.743 178.953 276.743 167.674C276.743 162.092 274.882 158.022 271.394 156.046C268.022 154.069 263.487 154.534 258.603 157.325C248.836 163.022 240.813 176.743 240.813 188.022C240.813 193.604 242.673 197.673 246.162 199.65C247.673 200.348 249.301 200.813 250.929 200.813ZM266.743 155.232C268.371 155.232 269.882 155.581 271.162 156.394C274.417 158.255 276.162 162.208 276.162 167.557C276.162 178.72 268.371 192.208 258.72 197.79C254.069 200.464 249.766 200.929 246.51 199.069C243.255 197.208 241.51 193.255 241.51 187.906C241.51 176.743 249.301 163.255 258.952 157.674C261.743 156.046 264.301 155.232 266.743 155.232Z" fill="#18B271"/>
</g>
<defs>
<linearGradient id="paint0_linear_10036_305" x1="152.927" y1="218.8" x2="282.231" y2="222.27" gradientUnits="userSpaceOnUse">
<stop stop-color="#5761D7"/>
<stop offset="0.0397918" stop-color="#5C66D9"/>
<stop offset="0.086699" stop-color="#6A73DF"/>
<stop offset="0.1372" stop-color="#8289E8"/>
<stop offset="0.1899" stop-color="#A3A7F5"/>
<stop offset="0.2237" stop-color="#BCBEFF"/>
</linearGradient>
<linearGradient id="paint1_linear_10036_305" x1="191.825" y1="152.162" x2="240.918" y2="229.744" gradientUnits="userSpaceOnUse">
<stop stop-color="#C0BFF6"/>
<stop offset="0.2938" stop-color="#C5C4F7"/>
<stop offset="0.6399" stop-color="#D3D2F9"/>
<stop offset="1" stop-color="#E9E9FD"/>
</linearGradient>
<linearGradient id="paint2_linear_10036_305" x1="153.076" y1="208.141" x2="282.379" y2="211.611" gradientUnits="userSpaceOnUse">
<stop stop-color="#5761D7"/>
<stop offset="0.0397918" stop-color="#5C66D9"/>
<stop offset="0.086699" stop-color="#6A73DF"/>
<stop offset="0.1372" stop-color="#8289E8"/>
<stop offset="0.1899" stop-color="#A3A7F5"/>
<stop offset="0.2237" stop-color="#BCBEFF"/>
</linearGradient>
<radialGradient id="paint3_radial_10036_305" cx="0" cy="0" r="1" gradientUnits="userSpaceOnUse" gradientTransform="translate(154.704 254.021) rotate(-59.4165) scale(104.34 104.34)">
<stop stop-color="#16E09E"/>
<stop offset="0.0167089" stop-color="#43E0DE"/>
<stop offset="0.1117" stop-color="#47D1C0"/>
<stop offset="0.2141" stop-color="#4BB1C7"/>
<stop offset="0.3237" stop-color="#4E7FBE"/>
<stop offset="0.4431" stop-color="#506BB7"/>
<stop offset="0.5775" stop-color="#525CB3"/>
<stop offset="0.7389" stop-color="#5354B0"/>
<stop offset="1" stop-color="#5351AF"/>
</radialGradient>
<linearGradient id="paint4_linear_10036_305" x1="191.976" y1="141.504" x2="241.068" y2="219.086" gradientUnits="userSpaceOnUse">
<stop stop-color="#C0BFF6"/>
<stop offset="0.2938" stop-color="#C5C4F7"/>
<stop offset="0.6399" stop-color="#D3D2F9"/>
<stop offset="1" stop-color="#E9E9FD"/>
</linearGradient>
<linearGradient id="paint5_linear_10036_305" x1="74.7193" y1="1.50872" x2="207.886" y2="232.367" gradientUnits="userSpaceOnUse">
<stop stop-color="#C0BFF6"/>
<stop offset="0.1172" stop-color="#D0CFF9"/>
<stop offset="0.2627" stop-color="#E9E9FD"/>
<stop offset="0.5143" stop-color="#C0BFF6"/>
<stop offset="0.6217" stop-color="#D0CFF9"/>
<stop offset="0.755" stop-color="#E9E9FD"/>
<stop offset="1" stop-color="#C0BFF6"/>
</linearGradient>
<radialGradient id="paint6_radial_10036_305" cx="0" cy="0" r="1" gradientUnits="userSpaceOnUse" gradientTransform="translate(0.00216223 145.667) rotate(-61.619) scale(307.597 307.597)">
<stop stop-color="#16E09E"/>
<stop offset="0.1117" stop-color="#47D1C0"/>
<stop offset="0.2141" stop-color="#4BB1C7"/>
<stop offset="0.3237" stop-color="#4E7FBE"/>
<stop offset="0.4431" stop-color="#4C6CC7"/>
<stop offset="0.5775" stop-color="#4956C9"/>
<stop offset="0.7389" stop-color="#494BC6"/>
<stop offset="1" stop-color="#7C4EFF"/>
</radialGradient>
<clipPath id="clip0_10036_305">
<rect width="300" height="261.627" fill="white" transform="matrix(-1 0 0 1 300 0)"/>
</clipPath>
</defs>
</svg>
