<svg width="200" height="232" viewBox="0 0 200 232" fill="none" xmlns="http://www.w3.org/2000/svg">
<g clip-path="url(#clip0_10035_598)">
<path opacity="0.4" d="M200 131.921C200 187.149 155.228 231.921 100 231.921C44.7715 231.921 0 187.149 0 131.921C0 76.6922 44.7715 31.9207 100 31.9207C155.228 31.9207 200 76.6922 200 131.921Z" fill="url(#paint0_linear_10035_598)"/>
<path opacity="0.4" d="M198.75 21.9207C198.75 30.2049 192.034 36.9207 183.75 36.9207C175.466 36.9207 168.75 30.2049 168.75 21.9207C168.75 13.6364 175.466 6.92065 183.75 6.92065C192.034 6.92065 198.75 13.6364 198.75 21.9207Z" fill="url(#paint1_linear_10035_598)"/>
<g opacity="0.5">
<g opacity="0.1" filter="url(#filter0_f_10035_598)">
<path d="M103.51 197.658C129.436 197.658 150.453 185.537 150.453 170.584C150.453 155.631 129.436 143.51 103.51 143.51C77.5836 143.51 56.5662 155.631 56.5662 170.584C56.5662 185.537 77.5836 197.658 103.51 197.658Z" fill="#0F054C"/>
</g>
<g opacity="0.2" filter="url(#filter1_f_10035_598)">
<path d="M103.51 192.964C124.974 192.964 142.375 182.944 142.375 170.584C142.375 158.224 124.974 148.204 103.51 148.204C82.0454 148.204 64.6449 158.224 64.6449 170.584C64.6449 182.944 82.0454 192.964 103.51 192.964Z" fill="#0F054C"/>
</g>
<g opacity="0.4" filter="url(#filter2_f_10035_598)">
<path d="M103.51 188.27C120.453 188.27 134.188 180.352 134.188 170.584C134.188 160.816 120.453 152.898 103.51 152.898C86.5679 152.898 72.8333 160.816 72.8333 170.584C72.8333 180.352 86.5679 188.27 103.51 188.27Z" fill="#080344"/>
</g>
</g>
<path d="M53.4008 126.588C51.7633 131.829 43.3571 142.091 38.0077 140.453C32.7675 138.815 32.7675 126.042 34.2958 120.802C35.9334 115.562 41.392 112.505 46.7414 114.143C51.9816 115.78 55.0384 121.348 53.4008 126.588Z" fill="url(#paint2_radial_10035_598)"/>
<path d="M53.4008 126.588C51.7633 131.829 43.3571 142.091 38.0077 140.453C32.7675 138.815 32.7675 126.042 34.2958 120.802C35.9334 115.562 41.392 112.505 46.7414 114.143C51.9816 115.78 55.0384 121.348 53.4008 126.588Z" fill="url(#paint3_linear_10035_598)"/>
<path d="M43.2478 114.251C45.9771 114.033 49.5797 115.671 51.1081 117.963C52.7457 120.256 51.7631 122.221 49.0339 122.548C46.3046 122.767 42.7019 121.129 41.1735 118.837C39.536 116.544 40.5185 114.47 43.2478 114.251Z" fill="#251C72"/>
<path opacity="0.5" d="M43.2478 114.251C45.9771 114.033 49.5797 115.671 51.1081 117.963C52.7457 120.256 51.7631 122.221 49.0339 122.548C46.3046 122.767 42.7019 121.129 41.1735 118.837C39.536 116.544 40.5185 114.47 43.2478 114.251Z" fill="url(#paint4_radial_10035_598)"/>
<path d="M40.41 116.762C40.8466 116.326 41.6108 116.107 42.4842 115.998C45.2135 115.78 48.8161 117.417 50.3445 119.71C50.7812 120.365 51.1088 121.129 51.1088 121.675C52.0913 120.802 52.2005 119.383 51.1088 117.854C49.4712 115.562 45.9777 113.924 43.2484 114.142C41.3925 114.361 40.3008 115.452 40.41 116.762Z" fill="#16E09E"/>
<path opacity="0.6" d="M52.5272 111.522C52.0905 111.522 51.7629 111.85 51.7629 112.286C51.7629 112.723 52.0905 113.051 52.5272 113.051C52.9638 113.051 53.2914 112.723 53.2914 112.286C53.2914 111.959 52.9638 111.522 52.5272 111.522Z" fill="#16E09E"/>
<path d="M45.1042 106.064C44.0125 106.064 43.1391 106.937 43.0299 108.029C43.0299 109.121 43.9033 109.994 44.995 110.103C46.0867 110.212 46.9601 109.23 47.0693 108.138C47.0693 107.046 46.1959 106.064 45.1042 106.064Z" fill="#16E09E"/>
<path opacity="0.6" d="M56.458 101.587C55.803 101.587 55.3663 102.024 55.3663 102.679C55.3663 103.334 55.803 103.771 56.458 103.771C57.1131 103.771 57.5498 103.334 57.5498 102.679C57.5498 102.024 57.1131 101.587 56.458 101.587Z" fill="#16E09E"/>
<path d="M52.0923 102.461C51.6557 102.461 51.3281 102.788 51.3281 103.225C51.3281 103.662 51.6557 103.989 52.0923 103.989C52.529 103.989 52.8565 103.662 52.8565 103.225C52.8565 102.897 52.4199 102.461 52.0923 102.461Z" fill="#16E09E"/>
<path d="M52.8542 100.823C52.5267 100.823 52.3083 101.042 52.3083 101.369C52.3083 101.697 52.5267 101.915 52.8542 101.915C53.1817 101.915 53.4001 101.697 53.4001 101.369C53.4001 101.042 53.1817 100.823 52.8542 100.823Z" fill="#16E09E"/>
<path opacity="0.6" d="M46.5227 115.452C45.8677 115.452 45.431 115.889 45.431 116.544C45.431 117.199 45.8677 117.636 46.5227 117.636C47.1778 117.636 47.6145 117.199 47.6145 116.544C47.6145 115.889 47.0686 115.452 46.5227 115.452Z" fill="#16E09E"/>
<path d="M49.7982 115.015C48.9248 115.015 48.1606 115.67 48.1606 116.653C48.1606 117.526 48.8157 118.291 49.7982 118.291C50.6716 118.291 51.4358 117.635 51.4358 116.653C51.4358 115.78 50.7808 115.015 49.7982 115.015Z" fill="#16E09E"/>
<path d="M67.4805 108.465C75.7408 108.465 82.437 101.769 82.437 93.509C82.437 85.2487 75.7408 78.5525 67.4805 78.5525C59.2203 78.5525 52.524 85.2487 52.524 93.509C52.524 101.769 59.2203 108.465 67.4805 108.465Z" fill="url(#paint5_linear_10035_598)"/>
<path d="M75.56 80.8451C82.547 85.3211 84.6212 94.6006 80.1452 101.588C75.6692 108.575 66.3896 110.649 59.4027 106.173C52.4157 101.697 50.3415 92.4172 54.8175 85.4303C59.2935 78.4433 68.5731 76.369 75.56 80.8451Z" fill="url(#paint6_linear_10035_598)"/>
<path d="M142.265 120.692C142.265 149.732 124.907 173.422 103.618 173.422C82.2206 173.422 64.9716 149.841 64.9716 120.692C64.9716 91.6527 82.3298 82.919 103.618 82.919C124.907 82.8098 142.265 91.5435 142.265 120.692Z" fill="url(#paint7_radial_10035_598)"/>
<path d="M142.265 120.692C142.265 149.732 124.907 173.422 103.618 173.422C82.2206 173.422 64.9716 149.841 64.9716 120.692C64.9716 91.6527 82.3298 82.919 103.618 82.919C124.907 82.8098 142.265 91.5435 142.265 120.692Z" fill="url(#paint8_linear_10035_598)"/>
<path d="M103.509 113.815C118.1 113.815 129.929 106.972 129.929 98.5308C129.929 90.0897 118.1 83.2468 103.509 83.2468C88.918 83.2468 77.0896 90.0897 77.0896 98.5308C77.0896 106.972 88.918 113.815 103.509 113.815Z" fill="#7C4EFF"/>
<path opacity="0.5" d="M103.509 113.815C118.1 113.815 129.929 106.972 129.929 98.5308C129.929 90.0897 118.1 83.2468 103.509 83.2468C88.918 83.2468 77.0896 90.0897 77.0896 98.5308C77.0896 106.972 88.918 113.815 103.509 113.815Z" fill="url(#paint9_radial_10035_598)"/>
<path d="M84.8407 91.7621C95.1028 85.7577 111.915 85.7577 122.177 91.7621C126.435 94.2731 128.946 97.3299 129.71 100.496C130.802 95.9106 128.291 91.2163 122.177 87.7228C111.915 81.7184 95.1028 81.7184 84.8407 87.7228C78.8362 91.2163 76.3253 96.0198 77.3078 100.496C78.072 97.3299 80.583 94.2731 84.8407 91.7621Z" fill="#16E09E"/>
<path d="M88.769 53.1258C93.1101 45.607 93.1161 37.4833 88.7823 34.9811C84.4485 32.4789 77.4161 36.5458 73.0749 44.0646C68.7338 51.5835 68.7278 59.7071 73.0616 62.2093C77.3954 64.7115 84.4278 60.6447 88.769 53.1258Z" fill="#BCBEFF"/>
<path d="M105.036 101.587C126.863 101.587 144.556 83.8937 144.556 62.0674C144.556 40.2411 126.863 22.5474 105.036 22.5474C83.21 22.5474 65.5162 40.2411 65.5162 62.0674C65.5162 83.8937 83.21 101.587 105.036 101.587Z" fill="url(#paint10_radial_10035_598)"/>
<path d="M105.036 101.587C126.863 101.587 144.556 83.8937 144.556 62.0674C144.556 40.2411 126.863 22.5474 105.036 22.5474C83.21 22.5474 65.5162 40.2411 65.5162 62.0674C65.5162 83.8937 83.21 101.587 105.036 101.587Z" fill="url(#paint11_linear_10035_598)"/>
<path d="M92.8112 80.8451C91.8286 88.5963 85.9334 90.9981 79.7106 86.3037C73.4879 81.5002 69.2302 71.4564 70.3219 63.5961C71.3044 55.8449 77.1997 53.4431 83.4224 58.1375C89.536 62.9411 93.7937 73.094 92.8112 80.8451Z" fill="#7C4EFF"/>
<path opacity="0.5" d="M92.8112 80.8451C91.8286 88.5963 85.9334 90.9981 79.7106 86.3037C73.4879 81.5002 69.2302 71.4564 70.3219 63.5961C71.3044 55.8449 77.1997 53.4431 83.4224 58.1375C89.536 62.9411 93.7937 73.094 92.8112 80.8451Z" fill="url(#paint12_radial_10035_598)"/>
<path d="M87.6809 74.0761C87.3534 76.9146 85.17 77.788 82.8774 76.0412C80.5848 74.2945 79.0564 70.5827 79.4931 67.8534C79.8206 65.0149 82.004 64.1416 84.2966 65.8883C86.4801 67.5259 88.0085 71.2377 87.6809 74.0761Z" fill="#16E09E"/>
<path d="M82.6592 85.1024C76.4365 80.2989 72.1788 70.2551 73.2705 62.3948C73.7072 59.2288 74.9081 56.9362 76.6548 55.7354C73.3797 56.0629 70.9779 58.7922 70.3229 63.5957C69.3403 71.3469 73.4888 81.4998 79.7116 86.3033C83.4234 89.1418 86.9169 89.3601 89.4279 87.6134C87.3536 87.7226 85.061 86.9584 82.6592 85.1024Z" fill="#16E09E"/>
<path d="M80.2576 85.9759C74.0348 81.1724 69.7771 71.1286 70.8688 63.2683C71.3055 59.6656 72.8339 57.2639 74.9082 56.063C72.5064 57.0455 70.7597 59.5565 70.323 63.4866C69.3404 71.2378 73.489 81.3907 79.7117 86.1943C83.096 88.7052 86.262 89.2511 88.6638 87.941C86.3712 88.9236 83.3144 88.3777 80.2576 85.9759Z" fill="#16E09E"/>
<path d="M146.084 145.693C154.345 145.693 161.041 138.997 161.041 130.736C161.041 122.476 154.345 115.78 146.084 115.78C137.824 115.78 131.128 122.476 131.128 130.736C131.128 138.997 137.824 145.693 146.084 145.693Z" fill="url(#paint13_radial_10035_598)"/>
<path d="M146.084 145.693C154.345 145.693 161.041 138.997 161.041 130.736C161.041 122.476 154.345 115.78 146.084 115.78C137.824 115.78 131.128 122.476 131.128 130.736C131.128 138.997 137.824 145.693 146.084 145.693Z" fill="url(#paint14_linear_10035_598)"/>
<path d="M160.498 130.955C160.498 135.212 157.55 140.343 153.838 142.418C150.126 144.492 147.179 142.854 147.179 138.597C147.179 134.339 150.126 129.208 153.838 127.134C157.55 125.059 160.498 126.697 160.498 130.955Z" fill="#7C4EFF"/>
<path opacity="0.5" d="M160.498 130.955C160.498 135.212 157.55 140.343 153.838 142.418C150.126 144.492 147.179 142.854 147.179 138.597C147.179 134.339 150.126 129.208 153.838 127.134C157.55 125.059 160.498 126.697 160.498 130.955Z" fill="url(#paint15_radial_10035_598)"/>
<path d="M157.004 126.26C157.55 127.024 157.878 128.116 157.878 129.535C157.878 133.793 154.93 138.924 151.218 140.998C150.127 141.653 149.035 141.981 148.161 141.872C149.253 143.509 151.437 143.837 153.948 142.418C157.659 140.343 160.607 135.212 160.607 130.955C160.498 128.007 159.079 126.369 157.004 126.26Z" fill="#16E09E"/>
<path d="M138.335 76.5872L124.143 84.775V68.2902L138.335 59.9932V76.5872Z" fill="#7C4EFF"/>
<path opacity="0.8" d="M136.261 61.3032V75.3863L124.143 82.3733V84.775L138.335 76.5872V59.9932L136.261 61.3032Z" fill="url(#paint16_radial_10035_598)"/>
<path d="M126.872 72.7657L125.562 73.5299V72.1106L126.872 71.3464V72.7657Z" fill="#16E09E"/>
<path d="M129.492 69.3817L128.291 70.0367V68.6175L129.492 67.8533V69.3817Z" fill="#16E09E"/>
<path d="M132.221 69.7093L131.02 70.3643V68.9451L132.221 68.1809V69.7093Z" fill="#16E09E"/>
<path d="M132.221 73.5303L131.02 74.2945V72.7661L132.221 72.1111V73.5303Z" fill="#16E09E"/>
<path d="M130.584 76.4781L129.383 77.2423V75.823L130.584 75.0588V76.4781Z" fill="#16E09E"/>
<path d="M135.058 71.8929L133.747 72.6571V71.2378L135.058 70.4736V71.8929Z" fill="#16E09E"/>
<path d="M156.351 172.767C154.713 178.007 146.307 188.269 140.958 186.631C135.608 184.994 135.718 172.221 137.246 166.981C138.884 161.74 144.342 158.684 149.691 160.321C154.932 161.959 157.988 167.527 156.351 172.767Z" fill="url(#paint17_radial_10035_598)"/>
<path d="M156.351 172.767C154.713 178.007 146.307 188.269 140.958 186.631C135.608 184.994 135.718 172.221 137.246 166.981C138.884 161.74 144.342 158.684 149.691 160.321C154.932 161.959 157.988 167.527 156.351 172.767Z" fill="url(#paint18_linear_10035_598)"/>
<path d="M146.197 160.431C148.927 160.213 152.529 161.85 154.058 164.143C155.695 166.435 154.713 168.4 151.983 168.728C149.254 168.946 145.651 167.309 144.123 165.016C142.485 162.723 143.468 160.649 146.197 160.431Z" fill="#251C72"/>
<path opacity="0.5" d="M146.197 160.431C148.927 160.213 152.529 161.85 154.058 164.143C155.695 166.435 154.713 168.4 151.983 168.728C149.254 168.946 145.651 167.309 144.123 165.016C142.485 162.723 143.468 160.649 146.197 160.431Z" fill="url(#paint19_radial_10035_598)"/>
<path d="M143.359 163.051C143.796 162.614 144.56 162.396 145.433 162.287C148.163 162.068 151.765 163.706 153.294 165.999C153.73 166.654 154.058 167.418 154.058 167.964C155.04 167.09 155.15 165.671 154.058 164.143C152.42 161.85 148.927 160.213 146.198 160.431C144.342 160.649 143.25 161.632 143.359 163.051Z" fill="#16E09E"/>
<path opacity="0.6" d="M154.056 154.099C154.383 153.772 154.383 153.335 154.056 153.007C153.728 152.68 153.292 152.68 152.964 153.007C152.637 153.335 152.637 153.772 152.964 154.099C153.182 154.427 153.728 154.427 154.056 154.099Z" fill="#16E09E"/>
<path d="M163.117 152.788C163.881 152.024 163.99 150.823 163.226 149.95C162.462 149.186 161.261 149.077 160.388 149.841C159.624 150.605 159.514 151.806 160.279 152.679C161.152 153.553 162.353 153.553 163.117 152.788Z" fill="#16E09E"/>
<path opacity="0.6" d="M158.205 163.924C158.642 163.488 158.642 162.833 158.205 162.396C157.768 161.959 157.113 161.959 156.677 162.396C156.24 162.833 156.24 163.488 156.677 163.924C157.004 164.361 157.768 164.361 158.205 163.924Z" fill="#16E09E"/>
<path d="M160.715 160.212C161.043 159.885 161.043 159.448 160.715 159.121C160.388 158.793 159.951 158.793 159.623 159.121C159.296 159.448 159.296 159.885 159.623 160.212C159.951 160.431 160.388 160.54 160.715 160.212Z" fill="#16E09E"/>
<path d="M161.37 161.959C161.588 161.741 161.588 161.414 161.37 161.195C161.152 160.977 160.824 160.977 160.606 161.195C160.387 161.414 160.387 161.741 160.606 161.959C160.824 162.178 161.152 162.178 161.37 161.959Z" fill="#16E09E"/>
<path opacity="0.6" d="M155.694 147.112C156.13 146.675 156.13 146.02 155.694 145.583C155.257 145.147 154.602 145.147 154.165 145.583C153.729 146.02 153.729 146.675 154.165 147.112C154.493 147.548 155.257 147.548 155.694 147.112Z" fill="#16E09E"/>
<path d="M153.51 149.732C154.165 149.077 154.165 148.094 153.619 147.439C152.964 146.784 151.981 146.784 151.326 147.33C150.671 147.985 150.671 148.968 151.217 149.623C151.872 150.278 152.855 150.387 153.51 149.732Z" fill="#16E09E"/>
<path d="M120.977 47.3294L39.4257 0.604117C38.1157 -0.160082 36.9148 -0.160087 35.9323 0.385769L30.9104 3.3334L34.1855 5.73517V8.35528L32.3296 9.11948L32.4388 108.575L38.0065 113.924L56.8932 124.732L114.754 156.937C114.754 156.937 116.937 156.937 117.265 156.937C117.374 156.937 117.483 156.61 117.592 156.282L120.103 157.702L119.339 161.523L124.47 158.575C125.562 157.92 126.326 156.501 126.326 154.317V57.3732C126.217 53.443 123.924 48.967 120.977 47.3294ZM118.793 151.479L40.2991 106.5C39.6441 106.173 39.0982 105.081 39.0982 104.208V8.46445L55.8014 19.1632L116.282 54.7531L118.029 57.4824L119.012 100.823L118.793 151.479Z" fill="url(#paint20_linear_10035_598)"/>
<path opacity="0.6" d="M124.579 51.2595L116.719 55.7355L117.81 57.4823L118.793 100.823L118.684 151.37L117.264 150.496C117.264 152.025 119.229 159.776 119.229 161.413L123.378 159.012L124.36 158.466C125.452 157.811 126.216 156.392 126.216 154.208V57.2639C126.216 55.2989 125.561 53.1154 124.579 51.2595Z" fill="#0F054C"/>
<path d="M115.737 50.3867L34.1858 3.66139C31.3473 2.02382 28.9456 3.77057 28.9456 7.59156V104.536C28.9456 108.357 31.2382 112.833 34.1858 114.579L115.737 161.305C118.575 162.942 120.977 161.196 120.977 157.375V60.4305C120.977 56.5003 118.575 52.0243 115.737 50.3867ZM116.173 154.427C116.173 155.3 115.628 155.737 114.973 155.3L34.95 109.448C34.295 109.121 33.7491 108.029 33.7491 107.156V10.5392C33.7491 9.66582 34.295 9.22913 34.95 9.66581L114.973 55.5178C115.628 55.8453 116.173 56.937 116.173 57.8104V154.427Z" fill="url(#paint21_linear_10035_598)"/>
<path d="M115.737 50.3867L34.1858 3.66139C31.3473 2.02382 28.9456 3.77057 28.9456 7.59156V104.536C28.9456 108.357 31.2382 112.833 34.1858 114.579L115.737 161.305C118.575 162.942 120.977 161.196 120.977 157.375V60.4305C120.977 56.5003 118.575 52.0243 115.737 50.3867ZM116.173 154.427C116.173 155.3 115.628 155.737 114.973 155.3L34.95 109.448C34.295 109.121 33.7491 108.029 33.7491 107.156V10.5392C33.7491 9.66582 34.295 9.22913 34.95 9.66581L114.973 55.5178C115.628 55.8453 116.173 56.937 116.173 57.8104V154.427Z" fill="url(#paint22_linear_10035_598)"/>
<path d="M40.1902 106.391C39.5351 106.063 38.9893 104.972 38.9893 104.098V11.9577L34.9499 9.55598C34.2949 9.22846 33.749 9.55598 33.749 10.4293V107.155C33.749 108.029 34.2949 109.011 34.9499 109.448L114.973 155.3C115.628 155.627 116.173 155.3 116.173 154.426V149.95L40.1902 106.391Z" fill="#251C72"/>
<path opacity="0.4" d="M116.173 154.426C116.173 155.3 115.628 155.736 114.973 155.3L34.9499 109.448C34.2949 109.12 33.749 108.029 33.749 107.155V10.5386C33.749 9.66521 34.2949 9.22852 34.9499 9.66521L114.973 55.5172C115.628 55.8447 116.173 56.9364 116.173 57.8098V154.426Z" fill="#16E09E"/>
<g opacity="0.4">
<path d="M58.4201 52.788L50.6689 48.312V46.3469L58.4201 50.8229V52.788Z" fill="#16E09E"/>
<path d="M65.0795 56.6087L61.2585 54.3162V52.3511L65.0795 54.6437V56.6087Z" fill="#16E09E"/>
<path d="M60.7129 58.6833L57.4377 56.7183V54.7532L60.7129 56.7183V58.6833Z" fill="#16E09E"/>
<path d="M66.2795 61.8485L62.4585 59.665V57.7L66.2795 59.8834V61.8485Z" fill="#16E09E"/>
<path d="M72.7217 70.1465L57.4377 61.3037V59.4478L72.7217 68.1815V70.1465Z" fill="#16E09E"/>
<path d="M60.7129 67.8537L57.4377 65.9978V64.0327L60.7129 65.8886V67.8537Z" fill="#16E09E"/>
<path d="M66.2795 71.1283L62.4585 68.8357V66.8706L66.2795 69.1632V71.1283Z" fill="#16E09E"/>
<path d="M65.8439 75.3863L57.4377 70.5828V68.6177L65.8439 73.4212V75.3863Z" fill="#16E09E"/>
<path d="M71.5193 78.6615L67.5891 76.3689V74.4038L71.5193 76.6964V78.6615Z" fill="#16E09E"/>
<path d="M77.0876 81.9369L73.2666 79.6443V77.6792L77.0876 79.9718V81.9369Z" fill="#16E09E"/>
<path d="M86.2588 87.1771L78.9443 82.9194V80.9543L86.2588 85.212V87.1771Z" fill="#16E09E"/>
<path d="M81.8916 93.8363L77.9614 91.5437V89.5786L81.8916 91.8712V93.8363Z" fill="#16E09E"/>
<path d="M90.9521 99.0768L83.6376 94.8191V92.854L90.9521 97.1117V99.0768Z" fill="#16E09E"/>
<path d="M61.3679 81.9363L57.4377 79.7529V77.7878L61.3679 80.0804V81.9363Z" fill="#16E09E"/>
<path d="M66.935 85.212L63.114 83.0285V81.0635L66.935 83.2469V85.212Z" fill="#16E09E"/>
<path d="M76.1048 90.5611L68.7903 86.3034V84.3384L76.1048 88.5961V90.5611Z" fill="#16E09E"/>
<path d="M87.35 92.4173L83.5291 90.2339V88.2688L87.35 90.4522V92.4173Z" fill="#16E09E"/>
<path d="M93.0269 95.692L89.0967 93.3994V91.5435L93.0269 93.7269V95.692Z" fill="#16E09E"/>
<path d="M102.198 100.932L94.7742 96.6745V94.7095L102.198 98.9671V100.932Z" fill="#16E09E"/>
<path d="M61.3679 91.2162L57.4377 88.9236V86.9585L61.3679 89.2511V91.2162Z" fill="#16E09E"/>
<path d="M70.4285 96.4562L63.114 92.1985V90.2334L70.4285 94.4911V96.4562Z" fill="#16E09E"/>
<path d="M84.4014 76.9147L80.4712 74.6221V72.657L84.4014 74.9496V76.9147Z" fill="#16E09E"/>
<path d="M78.5078 73.5299L74.5776 71.2373V69.2722L78.5078 71.5648V73.5299Z" fill="#16E09E"/>
<path d="M93.4634 82.1549L86.1489 77.8972V75.9321L93.4634 80.1898V82.1549Z" fill="#16E09E"/>
<path d="M60.9312 77.1331L57.4377 75.168V73.2029L60.9312 75.168V77.1331Z" fill="#16E09E"/>
<path d="M71.4102 83.1373L62.7856 78.2246V76.2595L71.4102 81.1722V83.1373Z" fill="#16E09E"/>
<path d="M81.782 89.2511L73.2666 84.2292V82.2642L81.782 87.286V89.2511Z" fill="#16E09E"/>
<path d="M98.9233 85.3211L95.4298 83.2468V81.2817L98.9233 83.356V85.3211Z" fill="#16E09E"/>
<path d="M66.0616 89.3605L57.5463 84.3386V82.3735L66.0616 87.3954V89.3605Z" fill="#16E09E"/>
<path d="M70.5376 91.8714L67.9175 90.343V88.3779L70.5376 89.9063V91.8714Z" fill="#16E09E"/>
<path d="M75.0127 94.491L72.3926 92.9626V90.9976L75.0127 92.526V94.491Z" fill="#16E09E"/>
<path d="M83.4211 99.2948L76.98 95.583V93.6179L83.4211 97.3297V99.2948Z" fill="#16E09E"/>
<path d="M85.1667 100.386L78.7256 96.5654V94.6003L85.1667 98.4213V100.386Z" fill="#16E09E"/>
<path d="M90.6255 89.6881L88.0054 88.1597V86.1946L90.6255 87.723V89.6881Z" fill="#16E09E"/>
<path d="M98.9216 94.4909L92.4805 90.7791V88.814L98.9216 92.5258V94.4909Z" fill="#16E09E"/>
<path d="M53.3965 91.2164L50.7764 89.688V87.7229L53.3965 89.2513V91.2164Z" fill="#16E09E"/>
<path d="M61.695 96.0194L55.2539 92.3076V90.3425L61.695 94.0543V96.0194Z" fill="#16E09E"/>
<path d="M70.2119 100.933L63.7708 97.2207V95.2556L70.2119 98.9674V100.933Z" fill="#16E09E"/>
</g>
</g>
<defs>
<filter id="filter0_f_10035_598" x="-8.93664" y="78.0067" width="224.893" height="185.155" filterUnits="userSpaceOnUse" color-interpolation-filters="sRGB">
<feFlood flood-opacity="0" result="BackgroundImageFix"/>
<feBlend mode="normal" in="SourceGraphic" in2="BackgroundImageFix" result="shape"/>
<feGaussianBlur stdDeviation="32.7514" result="effect1_foregroundBlur_10035_598"/>
</filter>
<filter id="filter1_f_10035_598" x="20.9764" y="104.535" width="165.067" height="132.097" filterUnits="userSpaceOnUse" color-interpolation-filters="sRGB">
<feFlood flood-opacity="0" result="BackgroundImageFix"/>
<feBlend mode="normal" in="SourceGraphic" in2="BackgroundImageFix" result="shape"/>
<feGaussianBlur stdDeviation="21.8343" result="effect1_foregroundBlur_10035_598"/>
</filter>
<filter id="filter2_f_10035_598" x="50.999" y="131.064" width="105.023" height="79.0401" filterUnits="userSpaceOnUse" color-interpolation-filters="sRGB">
<feFlood flood-opacity="0" result="BackgroundImageFix"/>
<feBlend mode="normal" in="SourceGraphic" in2="BackgroundImageFix" result="shape"/>
<feGaussianBlur stdDeviation="10.9171" result="effect1_foregroundBlur_10035_598"/>
</filter>
<linearGradient id="paint0_linear_10035_598" x1="32.5" y1="2.14526" x2="148.75" y2="215.895" gradientUnits="userSpaceOnUse">
<stop stop-color="#7C4EFF"/>
<stop offset="0.904355" stop-color="#7C4EFF" stop-opacity="0"/>
</linearGradient>
<linearGradient id="paint1_linear_10035_598" x1="173.625" y1="2.45435" x2="191.062" y2="34.5168" gradientUnits="userSpaceOnUse">
<stop stop-color="#7C4EFF"/>
<stop offset="0.904355" stop-color="#7C4EFF" stop-opacity="0"/>
</linearGradient>
<radialGradient id="paint2_radial_10035_598" cx="0" cy="0" r="1" gradientUnits="userSpaceOnUse" gradientTransform="translate(50.0972 118.724) rotate(16.7569) scale(28.2683 28.2683)">
<stop stop-color="#C0BFF6"/>
<stop offset="1" stop-color="#393091"/>
</radialGradient>
<linearGradient id="paint3_linear_10035_598" x1="45.5169" y1="113.589" x2="38.1297" y2="137.228" gradientUnits="userSpaceOnUse">
<stop stop-color="#2FD3C7"/>
<stop offset="0.0880899" stop-color="#31B6BD"/>
<stop offset="0.5206" stop-color="#3C57A5"/>
<stop offset="1" stop-color="#453C9E"/>
</linearGradient>
<radialGradient id="paint4_radial_10035_598" cx="0" cy="0" r="1" gradientUnits="userSpaceOnUse" gradientTransform="translate(44.7807 120.32) rotate(-95.1062) scale(18.3451 18.3451)">
<stop stop-color="#16E09E"/>
<stop offset="0.1055" stop-color="#37BFA7"/>
<stop offset="0.338" stop-color="#2277B0"/>
<stop offset="0.776042" stop-color="#2043CC"/>
<stop offset="1" stop-color="#2D30FF"/>
</radialGradient>
<linearGradient id="paint5_linear_10035_598" x1="66.9973" y1="78.7187" x2="66.9973" y2="108.454" gradientUnits="userSpaceOnUse">
<stop stop-color="#16E09E"/>
<stop offset="0.0880899" stop-color="#31BDA4"/>
<stop offset="0.5206" stop-color="#2752CC"/>
<stop offset="1" stop-color="#4C14EB"/>
</linearGradient>
<linearGradient id="paint6_linear_10035_598" x1="59.4437" y1="106.097" x2="75.5471" y2="80.8151" gradientUnits="userSpaceOnUse">
<stop stop-color="#706EC4"/>
<stop offset="0.0222208" stop-color="#6D6BC2"/>
<stop offset="0.2509" stop-color="#5651AC"/>
<stop offset="0.4865" stop-color="#463F9D"/>
<stop offset="0.7314" stop-color="#3C3494"/>
<stop offset="1" stop-color="#393091"/>
</linearGradient>
<radialGradient id="paint7_radial_10035_598" cx="0" cy="0" r="1" gradientUnits="userSpaceOnUse" gradientTransform="translate(126.374 112.777) scale(66.502 90.5268)">
<stop stop-color="#C0BFF6"/>
<stop offset="1" stop-color="#393091"/>
</radialGradient>
<linearGradient id="paint8_linear_10035_598" x1="110.765" y1="82.5456" x2="88.2853" y2="163.512" gradientUnits="userSpaceOnUse">
<stop stop-color="#2FD3C7"/>
<stop offset="0.0880899" stop-color="#31B6BD"/>
<stop offset="0.5206" stop-color="#3C57A5"/>
<stop offset="1" stop-color="#453C9E"/>
</linearGradient>
<radialGradient id="paint9_radial_10035_598" cx="0" cy="0" r="1" gradientUnits="userSpaceOnUse" gradientTransform="translate(102.516 113.153) scale(51.4741 51.4741)">
<stop stop-color="#16E09E"/>
<stop offset="0.1055" stop-color="#37BFA7"/>
<stop offset="0.4587" stop-color="#2A76E4"/>
<stop offset="0.7105" stop-color="#6951FD"/>
<stop offset="0.8458" stop-color="#7C4EFF"/>
<stop offset="1" stop-color="#3C04DB"/>
</radialGradient>
<radialGradient id="paint10_radial_10035_598" cx="0" cy="0" r="1" gradientUnits="userSpaceOnUse" gradientTransform="translate(129.705 56.2612) scale(66.7059)">
<stop stop-color="#C0BFF6"/>
<stop offset="1" stop-color="#393091"/>
</radialGradient>
<linearGradient id="paint11_linear_10035_598" x1="112.344" y1="22.2221" x2="95.2468" y2="94.3293" gradientUnits="userSpaceOnUse">
<stop stop-color="#2FD3C7"/>
<stop offset="0.0880899" stop-color="#31B6BD"/>
<stop offset="0.5206" stop-color="#3C57A5"/>
<stop offset="1" stop-color="#453C9E"/>
</linearGradient>
<radialGradient id="paint12_radial_10035_598" cx="0" cy="0" r="1" gradientUnits="userSpaceOnUse" gradientTransform="translate(92.788 65.7476) scale(32.7643 32.7643)">
<stop stop-color="#16E09E"/>
<stop offset="0.05911" stop-color="#3CCDB3"/>
<stop offset="0.359375" stop-color="#2277B0"/>
<stop offset="0.770833" stop-color="#2043CC"/>
<stop offset="1" stop-color="#2D30FF"/>
</radialGradient>
<radialGradient id="paint13_radial_10035_598" cx="0" cy="0" r="1" gradientUnits="userSpaceOnUse" gradientTransform="translate(154.954 120.902) rotate(11.1976) scale(31.2685 31.2685)">
<stop stop-color="#C0BFF6"/>
<stop offset="1" stop-color="#393091"/>
</radialGradient>
<linearGradient id="paint14_linear_10035_598" x1="148.85" y1="115.657" x2="142.379" y2="142.946" gradientUnits="userSpaceOnUse">
<stop stop-color="#2FD3C7"/>
<stop offset="0.0880899" stop-color="#31B6BD"/>
<stop offset="0.5206" stop-color="#3C57A5"/>
<stop offset="1" stop-color="#453C9E"/>
</linearGradient>
<radialGradient id="paint15_radial_10035_598" cx="0" cy="0" r="1" gradientUnits="userSpaceOnUse" gradientTransform="translate(151.052 132.436) scale(27.925 27.925)">
<stop stop-color="#16E09E"/>
<stop offset="0.1055" stop-color="#37BFAF"/>
<stop offset="0.338" stop-color="#2277B0"/>
<stop offset="0.78125" stop-color="#2043CC"/>
<stop offset="1" stop-color="#2D30FF"/>
</radialGradient>
<radialGradient id="paint16_radial_10035_598" cx="0" cy="0" r="1" gradientUnits="userSpaceOnUse" gradientTransform="translate(128.571 44.2114) scale(26.3215 33.8153)">
<stop stop-color="#7C4EFF"/>
<stop offset="0.31" stop-color="#612CF8"/>
<stop offset="1" stop-color="#4012C4"/>
</radialGradient>
<radialGradient id="paint17_radial_10035_598" cx="0" cy="0" r="1" gradientUnits="userSpaceOnUse" gradientTransform="translate(153.062 164.915) rotate(16.7569) scale(28.2683 28.2683)">
<stop stop-color="#C0BFF6"/>
<stop offset="1" stop-color="#393091"/>
</radialGradient>
<linearGradient id="paint18_linear_10035_598" x1="148.456" y1="159.768" x2="141.077" y2="183.412" gradientUnits="userSpaceOnUse">
<stop stop-color="#2FD3C7"/>
<stop offset="0.0880899" stop-color="#31B6BD"/>
<stop offset="0.5206" stop-color="#3C57A5"/>
<stop offset="1" stop-color="#453C9E"/>
</linearGradient>
<radialGradient id="paint19_radial_10035_598" cx="0" cy="0" r="1" gradientUnits="userSpaceOnUse" gradientTransform="translate(147.745 166.512) rotate(-95.1063) scale(18.3451 18.3451)">
<stop stop-color="#16E09E"/>
<stop offset="0.1055" stop-color="#37BFA7"/>
<stop offset="0.338542" stop-color="#2277B0"/>
<stop offset="0.75" stop-color="#2043CC"/>
<stop offset="1" stop-color="#2D30FF"/>
</radialGradient>
<linearGradient id="paint20_linear_10035_598" x1="49.7386" y1="80.7394" x2="126.974" y2="80.7394" gradientUnits="userSpaceOnUse">
<stop stop-color="#BCBEFF"/>
<stop offset="0.1659" stop-color="#B6B8FC"/>
<stop offset="0.3956" stop-color="#A4A8F5"/>
<stop offset="0.6625" stop-color="#868DEA"/>
<stop offset="0.9554" stop-color="#5E67DA"/>
<stop offset="1" stop-color="#5761D7"/>
</linearGradient>
<linearGradient id="paint21_linear_10035_598" x1="28.998" y1="82.4724" x2="120.969" y2="82.4724" gradientUnits="userSpaceOnUse">
<stop stop-color="#BCBEFF"/>
<stop offset="0.1659" stop-color="#B6B8FC"/>
<stop offset="0.3956" stop-color="#A4A8F5"/>
<stop offset="0.6625" stop-color="#868DEA"/>
<stop offset="0.9554" stop-color="#5E67DA"/>
<stop offset="1" stop-color="#5761D7"/>
</linearGradient>
<linearGradient id="paint22_linear_10035_598" x1="16.2952" y1="82.4724" x2="182.226" y2="82.4724" gradientUnits="userSpaceOnUse">
<stop stop-color="#706EC4"/>
<stop offset="0.0222208" stop-color="#6D6BC2"/>
<stop offset="0.2509" stop-color="#5651AC"/>
<stop offset="0.4865" stop-color="#463F9D"/>
<stop offset="0.7314" stop-color="#3C3494"/>
<stop offset="1" stop-color="#393091"/>
</linearGradient>
<clipPath id="clip0_10035_598">
<rect width="200" height="232" fill="white"/>
</clipPath>
</defs>
</svg>
