<svg width="200" height="283" viewBox="0 0 200 283" fill="none" xmlns="http://www.w3.org/2000/svg">
<path d="M99.7624 282.635C94.5917 282.635 89.4321 281.498 85.4989 279.237L8.76772 234.997C4.91183 232.78 2.79053 229.801 2.79053 226.613C2.79053 223.436 4.91183 220.457 8.76772 218.228L85.4989 173.989C93.3654 169.455 106.159 169.455 114.026 173.989L190.757 218.228C194.613 220.457 196.734 223.425 196.734 226.613C196.734 229.79 194.613 232.769 190.757 234.997L114.026 279.237C110.093 281.498 104.933 282.635 99.7624 282.635ZM99.7624 171.132C94.6912 171.132 89.631 172.246 85.7751 174.463L9.04393 218.703C5.36481 220.821 3.34295 223.634 3.34295 226.602C3.34295 229.581 5.36481 232.383 9.04393 234.512L85.7751 278.751C93.4869 283.197 106.038 283.197 113.75 278.751L190.481 234.512C194.16 232.394 196.182 229.58 196.182 226.613C196.182 223.645 194.16 220.832 190.481 218.703L113.75 174.463C109.894 172.246 104.823 171.132 99.7624 171.132Z" fill="#7D8AF7"/>
<path opacity="0.4" d="M199.53 212.271V203.346L194.724 205.542C196.536 194.609 180.538 219.575 175.633 220.259L120.656 252.362L96.6586 254.006L20.071 221.549L21.8387 220.534C15.2981 217.478 11.7626 210.495 8.2271 204.129L3.06751 207.196L0.00708008 203.633V212.558C0.00708008 215.956 2.24991 219.365 6.74662 221.947L83.4778 266.186C92.4602 271.36 107.077 271.36 116.06 266.186L192.791 221.947C197.21 219.398 199.453 216.066 199.53 212.724C199.53 212.558 199.519 212.415 199.53 212.271Z" fill="#7D8AF7"/>
<path d="M199.53 204.107V193.758L194.724 191.089C193.365 199.286 183.709 204.68 175.633 205.806L120.656 237.91L96.6586 246.559L20.071 207.096L21.8387 206.07C15.2981 203.015 11.7626 196.031 8.2271 189.666L3.06751 192.732L0.00708008 193.593V204.394C0.00708008 207.792 2.24991 211.2 6.74662 213.782L83.4778 258.021C92.4602 263.195 107.077 263.195 116.06 258.021L192.791 213.782C197.21 211.234 199.453 207.902 199.53 204.559C199.53 204.405 199.519 204.261 199.53 204.107Z" fill="url(#paint0_linear_10036_4)"/>
<path d="M199.53 204.107V193.758L194.724 191.089C193.365 199.286 183.709 204.68 175.633 205.806L120.656 237.91L96.6586 246.559L20.071 207.096L21.8387 206.07C15.2981 203.015 11.7626 196.031 8.2271 189.666L3.06751 192.732L0.00708008 193.593V204.394C0.00708008 207.792 2.24991 211.2 6.74662 213.782L83.4778 258.021C92.4602 263.195 107.077 263.195 116.06 258.021L192.791 213.782C197.21 211.234 199.453 207.902 199.53 204.559C199.53 204.405 199.519 204.261 199.53 204.107Z" fill="url(#paint1_linear_10036_4)"/>
<path opacity="0.3" d="M175.634 205.807L120.657 237.91L99.7754 245.445V261.906C105.675 261.906 111.575 260.615 116.072 258.022L192.803 213.783C197.222 211.234 199.465 207.903 199.542 204.56C199.542 204.406 199.543 204.262 199.531 204.108L199.542 211.124V193.759L195.145 191.321H194.681C193.179 199.386 183.622 204.692 175.634 205.807Z" fill="#7C4EFF"/>
<path d="M83.4679 247.387L6.73677 203.147C-2.24559 197.973 -2.24559 189.545 6.73677 184.359L83.4679 140.12C92.4503 134.946 107.067 134.946 116.05 140.12L192.781 184.359C201.763 189.533 201.763 197.962 192.781 203.147L116.05 247.387C107.078 252.572 92.4613 252.572 83.4679 247.387Z" fill="url(#paint2_linear_10036_4)"/>
<path d="M91.2916 221.648L51.3847 198.646C46.7113 195.954 46.7113 191.563 51.3847 188.871L91.2916 165.869C95.9651 163.177 103.566 163.177 108.24 165.869L148.147 188.871C152.82 191.563 152.82 195.943 148.147 198.646L108.24 221.648C103.566 224.351 95.9651 224.351 91.2916 221.648Z" fill="#7C4EFF"/>
<path d="M91.2916 221.648L51.3847 198.646C46.7113 195.954 46.7113 191.563 51.3847 188.871L91.2916 165.869C95.9651 163.177 103.566 163.177 108.24 165.869L148.147 188.871C152.82 191.563 152.82 195.943 148.147 198.646L108.24 221.648C103.566 224.351 95.9651 224.351 91.2916 221.648Z" fill="url(#paint3_radial_10036_4)"/>
<path d="M49.8472 197.554C50.2891 197.168 50.7973 196.804 51.3829 196.462L91.2898 173.459C95.9633 170.768 103.565 170.768 108.238 173.459L148.145 196.462C148.73 196.804 149.25 197.168 149.681 197.554C152.741 194.873 152.222 191.221 148.145 188.871L108.238 165.869C103.565 163.177 95.9633 163.177 91.2898 165.869L51.3829 188.871C47.295 191.232 46.7868 194.873 49.8472 197.554Z" fill="url(#paint4_radial_10036_4)"/>
<path d="M99.7637 248.777C94.1069 248.777 88.4391 247.53 84.1302 245.048L11.0008 202.894C6.79136 200.466 4.47119 197.223 4.47119 193.759C4.47119 190.295 6.79136 187.051 11.0008 184.624L84.1192 142.47C92.7369 137.494 106.768 137.505 115.386 142.47L188.516 184.624C192.725 187.051 195.045 190.295 195.045 193.759C195.045 197.223 192.725 200.466 188.516 202.894L115.397 245.048C111.088 247.541 105.432 248.777 99.7637 248.777ZM84.3512 244.684C92.8585 249.582 106.691 249.582 115.187 244.684L188.306 202.529C192.383 200.18 194.614 197.069 194.614 193.759C194.614 190.449 192.371 187.338 188.306 184.988L115.176 142.834C106.669 137.936 92.8364 137.936 84.3401 142.834L11.2218 184.988C7.14492 187.338 4.91312 190.449 4.91312 193.759C4.91312 197.069 7.15595 200.18 11.2328 202.529L84.3512 244.684Z" fill="#5351AF"/>
<path d="M99.7656 236.244C95.3904 236.244 91.0152 235.284 87.6786 233.364L31.2765 200.852C28.0172 198.977 26.2163 196.45 26.2163 193.759C26.2163 191.067 28.0172 188.551 31.2765 186.665L87.6786 154.153C94.3408 150.314 105.179 150.314 111.853 154.153L168.255 186.665C171.514 188.551 173.315 191.067 173.315 193.759C173.315 196.45 171.514 198.966 168.255 200.852L111.853 233.364C108.516 235.284 104.141 236.244 99.7656 236.244ZM99.7656 151.693C95.4677 151.693 91.1699 152.641 87.8996 154.528L31.4974 187.04C28.3707 188.838 26.6472 191.232 26.6472 193.759C26.6472 196.285 28.3707 198.679 31.4974 200.477L87.8996 232.989C94.4402 236.762 105.091 236.762 111.632 232.989L168.034 200.477C171.16 198.679 172.884 196.296 172.884 193.759C172.884 191.232 171.16 188.838 168.034 187.04L111.632 154.528C108.361 152.641 104.063 151.693 99.7656 151.693Z" fill="#5351AF"/>
<g opacity="0.4">
<path d="M91.2916 221.648L51.3847 198.646C46.7113 195.954 46.7113 191.563 51.3847 188.871L91.2916 165.869C95.9651 163.177 103.566 163.177 108.24 165.869L148.147 188.871C152.82 191.563 152.82 195.943 148.147 198.646L108.24 221.648C103.566 224.351 95.9651 224.351 91.2916 221.648Z" fill="#7D8AF7"/>
</g>
<path d="M192.792 203.159L116.061 247.398C107.079 252.572 92.4618 252.572 83.4795 247.398L6.74826 203.159C2.73769 200.842 0.516961 197.874 0.0860727 194.851C-0.444251 198.602 1.77648 202.464 6.74826 205.321L83.4795 249.56C92.4618 254.734 107.079 254.734 116.061 249.56L192.792 205.321C197.764 202.453 199.974 198.602 199.444 194.851C199.024 197.874 196.803 200.842 192.792 203.159Z" fill="white"/>
<path opacity="0.4" d="M192.79 154.451L116.059 110.212C107.077 105.038 92.4597 105.027 83.4774 110.212L6.74617 154.451C-2.23619 159.625 -2.23619 168.054 6.74617 173.239L83.4774 217.478C92.4597 222.652 107.077 222.652 116.059 217.478L192.79 173.239C201.773 168.065 201.773 159.636 192.79 154.451Z" fill="#7D8AF7"/>
<path d="M99.1584 212.855C95.0153 212.855 90.8832 211.951 87.7344 210.131L74.5315 202.43C71.449 200.654 69.7476 198.271 69.7476 195.722C69.7476 193.174 71.449 190.791 74.5315 189.015L88.9497 180.542C95.2473 176.912 105.5 176.912 111.798 180.542L125.001 188.243C128.083 190.019 129.785 192.402 129.785 194.95C129.785 197.499 128.083 199.882 125.001 201.658L110.582 210.131C107.434 211.951 103.302 212.855 99.1584 212.855ZM87.9553 209.755C94.1314 213.319 104.196 213.319 110.373 209.755L124.791 201.283C127.741 199.584 129.365 197.333 129.365 194.939C129.365 192.556 127.741 190.306 124.791 188.596L111.588 180.895C105.412 177.332 95.3467 177.332 89.1706 180.895L74.7635 189.368C71.8136 191.067 70.1895 193.317 70.1895 195.711C70.1895 198.094 71.8136 200.356 74.7635 202.055L87.9553 209.755Z" fill="#7D8AF7"/>
<path opacity="0.4" d="M132.026 183.455V176.306L128.171 178.06C129.618 169.301 116.802 189.302 112.88 189.843L115.885 188.596L96.6605 189.909L83.5681 191.641L84.9823 190.824C79.7343 188.375 76.917 182.782 74.0775 177.674L69.9454 180.134L67.4927 177.288V184.437C67.4927 187.162 69.2935 189.887 72.8953 191.961L86.0982 199.661C93.2907 203.809 105.002 203.809 112.206 199.661L126.624 191.188C130.159 189.148 131.96 186.478 132.015 183.797C132.026 183.687 132.026 183.576 132.026 183.455Z" fill="#7D8AF7"/>
<path d="M132.028 176.924V168.628L128.172 166.487C127.089 173.052 119.344 177.376 112.881 178.27L115.886 177.023L96.6617 183.951L83.5693 180.068L84.9835 179.252C79.7355 176.803 76.9182 171.209 74.0787 166.101L69.9466 168.562L67.4939 169.246V177.895C67.4939 180.62 69.2948 183.345 72.8966 185.419L86.0994 193.119C93.2919 197.267 105.003 197.267 112.207 193.119L126.625 184.647C130.16 182.606 131.961 179.936 132.017 177.255C132.028 177.156 132.028 177.034 132.028 176.924Z" fill="url(#paint5_linear_10036_4)"/>
<path d="M132.028 176.924V168.628L128.172 166.487C127.089 173.052 119.344 177.376 112.881 178.27L115.886 177.023L96.6617 183.951L83.5693 180.068L84.9835 179.252C79.7355 176.803 76.9182 171.209 74.0787 166.101L69.9466 168.562L67.4939 169.246V177.895C67.4939 180.62 69.2948 183.345 72.8966 185.419L86.0994 193.119C93.2919 197.267 105.003 197.267 112.207 193.119L126.625 184.647C130.16 182.606 131.961 179.936 132.017 177.255C132.028 177.156 132.028 177.034 132.028 176.924Z" fill="url(#paint6_linear_10036_4)"/>
<path opacity="0.3" d="M112.881 178.281L115.886 177.034L99.1592 183.069V196.263C103.888 196.263 108.617 195.226 112.218 193.152L126.637 184.679C130.172 182.638 131.973 179.969 132.028 177.288C132.028 177.166 132.028 177.045 132.017 176.924L132.028 182.539V168.628L128.504 166.675H128.139C126.935 173.129 119.289 177.387 112.881 178.281Z" fill="#7C4EFF"/>
<path d="M86.1095 184.624L72.9066 176.924C65.7141 172.776 65.7141 166.024 72.9066 161.876L87.3248 153.403C94.5173 149.255 106.229 149.255 113.432 153.403L126.635 161.104C133.828 165.252 133.828 172.003 126.635 176.152L112.217 184.624C105.013 188.772 93.302 188.772 86.1095 184.624Z" fill="url(#paint7_linear_10036_4)"/>
<path d="M99.2372 185.65C95.0498 185.65 90.8625 184.735 87.6695 182.892L76.0576 176.118C72.942 174.32 71.2295 171.915 71.2295 169.356C71.2295 166.785 72.942 164.391 76.0576 162.593L88.7302 155.146C95.1051 151.472 105.48 151.472 111.866 155.146L123.477 161.92C126.593 163.718 128.306 166.123 128.306 168.683C128.306 171.253 126.593 173.647 123.477 175.445L110.805 182.892C107.612 184.735 103.425 185.65 99.2372 185.65ZM87.8463 182.594C94.1328 186.213 104.353 186.213 110.628 182.594L123.301 175.148C126.306 173.416 127.963 171.121 127.963 168.683C127.963 166.245 126.306 163.95 123.301 162.218L111.689 155.444C105.413 151.825 95.1824 151.825 88.9069 155.444L76.2344 162.891C73.2293 164.623 71.572 166.918 71.572 169.356C71.572 171.794 73.2293 174.089 76.2344 175.821L87.8463 182.594Z" fill="#5351AF"/>
<path d="M126.626 176.151L112.208 184.624C105.015 188.772 93.3042 188.772 86.1006 184.624L72.8977 176.923C69.6827 175.07 67.9039 172.698 67.5614 170.26C67.1415 173.272 68.9093 176.361 72.8977 178.655L86.1006 186.356C93.2931 190.504 105.004 190.504 112.208 186.356L126.626 177.883C130.604 175.588 132.382 172.499 131.963 169.488C131.62 171.926 129.852 174.298 126.626 176.151Z" fill="white"/>
<path opacity="0.4" d="M83.5784 184.361L84.7937 184.195C84.628 184.118 84.4622 184.029 84.2965 183.941L83.5784 184.361Z" fill="#7D8AF7"/>
<path opacity="0.4" d="M113.753 182.22H113.686L112.88 182.551C113.134 182.518 113.421 182.397 113.753 182.22Z" fill="#7D8AF7"/>
<path opacity="0.4" d="M128.269 170.725C128.291 170.449 128.291 170.228 128.269 170.029C128.247 170.25 128.224 170.493 128.169 170.77L128.269 170.725Z" fill="#7D8AF7"/>
<path opacity="0.8" d="M132.026 176.163C132.026 176.285 132.026 176.395 132.026 176.516C131.971 179.197 130.17 181.867 126.634 183.908L112.216 192.381C105.024 196.529 93.3122 196.529 86.1087 192.381L72.9058 184.68C69.304 182.606 67.5032 179.881 67.5032 177.156V177.917C67.5032 180.642 69.304 183.367 72.9058 185.441L86.1087 193.142C93.3012 197.29 105.012 197.29 112.216 193.142L126.634 184.669C130.17 182.628 131.971 179.958 132.026 177.278C132.026 177.156 132.026 177.035 132.015 176.914H132.026V176.163Z" fill="#7D8AF7"/>
<path opacity="0.4" d="M132.026 170.139V162.99L128.171 164.744C129.618 155.984 116.802 175.986 112.88 176.526L115.885 175.28L96.6605 176.593L83.5681 178.325L84.9823 177.508C79.7343 175.059 76.917 169.466 74.0775 164.358L69.9454 166.818L67.4927 163.972V171.121C67.4927 173.846 69.2935 176.571 72.8953 178.645L86.0982 186.345C93.2907 190.493 105.002 190.493 112.206 186.345L126.624 177.872C130.159 175.831 131.96 173.162 132.015 170.481C132.026 170.37 132.026 170.26 132.026 170.139Z" fill="#7D8AF7"/>
<path d="M132.028 163.608V155.311L128.172 153.171C127.089 159.735 119.344 164.06 112.881 164.953L115.886 163.707L96.6617 170.635L83.5693 166.752L84.9835 165.935C79.7355 163.486 76.9182 157.893 74.0787 152.785L69.9466 155.245L67.4939 155.929V164.578C67.4939 167.303 69.2948 170.028 72.8966 172.102L86.0994 179.803C93.2919 183.951 105.003 183.951 112.207 179.803L126.625 171.33C130.16 169.289 131.961 166.619 132.017 163.939C132.028 163.839 132.028 163.718 132.028 163.608Z" fill="url(#paint8_linear_10036_4)"/>
<path d="M132.028 163.608V155.311L128.172 153.171C127.089 159.735 119.344 164.06 112.881 164.953L115.886 163.707L96.6617 170.635L83.5693 166.752L84.9835 165.935C79.7355 163.486 76.9182 157.893 74.0787 152.785L69.9466 155.245L67.4939 155.929V164.578C67.4939 167.303 69.2948 170.028 72.8966 172.102L86.0994 179.803C93.2919 183.951 105.003 183.951 112.207 179.803L126.625 171.33C130.16 169.289 131.961 166.619 132.017 163.939C132.028 163.839 132.028 163.718 132.028 163.608Z" fill="url(#paint9_linear_10036_4)"/>
<path opacity="0.3" d="M112.881 164.964L115.886 163.717L99.1592 169.752V182.947C103.888 182.947 108.617 181.91 112.218 179.836L126.637 171.363C130.172 169.322 131.973 166.652 132.028 163.971C132.028 163.85 132.028 163.728 132.017 163.607L132.028 169.223V155.311L128.504 153.358H128.139C126.935 159.812 119.289 164.07 112.881 164.964Z" fill="#7C4EFF"/>
<path d="M86.1099 171.308L72.9071 163.607C65.7146 159.459 65.7146 152.707 72.9071 148.559L87.3252 140.086C94.5178 135.938 106.229 135.938 113.433 140.086L126.635 147.787C133.828 151.935 133.828 158.687 126.635 162.835L112.217 171.308C105.014 175.456 93.3025 175.456 86.1099 171.308Z" fill="url(#paint10_linear_10036_4)"/>
<path d="M99.2372 172.334C95.0498 172.334 90.8625 171.418 87.6695 169.576L76.0576 162.802C72.942 161.004 71.2295 158.599 71.2295 156.04C71.2295 153.469 72.942 151.075 76.0576 149.277L88.7302 141.83C95.1051 138.156 105.48 138.156 111.866 141.83L123.477 148.604C126.593 150.402 128.306 152.807 128.306 155.367C128.306 157.937 126.593 160.331 123.477 162.129L110.805 169.576C107.612 171.418 103.425 172.334 99.2372 172.334ZM87.8463 169.278C94.1328 172.897 104.353 172.897 110.628 169.278L123.301 161.831C126.306 160.099 127.963 157.805 127.963 155.367C127.963 152.928 126.306 150.634 123.301 148.902L111.689 142.128C105.413 138.509 95.1824 138.509 88.9069 142.128L76.2344 149.575C73.2293 151.307 71.572 153.601 71.572 156.04C71.572 158.478 73.2293 160.772 76.2344 162.504L87.8463 169.278Z" fill="#5351AF"/>
<path d="M126.626 162.836L112.208 171.308C105.015 175.456 93.3042 175.456 86.1006 171.308L72.8977 163.608C69.6827 161.754 67.9039 159.382 67.5614 156.944C67.1415 159.956 68.9093 163.045 72.8977 165.34L86.1006 173.04C93.2931 177.189 105.004 177.189 112.208 173.04L126.626 164.568C130.604 162.273 132.382 159.184 131.963 156.172C131.62 158.61 129.852 160.982 126.626 162.836Z" fill="white"/>
<path opacity="0.4" d="M83.5784 171.044L84.7937 170.878C84.628 170.801 84.4622 170.712 84.2965 170.624L83.5784 171.044Z" fill="#7D8AF7"/>
<path opacity="0.4" d="M113.753 168.903H113.686L112.88 169.234C113.134 169.201 113.421 169.08 113.753 168.903Z" fill="#7D8AF7"/>
<path opacity="0.4" d="M128.269 157.408C128.291 157.132 128.291 156.911 128.269 156.712C128.247 156.933 128.224 157.176 128.169 157.452L128.269 157.408Z" fill="#7D8AF7"/>
<path opacity="0.8" d="M132.026 162.846C132.026 162.967 132.026 163.077 132.026 163.199C131.971 165.88 130.17 168.549 126.634 170.59L112.216 179.063C105.024 183.211 93.3122 183.211 86.1087 179.063L72.9058 171.363C69.304 169.289 67.5032 166.564 67.5032 163.839V164.6C67.5032 167.325 69.304 170.05 72.9058 172.124L86.1087 179.824C93.3012 183.972 105.012 183.972 112.216 179.824L126.634 171.352C130.17 169.311 131.971 166.641 132.026 163.96C132.026 163.839 132.026 163.717 132.015 163.596H132.026V162.846V162.846Z" fill="#7D8AF7"/>
<path opacity="0.4" d="M132.026 156.823V149.674L128.171 151.429C129.618 142.669 116.802 162.67 112.88 163.211L115.885 161.964L96.6605 163.277L83.5681 165.009L84.9823 164.193C79.7343 161.744 76.917 156.15 74.0775 151.042L69.9454 153.503L67.4927 150.656V157.805C67.4927 160.53 69.2935 163.255 72.8953 165.329L86.0982 173.03C93.2907 177.178 105.002 177.178 112.206 173.03L126.624 164.557C130.159 162.516 131.96 159.846 132.015 157.165C132.026 157.055 132.026 156.934 132.026 156.823Z" fill="#7D8AF7"/>
<path d="M132.028 150.292V141.996L128.172 139.856C127.089 146.42 119.344 150.744 112.881 151.638L115.886 150.391L96.6617 157.32L83.5693 153.436L84.9835 152.62C79.7355 150.171 76.9182 144.577 74.0787 139.469L69.9466 141.93L67.4939 142.614V151.263C67.4939 153.988 69.2948 156.713 72.8966 158.787L86.0994 166.487C93.2919 170.636 105.003 170.636 112.207 166.487L126.625 158.015C130.16 155.974 131.961 153.304 132.017 150.623C132.028 150.524 132.028 150.402 132.028 150.292Z" fill="url(#paint11_linear_10036_4)"/>
<path d="M132.028 150.292V141.996L128.172 139.856C127.089 146.42 119.344 150.744 112.881 151.638L115.886 150.391L96.6617 157.32L83.5693 153.436L84.9835 152.62C79.7355 150.171 76.9182 144.577 74.0787 139.469L69.9466 141.93L67.4939 142.614V151.263C67.4939 153.988 69.2948 156.713 72.8966 158.787L86.0994 166.487C93.2919 170.636 105.003 170.636 112.207 166.487L126.625 158.015C130.16 155.974 131.961 153.304 132.017 150.623C132.028 150.524 132.028 150.402 132.028 150.292Z" fill="url(#paint12_linear_10036_4)"/>
<path opacity="0.3" d="M112.881 151.638L115.886 150.391L99.1592 156.426V169.621C103.888 169.621 108.617 168.584 112.218 166.51L126.637 158.037C130.172 155.996 131.973 153.326 132.028 150.645C132.028 150.524 132.028 150.403 132.017 150.281L132.028 155.897V141.985L128.504 140.032H128.139C126.935 146.497 119.289 150.756 112.881 151.638Z" fill="#7C4EFF"/>
<path d="M86.1095 157.992L72.9066 150.292C65.7141 146.144 65.7141 139.392 72.9066 135.244L87.3248 126.771C94.5173 122.623 106.229 122.623 113.432 126.771L126.635 134.472C133.828 138.62 133.828 145.372 126.635 149.52L112.217 157.992C105.013 162.141 93.302 162.141 86.1095 157.992Z" fill="url(#paint13_linear_10036_4)"/>
<path d="M99.2372 159.019C95.0498 159.019 90.8625 158.103 87.6695 156.261L76.0576 149.487C72.942 147.689 71.2295 145.284 71.2295 142.724C71.2295 140.154 72.942 137.76 76.0576 135.961L88.7302 128.515C95.1051 124.841 105.48 124.841 111.866 128.515L123.477 135.288C126.593 137.087 128.306 139.492 128.306 142.051C128.306 144.622 126.593 147.016 123.477 148.814L110.805 156.261C107.612 158.103 103.425 159.019 99.2372 159.019ZM87.8463 155.963C94.1218 159.581 104.353 159.581 110.628 155.963L123.301 148.516C126.306 146.784 127.963 144.489 127.963 142.051C127.963 139.613 126.306 137.318 123.301 135.586L111.689 128.812C105.413 125.194 95.1824 125.194 88.9069 128.812L76.2344 136.259C73.2293 137.991 71.572 140.286 71.572 142.724C71.572 145.162 73.2293 147.457 76.2344 149.189L87.8463 155.963Z" fill="#5351AF"/>
<path d="M126.626 149.519L112.208 157.992C105.015 162.14 93.3042 162.14 86.1006 157.992L72.8977 150.291C69.6827 148.438 67.9039 146.066 67.5614 143.628C67.1415 146.629 68.9093 149.729 72.8977 152.024L86.1006 159.724C93.2931 163.872 105.004 163.872 112.208 159.724L126.626 151.251C130.604 148.957 132.382 145.868 131.963 142.856C131.62 145.294 129.852 147.666 126.626 149.519Z" fill="white"/>
<path opacity="0.4" d="M83.5784 157.729L84.7937 157.563C84.628 157.486 84.4622 157.397 84.2965 157.309L83.5784 157.729Z" fill="#7D8AF7"/>
<path opacity="0.4" d="M113.753 155.588H113.686L112.88 155.919C113.134 155.886 113.421 155.765 113.753 155.588Z" fill="#7D8AF7"/>
<path opacity="0.4" d="M128.269 144.093C128.291 143.817 128.291 143.596 128.269 143.397C128.247 143.618 128.224 143.861 128.169 144.137L128.269 144.093Z" fill="#7D8AF7"/>
<path opacity="0.8" d="M132.026 149.531C132.026 149.653 132.026 149.763 132.026 149.884C131.971 152.565 130.17 155.235 126.634 157.276L112.216 165.749C105.024 169.897 93.3122 169.897 86.1087 165.749L72.9058 158.048C69.304 155.974 67.5032 153.249 67.5032 150.524V151.285C67.5032 154.01 69.304 156.735 72.9058 158.809L86.1087 166.51C93.3012 170.658 105.012 170.658 112.216 166.51L126.634 158.037C130.17 155.996 131.971 153.326 132.026 150.645C132.026 150.524 132.026 150.403 132.015 150.281H132.026V149.531Z" fill="#7D8AF7"/>
<path opacity="0.4" d="M132.026 143.507V136.358L128.171 138.112C129.618 129.353 116.802 149.354 112.88 149.895L115.885 148.648L96.6605 149.961L83.5681 151.693L84.9823 150.877C79.7343 148.427 76.917 142.834 74.0775 137.726L69.9454 140.186L67.4927 137.34V144.489C67.4927 147.214 69.2935 149.939 72.8953 152.013L86.0982 159.713C93.2907 163.862 105.002 163.862 112.206 159.713L126.624 151.241C130.159 149.2 131.96 146.53 132.015 143.849C132.026 143.739 132.026 143.617 132.026 143.507Z" fill="#7D8AF7"/>
<path d="M132.028 136.976V128.68L128.172 126.54C127.089 133.104 119.344 137.429 112.881 138.322L115.886 137.075L96.6617 144.004L83.5693 140.12L84.9835 139.304C79.7355 136.855 76.9182 131.261 74.0787 126.154L69.9466 128.614L67.4939 129.298V137.947C67.4939 140.672 69.2948 143.397 72.8966 145.471L86.0994 153.171C93.2919 157.32 105.003 157.32 112.207 153.171L126.625 144.699C130.16 142.658 131.961 139.988 132.017 137.307C132.028 137.208 132.028 137.087 132.028 136.976Z" fill="url(#paint14_linear_10036_4)"/>
<path d="M132.028 136.976V128.68L128.172 126.54C127.089 133.104 119.344 137.429 112.881 138.322L115.886 137.075L96.6617 144.004L83.5693 140.12L84.9835 139.304C79.7355 136.855 76.9182 131.261 74.0787 126.154L69.9466 128.614L67.4939 129.298V137.947C67.4939 140.672 69.2948 143.397 72.8966 145.471L86.0994 153.171C93.2919 157.32 105.003 157.32 112.207 153.171L126.625 144.699C130.16 142.658 131.961 139.988 132.017 137.307C132.028 137.208 132.028 137.087 132.028 136.976Z" fill="url(#paint15_linear_10036_4)"/>
<path opacity="0.3" d="M112.881 138.322L115.886 137.076L99.1592 143.11V156.305C103.888 156.305 108.617 155.268 112.218 153.194L126.637 144.721C130.172 142.68 131.973 140.01 132.028 137.329C132.028 137.208 132.028 137.087 132.017 136.965L132.028 142.581V128.669L128.504 126.716H128.139C126.935 133.181 119.289 137.44 112.881 138.322Z" fill="#7C4EFF"/>
<path d="M86.1095 144.676L72.9066 136.976C65.7141 132.828 65.7141 126.076 72.9066 121.928L87.3248 113.455C94.5173 109.307 106.229 109.307 113.432 113.455L126.635 121.156C133.828 125.304 133.828 132.055 126.635 136.204L112.217 144.676C105.013 148.824 93.302 148.824 86.1095 144.676Z" fill="url(#paint16_linear_10036_4)"/>
<path d="M99.2372 145.703C95.0498 145.703 90.8625 144.787 87.6695 142.945L76.0576 136.171C72.942 134.372 71.2295 131.967 71.2295 129.408C71.2295 126.837 72.942 124.443 76.0576 122.645L88.7302 115.198C95.1051 111.525 105.48 111.525 111.866 115.198L123.477 121.972C126.593 123.77 128.306 126.175 128.306 128.735C128.306 131.305 126.593 133.699 123.477 135.498L110.805 142.945C107.612 144.787 103.425 145.703 99.2372 145.703ZM87.8463 142.647C94.1328 146.265 104.353 146.265 110.628 142.647L123.301 135.2C126.306 133.468 127.963 131.173 127.963 128.735C127.963 126.297 126.306 124.002 123.301 122.27L111.689 115.496C105.413 111.878 95.1824 111.878 88.9069 115.496L76.2344 122.943C73.2293 124.675 71.572 126.97 71.572 129.408C71.572 131.846 73.2293 134.141 76.2344 135.873L87.8463 142.647Z" fill="#5351AF"/>
<path d="M126.626 136.204L112.208 144.677C105.015 148.825 93.3042 148.825 86.1006 144.677L72.8977 136.976C69.6827 135.123 67.9039 132.751 67.5614 130.313C67.1415 133.314 68.9093 136.414 72.8977 138.708L86.1006 146.409C93.2931 150.557 105.004 150.557 112.208 146.409L126.626 137.936C130.604 135.641 132.382 132.552 131.963 129.541C131.62 131.979 129.852 134.351 126.626 136.204Z" fill="white"/>
<path opacity="0.4" d="M83.5784 144.412L84.7937 144.246C84.628 144.169 84.4622 144.08 84.2965 143.992L83.5784 144.412Z" fill="#7D8AF7"/>
<path opacity="0.4" d="M113.753 142.271H113.686L112.88 142.602C113.134 142.569 113.421 142.448 113.753 142.271Z" fill="#7D8AF7"/>
<path opacity="0.4" d="M128.269 130.777C128.291 130.5 128.291 130.268 128.269 130.081C128.247 130.302 128.224 130.545 128.169 130.821L128.269 130.777Z" fill="#7D8AF7"/>
<path opacity="0.8" d="M132.026 136.215C132.026 136.336 132.026 136.447 132.026 136.568C131.971 139.249 130.17 141.919 126.634 143.959L112.216 152.432C105.024 156.58 93.3122 156.58 86.1087 152.432L72.9058 144.732C69.304 142.658 67.5032 139.933 67.5032 137.208V137.969C67.5032 140.694 69.304 143.419 72.9058 145.493L86.1087 153.193C93.3012 157.342 105.012 157.342 112.216 153.193L126.634 144.721C130.17 142.68 131.971 140.01 132.026 137.329C132.026 137.208 132.026 137.086 132.015 136.965H132.026V136.215Z" fill="#7D8AF7"/>
<path opacity="0.4" d="M132.026 130.191V123.042L128.171 124.796C129.618 116.036 116.802 136.038 112.88 136.578L115.885 135.332L96.6605 136.645L83.5681 138.377L84.9823 137.56C79.7343 135.111 76.917 129.518 74.0775 124.41L69.9454 126.87L67.4927 124.024V131.173C67.4927 133.898 69.2935 136.623 72.8953 138.697L86.0982 146.397C93.2907 150.545 105.002 150.545 112.206 146.397L126.624 137.924C130.159 135.883 131.96 133.214 132.015 130.533C132.026 130.422 132.026 130.301 132.026 130.191Z" fill="#7D8AF7"/>
<path d="M132.028 123.66V115.364L128.172 113.223C127.089 119.787 119.344 124.112 112.881 125.006L115.886 123.759L96.6617 130.687L83.5693 126.804L84.9835 125.988C79.7355 123.538 76.9182 117.945 74.0787 112.837L69.9466 115.297L67.4939 115.981V124.631C67.4939 127.356 69.2948 130.081 72.8966 132.155L86.0994 139.855C93.2919 144.003 105.003 144.003 112.207 139.855L126.625 131.382C130.16 129.341 131.961 126.672 132.017 123.991C132.028 123.891 132.028 123.77 132.028 123.66Z" fill="url(#paint17_linear_10036_4)"/>
<path d="M132.028 123.66V115.364L128.172 113.223C127.089 119.787 119.344 124.112 112.881 125.006L115.886 123.759L96.6617 130.687L83.5693 126.804L84.9835 125.988C79.7355 123.538 76.9182 117.945 74.0787 112.837L69.9466 115.297L67.4939 115.981V124.631C67.4939 127.356 69.2948 130.081 72.8966 132.155L86.0994 139.855C93.2919 144.003 105.003 144.003 112.207 139.855L126.625 131.382C130.16 129.341 131.961 126.672 132.017 123.991C132.028 123.891 132.028 123.77 132.028 123.66Z" fill="url(#paint18_linear_10036_4)"/>
<path opacity="0.3" d="M112.881 125.006L115.886 123.759L99.1592 129.794V142.989C103.888 142.989 108.617 141.952 112.218 139.878L126.637 131.405C130.172 129.364 131.973 126.694 132.028 124.013C132.028 123.892 132.028 123.77 132.017 123.649L132.028 129.264V115.353L128.504 113.4H128.139C126.935 119.865 119.289 124.123 112.881 125.006Z" fill="#7C4EFF"/>
<path d="M86.1095 131.361L72.9066 123.66C65.7141 119.512 65.7141 112.76 72.9066 108.612L87.3248 100.139C94.5173 95.9913 106.229 95.9913 113.432 100.139L126.635 107.84C133.828 111.988 133.828 118.74 126.635 122.888L112.217 131.361C105.013 135.509 93.302 135.509 86.1095 131.361Z" fill="url(#paint19_linear_10036_4)"/>
<path d="M99.2372 132.387C95.0498 132.387 90.8625 131.471 87.6695 129.629L76.0576 122.855C72.942 121.057 71.2295 118.651 71.2295 116.092C71.2295 113.521 72.942 111.128 76.0576 109.329L88.7302 101.882C95.1051 98.2088 105.48 98.2088 111.866 101.882L123.477 108.656C126.593 110.455 128.306 112.86 128.306 115.419C128.306 117.99 126.593 120.384 123.477 122.182L110.805 129.629C107.612 131.471 103.425 132.387 99.2372 132.387ZM87.8463 129.331C94.1328 132.949 104.353 132.949 110.628 129.331L123.301 121.884C126.306 120.152 127.963 117.857 127.963 115.419C127.963 112.981 126.306 110.686 123.301 108.954L111.689 102.18C105.402 98.5618 95.1824 98.5618 88.9069 102.18L76.2344 109.627C73.2293 111.359 71.572 113.654 71.572 116.092C71.572 118.53 73.2293 120.825 76.2344 122.557L87.8463 129.331Z" fill="#5351AF"/>
<path d="M126.626 122.887L112.208 131.36C105.015 135.508 93.3042 135.508 86.1006 131.36L72.8977 123.66C69.6827 121.806 67.9039 119.434 67.5614 116.996C67.1415 120.008 68.9093 123.097 72.8977 125.392L86.1006 133.092C93.2931 137.24 105.004 137.24 112.208 133.092L126.626 124.619C130.604 122.325 132.382 119.236 131.963 116.224C131.62 118.662 129.852 121.034 126.626 122.887Z" fill="white"/>
<path opacity="0.4" d="M83.5784 131.097L84.7937 130.931C84.628 130.854 84.4622 130.765 84.2965 130.677L83.5784 131.097Z" fill="#7D8AF7"/>
<path opacity="0.4" d="M113.753 128.956H113.686L112.88 129.287C113.134 129.254 113.421 129.133 113.753 128.956Z" fill="#7D8AF7"/>
<path opacity="0.4" d="M128.269 117.461C128.291 117.185 128.291 116.964 128.269 116.765C128.247 116.986 128.224 117.229 128.169 117.505L128.269 117.461Z" fill="#7D8AF7"/>
<path opacity="0.8" d="M132.026 122.899C132.026 123.021 132.026 123.131 132.026 123.252C131.971 125.933 130.17 128.603 126.634 130.644L112.216 139.117C105.024 143.265 93.3122 143.265 86.1087 139.117L72.9058 131.416C69.304 129.342 67.5032 126.617 67.5032 123.892V124.653C67.5032 127.378 69.304 130.103 72.9058 132.177L86.1087 139.878C93.3012 144.026 105.012 144.026 112.216 139.878L126.634 131.405C130.17 129.364 131.971 126.694 132.026 124.013C132.026 123.892 132.026 123.771 132.015 123.649H132.026V122.899Z" fill="#7D8AF7"/>
<path opacity="0.4" d="M132.026 116.876V109.727L128.171 111.481C129.618 102.721 116.802 122.723 112.88 123.263L115.885 122.017L96.6605 123.329L83.5681 125.061L84.9823 124.245C79.7343 121.796 76.917 116.203 74.0775 111.095L69.9454 113.555L67.4927 110.709V117.857C67.4927 120.582 69.2935 123.307 72.8953 125.381L86.0982 133.082C93.2907 137.23 105.002 137.23 112.206 133.082L126.624 124.609C130.159 122.568 131.96 119.898 132.015 117.218C132.026 117.107 132.026 116.986 132.026 116.876Z" fill="#7D8AF7"/>
<path d="M132.028 110.344V102.048L128.172 99.9078C127.089 106.472 119.344 110.797 112.881 111.69L115.886 110.444L96.6617 117.372L83.5693 113.489L84.9835 112.672C79.7355 110.223 76.9182 104.63 74.0787 99.5217L69.9466 101.982L67.4939 102.666V111.315C67.4939 114.04 69.2948 116.765 72.8966 118.839L86.0994 126.54C93.2919 130.688 105.003 130.688 112.207 126.54L126.625 118.067C130.16 116.026 131.961 113.356 132.017 110.675C132.028 110.576 132.028 110.455 132.028 110.344Z" fill="url(#paint20_linear_10036_4)"/>
<path d="M132.028 110.344V102.048L128.172 99.9078C127.089 106.472 119.344 110.797 112.881 111.69L115.886 110.444L96.6617 117.372L83.5693 113.489L84.9835 112.672C79.7355 110.223 76.9182 104.63 74.0787 99.5217L69.9466 101.982L67.4939 102.666V111.315C67.4939 114.04 69.2948 116.765 72.8966 118.839L86.0994 126.54C93.2919 130.688 105.003 130.688 112.207 126.54L126.625 118.067C130.16 116.026 131.961 113.356 132.017 110.675C132.028 110.576 132.028 110.455 132.028 110.344Z" fill="url(#paint21_linear_10036_4)"/>
<path opacity="0.3" d="M112.881 111.69L115.886 110.443L99.1592 116.478V129.673C103.888 129.673 108.617 128.636 112.218 126.562L126.637 118.089C130.172 116.048 131.973 113.378 132.028 110.697C132.028 110.576 132.028 110.455 132.017 110.333L132.028 115.949V102.037L128.504 100.084H128.139C126.935 106.549 119.289 110.808 112.881 111.69Z" fill="#7C4EFF"/>
<path d="M86.1095 118.045L72.9066 110.344C65.7141 106.196 65.7141 99.4444 72.9066 95.2963L87.3248 86.8235C94.5173 82.6754 106.229 82.6754 113.432 86.8235L126.635 94.524C133.828 98.6721 133.828 105.424 126.635 109.572L112.217 118.045C105.013 122.193 93.302 122.193 86.1095 118.045Z" fill="url(#paint22_linear_10036_4)"/>
<path d="M99.2372 119.071C95.0498 119.071 90.8625 118.155 87.6695 116.313L76.0576 109.539C72.942 107.741 71.2295 105.336 71.2295 102.776C71.2295 100.206 72.942 97.8116 76.0576 96.0133L88.7302 88.5666C95.1051 84.8928 105.48 84.8928 111.866 88.5666L123.477 95.3404C126.593 97.1386 128.306 99.5437 128.306 102.103C128.306 104.674 126.593 107.068 123.477 108.866L110.805 116.313C107.612 118.155 103.425 119.071 99.2372 119.071ZM87.8463 116.015C94.1328 119.633 104.353 119.633 110.628 116.015L123.301 108.568C126.306 106.836 127.963 104.541 127.963 102.103C127.963 99.665 126.306 97.3703 123.301 95.6382L111.689 88.8645C105.413 85.2459 95.1824 85.2459 88.9069 88.8645L76.2344 96.3112C73.2293 98.0433 71.572 100.338 71.572 102.776C71.572 105.214 73.2293 107.509 76.2344 109.241L87.8463 116.015Z" fill="#5351AF"/>
<path d="M126.626 109.572L112.208 118.044C105.015 122.193 93.3042 122.193 86.1006 118.044L72.8977 110.344C69.6827 108.491 67.9039 106.119 67.5614 103.68C67.1415 106.681 68.9093 109.781 72.8977 112.076L86.1006 119.777C93.2931 123.925 105.004 123.925 112.208 119.777L126.626 111.304C130.604 109.009 132.382 105.92 131.963 102.908C131.62 105.346 129.852 107.718 126.626 109.572Z" fill="white"/>
<path opacity="0.4" d="M83.5784 117.781L84.7937 117.615C84.628 117.538 84.4622 117.449 84.2965 117.361L83.5784 117.781Z" fill="#7D8AF7"/>
<path opacity="0.4" d="M113.753 115.64H113.686L112.88 115.971C113.134 115.938 113.421 115.816 113.753 115.64Z" fill="#7D8AF7"/>
<path opacity="0.4" d="M128.269 104.145C128.291 103.869 128.291 103.648 128.269 103.449C128.247 103.67 128.224 103.913 128.169 104.189L128.269 104.145Z" fill="#7D8AF7"/>
<path opacity="0.8" d="M132.026 109.583C132.026 109.704 132.026 109.814 132.026 109.936C131.971 112.617 130.17 115.286 126.634 117.327L112.216 125.8C105.024 129.948 93.3122 129.948 86.1087 125.8L72.9058 118.1C69.304 116.026 67.5032 113.301 67.5032 110.576V111.337C67.5032 114.062 69.304 116.787 72.9058 118.861L86.1087 126.561C93.3012 130.709 105.012 130.709 112.216 126.561L126.634 118.089C130.17 116.048 131.971 113.378 132.026 110.697C132.026 110.576 132.026 110.454 132.015 110.333H132.026V109.583Z" fill="#7D8AF7"/>
<path opacity="0.4" d="M199.53 195.646V109.76L194.724 111.955C196.536 101.022 180.538 125.988 175.633 126.672L120.656 158.776L96.6586 160.42L20.071 127.963L21.8387 126.937C15.2981 123.881 11.7626 116.898 8.2271 110.532L3.06751 113.599L0.00708008 110.036V195.922C0.00708008 199.32 2.24991 202.729 6.74662 205.31L83.4778 249.549C92.4602 254.724 107.077 254.724 116.06 249.549L192.791 205.31C197.21 202.762 199.453 199.43 199.53 196.087C199.53 195.933 199.53 195.955 199.519 195.811L199.53 195.646Z" fill="#7D8AF7"/>
<path opacity="0.4" d="M199.53 163.465C199.53 163.608 199.53 163.762 199.53 163.906C199.464 167.249 197.21 170.58 192.791 173.129L116.06 217.368C107.077 222.542 92.4602 222.542 83.4778 217.368L6.74662 173.129C2.24991 170.536 0.00708008 167.138 0.00708008 163.74V195.932C0.00708008 199.33 2.24991 202.739 6.74662 205.321L83.4778 249.56C92.4602 254.734 107.077 254.734 116.06 249.56L192.791 205.321C197.21 202.772 199.453 199.441 199.53 196.098C199.53 195.944 199.53 195.8 199.519 195.646H199.53V163.465Z" fill="#7BFFC0"/>
<path opacity="0.8" d="M199.53 163.354C199.53 163.498 199.53 163.652 199.53 163.796C199.464 167.139 197.21 170.47 192.791 173.019L116.06 217.258C107.077 222.432 92.4602 222.432 83.4778 217.258L6.74662 173.019C2.24991 170.426 0.00708008 167.028 0.00708008 163.63V165.495C0.00708008 168.893 2.24991 172.302 6.74662 174.883L83.4778 219.122C92.4602 224.297 107.077 224.297 116.06 219.122L192.791 174.883C197.21 172.335 199.453 169.003 199.53 165.66C199.53 165.506 199.53 165.362 199.519 165.208H199.53V163.354Z" fill="#7BFFC0"/>
<path d="M199.532 110.532V100.184L194.725 97.514C193.367 105.711 183.71 111.106 175.634 112.231L120.657 144.335L96.6598 152.984L20.0722 113.522L21.84 112.496C15.2993 109.44 11.7638 102.456 8.22832 96.0908L3.06873 99.1578L0.00830078 100.018V110.819C0.00830078 114.217 2.25113 117.626 6.74784 120.207L83.479 164.447C92.4614 169.621 107.078 169.621 116.061 164.447L192.792 120.207C197.211 117.659 199.454 114.327 199.532 110.984C199.532 110.83 199.52 110.675 199.532 110.532Z" fill="url(#paint23_linear_10036_4)"/>
<path d="M199.532 110.532V100.184L194.725 97.514C193.367 105.711 183.71 111.106 175.634 112.231L120.657 144.335L96.6598 152.984L20.0722 113.522L21.84 112.496C15.2993 109.44 11.7638 102.456 8.22832 96.0908L3.06873 99.1578L0.00830078 100.018V110.819C0.00830078 114.217 2.25113 117.626 6.74784 120.207L83.479 164.447C92.4614 169.621 107.078 169.621 116.061 164.447L192.792 120.207C197.211 117.659 199.454 114.327 199.532 110.984C199.532 110.83 199.52 110.675 199.532 110.532Z" fill="url(#paint24_linear_10036_4)"/>
<path opacity="0.3" d="M175.634 112.231L120.657 144.335L99.7754 151.87V168.33C105.675 168.33 111.575 167.039 116.072 164.447L192.803 120.207C197.222 117.659 199.465 114.327 199.542 110.984C199.542 110.83 199.543 110.686 199.531 110.532L199.542 194.675V100.184L195.145 97.7456H194.681C193.179 105.81 183.622 111.117 175.634 112.231Z" fill="#7C4EFF"/>
<path d="M49.8472 103.978C50.2891 103.592 50.7973 103.228 51.3829 102.886L91.2898 79.884C95.9633 77.1921 103.565 77.1921 108.238 79.884L148.145 102.886C148.73 103.228 149.25 103.592 149.681 103.978C152.741 101.298 152.222 97.6459 148.145 95.296L108.238 72.2938C103.565 69.6019 95.9633 69.6019 91.2898 72.2938L51.3829 95.296C47.295 97.6569 46.7868 101.298 49.8472 103.978Z" fill="url(#paint25_radial_10036_4)"/>
<path d="M192.791 90.7951L116.06 46.5559C107.078 41.3818 92.4606 41.3707 83.4782 46.5559L6.74702 90.7951C-2.23533 95.9693 -2.23533 104.398 6.74702 109.583L83.4782 153.822C92.4606 158.996 107.078 158.996 116.06 153.822L192.791 109.583C201.774 104.398 201.774 95.9693 192.791 90.7951ZM148.145 105.071L108.238 128.073C103.564 130.765 95.9629 130.765 91.2895 128.073L51.3826 105.071C46.7091 102.379 46.7091 97.9882 51.3826 95.2963L91.2895 72.2941C95.9629 69.6022 103.564 69.6022 108.238 72.2941L148.145 95.2963C152.818 97.9882 152.818 102.379 148.145 105.071Z" fill="url(#paint26_linear_10036_4)"/>
<path d="M184.207 91.6558L114.558 51.4984C106.405 46.7987 93.1354 46.7987 84.9817 51.4984L15.3326 91.6558C7.17885 96.3555 7.17885 104.012 15.3326 108.712L84.9817 148.869C93.1354 153.569 106.405 153.569 114.558 148.869L184.207 108.712C192.361 104.012 192.361 96.3555 184.207 91.6558ZM159.061 106.174L110.161 134.373C104.438 137.671 95.1131 137.671 89.39 134.373L40.4787 106.174C34.7557 102.876 34.7557 97.5029 40.4787 94.2042L89.379 66.0058C95.1021 62.7072 104.427 62.7072 110.15 66.0058L159.061 94.2042C164.784 97.4918 164.784 102.865 159.061 106.174Z" fill="#7C4EFF"/>
<path opacity="0.4" d="M184.207 91.6558L114.558 51.4984C106.405 46.7987 93.1354 46.7987 84.9817 51.4984L15.3326 91.6558C7.17885 96.3555 7.17885 104.012 15.3326 108.712L84.9817 148.869C93.1354 153.569 106.405 153.569 114.558 148.869L184.207 108.712C192.361 104.012 192.361 96.3555 184.207 91.6558ZM159.061 106.174L110.161 134.373C104.438 137.671 95.1131 137.671 89.39 134.373L40.4787 106.174C34.7557 102.876 34.7557 97.5029 40.4787 94.2042L89.379 66.0058C95.1021 62.7072 104.427 62.7072 110.15 66.0058L159.061 94.2042C164.784 97.4918 164.784 102.865 159.061 106.174Z" fill="#7D8AF7"/>
<path d="M192.791 109.572L116.06 153.811C107.078 158.986 92.4607 158.986 83.4784 153.811L6.74716 109.572C2.73659 107.255 0.515862 104.288 0.0849741 101.265C-0.445349 105.016 1.77538 108.877 6.74716 111.734L83.4784 155.974C92.4607 161.148 107.078 161.148 116.06 155.974L192.791 111.734C197.763 108.866 199.973 105.016 199.442 101.265C199.023 104.299 196.802 107.266 192.791 109.572Z" fill="white"/>
<path d="M99.765 145.074C95.1468 145.074 90.5175 144.059 87.0041 142.029L27.398 107.664C23.9509 105.678 22.0505 103.019 22.0505 100.184C22.0505 97.3486 23.9509 94.6898 27.398 92.704L87.0041 58.3386C94.042 54.2787 105.499 54.2787 112.537 58.3386L172.143 92.704C175.59 94.6898 177.48 97.3486 177.48 100.184C177.48 103.019 175.579 105.678 172.143 107.664L112.537 142.029C109.013 144.059 104.394 145.074 99.765 145.074ZM99.765 55.7129C95.2241 55.7129 90.6722 56.7058 87.2141 58.7027L27.6079 93.0681C24.3044 94.9767 22.4814 97.503 22.4814 100.184C22.4814 102.865 24.3044 105.391 27.6079 107.3L87.2141 141.665C94.1304 145.659 105.4 145.659 112.316 141.665L171.922 107.3C175.226 105.391 177.049 102.865 177.049 100.195C177.049 97.5141 175.226 94.9877 171.922 93.0791L112.316 58.7137C108.858 56.7169 104.306 55.7129 99.765 55.7129Z" fill="#7D8AF7"/>
<g opacity="0.4">
<path d="M91.2894 128.073L51.3825 105.071C46.7091 102.379 46.7091 97.9884 51.3825 95.2965L91.2894 72.2943C95.9629 69.6024 103.564 69.6024 108.238 72.2943L148.145 95.2965C152.818 97.9884 152.818 102.368 148.145 105.071L108.238 128.073C103.564 130.765 95.9629 130.765 91.2894 128.073Z" fill="#7D8AF7"/>
</g>
<path opacity="0.6" d="M132.013 159.824C132.013 159.945 132.024 160.067 132.024 160.188C131.968 162.869 130.168 165.539 126.632 167.58L112.214 176.052C105.021 180.201 93.31 180.201 86.1065 176.052L72.9036 168.352C69.3018 166.278 67.501 163.553 67.501 160.828V163.84V163.983V164.601V169.268V171.132V177.156V177.299V177.917V184.448C67.501 187.173 69.3018 189.898 72.9036 191.972L86.1065 199.672C93.299 203.821 105.01 203.821 112.214 199.672L126.632 191.2C130.168 189.159 131.968 186.489 132.024 183.808C132.024 183.687 132.024 183.565 132.013 183.444H132.024V182.528V176.913V176.152V170.128V169.212V169.201V168.617V163.597V162.836L132.013 159.824Z" fill="#7BFFC0"/>
<path opacity="0.5" d="M151.647 0.0107422H47.8689V100.183C47.8689 101.949 49.04 103.725 51.3713 105.071L91.2781 128.073C95.9516 130.765 103.553 130.765 108.226 128.073L148.133 105.071C150.464 103.725 151.636 101.96 151.636 100.183V0.0107422H151.647Z" fill="url(#paint27_linear_10036_4)"/>
<path opacity="0.8" d="M150.673 102.898C151.314 102.026 151.645 101.11 151.645 100.173V0H150.816L150.673 102.898Z" fill="url(#paint28_linear_10036_4)"/>
<path opacity="0.8" d="M48.8507 102.898C48.2099 102.026 47.8784 101.11 47.8784 100.173V0H48.707L48.8507 102.898Z" fill="url(#paint29_linear_10036_4)"/>
<path d="M125.683 155.345L115.286 161.336C114.988 161.512 114.734 161.325 114.734 160.916C114.734 160.508 114.977 160.045 115.286 159.868L125.683 153.878C125.981 153.701 126.235 153.889 126.235 154.297C126.224 154.705 125.981 155.169 125.683 155.345Z" fill="#7D8AF7"/>
<path d="M147.084 143.011L136.688 149.001C136.389 149.178 136.135 148.99 136.135 148.582C136.135 148.174 136.378 147.711 136.688 147.534L147.084 141.544C147.383 141.367 147.637 141.555 147.637 141.963C147.626 142.371 147.383 142.834 147.084 143.011Z" fill="#7D8AF7"/>
<path d="M168.484 130.677L158.088 136.668C157.79 136.844 157.535 136.656 157.535 136.248C157.535 135.84 157.778 135.377 158.088 135.2L168.484 129.21C168.783 129.033 169.037 129.221 169.037 129.629C169.026 130.026 168.783 130.5 168.484 130.677Z" fill="#7D8AF7"/>
<path d="M189.885 118.332L179.488 124.323C179.19 124.499 178.936 124.311 178.936 123.903C178.936 123.495 179.179 123.032 179.488 122.855L189.885 116.865C190.183 116.688 190.437 116.876 190.437 117.284C190.426 117.692 190.183 118.155 189.885 118.332Z" fill="#7D8AF7"/>
<path d="M125.683 249.186L115.286 255.177C114.988 255.353 114.734 255.166 114.734 254.757C114.734 254.349 114.977 253.886 115.286 253.709L125.683 247.719C125.981 247.542 126.235 247.73 126.235 248.138C126.224 248.535 125.981 249.01 125.683 249.186Z" fill="#7D8AF7"/>
<path d="M147.084 236.841L136.688 242.831C136.389 243.008 136.135 242.82 136.135 242.412C136.135 242.004 136.378 241.54 136.688 241.364L147.084 235.373C147.383 235.197 147.637 235.384 147.637 235.793C147.626 236.201 147.383 236.675 147.084 236.841Z" fill="#7D8AF7"/>
<path d="M168.484 224.507L158.088 230.497C157.79 230.674 157.535 230.486 157.535 230.078C157.535 229.67 157.778 229.207 158.088 229.03L168.484 223.04C168.783 222.863 169.037 223.051 169.037 223.459C169.026 223.867 168.783 224.33 168.484 224.507Z" fill="#7D8AF7"/>
<path d="M189.885 212.173L179.488 218.163C179.19 218.34 178.936 218.152 178.936 217.744C178.936 217.336 179.179 216.872 179.488 216.696L189.885 210.705C190.183 210.529 190.437 210.716 190.437 211.125C190.426 211.533 190.183 211.996 189.885 212.173Z" fill="#7D8AF7"/>
<path d="M73.5419 155.345L83.9385 161.336C84.2368 161.512 84.4909 161.325 84.4909 160.916C84.4909 160.508 84.2478 160.045 83.9385 159.868L73.5419 153.878C73.2436 153.701 72.9895 153.889 72.9895 154.297C72.9895 154.705 73.2326 155.169 73.5419 155.345Z" fill="#7D8AF7"/>
<path d="M52.1418 143.011L62.5383 149.001C62.8366 149.178 63.0908 148.99 63.0908 148.582C63.0908 148.174 62.8477 147.71 62.5383 147.534L52.1418 141.543C51.8435 141.367 51.5894 141.554 51.5894 141.963C51.5894 142.371 51.8324 142.834 52.1418 143.011Z" fill="#7D8AF7"/>
<path d="M30.7404 130.677L41.137 136.667C41.4353 136.844 41.6894 136.656 41.6894 136.248C41.6894 135.84 41.4463 135.376 41.137 135.2L30.7404 129.209C30.4421 129.033 30.188 129.22 30.188 129.629C30.188 130.026 30.4311 130.5 30.7404 130.677Z" fill="#7D8AF7"/>
<path d="M9.34026 118.332L19.7368 124.322C20.0351 124.499 20.2892 124.311 20.2892 123.903C20.2892 123.495 20.0462 123.031 19.7368 122.855L9.34026 116.864C9.04196 116.688 8.78784 116.875 8.78784 117.283C8.78784 117.692 9.03091 118.155 9.34026 118.332Z" fill="#7D8AF7"/>
<path d="M73.5419 249.185L83.9385 255.176C84.2368 255.352 84.4909 255.165 84.4909 254.756C84.4909 254.348 84.2478 253.885 83.9385 253.708L73.5419 247.718C73.2436 247.541 72.9895 247.729 72.9895 248.137C72.9895 248.534 73.2326 249.009 73.5419 249.185Z" fill="#7D8AF7"/>
<path d="M52.1418 236.84L62.5383 242.831C62.8366 243.007 63.0908 242.82 63.0908 242.411C63.0908 242.003 62.8477 241.54 62.5383 241.363L52.1418 235.373C51.8435 235.196 51.5894 235.384 51.5894 235.792C51.5894 236.2 51.8324 236.675 52.1418 236.84Z" fill="#7D8AF7"/>
<path d="M30.7404 224.506L41.137 230.496C41.4353 230.673 41.6894 230.485 41.6894 230.077C41.6894 229.669 41.4463 229.206 41.137 229.029L30.7404 223.039C30.4421 222.862 30.188 223.05 30.188 223.458C30.188 223.866 30.4311 224.329 30.7404 224.506Z" fill="#7D8AF7"/>
<path d="M9.34026 212.172L19.7368 218.163C20.0351 218.339 20.2892 218.152 20.2892 217.743C20.2892 217.335 20.0462 216.872 19.7368 216.695L9.34026 210.705C9.04196 210.528 8.78784 210.716 8.78784 211.124C8.78784 211.532 9.03091 211.996 9.34026 212.172Z" fill="#7D8AF7"/>
<defs>
<linearGradient id="paint0_linear_10036_4" x1="21.3711" y1="156.634" x2="176.523" y2="246.343" gradientUnits="userSpaceOnUse">
<stop stop-color="#BCBEFF"/>
<stop offset="0.2271" stop-color="#AAADF8"/>
<stop offset="0.6802" stop-color="#7C83E5"/>
<stop offset="1" stop-color="#5761D7"/>
</linearGradient>
<linearGradient id="paint1_linear_10036_4" x1="21.3711" y1="156.634" x2="176.523" y2="246.343" gradientUnits="userSpaceOnUse">
<stop stop-color="#16E09E"/>
<stop offset="0.0881" stop-color="#31BDA4"/>
<stop offset="0.2288" stop-color="#338DB0"/>
<stop offset="0.3734" stop-color="#356BA5"/>
<stop offset="0.5206" stop-color="#37519C"/>
<stop offset="0.6715" stop-color="#383F96"/>
<stop offset="0.8281" stop-color="#393492"/>
<stop offset="1" stop-color="#393091"/>
</linearGradient>
<linearGradient id="paint2_linear_10036_4" x1="0.0027621" y1="193.76" x2="199.527" y2="193.76" gradientUnits="userSpaceOnUse">
<stop stop-color="#E9E9FD"/>
<stop offset="0.3601" stop-color="#D3D2F9"/>
<stop offset="0.7062" stop-color="#C5C4F7"/>
<stop offset="1" stop-color="#C0BFF6"/>
</linearGradient>
<radialGradient id="paint3_radial_10036_4" cx="0" cy="0" r="1" gradientUnits="userSpaceOnUse" gradientTransform="translate(98.9052 229.083) scale(90.831 90.698)">
<stop stop-color="#42E8E0"/>
<stop offset="0.0796" stop-color="#3AC4C9"/>
<stop offset="0.2064" stop-color="#2F92A8"/>
<stop offset="0.3361" stop-color="#25678C"/>
<stop offset="0.4662" stop-color="#1D4375"/>
<stop offset="0.597" stop-color="#172863"/>
<stop offset="0.7289" stop-color="#121556"/>
<stop offset="0.8623" stop-color="#10094F"/>
<stop offset="1" stop-color="#0F054C"/>
</radialGradient>
<radialGradient id="paint4_radial_10036_4" cx="0" cy="0" r="1" gradientUnits="userSpaceOnUse" gradientTransform="translate(98.9033 200.606) scale(90.5063 90.3739)">
<stop stop-color="#42E8E0"/>
<stop offset="0.0796" stop-color="#3AC4C9"/>
<stop offset="0.2064" stop-color="#2F92A8"/>
<stop offset="0.3361" stop-color="#25678C"/>
<stop offset="0.4662" stop-color="#1D4375"/>
<stop offset="0.597" stop-color="#172863"/>
<stop offset="0.7289" stop-color="#121556"/>
<stop offset="0.8623" stop-color="#10094F"/>
<stop offset="1" stop-color="#0F054C"/>
</radialGradient>
<linearGradient id="paint5_linear_10036_4" x1="72.8589" y1="160.01" x2="125.381" y2="190.378" gradientUnits="userSpaceOnUse">
<stop stop-color="#BCBEFF"/>
<stop offset="0.2271" stop-color="#AAADF8"/>
<stop offset="0.6802" stop-color="#7C83E5"/>
<stop offset="1" stop-color="#5761D7"/>
</linearGradient>
<linearGradient id="paint6_linear_10036_4" x1="72.8589" y1="160.01" x2="125.381" y2="190.378" gradientUnits="userSpaceOnUse">
<stop stop-color="#706EC4"/>
<stop offset="0.0222" stop-color="#6D6BC2"/>
<stop offset="0.2509" stop-color="#5651AC"/>
<stop offset="0.4865" stop-color="#463F9D"/>
<stop offset="0.7314" stop-color="#3C3494"/>
<stop offset="1" stop-color="#393091"/>
</linearGradient>
<linearGradient id="paint7_linear_10036_4" x1="67.5047" y1="169.015" x2="132.027" y2="169.015" gradientUnits="userSpaceOnUse">
<stop stop-color="#E9E9FD"/>
<stop offset="0.3601" stop-color="#D3D2F9"/>
<stop offset="0.7062" stop-color="#C5C4F7"/>
<stop offset="1" stop-color="#C0BFF6"/>
</linearGradient>
<linearGradient id="paint8_linear_10036_4" x1="72.8589" y1="146.693" x2="125.381" y2="177.061" gradientUnits="userSpaceOnUse">
<stop stop-color="#BCBEFF"/>
<stop offset="0.2271" stop-color="#AAADF8"/>
<stop offset="0.6802" stop-color="#7C83E5"/>
<stop offset="1" stop-color="#5761D7"/>
</linearGradient>
<linearGradient id="paint9_linear_10036_4" x1="72.8589" y1="146.693" x2="125.381" y2="177.061" gradientUnits="userSpaceOnUse">
<stop stop-color="#706EC4"/>
<stop offset="0.0222" stop-color="#6D6BC2"/>
<stop offset="0.2509" stop-color="#5651AC"/>
<stop offset="0.4865" stop-color="#463F9D"/>
<stop offset="0.7314" stop-color="#3C3494"/>
<stop offset="1" stop-color="#393091"/>
</linearGradient>
<linearGradient id="paint10_linear_10036_4" x1="67.5052" y1="155.698" x2="132.027" y2="155.698" gradientUnits="userSpaceOnUse">
<stop stop-color="#E9E9FD"/>
<stop offset="0.3601" stop-color="#D3D2F9"/>
<stop offset="0.7062" stop-color="#C5C4F7"/>
<stop offset="1" stop-color="#C0BFF6"/>
</linearGradient>
<linearGradient id="paint11_linear_10036_4" x1="72.8588" y1="133.378" x2="125.381" y2="163.746" gradientUnits="userSpaceOnUse">
<stop stop-color="#BCBEFF"/>
<stop offset="0.2271" stop-color="#AAADF8"/>
<stop offset="0.6802" stop-color="#7C83E5"/>
<stop offset="1" stop-color="#5761D7"/>
</linearGradient>
<linearGradient id="paint12_linear_10036_4" x1="72.8588" y1="133.378" x2="125.381" y2="163.746" gradientUnits="userSpaceOnUse">
<stop stop-color="#706EC4"/>
<stop offset="0.0222" stop-color="#6D6BC2"/>
<stop offset="0.2509" stop-color="#5651AC"/>
<stop offset="0.4865" stop-color="#463F9D"/>
<stop offset="0.7314" stop-color="#3C3494"/>
<stop offset="1" stop-color="#393091"/>
</linearGradient>
<linearGradient id="paint13_linear_10036_4" x1="67.5047" y1="142.382" x2="132.027" y2="142.382" gradientUnits="userSpaceOnUse">
<stop stop-color="#E9E9FD"/>
<stop offset="0.3601" stop-color="#D3D2F9"/>
<stop offset="0.7062" stop-color="#C5C4F7"/>
<stop offset="1" stop-color="#C0BFF6"/>
</linearGradient>
<linearGradient id="paint14_linear_10036_4" x1="72.8588" y1="120.061" x2="125.381" y2="150.429" gradientUnits="userSpaceOnUse">
<stop stop-color="#BCBEFF"/>
<stop offset="0.2271" stop-color="#AAADF8"/>
<stop offset="0.6802" stop-color="#7C83E5"/>
<stop offset="1" stop-color="#5761D7"/>
</linearGradient>
<linearGradient id="paint15_linear_10036_4" x1="72.8588" y1="120.061" x2="125.381" y2="150.429" gradientUnits="userSpaceOnUse">
<stop stop-color="#706EC4"/>
<stop offset="0.0222" stop-color="#6D6BC2"/>
<stop offset="0.2509" stop-color="#5651AC"/>
<stop offset="0.4865" stop-color="#463F9D"/>
<stop offset="0.7314" stop-color="#3C3494"/>
<stop offset="1" stop-color="#393091"/>
</linearGradient>
<linearGradient id="paint16_linear_10036_4" x1="67.5047" y1="129.066" x2="132.027" y2="129.066" gradientUnits="userSpaceOnUse">
<stop stop-color="#E9E9FD"/>
<stop offset="0.3601" stop-color="#D3D2F9"/>
<stop offset="0.7062" stop-color="#C5C4F7"/>
<stop offset="1" stop-color="#C0BFF6"/>
</linearGradient>
<linearGradient id="paint17_linear_10036_4" x1="72.8588" y1="106.744" x2="125.381" y2="137.112" gradientUnits="userSpaceOnUse">
<stop stop-color="#BCBEFF"/>
<stop offset="0.2271" stop-color="#AAADF8"/>
<stop offset="0.6802" stop-color="#7C83E5"/>
<stop offset="1" stop-color="#5761D7"/>
</linearGradient>
<linearGradient id="paint18_linear_10036_4" x1="72.8588" y1="106.744" x2="125.381" y2="137.112" gradientUnits="userSpaceOnUse">
<stop stop-color="#706EC4"/>
<stop offset="0.0222" stop-color="#6D6BC2"/>
<stop offset="0.2509" stop-color="#5651AC"/>
<stop offset="0.4865" stop-color="#463F9D"/>
<stop offset="0.7314" stop-color="#3C3494"/>
<stop offset="1" stop-color="#393091"/>
</linearGradient>
<linearGradient id="paint19_linear_10036_4" x1="67.5047" y1="115.75" x2="132.027" y2="115.75" gradientUnits="userSpaceOnUse">
<stop stop-color="#E9E9FD"/>
<stop offset="0.3601" stop-color="#D3D2F9"/>
<stop offset="0.7062" stop-color="#C5C4F7"/>
<stop offset="1" stop-color="#C0BFF6"/>
</linearGradient>
<linearGradient id="paint20_linear_10036_4" x1="72.8588" y1="93.4285" x2="125.381" y2="123.797" gradientUnits="userSpaceOnUse">
<stop stop-color="#BCBEFF"/>
<stop offset="0.2271" stop-color="#AAADF8"/>
<stop offset="0.6802" stop-color="#7C83E5"/>
<stop offset="1" stop-color="#5761D7"/>
</linearGradient>
<linearGradient id="paint21_linear_10036_4" x1="72.8588" y1="93.4285" x2="125.381" y2="123.797" gradientUnits="userSpaceOnUse">
<stop stop-color="#706EC4"/>
<stop offset="0.0222" stop-color="#6D6BC2"/>
<stop offset="0.2509" stop-color="#5651AC"/>
<stop offset="0.4865" stop-color="#463F9D"/>
<stop offset="0.7314" stop-color="#3C3494"/>
<stop offset="1" stop-color="#393091"/>
</linearGradient>
<linearGradient id="paint22_linear_10036_4" x1="67.5047" y1="102.433" x2="132.027" y2="102.433" gradientUnits="userSpaceOnUse">
<stop stop-color="#E9E9FD"/>
<stop offset="0.3601" stop-color="#D3D2F9"/>
<stop offset="0.7062" stop-color="#C5C4F7"/>
<stop offset="1" stop-color="#C0BFF6"/>
</linearGradient>
<linearGradient id="paint23_linear_10036_4" x1="21.3723" y1="63.0573" x2="176.524" y2="152.766" gradientUnits="userSpaceOnUse">
<stop stop-color="#BCBEFF"/>
<stop offset="0.2271" stop-color="#AAADF8"/>
<stop offset="0.6802" stop-color="#7C83E5"/>
<stop offset="1" stop-color="#5761D7"/>
</linearGradient>
<linearGradient id="paint24_linear_10036_4" x1="21.3723" y1="63.0573" x2="176.524" y2="152.766" gradientUnits="userSpaceOnUse">
<stop stop-color="#16E09E"/>
<stop offset="0.0881" stop-color="#31BD9B"/>
<stop offset="0.2288" stop-color="#338DB0"/>
<stop offset="0.3734" stop-color="#356BA5"/>
<stop offset="0.5206" stop-color="#37519C"/>
<stop offset="0.6715" stop-color="#383F96"/>
<stop offset="0.8281" stop-color="#393492"/>
<stop offset="1" stop-color="#393091"/>
</linearGradient>
<radialGradient id="paint25_radial_10036_4" cx="0" cy="0" r="1" gradientUnits="userSpaceOnUse" gradientTransform="translate(98.9033 107.028) scale(90.5063 90.3739)">
<stop stop-color="#42E8E0"/>
<stop offset="0.0796" stop-color="#3AC4C9"/>
<stop offset="0.2064" stop-color="#2F92A8"/>
<stop offset="0.3361" stop-color="#25678C"/>
<stop offset="0.4662" stop-color="#1D4375"/>
<stop offset="0.597" stop-color="#172863"/>
<stop offset="0.7289" stop-color="#121556"/>
<stop offset="0.8623" stop-color="#10094F"/>
<stop offset="1" stop-color="#0F054C"/>
</radialGradient>
<linearGradient id="paint26_linear_10036_4" x1="0.0019676" y1="100.182" x2="199.526" y2="100.182" gradientUnits="userSpaceOnUse">
<stop stop-color="#E9E9FD"/>
<stop offset="0.3601" stop-color="#D3D2F9"/>
<stop offset="0.7062" stop-color="#C5C4F7"/>
<stop offset="1" stop-color="#C0BFF6"/>
</linearGradient>
<linearGradient id="paint27_linear_10036_4" x1="99.7637" y1="130.096" x2="99.7637" y2="6.63056" gradientUnits="userSpaceOnUse">
<stop stop-color="#16E09E"/>
<stop offset="0.1763" stop-color="#38C3A2"/>
<stop offset="1" stop-color="#38BCC3" stop-opacity="0"/>
</linearGradient>
<linearGradient id="paint28_linear_10036_4" x1="151.164" y1="102.902" x2="151.164" y2="11.7489" gradientUnits="userSpaceOnUse">
<stop stop-color="#16E09E"/>
<stop offset="0.1863" stop-color="#35BAAA"/>
<stop offset="1" stop-color="#287293" stop-opacity="0"/>
</linearGradient>
<linearGradient id="paint29_linear_10036_4" x1="48.3693" y1="102.902" x2="48.3693" y2="11.7489" gradientUnits="userSpaceOnUse">
<stop stop-color="#16E09E"/>
<stop offset="0.1863" stop-color="#35BAAA"/>
<stop offset="1" stop-color="#287293" stop-opacity="0"/>
</linearGradient>
</defs>
</svg>
