<svg width="302" height="216" viewBox="0 0 302 216" fill="none" xmlns="http://www.w3.org/2000/svg">
<path opacity="0.8" d="M105.57 214.765C102.874 214.765 100.385 214.246 98.4146 213.105L6.32559 159.905C4.45892 158.868 3.42188 157.313 3.42188 155.653C3.42188 153.683 4.87372 151.609 7.46632 150.157L186.148 46.9717C190.919 44.1717 198.281 43.8606 202.43 46.3495L294.519 99.5496C296.385 100.587 297.422 102.142 297.422 103.801C297.422 105.772 295.97 107.846 293.378 109.298L114.696 212.483C112.104 213.935 108.785 214.765 105.57 214.765ZM98.7257 212.587C102.77 214.868 109.822 214.557 114.489 211.965L293.171 108.779C295.556 107.431 296.904 105.564 296.904 103.801C296.904 102.35 295.971 101.001 294.311 100.068L202.222 46.868C198.178 44.5865 191.126 44.7939 186.459 47.4902L7.77743 150.676C5.39225 152.024 4.0441 153.89 4.0441 155.653C4.0441 157.105 4.97744 158.453 6.6367 159.387L98.7257 212.587Z" fill="#16E09E"/>
<path d="M301.052 61.628L287.363 64.0132L202.741 15.1687C198.489 12.6798 191.126 12.9909 186.148 15.8946L24.2667 109.228L0 113.376V121.984C0 123.539 0.933338 125.095 2.90371 126.132L98.415 181.302C102.667 183.791 110.03 183.48 115.008 180.576L297.112 75.4206C299.704 73.8651 301.156 71.9984 301.156 70.1317V61.628H301.052Z" fill="url(#paint0_linear_10038_49)"/>
<path d="M98.4138 172.694L2.90256 117.524C-1.3493 115.035 -0.830774 110.783 4.04331 107.983L186.147 2.93083C191.021 0.130827 198.488 -0.180281 202.74 2.20491L298.251 57.3754C302.503 59.8643 301.985 64.1161 297.111 66.9161L115.006 171.968C110.029 174.872 102.666 175.183 98.4138 172.694Z" fill="#7C40FF"/>
<path d="M297.007 66.9166L115.007 171.969C110.133 174.769 102.666 175.08 98.4145 172.695L2.90326 117.524C1.244 116.591 0.310663 115.243 0.103255 113.894C-0.207856 115.657 0.725476 117.42 2.90326 118.665L98.4145 173.835C102.666 176.324 110.029 176.013 115.007 173.109L297.111 67.9536C300.015 66.2943 301.363 64.0129 301.156 62.0425C300.844 63.8054 299.496 65.4647 297.007 66.9166Z" fill="white"/>
<path opacity="0.51" d="M98.6225 170.517L6.53344 117.317C2.38529 114.931 2.90381 110.783 7.67419 108.087L186.356 4.90166C191.126 2.20536 198.282 1.89425 202.43 4.27943L294.519 57.4795C298.667 59.8647 298.149 64.0129 293.378 66.7092L114.697 169.895C109.823 172.591 102.667 172.902 98.6225 170.517Z" fill="#453C9E"/>
<path opacity="0.3" d="M147.638 113.144C135.84 113.144 124.042 110.511 115.02 105.324C106.306 100.292 101.448 93.5561 101.448 86.3559C101.448 79.1558 106.229 72.4201 115.02 67.3877C132.987 56.9359 162.212 56.9359 180.179 67.3877C188.892 72.4201 193.75 79.1558 193.75 86.3559C193.75 93.5561 188.969 100.292 180.179 105.324C171.234 110.589 159.436 113.144 147.638 113.144ZM147.638 59.8779C135.917 59.8779 124.119 62.4328 115.174 67.6974C106.537 72.7298 101.756 79.388 101.756 86.4334C101.756 93.4787 106.537 100.137 115.174 105.169C133.064 115.544 162.212 115.544 180.102 105.169C188.738 100.137 193.519 93.4787 193.519 86.4334C193.519 79.388 188.738 72.7298 180.102 67.6974C171.157 62.4328 159.359 59.8779 147.638 59.8779Z" fill="#16E09E"/>
<path opacity="0.3" fill-rule="evenodd" clip-rule="evenodd" d="M179.989 104.976C188.589 99.9651 193.296 93.3678 193.296 86.4333C193.296 79.4988 188.589 72.9015 179.989 67.8903L179.988 67.8898C171.087 62.6506 159.331 60.1011 147.638 60.1011C135.945 60.1011 124.189 62.6506 115.287 67.8898L115.286 67.8903C106.686 72.9015 101.98 79.4988 101.98 86.4333C101.98 93.3678 106.686 99.9651 115.286 104.976C124.189 110.139 135.907 112.727 147.638 112.727C159.368 112.727 171.087 110.139 179.989 104.976ZM180.291 105.517C171.303 110.807 159.463 113.367 147.638 113.367C135.81 113.367 123.972 110.729 114.908 105.518L114.908 105.517C106.157 100.464 101.225 93.6667 101.225 86.3559C101.225 79.0459 106.079 72.2489 114.908 67.1942C123.934 61.944 135.773 59.3254 147.599 59.3254C159.426 59.3254 171.265 61.9441 180.291 67.1943C189.041 72.2482 193.974 79.045 193.974 86.3559C193.974 93.6656 189.12 100.463 180.291 105.517Z" fill="#16E09E"/>
<path opacity="0.3" d="M147.653 123.565C131.288 123.565 114.923 119.909 102.409 112.705C90.3223 105.715 83.5837 96.3603 83.5837 86.36C83.5837 76.3598 90.2153 67.0047 102.409 60.0153C127.331 45.4988 167.869 45.4988 192.791 60.0153C204.877 67.0047 211.616 76.3598 211.616 86.36C211.616 96.3603 204.984 105.715 192.791 112.705C180.383 120.017 164.018 123.565 147.653 123.565ZM147.653 49.5849C131.395 49.5849 115.03 53.1334 102.623 60.4454C90.6431 67.4348 84.0116 76.6824 84.0116 86.4676C84.0116 96.2527 90.6431 105.5 102.623 112.49C127.438 126.899 167.869 126.899 192.684 112.49C204.663 105.5 211.295 96.2527 211.295 86.4676C211.295 76.6824 204.663 67.4348 192.684 60.4454C180.276 53.1334 163.911 49.5849 147.653 49.5849Z" fill="#16E09E"/>
<path opacity="0.3" fill-rule="evenodd" clip-rule="evenodd" d="M115.612 54.3408C110.93 55.9215 106.523 57.8774 102.521 60.2082L102.52 60.209C91.5906 66.4737 85.1861 74.6195 84.0059 83.3889C85.2464 74.6529 91.7485 66.5314 102.51 60.2527C106.513 57.8934 110.926 55.9253 115.612 54.3408ZM122.048 52.4449C130.202 50.3776 138.945 49.3615 147.653 49.3615C151.042 49.3615 154.436 49.5154 157.799 49.8253C154.424 49.5092 151.012 49.3512 147.6 49.3512C138.882 49.3512 130.167 50.3831 122.048 52.4449ZM192.903 59.8223C180.4 52.5394 163.994 48.9045 147.6 48.9045C131.206 48.9045 114.8 52.5393 102.297 59.8218C90.065 66.8335 83.3604 76.2501 83.3604 86.3599C83.3604 96.4707 90.1731 105.887 102.297 112.898L102.297 112.898C114.853 120.127 131.259 123.788 147.653 123.788C164.046 123.788 180.452 120.235 192.903 112.898C205.135 105.886 211.839 96.4698 211.839 86.3599C211.839 76.2493 205.027 66.8332 192.903 59.8223ZM147.653 49.8082C131.423 49.8082 115.1 53.3512 102.736 60.6377L102.735 60.6382C90.7921 67.6064 84.2348 76.793 84.2348 86.4675C84.2348 96.142 90.7921 105.329 102.735 112.297C115.1 119.477 131.371 123.073 147.653 123.073C163.936 123.073 180.206 119.477 192.571 112.297C204.514 105.329 211.072 96.142 211.072 86.4675C211.072 76.793 204.514 67.6064 192.571 60.6382L192.57 60.6377C180.206 53.3512 163.883 49.8082 147.653 49.8082Z" fill="#16E09E"/>
<path d="M147.637 102.723C140.404 102.723 133.171 101.131 127.612 97.9462C122.282 94.8378 119.313 90.7437 119.313 86.3464C119.313 81.9491 122.282 77.8551 127.612 74.7466C138.653 68.3781 156.546 68.3781 167.586 74.7466C172.916 77.8551 175.885 81.9491 175.885 86.3464C175.885 90.7437 172.916 94.8378 167.586 97.9462C162.104 101.131 154.871 102.723 147.637 102.723Z" fill="#16E09E"/>
<path opacity="0.8" d="M147.637 102.722C130.479 102.722 120.058 94.5341 119.313 87.8347C119.313 81.8797 119.313 78.9022 119.313 72.9472C119.313 68.5499 122.282 64.4559 127.612 61.3474C138.653 54.9789 156.546 54.9789 167.586 61.3474C172.916 64.4559 175.885 68.5499 175.885 72.9472C175.885 78.0837 175.885 82.6241 175.885 87.8347C174.397 95.2784 163.976 102.722 147.637 102.722Z" fill="url(#paint1_linear_10038_49)"/>
<path opacity="0.8" d="M147.637 89.3235C140.404 89.3235 133.171 87.7313 127.612 84.5471C122.282 81.4386 119.313 77.3446 119.313 72.9472C119.313 68.5499 122.282 64.4559 127.612 61.3474C138.653 54.9789 156.546 54.9789 167.586 61.3474C172.916 64.4559 175.885 68.5499 175.885 72.9472C175.885 77.3446 172.916 81.4386 167.586 84.5471C162.104 87.7313 154.871 89.3235 147.637 89.3235Z" fill="url(#paint2_linear_10038_49)"/>
<path opacity="0.8" fill-rule="evenodd" clip-rule="evenodd" d="M128.357 83.2581C133.638 86.282 140.599 87.8347 147.637 87.8347C154.679 87.8347 161.637 86.2803 166.837 83.2604C171.926 80.2919 174.397 76.6036 174.397 72.9472C174.397 69.2913 171.927 65.6035 166.839 62.6352C161.599 59.6133 154.639 58.0598 147.599 58.0598C140.559 58.0598 133.6 59.6133 128.359 62.6352C123.271 65.6035 120.802 69.2913 120.802 72.9472C120.802 76.6027 123.271 80.29 128.357 83.2581ZM167.586 61.3474C156.546 54.9789 138.653 54.9789 127.612 61.3474C122.282 64.4559 119.313 68.5499 119.313 72.9472C119.313 77.3446 122.282 81.4386 127.612 84.5471C133.171 87.7313 140.404 89.3235 147.637 89.3235C154.871 89.3235 162.104 87.7313 167.586 84.5471C172.916 81.4386 175.885 77.3446 175.885 72.9472C175.885 68.5499 172.916 64.4559 167.586 61.3474Z" fill="url(#paint3_linear_10038_49)"/>
<path opacity="0.8" fill-rule="evenodd" clip-rule="evenodd" d="M128.357 83.2581C133.638 86.282 140.599 87.8347 147.637 87.8347C154.679 87.8347 161.637 86.2803 166.837 83.2604C171.926 80.2919 174.397 76.6036 174.397 72.9472C174.397 69.2913 171.927 65.6035 166.839 62.6352C161.599 59.6133 154.639 58.0598 147.599 58.0598C140.559 58.0598 133.6 59.6133 128.359 62.6352C123.271 65.6035 120.802 69.2913 120.802 72.9472C120.802 76.6027 123.271 80.29 128.357 83.2581ZM167.586 61.3474C156.546 54.9789 138.653 54.9789 127.612 61.3474C122.282 64.4559 119.313 68.5499 119.313 72.9472C119.313 77.3446 122.282 81.4386 127.612 84.5471C133.171 87.7313 140.404 89.3235 147.637 89.3235C154.871 89.3235 162.104 87.7313 167.586 84.5471C172.916 81.4386 175.885 77.3446 175.885 72.9472C175.885 68.5499 172.916 64.4559 167.586 61.3474Z" fill="url(#paint4_linear_10038_49)"/>
<path opacity="0.8" d="M105.57 170.103C102.874 170.103 100.385 169.584 98.4146 168.444L6.32559 115.243C4.45892 114.206 3.42188 112.651 3.42188 110.992C3.42188 109.021 4.87372 106.947 7.46632 105.495L186.148 2.30986C190.919 -0.490143 198.281 -0.801253 202.43 1.68764L294.519 54.8877C296.385 55.9248 297.422 57.4803 297.422 59.1396C297.422 61.11 295.97 63.184 293.378 64.6359L114.696 167.821C112.104 169.273 108.785 170.103 105.57 170.103ZM98.7257 167.925C102.77 170.206 109.822 169.895 114.489 167.303L293.171 64.1174C295.556 62.7692 296.904 60.9026 296.904 59.1396C296.904 57.6877 295.971 56.3396 294.311 55.4063L202.222 2.20616C198.178 -0.0753257 191.126 0.132081 186.459 2.82838L7.77743 106.014C5.39225 107.362 4.0441 109.229 4.0441 110.992C4.0441 112.443 4.97744 113.792 6.6367 114.725L98.7257 167.925Z" fill="url(#paint5_linear_10038_49)"/>
<path opacity="0.4" d="M274.814 63.9095C273.363 64.7391 271.081 64.7391 269.733 63.9095C268.281 63.0798 268.281 61.7317 269.733 61.0058C271.185 60.1761 273.466 60.1761 274.814 61.0058C276.163 61.8354 276.163 63.1836 274.814 63.9095Z" fill="#7C40FF"/>
<path opacity="0.4" d="M255.422 49.806L265.378 55.5097C266.622 56.2356 266.415 57.4801 265.067 58.206C263.615 59.0357 261.541 59.1394 260.296 58.4134L250.341 52.7097C249.096 51.9838 249.304 50.7393 250.652 50.0134C252 49.1838 254.178 49.0801 255.422 49.806Z" fill="#7C40FF"/>
<path opacity="0.4" d="M199.423 16.8282L209.378 22.5319C210.623 23.2579 210.415 24.5023 209.067 25.2282C207.615 26.0579 205.541 26.1616 204.297 25.4356L194.341 19.7319C193.097 19.006 193.304 17.7616 194.652 17.0356C196 16.206 198.178 16.1023 199.423 16.8282Z" fill="#7C40FF"/>
<path d="M274.814 60.3836C273.363 61.2132 271.081 61.2132 269.733 60.3836C268.281 59.554 268.281 58.2058 269.733 57.4799C271.185 56.6503 273.466 56.6503 274.814 57.4799C276.163 58.2058 276.163 59.554 274.814 60.3836Z" fill="#16E09E"/>
<path d="M255.422 46.1771L265.378 51.8808C266.622 52.6068 266.415 53.8512 265.067 54.5771C263.615 55.4068 261.541 55.5105 260.296 54.7845L250.341 49.0808C249.096 48.3549 249.304 47.1105 250.652 46.3845C252 45.6586 254.178 45.5549 255.422 46.1771Z" fill="#16E09E"/>
<path d="M199.423 13.1986L209.378 18.9023C210.623 19.6282 210.415 20.8727 209.067 21.5986C207.615 22.4282 205.541 22.5319 204.297 21.806L194.341 16.1023C193.097 15.3764 193.304 14.1319 194.652 13.406C196 12.5764 198.178 12.4727 199.423 13.1986Z" fill="#16E09E"/>
<defs>
<linearGradient id="paint0_linear_10038_49" x1="0.0564149" y1="98.2358" x2="301.097" y2="98.2358" gradientUnits="userSpaceOnUse">
<stop stop-color="#BCBEFF"/>
<stop offset="0.151" stop-color="#A3A7F5"/>
<stop offset="0.3866" stop-color="#8289E8"/>
<stop offset="0.6124" stop-color="#6A73DF"/>
<stop offset="0.8221" stop-color="#5C66D9"/>
<stop offset="1" stop-color="#5761D7"/>
</linearGradient>
<linearGradient id="paint1_linear_10038_49" x1="119.317" y1="72.9569" x2="175.898" y2="72.9569" gradientUnits="userSpaceOnUse">
<stop stop-color="#5761D7"/>
<stop offset="0.0725775" stop-color="#5472D8"/>
<stop offset="0.2791" stop-color="#4ECADB"/>
<stop offset="0.4801" stop-color="#49DDDD"/>
<stop offset="0.6715" stop-color="#45DFC3"/>
<stop offset="0.8493" stop-color="#43E3A0"/>
<stop offset="1" stop-color="#16E09E"/>
</linearGradient>
<linearGradient id="paint2_linear_10038_49" x1="119.327" y1="72.9363" x2="175.889" y2="72.9363" gradientUnits="userSpaceOnUse">
<stop stop-color="#5761D7"/>
<stop offset="0.0725775" stop-color="#5472D8"/>
<stop offset="0.2791" stop-color="#4E9CDB"/>
<stop offset="0.4801" stop-color="#49D4DD"/>
<stop offset="0.6715" stop-color="#45DFC3"/>
<stop offset="0.8493" stop-color="#43E3B3"/>
<stop offset="1" stop-color="#16E09E"/>
</linearGradient>
<linearGradient id="paint3_linear_10038_49" x1="147.599" y1="56.571" x2="147.599" y2="89.3235" gradientUnits="userSpaceOnUse">
<stop stop-color="#5478D9"/>
<stop offset="1" stop-color="#16E09E"/>
</linearGradient>
<linearGradient id="paint4_linear_10038_49" x1="147.599" y1="56.571" x2="147.599" y2="89.3235" gradientUnits="userSpaceOnUse">
<stop stop-color="#5478D9"/>
<stop offset="1" stop-color="#16E09E"/>
</linearGradient>
<linearGradient id="paint5_linear_10038_49" x1="192.507" y1="140.826" x2="108.474" y2="29.3097" gradientUnits="userSpaceOnUse">
<stop stop-color="#16E09E"/>
<stop offset="0.1055" stop-color="#37BFA7"/>
<stop offset="0.2197" stop-color="#2C93A1"/>
<stop offset="0.338" stop-color="#235F87"/>
<stop offset="0.4587" stop-color="#1C3F72"/>
<stop offset="0.5824" stop-color="#162561"/>
<stop offset="0.7105" stop-color="#121355"/>
<stop offset="0.8458" stop-color="#10084E"/>
<stop offset="1" stop-color="#0F054C"/>
</linearGradient>
</defs>
</svg>
