<svg width="1148" height="1148" viewBox="0 0 1148 1148" fill="none" xmlns="http://www.w3.org/2000/svg">
<g clip-path="url(#clip0_10061_12)">
<g opacity="0.3">
<path fill-rule="evenodd" clip-rule="evenodd" d="M561 1047.16C781.449 1047.16 960.159 868.449 960.159 648C960.159 427.551 781.449 248.841 561 248.841C340.551 248.841 161.841 427.551 161.841 648C161.841 868.449 340.551 1047.16 561 1047.16ZM561 1048C781.914 1048 961 868.914 961 648C961 427.086 781.914 248 561 248C340.086 248 161 427.086 161 648C161 868.914 340.086 1048 561 1048Z" fill="#7C4EFF" fill-opacity="0.3"/>
<path fill-rule="evenodd" clip-rule="evenodd" d="M561 988.335C748.962 988.335 901.335 835.962 901.335 648C901.335 460.038 748.962 307.665 561 307.665C373.038 307.665 220.665 460.038 220.665 648C220.665 835.962 373.038 988.335 561 988.335ZM561 989.176C749.426 989.176 902.176 836.426 902.176 648C902.176 459.573 749.426 306.823 561 306.823C372.573 306.823 219.823 459.573 219.823 648C219.823 836.426 372.573 989.176 561 989.176Z" fill="#7C4EFF" fill-opacity="0.4"/>
<path fill-rule="evenodd" clip-rule="evenodd" d="M561 929.512C716.475 929.512 842.512 803.475 842.512 648C842.512 492.526 716.475 366.489 561 366.489C405.526 366.489 279.489 492.526 279.489 648C279.489 803.475 405.526 929.512 561 929.512ZM561 930.353C716.939 930.353 843.353 803.939 843.353 648C843.353 492.061 716.939 365.647 561 365.647C405.061 365.647 278.647 492.061 278.647 648C278.647 803.939 405.061 930.353 561 930.353Z" fill="#7C4EFF" fill-opacity="0.5"/>
<path fill-rule="evenodd" clip-rule="evenodd" d="M561 870.688C683.987 870.688 783.688 770.987 783.688 648C783.688 525.013 683.987 425.312 561 425.312C438.013 425.312 338.312 525.013 338.312 648C338.312 770.987 438.013 870.688 561 870.688ZM561 871.53C684.452 871.53 784.53 771.452 784.53 648C784.53 524.548 684.452 424.471 561 424.471C437.548 424.471 337.471 524.548 337.471 648C337.471 771.452 437.548 871.53 561 871.53Z" fill="#7C4EFF" fill-opacity="0.6"/>
<path fill-rule="evenodd" clip-rule="evenodd" d="M561 811.865C651.5 811.865 724.865 738.5 724.865 648C724.865 557.5 651.5 484.136 561 484.136C470.5 484.136 397.136 557.5 397.136 648C397.136 738.5 470.5 811.865 561 811.865ZM561 812.706C651.965 812.706 725.706 738.965 725.706 648C725.706 557.036 651.965 483.294 561 483.294C470.036 483.294 396.294 557.036 396.294 648C396.294 738.965 470.036 812.706 561 812.706Z" fill="#7C4EFF" fill-opacity="0.8"/>
<path fill-rule="evenodd" clip-rule="evenodd" d="M561 753.041C619.013 753.041 666.041 706.013 666.041 648C666.041 589.988 619.013 542.959 561 542.959C502.988 542.959 455.959 589.988 455.959 648C455.959 706.013 502.988 753.041 561 753.041ZM561 753.882C619.477 753.882 666.882 706.477 666.882 648C666.882 589.523 619.477 542.118 561 542.118C502.523 542.118 455.118 589.523 455.118 648C455.118 706.477 502.523 753.882 561 753.882Z" fill="#7C4EFF" fill-opacity="0.9"/>
</g>
<g opacity="0.6" filter="url(#filter0_f_10061_12)">
<path d="M323.796 572.594C323.796 434.695 435.585 322.906 573.484 322.906C711.383 322.906 823.172 434.695 823.172 572.594C823.172 710.493 711.383 822.282 573.484 822.282C435.585 822.282 323.796 710.493 323.796 572.594Z" fill="#7C40FF"/>
</g>
</g>
<defs>
<filter id="filter0_f_10061_12" x="0.947906" y="0.0580139" width="1145.07" height="1145.07" filterUnits="userSpaceOnUse" color-interpolation-filters="sRGB">
<feFlood flood-opacity="0" result="BackgroundImageFix"/>
<feBlend mode="normal" in="SourceGraphic" in2="BackgroundImageFix" result="shape"/>
<feGaussianBlur stdDeviation="161.424" result="effect1_foregroundBlur_10061_12"/>
</filter>
</defs>
</svg>