<svg width="210" height="62" viewBox="0 0 210 62" fill="none" xmlns="http://www.w3.org/2000/svg">
<g clip-path="url(#clip0_1_464)">
<path d="M201.5 0H7.75C3.46979 0 0 3.46979 0 7.75V54.25C0 58.5302 3.46979 62 7.75 62H201.5C205.78 62 209.25 58.5302 209.25 54.25V7.75C209.25 3.46979 205.78 0 201.5 0Z" fill="black"/>
<path d="M201.5 1.24C203.227 1.24 204.882 1.92587 206.103 3.14673C207.324 4.3676 208.01 6.02344 208.01 7.75V54.25C208.01 55.9766 207.324 57.6324 206.103 58.8533C204.882 60.0741 203.227 60.76 201.5 60.76H7.75C6.02344 60.76 4.3676 60.0741 3.14673 58.8533C1.92587 57.6324 1.24 55.9766 1.24 54.25V7.75C1.24 6.02344 1.92587 4.3676 3.14673 3.14673C4.3676 1.92587 6.02344 1.24 7.75 1.24H201.5ZM201.5 0H7.75C5.69457 0 3.72333 0.816515 2.26992 2.26992C0.816515 3.72333 0 5.69457 0 7.75V54.25C0 56.3054 0.816515 58.2767 2.26992 59.7301C3.72333 61.1835 5.69457 62 7.75 62H201.5C203.555 62 205.527 61.1835 206.98 59.7301C208.433 58.2767 209.25 56.3054 209.25 54.25V7.75C209.25 5.69457 208.433 3.72333 206.98 2.26992C205.527 0.816515 203.555 0 201.5 0Z" fill="#A6A6A6"/>
<path d="M73.501 15.8718C73.5264 16.4403 73.4366 17.008 73.2368 17.5407C73.037 18.0735 72.7314 18.5603 72.3385 18.9718C71.8982 19.4264 71.3668 19.7829 70.7791 20.018C70.1915 20.253 69.5609 20.3614 68.9285 20.3358C68.2925 20.35 67.6603 20.2335 67.0711 19.9936C66.4819 19.7536 65.9482 19.3953 65.503 18.9408C64.5998 18.017 64.0941 16.7763 64.0941 15.4843C64.0941 14.1924 64.5998 12.9517 65.503 12.0278C66.1935 11.3531 67.068 10.8975 68.0167 10.7182C68.9654 10.539 69.9459 10.6441 70.835 11.0203C71.3939 11.2501 71.8925 11.6054 72.292 12.0588L71.4705 12.8803C71.1627 12.5095 70.7727 12.2156 70.3314 12.0219C69.8901 11.8281 69.4098 11.74 68.9285 11.7643C68.3209 11.7685 67.7236 11.9215 67.1888 12.2098C66.654 12.4982 66.198 12.9131 65.8606 13.4184C65.5232 13.9237 65.3147 14.5039 65.2533 15.1084C65.1919 15.7128 65.2795 16.3231 65.5084 16.8859C65.7373 17.4487 66.1006 17.9469 66.5665 18.3369C67.0325 18.7268 67.5868 18.9968 68.1811 19.123C68.7754 19.2493 69.3916 19.2281 69.9758 19.0612C70.5601 18.8944 71.0945 18.5869 71.5325 18.1658C72.0059 17.6467 72.2805 16.9769 72.3075 16.2748H68.9285V15.1588H73.439C73.4743 15.395 73.495 15.6331 73.501 15.8718Z" fill="white" stroke="white" stroke-width="0.291824" stroke-miterlimit="10"/>
<path d="M80.6 11.9971H76.415V14.9421H80.228V16.0581H76.415V19.0031H80.6V20.1501H75.206V10.8501H80.6V11.9971Z" fill="white" stroke="white" stroke-width="0.291824" stroke-miterlimit="10"/>
<path d="M85.684 20.1501H84.4905V11.9971H81.8865V10.8501H88.35V11.9971H85.684V20.1501Z" fill="white" stroke="white" stroke-width="0.291824" stroke-miterlimit="10"/>
<path d="M92.907 20.1501V10.8501H94.1005V20.1501H92.907Z" fill="white" stroke="white" stroke-width="0.291824" stroke-miterlimit="10"/>
<path d="M99.4015 20.1501H98.208V11.9971H95.604V10.8501H101.99V11.9971H99.4015V20.1501Z" fill="white" stroke="white" stroke-width="0.291824" stroke-miterlimit="10"/>
<path d="M114.096 18.941C113.648 19.3891 113.116 19.7445 112.531 19.987C111.946 20.2295 111.319 20.3543 110.686 20.3543C110.052 20.3543 109.425 20.2295 108.84 19.987C108.255 19.7445 107.723 19.3891 107.276 18.941C106.399 18.0096 105.911 16.7789 105.911 15.5C105.911 14.2212 106.399 12.9905 107.276 12.059C107.714 11.5984 108.243 11.2348 108.831 10.9918C109.418 10.7488 110.05 10.6319 110.686 10.6485C111.32 10.6385 111.95 10.7585 112.536 11.001C113.123 11.2436 113.653 11.6037 114.096 12.059C114.541 12.5124 114.892 13.0505 115.126 13.6415C115.36 14.2325 115.474 14.8644 115.46 15.5C115.48 16.1364 115.369 16.7702 115.135 17.3621C114.9 17.954 114.546 18.4914 114.096 18.941ZM108.159 18.166C108.489 18.5006 108.883 18.7663 109.316 18.9477C109.75 19.129 110.215 19.2224 110.686 19.2224C111.156 19.2224 111.621 19.129 112.055 18.9477C112.488 18.7663 112.882 18.5006 113.212 18.166C113.881 17.4393 114.252 16.4877 114.252 15.5C114.252 14.5124 113.881 13.5608 113.212 12.834C112.882 12.4994 112.488 12.2337 112.055 12.0524C111.621 11.871 111.156 11.7777 110.686 11.7777C110.215 11.7777 109.75 11.871 109.316 12.0524C108.883 12.2337 108.489 12.4994 108.159 12.834C107.49 13.5608 107.119 14.5124 107.119 15.5C107.119 16.4877 107.49 17.4393 108.159 18.166Z" fill="white" stroke="white" stroke-width="0.291824" stroke-miterlimit="10"/>
<path d="M117.149 20.1501V10.8501H118.591L123.117 18.0886V16.2906V10.8501H124.31V20.1501H123.07L118.343 12.5706V14.3531V20.1501H117.149Z" fill="white" stroke="white" stroke-width="0.291824" stroke-miterlimit="10"/>
<path d="M105.617 33.7127C104.311 33.7157 103.035 34.106 101.951 34.8341C100.867 35.5622 100.023 36.5954 99.5262 37.8031C99.0293 39.0108 98.9017 40.3388 99.1594 41.619C99.4172 42.8993 100.049 44.0744 100.974 44.9956C101.9 45.9169 103.078 46.543 104.36 46.7948C105.641 47.0466 106.968 46.9127 108.174 46.4101C109.379 45.9075 110.408 45.0588 111.131 43.9712C111.854 42.8836 112.239 41.6061 112.236 40.3002C112.248 39.429 112.085 38.5641 111.757 37.7572C111.428 36.9502 110.941 36.2176 110.323 35.6029C109.706 34.9883 108.971 34.5042 108.162 34.1794C107.354 33.8547 106.488 33.6959 105.617 33.7127V33.7127ZM105.617 44.2992C104.817 44.3552 104.018 44.169 103.324 43.765C102.631 43.361 102.076 42.7578 101.73 42.0338C101.384 41.3097 101.264 40.4984 101.385 39.7052C101.506 38.912 101.863 38.1737 102.41 37.5862C102.957 36.9987 103.667 36.5892 104.449 36.4109C105.232 36.2326 106.05 36.2938 106.797 36.5865C107.544 36.8792 108.186 37.3899 108.639 38.0522C109.092 38.7145 109.335 39.4978 109.337 40.3002C109.362 40.8086 109.285 41.3169 109.11 41.795C108.936 42.2732 108.667 42.7115 108.32 43.0842C107.974 43.457 107.556 43.7565 107.092 43.9651C106.627 44.1738 106.126 44.2874 105.617 44.2992ZM91.171 33.7127C89.8651 33.7157 88.5893 34.106 87.5052 34.8341C86.421 35.5622 85.5772 36.5954 85.0802 37.8031C84.5833 39.0108 84.4557 40.3388 84.7134 41.619C84.9712 42.8993 85.6029 44.0744 86.5285 44.9956C87.4541 45.9169 88.6321 46.543 89.9135 46.7948C91.195 47.0466 92.5223 46.9127 93.7277 46.4101C94.9331 45.9075 95.9623 45.0588 96.6853 43.9712C97.4083 42.8836 97.7926 41.6061 97.7895 40.3002C97.8021 39.429 97.6394 38.5641 97.3108 37.7572C96.9823 36.9502 96.4947 36.2176 95.8772 35.6029C95.2597 34.9883 94.5248 34.5042 93.7162 34.1794C92.9077 33.8547 92.0421 33.6959 91.171 33.7127V33.7127ZM91.171 44.2992C90.3706 44.3552 89.5718 44.169 88.8785 43.765C88.1852 43.361 87.6295 42.7578 87.2836 42.0338C86.9377 41.3097 86.8177 40.4984 86.939 39.7052C87.0603 38.912 87.4175 38.1737 87.964 37.5862C88.5105 36.9987 89.2212 36.5892 90.0035 36.4109C90.7859 36.2326 91.6037 36.2938 92.3508 36.5865C93.0979 36.8792 93.7397 37.3899 94.1927 38.0522C94.6458 38.7145 94.8891 39.4978 94.891 40.3002C94.916 40.8086 94.8389 41.3169 94.6643 41.795C94.4897 42.2732 94.2211 42.7115 93.8744 43.0842C93.5277 43.457 93.1099 43.7565 92.6456 43.9651C92.1813 44.1738 91.6799 44.2874 91.171 44.2992ZM73.997 35.7432V38.5332H80.693C80.588 39.8473 80.0418 41.0873 79.143 42.0517C78.4713 42.736 77.6635 43.2717 76.7717 43.6242C75.8799 43.9766 74.9241 44.1379 73.966 44.0977C71.9928 44.0977 70.1004 43.3138 68.7051 41.9185C67.3099 40.5233 66.526 38.6309 66.526 36.6577C66.526 34.6845 67.3099 32.7921 68.7051 31.3968C70.1004 30.0015 71.9928 29.2177 73.966 29.2177C75.8577 29.1895 77.6843 29.9079 79.05 31.2172L81.0185 29.2487C80.0947 28.335 78.9978 27.6148 77.7921 27.1304C76.5864 26.646 75.2962 26.4071 73.997 26.4277C72.6191 26.374 71.2444 26.5991 69.9556 27.0895C68.6667 27.5798 67.4901 28.3253 66.4962 29.2812C65.5023 30.2372 64.7116 31.3839 64.1715 32.6528C63.6315 33.9216 63.3531 35.2864 63.3531 36.6654C63.3531 38.0444 63.6315 39.4092 64.1715 40.6781C64.7116 41.9469 65.5023 43.0937 66.4962 44.0496C67.4901 45.0056 68.6667 45.751 69.9556 46.2414C71.2444 46.7317 72.6191 46.9568 73.997 46.9032C75.3229 46.9561 76.645 46.728 77.8765 46.2338C79.108 45.7396 80.221 44.9905 81.1425 44.0357C82.7702 42.2476 83.6375 39.8959 83.5605 37.4792C83.5661 36.8975 83.5194 36.3165 83.421 35.7432H73.997ZM144.228 37.9132C143.823 36.7239 143.067 35.6855 142.06 34.9354C141.052 34.1853 139.841 33.7589 138.586 33.7127C137.738 33.711 136.898 33.8833 136.12 34.2188C135.341 34.5543 134.64 35.046 134.059 35.6634C133.477 36.2808 133.029 37.0108 132.741 37.8084C132.454 38.6059 132.333 39.454 132.386 40.3002C132.372 41.7151 132.817 43.0963 133.654 44.2376C134.49 45.3788 135.673 46.2188 137.027 46.6321C138.38 47.0455 139.831 47.0099 141.162 46.5307C142.493 46.0516 143.634 45.1546 144.413 43.9737L142.166 42.4237C141.831 42.9821 141.356 43.4432 140.787 43.7614C140.219 44.0795 139.578 44.2435 138.926 44.2372C138.255 44.2649 137.59 44.0888 137.02 43.7319C136.45 43.3751 136.002 42.8542 135.734 42.2377L144.553 38.5952L144.228 37.9132ZM135.238 40.1142C135.206 39.6327 135.271 39.1498 135.429 38.6938C135.586 38.2377 135.833 37.8177 136.155 37.4583C136.477 37.0989 136.867 36.8073 137.303 36.6006C137.739 36.3939 138.212 36.2763 138.694 36.2547C139.193 36.2242 139.691 36.3418 140.124 36.5927C140.556 36.8436 140.906 37.2167 141.128 37.6652L135.238 40.1142ZM128.076 46.5002H130.975V27.1252H128.076V46.5002ZM123.334 35.1852H123.225C122.792 34.6921 122.258 34.2983 121.658 34.0308C121.059 33.7632 120.409 33.6283 119.753 33.6352C118.059 33.7173 116.462 34.448 115.292 35.6759C114.122 36.9037 113.47 38.5346 113.47 40.2304C113.47 41.9263 114.122 43.5571 115.292 44.785C116.462 46.0128 118.059 46.7435 119.753 46.8257C120.41 46.8389 121.062 46.7068 121.662 46.4388C122.262 46.1709 122.796 45.7737 123.225 45.2757H123.334V46.2212C123.334 48.7477 121.985 50.0962 119.815 50.0962C119.09 50.0802 118.386 49.8493 117.793 49.4325C117.2 49.0158 116.743 48.4321 116.483 47.7557L113.972 48.7942C114.436 49.9602 115.243 50.9578 116.286 51.6552C117.33 52.3527 118.56 52.717 119.815 52.7002C123.21 52.7002 126.015 50.7007 126.015 45.8337V34.1002H123.334V35.1852ZM120.001 44.2992C118.985 44.2359 118.032 43.7878 117.335 43.0463C116.639 42.3047 116.251 41.3254 116.251 40.3079C116.251 39.2904 116.639 38.3111 117.335 37.5696C118.032 36.8281 118.985 36.38 120.001 36.3167C120.497 36.3381 120.984 36.4591 121.433 36.6726C121.882 36.8861 122.283 37.1876 122.612 37.5593C122.942 37.9309 123.194 38.3651 123.352 38.836C123.511 39.3069 123.573 39.8048 123.535 40.3002C123.577 40.7972 123.518 41.2977 123.362 41.7714C123.205 42.245 122.954 42.6819 122.624 43.0557C122.293 43.4296 121.89 43.7325 121.44 43.9462C120.989 44.1599 120.499 44.28 120.001 44.2992V44.2992ZM157.805 27.1252H150.862V46.5002H153.76V39.1532H157.805C158.632 39.2125 159.461 39.101 160.242 38.8257C161.023 38.5504 161.739 38.117 162.345 37.5528C162.952 36.9885 163.435 36.3054 163.766 35.5461C164.096 34.7867 164.267 33.9674 164.267 33.1392C164.267 32.311 164.096 31.4916 163.766 30.7323C163.435 29.9729 162.952 29.2898 162.345 28.7256C161.739 28.1613 161.023 27.728 160.242 27.4526C159.461 27.1773 158.632 27.0658 157.805 27.1252V27.1252ZM157.805 36.4252H153.76V29.8222H157.867C158.303 29.8222 158.734 29.908 159.137 30.0747C159.539 30.2414 159.905 30.4857 160.213 30.7937C160.521 31.1017 160.765 31.4674 160.932 31.8698C161.099 32.2723 161.184 32.7036 161.184 33.1392C161.184 33.5748 161.099 34.0061 160.932 34.4085C160.765 34.811 160.521 35.1766 160.213 35.4846C159.905 35.7927 159.539 36.037 159.137 36.2037C158.734 36.3704 158.303 36.4562 157.867 36.4562L157.805 36.4252ZM175.692 33.6507C174.637 33.5856 173.585 33.8313 172.668 34.3575C171.751 34.8837 171.008 35.6672 170.531 36.6112L173.088 37.6807C173.347 37.2147 173.735 36.8336 174.205 36.5833C174.675 36.333 175.208 36.2243 175.739 36.2702C176.107 36.2272 176.48 36.2579 176.836 36.3606C177.192 36.4632 177.524 36.6357 177.812 36.868C178.101 37.1003 178.34 37.3878 178.516 37.7136C178.693 38.0394 178.802 38.397 178.839 38.7657V38.9517C177.907 38.4617 176.869 38.2064 175.817 38.2077C173.058 38.2077 170.237 39.7577 170.237 42.5787C170.264 43.1783 170.411 43.7663 170.67 44.3078C170.929 44.8493 171.294 45.3332 171.744 45.7308C172.194 46.1284 172.719 46.4316 173.288 46.6223C173.857 46.8131 174.459 46.8875 175.057 46.8412C175.784 46.8814 176.509 46.7275 177.158 46.3952C177.806 46.0629 178.354 45.5642 178.746 44.9502H178.839V46.5002H181.629V39.0447C181.629 35.6502 179.056 33.6817 175.754 33.6817L175.692 33.6507ZM175.336 44.2682C174.391 44.2682 173.073 43.7877 173.073 42.6252C173.073 41.0752 174.716 40.5482 176.173 40.5482C177.094 40.5255 178.004 40.7503 178.808 41.1992C178.711 42.0409 178.312 42.8189 177.685 43.3889C177.058 43.9589 176.245 44.2823 175.398 44.2992L175.336 44.2682ZM191.797 34.1002L188.48 42.5012H188.387L184.946 34.1002H181.846L187.007 45.8492L184.063 52.3747H187.085L195.021 34.1002H191.797ZM165.757 46.5002H168.64V27.1252H165.757V46.5002Z" fill="white"/>
<path d="M16.182 11.6871C15.6712 12.291 15.4106 13.0673 15.4535 13.8571V48.1431C15.4008 48.9342 15.6626 49.7141 16.182 50.3131L16.2905 50.4371L35.495 31.2326V30.7676L16.2905 11.5786L16.182 11.6871Z" fill="url(#paint0_linear_1_464)"/>
<path d="M41.85 37.6342L35.495 31.2327V30.7677L41.85 24.3662L41.9895 24.4592L49.6 28.7682C51.77 29.9927 51.77 32.0077 49.6 33.2477L42.0205 37.5567L41.85 37.6342Z" fill="url(#paint1_linear_1_464)"/>
<path d="M42.036 37.541L35.495 31L16.182 50.313C16.62 50.7029 17.1806 50.9272 17.7666 50.947C18.3527 50.9668 18.9272 50.7809 19.3905 50.4215L42.036 37.541" fill="url(#paint2_linear_1_464)"/>
<path d="M42.036 24.459L19.3905 11.594C18.9302 11.2296 18.3561 11.0392 17.7693 11.0562C17.1825 11.0732 16.6204 11.2966 16.182 11.687L35.495 31L42.036 24.459Z" fill="url(#paint3_linear_1_464)"/>
<path opacity="0.2" d="M41.85 37.4014L19.3905 50.1889C18.944 50.5258 18.3999 50.7081 17.8405 50.7081C17.2811 50.7081 16.737 50.5258 16.2905 50.1889V50.1889L16.182 50.2974L16.2905 50.4214C16.737 50.7583 17.2811 50.9406 17.8405 50.9406C18.3999 50.9406 18.944 50.7583 19.3905 50.4214L42.036 37.5409L41.85 37.4014Z" fill="black"/>
<path opacity="0.12" d="M16.182 50.0961C15.6841 49.4814 15.4401 48.6995 15.5 47.9106V48.1431C15.4473 48.9342 15.7091 49.7141 16.2285 50.3131L16.337 50.2046L16.182 50.0961Z" fill="black"/>
<path opacity="0.12" d="M49.6 33.015L41.85 37.4015L41.9895 37.541L49.6 33.232C50.0492 33.042 50.4389 32.7345 50.7281 32.3417C51.0172 31.9489 51.1951 31.4854 51.243 31C51.1461 31.4411 50.9469 31.8532 50.6615 32.2032C50.3761 32.5532 50.0125 32.8313 49.6 33.015Z" fill="black"/>
<path opacity="0.25" d="M19.3905 11.8109L49.6 28.9849C50.0126 29.1686 50.3762 29.4467 50.6615 29.7967C50.9469 30.1467 51.1461 30.5588 51.243 30.9999C51.1951 30.5145 51.0172 30.051 50.7281 29.6582C50.4389 29.2654 50.0492 28.9579 49.6 28.7679L19.3905 11.5939C17.236 10.3539 15.4535 11.3769 15.4535 13.8569V14.0894C15.5 11.6094 17.236 10.5864 19.3905 11.8109Z" fill="white"/>
</g>
<defs>
<linearGradient id="paint0_linear_1_464" x1="33.79" y1="13.5006" x2="7.781" y2="39.5096" gradientUnits="userSpaceOnUse">
<stop stop-color="#00A0FF"/>
<stop offset="0.01" stop-color="#00A1FF"/>
<stop offset="0.26" stop-color="#00BEFF"/>
<stop offset="0.51" stop-color="#00D2FF"/>
<stop offset="0.76" stop-color="#00DFFF"/>
<stop offset="1" stop-color="#00E3FF"/>
</linearGradient>
<linearGradient id="paint1_linear_1_464" x1="52.4365" y1="31.0002" x2="14.942" y2="31.0002" gradientUnits="userSpaceOnUse">
<stop stop-color="#FFE000"/>
<stop offset="0.41" stop-color="#FFBD00"/>
<stop offset="0.78" stop-color="#FFA500"/>
<stop offset="1" stop-color="#FF9C00"/>
</linearGradient>
<linearGradient id="paint2_linear_1_464" x1="38.4865" y1="34.565" x2="3.2085" y2="69.8275" gradientUnits="userSpaceOnUse">
<stop stop-color="#FF3A44"/>
<stop offset="1" stop-color="#C31162"/>
</linearGradient>
<linearGradient id="paint3_linear_1_464" x1="11.315" y1="0.279029" x2="27.063" y2="16.027" gradientUnits="userSpaceOnUse">
<stop stop-color="#32A071"/>
<stop offset="0.07" stop-color="#2DA771"/>
<stop offset="0.48" stop-color="#15CF74"/>
<stop offset="0.8" stop-color="#06E775"/>
<stop offset="1" stop-color="#00F076"/>
</linearGradient>
<clipPath id="clip0_1_464">
<rect width="209.25" height="62" fill="white"/>
</clipPath>
</defs>
</svg>
