<svg width="50" height="50" viewBox="0 0 50 50" fill="none" xmlns="http://www.w3.org/2000/svg">
<path d="M8.33333 37.5001C8.33333 35.2899 9.2113 33.1703 10.7741 31.6075C12.3369 30.0447 14.4565 29.1667 16.6667 29.1667H33.3333C35.5435 29.1667 37.6631 30.0447 39.2259 31.6075C40.7887 33.1703 41.6667 35.2899 41.6667 37.5001C41.6667 38.6051 41.2277 39.665 40.4463 40.4464C39.6649 41.2278 38.6051 41.6667 37.5 41.6667H12.5C11.3949 41.6667 10.3351 41.2278 9.55372 40.4464C8.77231 39.665 8.33333 38.6051 8.33333 37.5001Z" stroke="white" stroke-width="4.16667" stroke-linejoin="round"/>
<path d="M25 20.8334C28.4518 20.8334 31.25 18.0352 31.25 14.5834C31.25 11.1316 28.4518 8.33337 25 8.33337C21.5482 8.33337 18.75 11.1316 18.75 14.5834C18.75 18.0352 21.5482 20.8334 25 20.8334Z" stroke="white" stroke-width="4.16667"/>
</svg>
