<svg width="50" height="50" viewBox="0 0 50 50" fill="none" xmlns="http://www.w3.org/2000/svg">
<path d="M6.05415 36.4687L11.1187 7.74581C11.2136 7.2068 11.4137 6.69176 11.7076 6.23011C12.0016 5.76845 12.3836 5.36922 12.8318 5.05523C13.2801 4.74124 13.7858 4.51863 14.3201 4.40012C14.8544 4.28162 15.4068 4.26953 15.9458 4.36456L40.5667 8.70831C41.6548 8.90035 42.6222 9.5168 43.2559 10.422C43.8896 11.3273 44.1378 12.4472 43.9458 13.5354L38.8812 42.2583C38.7864 42.7973 38.5863 43.3124 38.2923 43.774C37.9984 44.2357 37.6164 44.6349 37.1681 44.9489C36.7199 45.2629 36.2142 45.4855 35.6799 45.604C35.1455 45.7225 34.5931 45.7346 34.0542 45.6396L9.43332 41.2958C8.34512 41.1038 7.37778 40.4873 6.74407 39.5821C6.11036 38.6768 5.86219 37.5569 6.05415 36.4687Z" stroke="white" stroke-width="3.125"/>
<path d="M18.6021 13.2958L35.0166 16.1895M17.1541 21.502L33.5687 24.3979M15.7083 29.7083L25.9666 31.5187" stroke="white" stroke-width="3.125" stroke-linecap="round"/>
</svg>
