<?xml version="1.0" encoding="utf-8"?><svg viewBox="0 0 106 124" xmlns="http://www.w3.org/2000/svg" xmlns:xlink="http://www.w3.org/1999/xlink"><style>:root>svg{display:none}:root>svg:target{display:block}</style><svg viewBox="0 0 32 32" id="menu-close" xmlns="http://www.w3.org/2000/svg"><path fill-rule="evenodd" clip-rule="evenodd" d="M9.293 9.293a1 1 0 011.414 0l12 12a1 1 0 01-1.414 1.414l-12-12a1 1 0 010-1.414z"/><path fill-rule="evenodd" clip-rule="evenodd" d="M22.707 9.293a1 1 0 010 1.414l-12 12a1 1 0 11-1.414-1.414l12-12a1 1 0 011.414 0z"/></svg><svg viewBox="0 0 32 32" id="menu-open" xmlns="http://www.w3.org/2000/svg"><path d="M5.333 24h21.334C27.4 24 28 23.4 28 22.667c0-.734-.6-1.334-1.333-1.334H5.333c-.733 0-1.333.6-1.333 1.334C4 23.4 4.6 24 5.333 24zm0-6.667h21.334c.733 0 1.333-.6 1.333-1.333s-.6-1.333-1.333-1.333H5.333C4.6 14.667 4 15.267 4 16s.6 1.333 1.333 1.333zM4 9.333c0 .734.6 1.334 1.333 1.334h21.334c.733 0 1.333-.6 1.333-1.334C28 8.6 27.4 8 26.667 8H5.333C4.6 8 4 8.6 4 9.333z"/></svg><svg viewBox="0 0 106 124" id="scroll-down" xmlns="http://www.w3.org/2000/svg"><path fill-rule="evenodd" clip-rule="evenodd" d="M38.058 28.065c0 8.132 6.39 14.763 14.276 14.763S66.61 36.197 66.61 28.065V14.721C66.61 6.589 60.22 0 52.334 0S38.058 6.589 38.058 14.72v13.345zm3.438-13.344c0-6.172 4.853-11.176 10.838-11.176 5.985 0 10.838 5.004 10.838 11.176v13.344c0 6.172-4.853 11.176-10.838 11.176-5.985 0-10.838-5.004-10.838-11.176V14.721zm8.459 1.025c0 1.171 1.106 2.099 2.379 2.099 1.328 0 2.38-.927 2.38-2.099v-5.32c0-1.171-1.052-2.098-2.38-2.098-1.328 0-2.38.976-2.38 2.098v5.32zm-8.798 46.279v13.32h2.538v-13.32h-2.538zm-36.819 2.61c-.504 0-.918.132-1.242.396-.312.252-.468.606-.468 1.062 0 .456.114.816.342 1.08.24.252.552.45.936.594.384.132.804.252 1.26.36.456.108.912.24 1.368.396a6.72 6.72 0 011.26.576c.384.228.69.564.918 1.008.24.432.36.96.36 1.584 0 1.032-.414 1.92-1.242 2.664-.816.744-1.908 1.116-3.276 1.116-1.356 0-2.454-.318-3.294-.954C.42 73.869 0 72.963 0 71.799h2.7c.096 1.104.726 1.656 1.89 1.656.576 0 1.032-.15 1.368-.45.336-.3.504-.696.504-1.188 0-.504-.222-.9-.666-1.188-.444-.288-.984-.504-1.62-.648a23.462 23.462 0 01-1.89-.522 3.579 3.579 0 01-1.62-1.062C.222 67.88 0 67.203 0 66.363c0-1.14.414-2.052 1.242-2.736.828-.684 1.89-1.026 3.186-1.026 1.308 0 2.358.3 3.15.9.792.588 1.224 1.488 1.296 2.7H6.102c-.048-.48-.228-.858-.54-1.134-.312-.288-.72-.432-1.224-.432zm7.83 9.45c-.912-.936-1.368-2.178-1.368-3.726s.456-2.79 1.368-3.726c.912-.936 2.094-1.404 3.546-1.404 1.212 0 2.226.294 3.042.882.816.588 1.362 1.422 1.638 2.502h-2.736c-.324-.828-.972-1.242-1.944-1.242-.732 0-1.308.27-1.728.81-.408.528-.612 1.254-.612 2.178 0 .924.204 1.656.612 2.196.42.528.996.792 1.728.792.96 0 1.608-.42 1.944-1.26h2.736c-.288 1.044-.846 1.872-1.674 2.484-.816.612-1.818.918-3.006.918-1.452 0-2.634-.468-3.546-1.404zm12.665-6.948v-1.764h-2.538v9.972h2.538V70.34c0-.924.192-1.572.576-1.944.384-.384.954-.576 1.71-.576h.63v-2.592c-1.272 0-2.244.636-2.916 1.908zm9.15 6.21a2.45 2.45 0 001.818-.774c.516-.528.774-1.266.774-2.214 0-.96-.252-1.698-.756-2.214a2.47 2.47 0 00-1.836-.774c-.708 0-1.308.258-1.8.774s-.738 1.254-.738 2.214.246 1.698.738 2.214a2.393 2.393 0 001.8.774zm-3.654.72c-.972-.948-1.458-2.19-1.458-3.726s.492-2.772 1.476-3.708c.984-.936 2.202-1.404 3.654-1.404 1.464 0 2.688.468 3.672 1.404.984.936 1.476 2.172 1.476 3.708s-.498 2.778-1.494 3.726c-.984.948-2.208 1.422-3.672 1.422s-2.682-.474-3.654-1.422zm16.066 1.278v-13.32h2.538v13.32h-2.538zm17.78-4.986c0 .912-.263 1.632-.791 2.16-.528.516-1.146.774-1.854.774-.696 0-1.308-.264-1.836-.792s-.792-1.248-.792-2.16c0-.912.258-1.626.774-2.142.528-.516 1.146-.774 1.854-.774.708 0 1.326.264 1.854.792.528.516.792 1.23.792 2.142zm-7.847-.018c0 1.5.444 2.736 1.332 3.708.9.96 2.022 1.44 3.366 1.44 1.344 0 2.394-.606 3.15-1.818v1.674h2.52v-13.32h-2.52v4.896c-.72-1.128-1.764-1.692-3.132-1.692s-2.496.48-3.384 1.44c-.888.948-1.332 2.172-1.332 3.672zm17.487 3.006a2.45 2.45 0 001.818-.774c.516-.528.774-1.266.774-2.214 0-.96-.252-1.698-.756-2.214a2.47 2.47 0 00-1.836-.774c-.708 0-1.308.258-1.8.774s-.738 1.254-.738 2.214.246 1.698.738 2.214a2.393 2.393 0 001.8.774zm-3.654.72c-.972-.948-1.458-2.19-1.458-3.726s.492-2.772 1.476-3.708c.984-.936 2.202-1.404 3.654-1.404 1.464 0 2.688.468 3.672 1.404.984.936 1.476 2.172 1.476 3.708s-.498 2.778-1.494 3.726c-.984.948-2.208 1.422-3.672 1.422s-2.682-.474-3.654-1.422zm24.562-8.694h-2.43l-1.836 7.56-1.8-7.56h-2.664l-1.836 7.578-1.836-7.578h-2.556l3.06 9.972h2.7l1.728-6.696 1.71 6.696h2.7l3.06-9.972zm3.991 0v1.494c.636-1.092 1.668-1.638 3.096-1.638 1.14 0 2.07.378 2.79 1.134.72.744 1.08 1.782 1.08 3.114v5.868h-2.52v-5.508c0-.78-.198-1.374-.594-1.782-.396-.42-.936-.63-1.62-.63s-1.23.21-1.638.63c-.396.408-.594 1.002-.594 1.782v5.508h-2.538v-9.972h2.538zm-45.277 58.164l5.588-5.522c.543-.568.543-1.483-.032-2.019-.574-.536-1.469-.536-2.012 0l-3.097 3.06V97.42c0-.789-.67-1.42-1.47-1.42-.798 0-1.436.631-1.436 1.42v21.636l-3.098-3.06c-.575-.536-1.501-.536-2.044.032-.543.567-.543 1.451 0 1.987l5.589 5.522c.543.568 1.437.631 2.012.094 0-.01.003-.017.007-.024.007-.014.014-.028-.007-.07z"/></svg></svg>