<svg width="106" height="124" viewBox="0 0 106 124" xmlns="http://www.w3.org/2000/svg">
<path fill-rule="evenodd" clip-rule="evenodd" d="M38.0581 28.0652C38.0581 36.197 44.4479 42.8276 52.334 42.8276C60.2201 42.8276 66.6098 36.197 66.6098 28.0652V14.7207C66.6098 6.58886 60.2201 0 52.334 0C44.4479 0 38.0581 6.58886 38.0581 14.7207V28.0652ZM41.4956 14.7207C41.4956 8.54884 46.3486 3.54464 52.334 3.54464C58.3193 3.54464 63.1723 8.54884 63.1723 14.7207V28.0652C63.1723 34.237 58.3193 39.2412 52.334 39.2412C46.3486 39.2412 41.4956 34.237 41.4956 28.0652V14.7207ZM49.9547 15.7462C49.9547 16.9175 51.0613 17.8448 52.334 17.8448C53.662 17.8448 54.7133 16.9175 54.7133 15.7462V10.4263C54.7133 9.25491 53.662 8.32759 52.334 8.32759C51.006 8.32759 49.9547 9.30371 49.9547 10.4263V15.7462ZM41.1567 62.0249V75.3449H43.6947V62.0249H41.1567ZM4.338 64.6349C3.834 64.6349 3.42 64.7669 3.096 65.0309C2.784 65.2829 2.628 65.6369 2.628 66.0929C2.628 66.5489 2.742 66.9089 2.97 67.1729C3.21 67.4249 3.522 67.6229 3.906 67.7669C4.29 67.8989 4.71 68.0189 5.166 68.1269C5.622 68.2349 6.078 68.3669 6.534 68.5229C6.99 68.6789 7.41 68.8709 7.794 69.0989C8.178 69.3269 8.484 69.6629 8.712 70.1069C8.952 70.5389 9.072 71.0669 9.072 71.6909C9.072 72.7229 8.658 73.6109 7.83 74.3549C7.014 75.0989 5.922 75.4709 4.554 75.4709C3.198 75.4709 2.1 75.1529 1.26 74.5169C0.419998 73.8689 0 72.9629 0 71.7989H2.7C2.796 72.9029 3.426 73.4549 4.59 73.4549C5.166 73.4549 5.622 73.3049 5.958 73.0049C6.294 72.7049 6.462 72.3089 6.462 71.8169C6.462 71.3129 6.24 70.9169 5.796 70.6289C5.352 70.3409 4.812 70.1249 4.176 69.9809C3.552 69.8369 2.922 69.6629 2.286 69.4589C1.65 69.2549 1.11 68.9009 0.665997 68.3969C0.221997 67.8809 0 67.2029 0 66.3629C0 65.2229 0.413997 64.3109 1.242 63.6269C2.07 62.9429 3.132 62.6009 4.428 62.6009C5.736 62.6009 6.786 62.9009 7.578 63.5009C8.37 64.0889 8.802 64.9889 8.874 66.2009H6.102C6.054 65.7209 5.874 65.3429 5.562 65.0669C5.25 64.7789 4.842 64.6349 4.338 64.6349ZM12.1684 74.0849C11.2564 73.1489 10.8004 71.9069 10.8004 70.3589C10.8004 68.8109 11.2564 67.5689 12.1684 66.6329C13.0804 65.6969 14.2624 65.2289 15.7144 65.2289C16.9264 65.2289 17.9404 65.5229 18.7564 66.1109C19.5724 66.6989 20.1184 67.5329 20.3944 68.6129H17.6584C17.3344 67.7849 16.6864 67.3709 15.7144 67.3709C14.9824 67.3709 14.4064 67.6409 13.9864 68.1809C13.5784 68.7089 13.3744 69.4349 13.3744 70.3589C13.3744 71.2829 13.5784 72.0149 13.9864 72.5549C14.4064 73.0829 14.9824 73.3469 15.7144 73.3469C16.6744 73.3469 17.3224 72.9269 17.6584 72.0869H20.3944C20.1064 73.1309 19.5484 73.9589 18.7204 74.5709C17.9044 75.1829 16.9024 75.4889 15.7144 75.4889C14.2624 75.4889 13.0804 75.0209 12.1684 74.0849ZM24.8334 67.1369V65.3729H22.2954V75.3449H24.8334V70.3409C24.8334 69.4169 25.0254 68.7689 25.4094 68.3969C25.7934 68.0129 26.3634 67.8209 27.1194 67.8209H27.7494V65.2289C26.4774 65.2289 25.5054 65.8649 24.8334 67.1369ZM33.9832 73.3469C34.6912 73.3469 35.2972 73.0889 35.8012 72.5729C36.3172 72.0449 36.5752 71.3069 36.5752 70.3589C36.5752 69.3989 36.3232 68.6609 35.8192 68.1449C35.3152 67.6289 34.7032 67.3709 33.9832 67.3709C33.2752 67.3709 32.6752 67.6289 32.1832 68.1449C31.6912 68.6609 31.4452 69.3989 31.4452 70.3589C31.4452 71.3189 31.6912 72.0569 32.1832 72.5729C32.6752 73.0889 33.2752 73.3469 33.9832 73.3469ZM30.3292 74.0669C29.3572 73.1189 28.8712 71.8769 28.8712 70.3409C28.8712 68.8049 29.3632 67.5689 30.3472 66.6329C31.3312 65.6969 32.5492 65.2289 34.0012 65.2289C35.4652 65.2289 36.6892 65.6969 37.6732 66.6329C38.6572 67.5689 39.1492 68.8049 39.1492 70.3409C39.1492 71.8769 38.6511 73.1189 37.6552 74.0669C36.6712 75.0149 35.4472 75.4889 33.9832 75.4889C32.5192 75.4889 31.3012 75.0149 30.3292 74.0669ZM46.395 75.3449V62.0249H48.933V75.3449H46.395ZM64.1758 70.3589C64.1758 71.2709 63.9118 71.9909 63.3838 72.5189C62.8558 73.0349 62.2378 73.2929 61.5298 73.2929C60.8338 73.2929 60.2218 73.0289 59.6938 72.5009C59.1658 71.9729 58.9018 71.2529 58.9018 70.3409C58.9018 69.4289 59.1598 68.7149 59.6758 68.1989C60.2038 67.6829 60.8218 67.4249 61.5298 67.4249C62.2378 67.4249 62.8558 67.6889 63.3838 68.2169C63.9118 68.7329 64.1758 69.4469 64.1758 70.3589ZM56.3278 70.3409C56.3278 71.8409 56.7718 73.0769 57.6598 74.0489C58.5598 75.0089 59.6818 75.4889 61.0258 75.4889C62.3698 75.4889 63.4198 74.8829 64.1758 73.6709V75.3449H66.6958V62.0249H64.1758V66.9209C63.4558 65.7929 62.4118 65.2289 61.0438 65.2289C59.6758 65.2289 58.5478 65.7089 57.6598 66.6689C56.7718 67.6169 56.3278 68.8409 56.3278 70.3409ZM73.8152 73.3469C74.5232 73.3469 75.1292 73.0889 75.6332 72.5729C76.1492 72.0449 76.4072 71.3069 76.4072 70.3589C76.4072 69.3989 76.1552 68.6609 75.6512 68.1449C75.1472 67.6289 74.5352 67.3709 73.8152 67.3709C73.1072 67.3709 72.5072 67.6289 72.0152 68.1449C71.5232 68.6609 71.2772 69.3989 71.2772 70.3589C71.2772 71.3189 71.5232 72.0569 72.0152 72.5729C72.5072 73.0889 73.1072 73.3469 73.8152 73.3469ZM70.1612 74.0669C69.1892 73.1189 68.7032 71.8769 68.7032 70.3409C68.7032 68.8049 69.1952 67.5689 70.1792 66.6329C71.1632 65.6969 72.3812 65.2289 73.8332 65.2289C75.2972 65.2289 76.5212 65.6969 77.5052 66.6329C78.4892 67.5689 78.9812 68.8049 78.9812 70.3409C78.9812 71.8769 78.4832 73.1189 77.4872 74.0669C76.5032 75.0149 75.2792 75.4889 73.8152 75.4889C72.3512 75.4889 71.1332 75.0149 70.1612 74.0669ZM94.7228 65.3729H92.2927L90.4567 72.9329L88.6567 65.3729H85.9928L84.1567 72.9509L82.3207 65.3729H79.7647L82.8247 75.3449H85.5247L87.2527 68.6489L88.9627 75.3449H91.6627L94.7228 65.3729ZM98.7143 65.3729V66.8669C99.3503 65.7749 100.382 65.2289 101.81 65.2289C102.95 65.2289 103.88 65.6069 104.6 66.3629C105.32 67.1069 105.68 68.1449 105.68 69.4769V75.3449H103.16V69.8369C103.16 69.0569 102.962 68.4629 102.566 68.0549C102.17 67.6349 101.63 67.4249 100.946 67.4249C100.262 67.4249 99.7162 67.6349 99.3083 68.0549C98.9122 68.4629 98.7143 69.0569 98.7143 69.8369V75.3449H96.1763V65.3729H98.7143ZM53.4366 123.537L59.0254 118.015C59.5683 117.447 59.5683 116.532 58.9935 115.996C58.4187 115.46 57.5244 115.46 56.9815 115.996L53.8837 119.056L53.8838 97.4201C53.8838 96.6313 53.2131 96.0002 52.4147 96.0002C51.6163 96.0002 50.9776 96.6313 50.9776 97.4201L50.9776 119.056L47.8798 115.996C47.3049 115.46 46.3788 115.46 45.8359 116.028C45.293 116.595 45.293 117.479 45.8359 118.015L51.4247 123.537C51.9676 124.105 52.8618 124.168 53.4366 123.631C53.4366 123.621 53.4402 123.614 53.4437 123.607C53.4508 123.593 53.4579 123.579 53.4366 123.537Z"/>
</svg>